<?xml version="1.0" encoding="utf-8"?>
<!-- Generator: Adobe Illustrator 19.1.1, SVG Export Plug-In . SVG Version: 6.00 Build 0)  -->
<svg version="1.1" xmlns="http://www.w3.org/2000/svg" xmlns:xlink="http://www.w3.org/1999/xlink" x="0px" y="0px"
	 viewBox="0 0 100 100" style="enable-background:new 0 0 100 100;" xml:space="preserve">
<style type="text/css">
	.st0{display:none;}
	.st1{display:inline;fill:#2173A2;}
	.st2{fill:#838788;}
	.st3{fill:#933132;}
	.st4{fill:#774393;}
	.st5{fill-rule:evenodd;clip-rule:evenodd;fill:#0A8D56;}
	.st6{fill:#2173A2;}
	.st7{fill:#FFFFFF;}
	.st8{fill-rule:evenodd;clip-rule:evenodd;fill:#838788;}
	.st9{fill:#0A8D56;}
	.st10{fill:#DB9528;}
</style>
<g id="Layer_2" class="st0">
	<rect id="XMLID_155_" x="-135.2" y="-7" class="st1" width="369.8" height="255.5"/>
</g>
<g id="Layer_1">
	<path id="XMLID_40_" class="st7" d="M49.3,0C22.1,0,0,22.1,0,49.3c0,27.2,22.1,49.3,49.3,49.3c27.2,0,49.3-22.1,49.3-49.3
		C98.5,22.1,76.5,0,49.3,0z M72,67.4c-24,16.8-44,0-44,0V49.8l21.9,12.6l1.2,0.8l1.4-0.9L72,49.2V67.4z M50.9,60.3L27.6,46.9
		l22.2-10.3l-25.8,8v0.1V56h-0.2L25,69.1c0,0-1.1,1-2.8,1c-0.8,0-1.8-0.1-2.9-0.9l1-13.2H20V42.8l-3.9-2.4l33.5-19.9l33.4,18
		L50.9,60.3z"/>
</g>
</svg>
