<?xml version="1.0" encoding="utf-8"?>
<!-- Generator: Adobe Illustrator 19.1.1, SVG Export Plug-In . SVG Version: 6.00 Build 0)  -->
<svg version="1.1" xmlns="http://www.w3.org/2000/svg" xmlns:xlink="http://www.w3.org/1999/xlink" x="0px" y="0px"
	 viewBox="0 0 100 100" style="enable-background:new 0 0 100 100;" xml:space="preserve">
<style type="text/css">
	.st0{display:none;}
	.st1{display:inline;fill:#2173A2;}
	.st2{fill:#838788;}
	.st3{fill:#933132;}
	.st4{fill:#774393;}
	.st5{fill-rule:evenodd;clip-rule:evenodd;fill:#0A8D56;}
	.st6{fill:#2173A2;}
	.st7{fill:#FFFFFF;}
	.st8{fill-rule:evenodd;clip-rule:evenodd;fill:#838788;}
	.st9{fill:#0A8D56;}
	.st10{fill:#DB9528;}
</style>
<g id="Layer_2" class="st0">
	<rect id="XMLID_155_" x="-135.2" y="-7" class="st1" width="369.8" height="255.5"/>
</g>
<g id="Layer_1">
	<g id="XMLID_403_">
		<path id="XMLID_404_" class="st2" d="M166.1-45.6c-9.5,0-17.2-7.7-17.2-17.2S156.6-80,166.1-80c9.5,0,17.2,7.7,17.2,17.2
			S175.6-45.6,166.1-45.6z M166.1-77c-7.8,0-14.2,6.4-14.2,14.2s6.4,14.2,14.2,14.2c7.8,0,14.2-6.4,14.2-14.2S173.9-77,166.1-77z"/>
	</g>
	<g id="XMLID_398_">
		<path id="XMLID_399_" class="st3" d="M265.5-45.6c-9.5,0-17.2-7.7-17.2-17.2S256-80,265.5-80c9.5,0,17.2,7.7,17.2,17.2
			S274.9-45.6,265.5-45.6z M265.5-77c-7.8,0-14.2,6.4-14.2,14.2s6.4,14.2,14.2,14.2c7.8,0,14.2-6.4,14.2-14.2S273.3-77,265.5-77z"/>
	</g>
	<g id="XMLID_394_">
		<path id="XMLID_395_" class="st4" d="M375.1-12.8c-9.5,0-17.2-7.7-17.2-17.2s7.7-17.2,17.2-17.2c9.5,0,17.2,7.7,17.2,17.2
			S384.5-12.8,375.1-12.8z M375.1-44.1c-7.8,0-14.2,6.4-14.2,14.2s6.4,14.2,14.2,14.2c7.8,0,14.2-6.4,14.2-14.2
			S382.9-44.1,375.1-44.1z"/>
	</g>
	<g id="XMLID_391_">
		<path id="XMLID_392_" class="st5" d="M-132.4-21.7c0-1.8,0-3.6,0-5.4c1.8,0,3.6,0,5.5,0c0-2,0-4,0-5.9c-1.8,0-3.6,0-5.5,0
			c0-1.8,0-3.6,0-5.4c-2,0-4,0-5.9,0c0,1.8,0,3.6,0,5.4c-1.8,0-3.6,0-5.4,0c0,2,0,4,0,5.9c1.8,0,3.6,0,5.4,0c0,1.8,0,3.6,0,5.4
			C-136.3-21.7-134.3-21.7-132.4-21.7z"/>
	</g>
	<g id="XMLID_385_">
		<path id="XMLID_390_" class="st6" d="M-32.5-25.6l-0.4-0.2l-7-4v5.6c0,0,6.5,5.3,14,0V-30l-6.1,4.2L-32.5-25.6z"/>
		<path id="XMLID_389_" class="st6" d="M-22.4-33.4L-33-39.1l-10.6,6.3l1.3,0.8v4.1h-0.1l-0.3,4.2c0.3,0.3,0.6,0.3,0.9,0.3
			c0.5,0,0.9-0.3,0.9-0.3l-0.4-4.2h0v-3.5l0,0v0L-33-34l-7,3.3l7.4,4.3L-22.4-33.4z"/>
		<path id="XMLID_386_" class="st7" d="M-22-34.1l-10.6-5.7L-33-40l-0.4,0.2L-44-33.5l-1.2,0.7l1.2,0.7l0.9,0.5v2.9l-0.1,0.7
			l-0.3,4.2l0,0.4l0.3,0.3c0.4,0.3,0.9,0.5,1.4,0.5c0.8,0,1.4-0.5,1.4-0.6l0.3-0.3l0-0.4l-0.4-4.2l0-0.3v-1.8l0.1,0l0.4,0.2l7,4
			l0.4,0.2l0.4-0.3L-26-30l4.1-2.8 M-40-30.7l7-3.3l-8.2,2.5v0l0,0v3.5h0l0.4,4.2c0,0-0.4,0.3-0.9,0.3c-0.3,0-0.6-0.1-0.9-0.3
			l0.3-4.2h0.1V-32l-1.3-0.8l10.6-6.3l10.6,5.7l-10.2,6.9L-40-30.7z"/>
	</g>
	<g id="XMLID_383_">
		<path id="XMLID_384_" class="st2" d="M165.8-52.9l-0.1-1.2c6.8-1.2,6.9-7.4,6.9-7.6v-7.2l-6.9-1.5l0.2-1.3l8.2,1.8v8.2
			C173.9-61.7,173.7-54.3,165.8-52.9z"/>
	</g>
	<g id="XMLID_380_">
		<path id="XMLID_382_" class="st8" d="M158.3-61.8c0,0,0,7.5,7.5,8.9v-15.7l-7.5,1.6V-61.8z"/>
		<polygon id="XMLID_381_" class="st8" points="165.8,-70.4 165.8,-71.8 158.3,-70 158.3,-68.7 		"/>
	</g>
	<g id="XMLID_378_">
		<polyline id="XMLID_379_" class="st2" points="165.8,-68.6 173.7,-66.8 173.7,-65.1 165.8,-66.8 		"/>
	</g>
	<g id="XMLID_373_">
		<path id="XMLID_377_" class="st7" d="M-71.5,196.9C-50.3,193-50,173.7-50,172.8v-11.3l-21.5-4.5V196.9z"/>
		<path id="XMLID_374_" class="st7" d="M-70.4,120c-27.4,0-49.6,22.2-49.6,49.6c0,27.4,22.2,49.6,49.6,49.6
			c27.4,0,49.6-22.2,49.6-49.6C-20.7,142.2-43,120-70.4,120z M-45.6,172.8c0,0.2-0.7,23.8-25.9,28.1c-23.7-4.4-23.7-28.2-23.7-28.2
			v-16.4l23.7-5.1L-50,156v-5.9l-21.5-4.6l-23.7,5.4v-4.3l23.7-5.4l25.9,5.6V172.8z"/>
	</g>
	<path id="XMLID_355_" class="st3" d="M265.4-72.7c-4.7,0-8.5,3.8-8.5,8.5c0,4.7,3.8,8.5,8.5,8.5c4.7,0,8.5-3.8,8.5-8.5
		C273.9-68.9,270.1-72.7,265.4-72.7z M258-63.6h2.5c0.1,1.1,0.5,2.2,1,3.3h-2.4C258.5-61.2,258.1-62.3,258-63.6z M269.3-65.2
		c0,0.2,0,0.4,0,0.6h-3.4v-3.2h2.6C268.9-67,269.2-66.2,269.3-65.2z M265.9-68.8v-2.4c0.6,0.5,1.4,1.3,2.1,2.4H265.9z M264.9-71.2
		v2.4h-2.1C263.5-69.9,264.3-70.7,264.9-71.2z M264.9-67.8v3.2h-3.4c0-0.2,0-0.4,0-0.6c0.1-0.9,0.4-1.8,0.7-2.6H264.9z M260.5-65.3
		c0,0.2,0,0.5,0,0.7H258c0-1.1,0.4-2.2,0.9-3.2h2.3C260.9-67,260.6-66.2,260.5-65.3z M261.6-63.6h3.3v3.3h-2.2
		C262.1-61.4,261.7-62.5,261.6-63.6z M264.9-59.2v1.9c-0.6-0.6-1.1-1.3-1.6-1.9H264.9z M265.9-59.2h1.6c-0.4,0.6-1,1.3-1.6,1.9
		V-59.2z M265.9-60.2v-3.3h3.3c-0.1,1.1-0.5,2.2-1.1,3.3H265.9z M270.3-63.6h2.5c-0.1,1.2-0.5,2.4-1.2,3.3h-2.4
		C269.8-61.3,270.2-62.5,270.3-63.6z M270.3-64.6c0-0.2,0-0.5,0-0.7c-0.1-0.9-0.3-1.7-0.6-2.5h2.3c0.5,1,0.8,2,0.9,3.2H270.3z
		 M271.3-68.8h-2.1c-0.6-1.2-1.5-2.1-2.1-2.7C268.8-71.1,270.3-70.2,271.3-68.8z M263.8-71.5c-0.7,0.7-1.5,1.6-2.1,2.7h-2.1
		C260.6-70.2,262.1-71.1,263.8-71.5z M259.9-59.2h2.2c0.5,0.7,1,1.5,1.7,2.2C262.3-57.3,261-58.1,259.9-59.2z M267.1-57
		c0.6-0.7,1.2-1.5,1.7-2.2h2.2C269.9-58.1,268.6-57.3,267.1-57z"/>
	<g id="XMLID_349_">
		<path id="XMLID_354_" class="st3" d="M268.7-52.3c-0.4,0-1.1-0.1-1.5-1l-0.2,0.6l-0.3-0.1c-0.4-0.1-0.8-0.1-1.2-0.2
			c-0.4,0.1-0.9,0.2-1.2,0.2l-0.3,0.1l-0.2-0.6c-0.4,0.8-1.1,1-1.5,1c-1,0-2-0.7-2.1-0.7l-0.3-0.2l0.2-0.3c0,0,0.2-0.3,0.4-0.6
			c-0.2,0.1-0.3,0.1-0.5,0.1c-0.9,0-1.8-0.8-1.8-0.9l-0.2-0.2l0.2-0.3c0,0,0.2-0.2,0.5-0.5c-0.2,0.1-0.4,0.1-0.5,0.1
			c-1,0-1.7-1.1-1.8-1.2l-0.2-0.3c0,0,0.3-0.2,0.3-0.3c-0.8-0.1-1.5-1-1.5-1.1l-0.2-0.3l0.3-0.2c0,0,0.3-0.2,0.7-0.4
			c-0.3-0.1-0.5-0.3-0.6-0.4c-0.6-0.7-0.2-2-0.2-2.2l0.1-0.3l0.3,0c0.2,0,1.6,0.1,2,0.9c0.1,0.1,0.1,0.2,0.1,0.4
			c0.1-0.1,0.2-0.2,0.2-0.2l0.3-0.2l0.2,0.2c0.1,0.1,0.9,0.9,0.9,1.7c0.1-0.1,0.2-0.1,0.2-0.2l0.3-0.2l0.2,0.2
			c0.1,0.1,0.8,0.8,0.9,1.6c0,0,0.2-0.3,0.2-0.3l0.3,0.2c0.1,0.1,0.8,0.6,1.1,1.2c0.2-0.4,0.4-0.6,0.5-0.7L263-58l0.3,0.2
			c0.2,0.1,1.6,1.1,1.6,2.2c0,0.2-0.1,0.6-0.3,0.9c0.3,0.1,0.6,0.2,0.9,0.3c0.3-0.1,0.6-0.2,0.9-0.3c-0.3-0.3-0.3-0.6-0.3-0.9
			c0-1.2,1.4-2.1,1.6-2.2L268-58l0.2,0.2c0.1,0.1,0.3,0.3,0.5,0.7c0.3-0.7,1-1.1,1.1-1.2l0.3-0.2c0,0,0.2,0.3,0.2,0.3
			c0.1-0.8,0.8-1.5,0.9-1.6l0.2-0.2l0.3,0.2c0,0,0.1,0.1,0.2,0.2c0-0.8,0.8-1.6,0.9-1.7l0.2-0.2l0.3,0.2c0,0,0.1,0.1,0.2,0.2
			c0-0.2,0.1-0.3,0.1-0.4c0.5-0.8,1.9-0.9,2-0.9l0.3,0l0.1,0.3c0,0.1,0.4,1.4-0.2,2.2c-0.1,0.2-0.3,0.3-0.6,0.4
			c0.4,0.2,0.6,0.4,0.7,0.4l0.3,0.2l-0.2,0.3c-0.1,0.1-0.7,1-1.5,1.1c0,0,0.3,0.3,0.3,0.3l-0.2,0.3c-0.1,0.1-0.9,1.2-1.8,1.2
			c-0.1,0-0.3,0-0.5-0.1c0.3,0.2,0.5,0.4,0.5,0.5l0.2,0.3l-0.2,0.2c-0.1,0.1-0.9,0.9-1.8,0.9c-0.1,0-0.3,0-0.5-0.1
			c0.2,0.3,0.4,0.5,0.4,0.6l0.2,0.3l-0.3,0.2C270.8-53,269.7-52.3,268.7-52.3z"/>
		<g id="XMLID_350_">
			<path id="XMLID_351_" class="st7" d="M275.7-62.1c0,0,0.7,2.2-0.9,2.2c-0.1,0-0.2,0-0.2,0c-0.1,0.1-0.2,0.3-0.3,0.4
				c0.7,0,1.4,0.6,1.4,0.6s-0.7,1-1.4,1c-0.3,0-0.6-0.1-0.8-0.5c-0.2,0.2-0.3,0.4-0.5,0.6c0.7,0.1,1.3,0.6,1.3,0.6s-0.7,1.1-1.5,1.1
				c-0.3,0-0.6-0.2-0.9-0.6c-0.2,0.2-0.5,0.4-0.7,0.6c0.7,0.2,1.3,0.9,1.3,0.9s-0.8,0.8-1.6,0.8c-0.4,0-0.8-0.2-1-0.8
				c-0.3,0.2-0.5,0.3-0.8,0.4c0.8,0.4,1.4,1.4,1.4,1.4s-1,0.7-1.9,0.7c-0.6,0-1.1-0.3-1.3-1.3c-0.1,0.1-0.3,0.1-0.4,0.2l-0.2,0.7
				c-0.4-0.1-0.9-0.2-1.3-0.3c-0.4,0.1-0.9,0.2-1.3,0.3l-0.2-0.7c-0.1-0.1-0.3-0.1-0.4-0.2c-0.2,1-0.7,1.3-1.3,1.3
				c-0.9,0-1.9-0.7-1.9-0.7s0.6-1,1.4-1.4c-0.3-0.1-0.5-0.3-0.8-0.4c-0.3,0.6-0.6,0.8-1,0.8c-0.8,0-1.6-0.8-1.6-0.8s0.6-0.7,1.3-0.9
				c-0.2-0.2-0.5-0.4-0.7-0.6c-0.3,0.4-0.6,0.6-0.9,0.6c-0.8,0-1.5-1.1-1.5-1.1s0.7-0.5,1.3-0.6c-0.2-0.2-0.3-0.4-0.5-0.6
				c-0.3,0.4-0.5,0.5-0.8,0.5c-0.7,0-1.4-1-1.4-1s0.8-0.6,1.4-0.6c-0.1-0.1-0.2-0.3-0.3-0.4c-0.1,0-0.2,0-0.2,0
				c-1.5,0-0.9-2.2-0.9-2.2s2.5,0.1,1.7,1.8c0.1,0.1,0.1,0.2,0.2,0.3c0.2-0.6,0.8-1.1,0.8-1.1s1.7,1.6,0.1,2.2
				c0.2,0.3,0.4,0.5,0.6,0.7c0-0.7,0.9-1.4,0.9-1.4s1.8,1.7,0.1,2.3c0.2,0.2,0.5,0.4,0.8,0.6c0-0.7,0.7-1.4,0.7-1.4s2.1,1.3,0.6,2.3
				c0.2,0.1,0.5,0.3,0.7,0.4c-0.4-1,0.8-2.3,0.8-2.3s2.6,1.7,0.8,2.9c0.6,0.2,1.1,0.4,1.6,0.5c0.5-0.1,1.1-0.3,1.6-0.5
				c-1.8-1.2,0.8-2.9,0.8-2.9s1.1,1.3,0.8,2.3c0.2-0.1,0.5-0.3,0.7-0.4c-1.4-1,0.6-2.3,0.6-2.3s0.6,0.8,0.7,1.4
				c0.3-0.2,0.5-0.4,0.8-0.6c-1.7-0.7,0.1-2.3,0.1-2.3s0.8,0.7,0.9,1.4c0.2-0.2,0.4-0.5,0.6-0.7c-1.6-0.6,0.1-2.2,0.1-2.2
				s0.6,0.5,0.8,1.1c0.1-0.1,0.1-0.2,0.2-0.3C273.2-62,275.7-62.1,275.7-62.1 M254.6-62.9l-0.2,0.6c-0.1,0.3-0.4,1.6,0.2,2.5
				c0,0.1,0.1,0.1,0.2,0.2c-0.1,0.1-0.1,0.1-0.2,0.1l-0.5,0.4l0.4,0.6c0.1,0.1,0.5,0.7,1.1,1l-0.1,0.1l0.4,0.6
				c0.1,0.2,0.8,1.1,1.7,1.3l-0.3,0.3l0.5,0.5c0.1,0.1,0.9,0.9,1.8,1l-0.3,0.5l0.6,0.4c0.1,0.1,1.2,0.8,2.3,0.8c0.5,0,1-0.2,1.4-0.5
				l0,0.2l0.7-0.1c0.4-0.1,0.8-0.1,1.2-0.2c0.4,0.1,0.8,0.2,1.2,0.2l0.7,0.1l0-0.2c0.4,0.3,0.8,0.5,1.4,0.5c1.1,0,2.2-0.7,2.3-0.8
				l0.6-0.4l-0.3-0.5c0.9-0.1,1.7-0.9,1.8-1l0.5-0.5l-0.3-0.3c0.9-0.2,1.6-1.1,1.7-1.3l0.4-0.6l-0.1-0.1c0.6-0.3,1-0.9,1.1-1
				l0.4-0.6l-0.5-0.4c0,0-0.1-0.1-0.2-0.1c0.1-0.1,0.1-0.1,0.2-0.2c0.7-0.9,0.3-2.2,0.2-2.5l-0.2-0.6l-0.6,0c-0.3,0-1.7,0.1-2.3,1.1
				l-0.4-0.3l-0.5,0.4c-0.1,0.1-0.7,0.6-0.9,1.3l-0.2-0.2l-0.5,0.4c-0.1,0.1-0.6,0.6-0.8,1.1l0,0l-0.5,0.4c-0.1,0.1-0.6,0.4-0.9,0.9
				c-0.1-0.1-0.2-0.2-0.2-0.2l-0.4-0.5l-0.5,0.4c-0.3,0.2-1.8,1.2-1.8,2.5c0,0.2,0,0.4,0.1,0.7c-0.1,0-0.3,0.1-0.4,0.1
				c-0.1,0-0.3-0.1-0.4-0.1c0.1-0.2,0.1-0.5,0.1-0.7c0-1.3-1.5-2.3-1.8-2.5l-0.5-0.4l-0.4,0.5c0,0-0.1,0.1-0.2,0.2
				c-0.4-0.5-0.8-0.8-0.9-0.9l-0.5-0.4l0,0c-0.3-0.6-0.7-1-0.8-1.1l-0.5-0.4l-0.2,0.2c-0.2-0.6-0.8-1.2-0.9-1.3l-0.5-0.4l-0.4,0.3
				c-0.6-0.9-2-1.1-2.3-1.1L254.6-62.9L254.6-62.9z"/>
		</g>
	</g>
	<g id="XMLID_4_">
		<path id="XMLID_8_" class="st7" d="M48,167H37.7c0.4,3,1.6,7,3.6,10H48V167z"/>
		<path id="XMLID_10_" class="st7" d="M62,167H51v10h7.4C60.4,174,61.6,170,62,167z"/>
		<path id="XMLID_11_" class="st7" d="M48,150v-7.4c-2,1.6-4.1,4.4-6.3,7.4H48z"/>
		<path id="XMLID_13_" class="st7" d="M62.1,161.6c-0.3-3-1.1-5.6-2.3-8.6H51v11h11.2C62.2,163,62.2,162.2,62.1,161.6z"/>
		<path id="XMLID_14_" class="st7" d="M56.4,181H51v5.6C53,184.6,55,183,56.4,181z"/>
		<path id="XMLID_15_" class="st7" d="M58.5,183.4l1,0.9c0.1,0.1,0.3,0.4,0.6,0.8c1.1-1.4,2.6-2.4,3-2.7l1.7-1l0.1,0.2
			c0.1-0.3,0.3-0.5,0.4-0.5h-5C59.7,181,59.1,182.5,58.5,183.4z"/>
		<path id="XMLID_16_" class="st7" d="M51,142.6v7.4h7C55.9,147,53,144.2,51,142.6z"/>
		<path id="XMLID_17_" class="st7" d="M65.3,161.3c0.1,0.8,0.1,1.7,0.1,2.7h8c-0.2-4-1.1-8-2.8-11h-7.3
			C64.4,156,65.1,158.4,65.3,161.3z"/>
		<path id="XMLID_18_" class="st7" d="M68.6,150c-3.3-4-8.1-7.4-13.6-8.6c2.2,2.1,4.7,5.6,6.8,8.6H68.6z"/>
		<path id="XMLID_19_" class="st7" d="M69,176.2l0.6,0.7c0.5-1.3,1.3-2.3,2-3.1c0.9-2.2,1.6-4.8,1.8-6.8h-8.1c-0.4,3-1.5,7-3.2,10
			H68L69,176.2z"/>
		<path id="XMLID_20_" class="st7" d="M34.4,161.3c0.3-2.9,1-5.3,2-8.3H29c-1.6,3-2.6,7-2.8,11h8C34.3,163,34.3,162,34.4,161.3z"/>
		<path id="XMLID_21_" class="st7" d="M44.7,141.4c-5.5,1.2-10.2,4.6-13.5,8.6h6.8C40,147,42.6,143.4,44.7,141.4z"/>
		<path id="XMLID_22_" class="st7" d="M48,181h-4.7c1.4,2,2.7,3.6,4.7,5.6V181z"/>
		<path id="XMLID_25_" class="st7" d="M50,120.8c-27.4,0-49.6,22.2-49.6,49.6C0.4,197.8,22.6,220,50,220c27.4,0,49.6-22.2,49.6-49.6
			C99.6,143,77.4,120.8,50,120.8z M84.6,182.7c-0.3,0.5-1.6,2.2-3.5,3.3l0.3,0.3l-1.3,1.8c-0.4,0.6-2.5,3.4-5.3,4.2l0.8,1l-1.6,1.6
			c-0.3,0.3-2.8,2.8-5.7,3.3l1,1.7l-1.8,1.2c-0.4,0.3-3.8,2.6-7.3,2.6c-1.7,0-3.2-0.6-4.3-1.6l-0.2,0.5l-2.1-0.3
			c-1.2-0.2-2.4-0.4-3.8-0.7c-1.3,0.3-2.6,0.5-3.7,0.7l-2.1,0.3L44,202c-1.1,1-2.6,1.6-4.3,1.6c-3.5,0-6.9-2.3-7.3-2.6l-1.8-1.2
			l1-1.7c-2.9-0.5-5.4-2.9-5.8-3.3l-1.6-1.6l0.9-1c-2.9-0.8-4.9-3.5-5.4-4.2l-1.3-1.8l0.3-0.3c-1.9-1.1-3.2-2.9-3.5-3.3l-1.2-1.8
			l1.7-1.4c0.1-0.1,0.3-0.2,0.6-0.4c-0.2-0.2-0.4-0.4-0.6-0.6c-2.1-2.8-0.9-7.1-0.7-8l0.5-1.8l1.8,0.1c0.8,0,4.1,0.3,6.3,2.2
			c-0.5-2.1-0.8-4.3-0.8-6.6c0-14.8,12-26.9,26.9-26.9c14.8,0,26.9,12,26.9,26.9c0,2.4-0.3,4.7-0.9,6.9c2.1-2.2,5.8-2.4,6.6-2.5
			l1.8-0.1l0.5,1.8c0.3,0.9,1.4,5.2-0.7,8c-0.2,0.2-0.3,0.4-0.6,0.6c0.3,0.2,0.5,0.3,0.6,0.4l1.7,1.4L84.6,182.7z"/>
		<path id="XMLID_26_" class="st7" d="M77.2,176.8c-0.2,0.3-0.4,0.7-0.7,1c-0.4-1.2-1.3-2.2-1.9-2.8c-0.3-0.3-0.5-0.5-0.5-0.5
			s-3.3,3.1-2.2,5.4c0.3,0.6,0.9,1.2,2,1.6c-0.6,0.8-1.3,1.6-2,2.3c-0.1-0.9-0.5-1.8-1.1-2.5c-0.8-1.1-1.7-1.9-1.7-1.9
			s-3.7,3.5-2.3,5.9c0.3,0.6,1,1.1,2,1.6c-0.8,0.7-1.6,1.4-2.4,2c0-0.9-0.4-1.9-0.8-2.7c-0.6-1.1-1.3-1.9-1.3-1.9s-3.5,2.3-3.5,4.8
			c0,0.9,0.4,1.8,1.6,2.6c-0.8,0.4-1.5,0.9-2.2,1.3c0.4-1.1,0.2-2.4-0.3-3.5c-0.4-1.2-1.1-2.2-1.6-2.9l-0.6-0.8l-1.9,1.5
			c-1,1-2.2,2.4-2.5,3.8c-0.3,1.3,0.1,2.7,2,4c-1.8,0.7-3.5,1.2-5.2,1.6c-1.7-0.4-3.5-1-5.2-1.6c1.8-1.2,2.2-2.6,2-4
			c-0.3-1.4-1.4-2.8-2.4-3.7c-1-1-2-1.6-2-1.6s-0.3,0.3-0.6,0.8c-0.5,0.7-1.1,1.7-1.6,2.9c-0.4,1.1-0.6,2.3-0.2,3.4
			c-0.8-0.4-1.5-0.8-2.3-1.3c1.1-0.8,1.6-1.6,1.6-2.5c0-2.5-3.6-4.9-3.6-4.9s-0.8,0.9-1.4,2.1c-0.4,0.8-0.7,1.6-0.7,2.5
			c-0.8-0.6-1.6-1.3-2.4-2c1-0.4,1.6-0.9,1.9-1.4c1.6-2.4-2.2-6-2.2-6s-1,0.9-1.8,2c-0.5,0.7-0.9,1.6-1,2.4c-0.7-0.7-1.3-1.5-2-2.3
			c1-0.4,1.6-0.9,1.9-1.4c1.5-2.3-2.1-5.6-2.1-5.6s-0.3,0.3-0.7,0.7c-0.6,0.6-1.4,1.6-1.7,2.6c-0.2-0.3-0.4-0.6-0.7-1
			c2.6-5.2-5.4-5.6-5.4-5.6s-2.1,7,2.8,7c0.2,0,0.5,0,0.7,0c0.3,0.4,0.6,0.9,0.9,1.3c-2.1,0-4.6,1.9-4.6,1.9s2.2,3.2,4.6,3.2
			c0.9,0,1.7-0.4,2.6-1.6c0.5,0.6,1,1.2,1.5,1.8c-2.1,0.3-4.1,2-4.1,2s2.3,3.4,4.8,3.4c1,0,1.9-0.5,2.8-1.8c0.8,0.7,1.5,1.3,2.3,2
			c-2.2,0.6-4.1,2.9-4.1,2.9s2.6,2.6,5,2.6c1.2,0,2.4-0.7,3.2-2.6c0.8,0.5,1.6,1,2.4,1.4c-2.5,1.3-4.4,4.5-4.4,4.5s3.1,2.2,5.9,2.2
			c1.9,0,3.6-0.9,4.2-4c0.4,0.2,0.9,0.3,1.4,0.5l0.5,2.2c1.4-0.2,2.7-0.5,4.1-0.8c1.4,0.3,2.8,0.6,4.1,0.8l0.5-2.2
			c0.5-0.2,1-0.3,1.4-0.5c0.6,3.1,2.3,4,4.2,4c2.8,0,5.9-2.2,5.9-2.2s-1.9-3.2-4.4-4.5c0.8-0.4,1.6-0.9,2.4-1.4
			c0.8,1.9,2,2.6,3.2,2.6c2.4,0,5-2.6,5-2.6s-2-2.2-4.1-2.9c0.8-0.6,1.6-1.3,2.3-2c0.9,1.3,1.9,1.8,2.8,1.8c2.5,0,4.8-3.4,4.8-3.4
			s-2.1-1.6-4.1-2c0.5-0.6,1-1.2,1.5-1.8c0.8,1.1,1.7,1.6,2.5,1.6c2.4,0,4.6-3.2,4.6-3.2s-2.4-1.9-4.6-1.9c0.3-0.4,0.6-0.9,0.9-1.3
			c0.3,0,0.5,0,0.7,0c4.9,0,2.8-7,2.8-7S74.7,171.6,77.2,176.8z"/>
		<path id="XMLID_27_" class="st7" d="M48,153h-8.1c-1.1,3-2,5.6-2.3,8.6c-0.1,0.6-0.1,1.4-0.1,2.4H48V153z"/>
		<path id="XMLID_46_" class="st7" d="M35.2,181.5l0.1-0.3l1.7,1.1c0.4,0.3,1.9,1.3,3,2.7c0.3-0.4,0.5-0.6,0.6-0.7l0.8-0.8
			c-0.7-0.9-1.3-1.6-1.9-2.6h-4.7C34.9,181,35.1,181.3,35.2,181.5z"/>
		<path id="XMLID_47_" class="st7" d="M26.4,167c0.2,2,0.8,4.2,1.6,6.2c0.7,0.7,1.8,1.8,2.5,3.5l0.6-0.6l1,0.8h5.6
			c-1.7-3-2.9-7-3.2-10H26.4z"/>
	</g>
	<g id="XMLID_191_">
		<path id="XMLID_193_" class="st4" d="M368.9-29.3h12.4c0.9,0,1.7-0.8,1.7-1.8v-3.3h-2.4v-0.8c0-1.2-0.8-2.2-1.8-2.2h-6.7
			c-1,0-1.8,1-1.8,2.2v0.8h-3v3.3C367.2-30.1,367.9-29.3,368.9-29.3z M371.6-35.2c0-0.5,0.3-0.8,0.4-0.8h6.7c0.1,0,0.4,0.3,0.4,0.8
			v0.8h-7.5V-35.2z"/>
		<path id="XMLID_192_" class="st4" d="M381.3-28.6h-12.4c-0.9,0-1.7-0.5-2.1-1.3v6.4h16.6v-6.4C382.9-29.1,382.2-28.6,381.3-28.6z"
			/>
	</g>
	<g id="XMLID_185_">
		<path id="XMLID_187_" class="st7" d="M170.6,121.2c-27.3,0-49.4,22.1-49.4,49.4c0,27.3,22.1,49.4,49.4,49.4
			c27.3,0,49.4-22.1,49.4-49.4C220,143.3,197.9,121.2,170.6,121.2z M144.6,156.7h9.6V154c0-3.9,2.5-7,5.8-7h21.3
			c3.2,0,5.8,3.1,5.8,7v2.7h7.5V167c0,3.1-2.4,5.7-5.3,5.7H150c-3,0-5.4-2.5-5.4-5.7V156.7z M195.6,191.2h-52.3v-20.3
			c1.3,2.4,3.8,4.1,6.7,4.1h39.2c2.7,0,5.1-1.5,6.5-3.8V191.2z"/>
		<path id="XMLID_186_" class="st7" d="M182.5,154c0-1.5-0.8-2.5-1.3-2.5H160c-0.4,0-1.3,0.9-1.3,2.5v2.7h23.8V154z"/>
	</g>
	<g id="XMLID_181_">
		<path id="XMLID_182_" class="st9" d="M-135.2-12.8c-9.5,0-17.2-7.7-17.2-17.2s7.7-17.2,17.2-17.2s17.2,7.7,17.2,17.2
			S-125.8-12.8-135.2-12.8z M-135.2-44.1c-7.8,0-14.2,6.4-14.2,14.2s6.4,14.2,14.2,14.2c7.8,0,14.2-6.4,14.2-14.2
			S-127.4-44.1-135.2-44.1z"/>
	</g>
	<g id="XMLID_176_">
		<path id="XMLID_177_" class="st6" d="M-33.5-12.8c-9.5,0-17.2-7.7-17.2-17.2s7.7-17.2,17.2-17.2c9.5,0,17.2,7.7,17.2,17.2
			S-24.1-12.8-33.5-12.8z M-33.5-44.1c-7.8,0-14.2,6.4-14.2,14.2s6.4,14.2,14.2,14.2c7.8,0,14.2-6.4,14.2-14.2S-25.7-44.1-33.5-44.1
			z"/>
	</g>
	<path id="XMLID_173_" class="st7" d="M-70.1,1.2c-27,0-48.9,21.9-48.9,48.9c0,27,21.9,48.9,48.9,48.9c27,0,48.9-21.9,48.9-48.9
		C-21.2,23.1-43.1,1.2-70.1,1.2z M-44.7,59.5c-5.7,0-11.4,0-17.1,0c0,5.7,0,11.3,0,17c-6.2,0-12.3,0-18.5,0c0-5.7,0-11.3,0-17
		c-5.6,0-11.2,0-16.8,0c0-6.2,0-12.4,0-18.5c5.6,0,11.2,0,16.8,0c0-5.6,0-11.3,0-16.9c6.2,0,12.4,0,18.5,0c0,5.6,0,11.3,0,16.9
		c5.7,0,11.4,0,17.1,0C-44.7,47.1-44.7,53.3-44.7,59.5z"/>
	<path id="XMLID_40_" class="st7" d="M49.3,0C22.1,0,0,22.1,0,49.3c0,27.2,22.1,49.3,49.3,49.3c27.2,0,49.3-22.1,49.3-49.3
		C98.5,22.1,76.5,0,49.3,0z M72,67.4c-24,16.8-44,0-44,0V49.8l21.9,12.6l1.2,0.8l1.4-0.9L72,49.2V67.4z M50.9,60.3L27.6,46.9
		l22.2-10.3l-25.8,8v0.1V56h-0.2L25,69.1c0,0-1.1,1-2.8,1c-0.8,0-1.8-0.1-2.9-0.9l1-13.2H20V42.8l-3.9-2.4l33.5-19.9l33.4,18
		L50.9,60.3z"/>
	<path id="XMLID_159_" class="st7" d="M170.5,3.3c-26.7,0-48.3,21.6-48.3,48.3c0,26.7,21.6,48.3,48.3,48.3
		c26.7,0,48.3-21.6,48.3-48.3C218.8,25,197.2,3.3,170.5,3.3z M135.8,77.6l34.7-65l34.7,65H135.8z"/>
	<path id="XMLID_156_" class="st10" d="M71.2-47.1C61.7-47.1,54-39.4,54-30s7.7,17.2,17.2,17.2S88.3-20.5,88.3-30
		S80.6-47.1,71.2-47.1z M71.2-15.8c-5,0-9.3-2.6-11.9-6.5h23.3L70.9-44.1L59.3-22.3C57.8-24.5,57-27.1,57-30
		c0-7.8,6.4-14.2,14.2-14.2c7.8,0,14.2,6.4,14.2,14.2S79-15.8,71.2-15.8z"/>
</g>
</svg>
