<?xml version="1.0" encoding="utf-8"?>
<!-- Generator: Adobe Illustrator 19.1.1, SVG Export Plug-In . SVG Version: 6.00 Build 0)  -->
<svg version="1.1" xmlns="http://www.w3.org/2000/svg" xmlns:xlink="http://www.w3.org/1999/xlink" x="0px" y="0px"
	 viewBox="0 0 100 100" style="enable-background:new 0 0 100 100;" xml:space="preserve">
<style type="text/css">
	.st0{display:none;}
	.st1{display:inline;fill:#2173A2;}
	.st2{fill:#838788;}
	.st3{fill:#933132;}
	.st4{fill:#774393;}
	.st5{fill-rule:evenodd;clip-rule:evenodd;fill:#0A8D56;}
	.st6{fill:#2173A2;}
	.st7{fill:#FFFFFF;}
	.st8{fill-rule:evenodd;clip-rule:evenodd;fill:#838788;}
	.st9{fill:#0A8D56;}
	.st10{fill:#DB9528;}
</style>
<g id="Layer_2" class="st0">
	<rect id="XMLID_155_" x="-135.2" y="-127" class="st1" width="369.8" height="255.5"/>
</g>
<g id="Layer_1">
	<g id="XMLID_4_">
		<path id="XMLID_8_" class="st7" d="M48,47H37.7c0.4,3,1.6,7,3.6,10H48V47z"/>
		<path id="XMLID_10_" class="st7" d="M62,47H51v10h7.4C60.4,54,61.6,50,62,47z"/>
		<path id="XMLID_11_" class="st7" d="M48,30v-7.4c-2,1.6-4.1,4.4-6.3,7.4H48z"/>
		<path id="XMLID_13_" class="st7" d="M62.1,41.6c-0.3-3-1.1-5.6-2.3-8.6H51v11h11.2C62.2,43,62.2,42.2,62.1,41.6z"/>
		<path id="XMLID_14_" class="st7" d="M56.4,61H51v5.6C53,64.6,55,63,56.4,61z"/>
		<path id="XMLID_15_" class="st7" d="M58.5,63.4l1,0.9c0.1,0.1,0.3,0.4,0.6,0.8c1.1-1.4,2.6-2.4,3-2.7l1.7-1l0.1,0.2
			c0.1-0.3,0.3-0.5,0.4-0.5h-5C59.7,61,59.1,62.5,58.5,63.4z"/>
		<path id="XMLID_16_" class="st7" d="M51,22.6V30h7C55.9,27,53,24.2,51,22.6z"/>
		<path id="XMLID_17_" class="st7" d="M65.3,41.3c0.1,0.8,0.1,1.7,0.1,2.7h8c-0.2-4-1.1-8-2.8-11h-7.3C64.4,36,65.1,38.4,65.3,41.3z
			"/>
		<path id="XMLID_18_" class="st7" d="M68.6,30c-3.3-4-8.1-7.4-13.6-8.6c2.2,2.1,4.7,5.6,6.8,8.6H68.6z"/>
		<path id="XMLID_19_" class="st7" d="M69,56.2l0.6,0.7c0.5-1.3,1.3-2.3,2-3.1c0.9-2.2,1.6-4.8,1.8-6.8h-8.1c-0.4,3-1.5,7-3.2,10H68
			L69,56.2z"/>
		<path id="XMLID_20_" class="st7" d="M34.4,41.3c0.3-2.9,1-5.3,2-8.3H29c-1.6,3-2.6,7-2.8,11h8C34.3,43,34.3,42,34.4,41.3z"/>
		<path id="XMLID_21_" class="st7" d="M44.7,21.4C39.2,22.6,34.5,26,31.2,30h6.8C40,27,42.6,23.4,44.7,21.4z"/>
		<path id="XMLID_22_" class="st7" d="M48,61h-4.7c1.4,2,2.7,3.6,4.7,5.6V61z"/>
		<path id="XMLID_25_" class="st7" d="M50,0.8C22.6,0.8,0.4,23,0.4,50.4C0.4,77.8,22.6,100,50,100c27.4,0,49.6-22.2,49.6-49.6
			C99.6,23,77.4,0.8,50,0.8z M84.6,62.7c-0.3,0.5-1.6,2.2-3.5,3.3l0.3,0.3l-1.3,1.8c-0.4,0.6-2.5,3.4-5.3,4.2l0.8,1l-1.6,1.6
			c-0.3,0.3-2.8,2.8-5.7,3.3l1,1.7L67.6,81c-0.4,0.3-3.8,2.6-7.3,2.6c-1.7,0-3.2-0.6-4.3-1.6l-0.2,0.5l-2.1-0.3
			c-1.2-0.2-2.4-0.4-3.8-0.7c-1.3,0.3-2.6,0.5-3.7,0.7l-2.1,0.3L44,82c-1.1,1-2.6,1.6-4.3,1.6c-3.5,0-6.9-2.3-7.3-2.6l-1.8-1.2
			l1-1.7c-2.9-0.5-5.4-2.9-5.8-3.3l-1.6-1.6l0.9-1c-2.9-0.8-4.9-3.5-5.4-4.2l-1.3-1.8l0.3-0.3c-1.9-1.1-3.2-2.9-3.5-3.3l-1.2-1.8
			l1.7-1.4c0.1-0.1,0.3-0.2,0.6-0.4c-0.2-0.2-0.4-0.4-0.6-0.6c-2.1-2.8-0.9-7.1-0.7-8l0.5-1.8l1.8,0.1c0.8,0,4.1,0.3,6.3,2.2
			c-0.5-2.1-0.8-4.3-0.8-6.6c0-14.8,12-26.9,26.9-26.9c14.8,0,26.9,12,26.9,26.9c0,2.4-0.3,4.7-0.9,6.9c2.1-2.2,5.8-2.4,6.6-2.5
			l1.8-0.1l0.5,1.8c0.3,0.9,1.4,5.2-0.7,8c-0.2,0.2-0.3,0.4-0.6,0.6c0.3,0.2,0.5,0.3,0.6,0.4l1.7,1.4L84.6,62.7z"/>
		<path id="XMLID_26_" class="st7" d="M77.2,56.8c-0.2,0.3-0.4,0.7-0.7,1c-0.4-1.2-1.3-2.2-1.9-2.8c-0.3-0.3-0.5-0.5-0.5-0.5
			s-3.3,3.1-2.2,5.4c0.3,0.6,0.9,1.2,2,1.6c-0.6,0.8-1.3,1.6-2,2.3c-0.1-0.9-0.5-1.8-1.1-2.5c-0.8-1.1-1.7-1.9-1.7-1.9
			s-3.7,3.5-2.3,5.9c0.3,0.6,1,1.1,2,1.6c-0.8,0.7-1.6,1.4-2.4,2c0-0.9-0.4-1.9-0.8-2.7c-0.6-1.1-1.3-1.9-1.3-1.9s-3.5,2.3-3.5,4.8
			c0,0.9,0.4,1.8,1.6,2.6c-0.8,0.4-1.5,0.9-2.2,1.3c0.4-1.1,0.2-2.4-0.3-3.5c-0.4-1.2-1.1-2.2-1.6-2.9l-0.6-0.8l-1.9,1.5
			c-1,1-2.2,2.4-2.5,3.8c-0.3,1.3,0.1,2.7,2,4c-1.8,0.7-3.5,1.2-5.2,1.6c-1.7-0.4-3.5-1-5.2-1.6c1.8-1.2,2.2-2.6,2-4
			c-0.3-1.4-1.4-2.8-2.4-3.7c-1-1-2-1.6-2-1.6s-0.3,0.3-0.6,0.8c-0.5,0.7-1.1,1.7-1.6,2.9c-0.4,1.1-0.6,2.3-0.2,3.4
			c-0.8-0.4-1.5-0.8-2.3-1.3c1.1-0.8,1.6-1.6,1.6-2.5c0-2.5-3.6-4.9-3.6-4.9s-0.8,0.9-1.4,2.1c-0.4,0.8-0.7,1.6-0.7,2.5
			c-0.8-0.6-1.6-1.3-2.4-2c1-0.4,1.6-0.9,1.9-1.4c1.6-2.4-2.2-6-2.2-6s-1,0.9-1.8,2c-0.5,0.7-0.9,1.6-1,2.4c-0.7-0.7-1.3-1.5-2-2.3
			c1-0.4,1.6-0.9,1.9-1.4c1.5-2.3-2.1-5.6-2.1-5.6s-0.3,0.3-0.7,0.7c-0.6,0.6-1.4,1.6-1.7,2.6c-0.2-0.3-0.4-0.6-0.7-1
			c2.6-5.2-5.4-5.6-5.4-5.6s-2.1,7,2.8,7c0.2,0,0.5,0,0.7,0c0.3,0.4,0.6,0.9,0.9,1.3c-2.1,0-4.6,1.9-4.6,1.9s2.2,3.2,4.6,3.2
			c0.9,0,1.7-0.4,2.6-1.6c0.5,0.6,1,1.2,1.5,1.8c-2.1,0.3-4.1,2-4.1,2s2.3,3.4,4.8,3.4c1,0,1.9-0.5,2.8-1.8c0.8,0.7,1.5,1.3,2.3,2
			c-2.2,0.6-4.1,2.9-4.1,2.9s2.6,2.6,5,2.6c1.2,0,2.4-0.7,3.2-2.6c0.8,0.5,1.6,1,2.4,1.4c-2.5,1.3-4.4,4.5-4.4,4.5s3.1,2.2,5.9,2.2
			c1.9,0,3.6-0.9,4.2-4c0.4,0.2,0.9,0.3,1.4,0.5l0.5,2.2c1.4-0.2,2.7-0.5,4.1-0.8c1.4,0.3,2.8,0.6,4.1,0.8l0.5-2.2
			c0.5-0.2,1-0.3,1.4-0.5c0.6,3.1,2.3,4,4.2,4c2.8,0,5.9-2.2,5.9-2.2s-1.9-3.2-4.4-4.5c0.8-0.4,1.6-0.9,2.4-1.4
			c0.8,1.9,2,2.6,3.2,2.6c2.4,0,5-2.6,5-2.6s-2-2.2-4.1-2.9c0.8-0.6,1.6-1.3,2.3-2c0.9,1.3,1.9,1.8,2.8,1.8c2.5,0,4.8-3.4,4.8-3.4
			s-2.1-1.6-4.1-2c0.5-0.6,1-1.2,1.5-1.8c0.8,1.1,1.7,1.6,2.5,1.6c2.4,0,4.6-3.2,4.6-3.2s-2.4-1.9-4.6-1.9c0.3-0.4,0.6-0.9,0.9-1.3
			c0.3,0,0.5,0,0.7,0c4.9,0,2.8-7,2.8-7S74.7,51.6,77.2,56.8z"/>
		<path id="XMLID_27_" class="st7" d="M48,33h-8.1c-1.1,3-2,5.6-2.3,8.6c-0.1,0.6-0.1,1.4-0.1,2.4H48V33z"/>
		<path id="XMLID_46_" class="st7" d="M35.2,61.5l0.1-0.3l1.7,1.1c0.4,0.3,1.9,1.3,3,2.7c0.3-0.4,0.5-0.6,0.6-0.7l0.8-0.8
			c-0.7-0.9-1.3-1.6-1.9-2.6h-4.7C34.9,61,35.1,61.3,35.2,61.5z"/>
		<path id="XMLID_47_" class="st7" d="M26.4,47c0.2,2,0.8,4.2,1.6,6.2c0.7,0.7,1.8,1.8,2.5,3.5l0.6-0.6l1,0.8h5.6
			c-1.7-3-2.9-7-3.2-10H26.4z"/>
	</g>
</g>
</svg>
