<?xml version="1.0" encoding="utf-8"?>
<!-- Generated by IcoMoon.io -->
<!DOCTYPE svg PUBLIC "-//W3C//DTD SVG 1.1//EN" "http://www.w3.org/Graphics/SVG/1.1/DTD/svg11.dtd">
<svg version="1.1" xmlns="http://www.w3.org/2000/svg" xmlns:xlink="http://www.w3.org/1999/xlink" width="64" height="64" viewBox="0 0 64 64">
<rect fill="#215ab7" x="0" y="0" width="64" height="64"></rect>
<path fill="#ffffff" d="M39.538 31.431c2.418 0 4.693 0 6.969 0 0 2.987 0 5.831 0 8.96 2.987 0 5.973 0 8.96 0 0 2.418 0 4.551 0 6.969-2.844 0-5.831 0-8.818 0 0 3.129 0 5.973 0 9.102-2.418 0-4.693 0-6.969 0 0-2.987 0-5.831 0-8.96-3.129 0-6.116 0-9.102 0 0-2.418 0-4.693 0-7.111 2.276 0 4.693 0 6.969 0 2.133 0 2.133 0 2.133-2.133-0.142-2.133-0.142-4.409-0.142-6.827z"></path>
<path fill="#ffffff" d="M27.022 45.511h-5.689v-9.244l-9.956 0.142v-25.031h27.022v17.067h2.844v-19.911h-32.711v28.444h1.422l11.378 11.52v0.142-0.284h5.689z"></path>
</svg>
