<?xml version="1.0" encoding="utf-8"?>
<!-- Generated by IcoMoon.io -->
<!DOCTYPE svg PUBLIC "-//W3C//DTD SVG 1.1//EN" "http://www.w3.org/Graphics/SVG/1.1/DTD/svg11.dtd">
<svg version="1.1" xmlns="http://www.w3.org/2000/svg" xmlns:xlink="http://www.w3.org/1999/xlink" width="20" height="20" viewBox="0 0 20 20">
<path fill="#444444" d="M12.356 9.822c0.756 0 1.467 0 2.178 0 0 0.933 0 1.822 0 2.8 0.933 0 1.867 0 2.8 0 0 0.756 0 1.422 0 2.178-0.889 0-1.822 0-2.756 0 0 0.978 0 1.867 0 2.844-0.756 0-1.467 0-2.178 0 0-0.933 0-1.822 0-2.8-0.978 0-1.911 0-2.844 0 0-0.756 0-1.467 0-2.222 0.711 0 1.467 0 2.178 0 0.667 0 0.667 0 0.667-0.667-0.044-0.667-0.044-1.378-0.044-2.133z"></path>
<path fill="#444444" d="M8.444 14.222h-1.778v-2.889l-3.111 0.044v-7.822h8.444v5.333h0.889v-6.222h-10.222v8.889h0.444l3.556 3.6v0.044-0.089h1.778z"></path>
</svg>
