<?xml version="1.0" encoding="utf-8"?>
<!-- Generated by IcoMoon.io -->
<!DOCTYPE svg PUBLIC "-//W3C//DTD SVG 1.1//EN" "http://www.w3.org/Graphics/SVG/1.1/DTD/svg11.dtd">
<svg version="1.1" xmlns="http://www.w3.org/2000/svg" xmlns:xlink="http://www.w3.org/1999/xlink" width="64" height="64" viewBox="0 0 64 64">
<rect fill="#215ab7" x="0" y="0" width="64" height="64"></rect>
<path fill="#ffffff" d="M22.044 43.804c-0.711 0-1.422 0-2.133 0s-1.422 0-2.133 0c-2.702-0.142-4.693-2.133-4.693-4.978 0-6.116 0-12.373 0-18.489 0-3.271 1.991-5.262 5.262-5.262 8.249 0 16.356 0 24.604 0 1.849 0 3.84 0 5.689 0.142 2.418 0.142 4.409 2.276 4.409 4.693 0 6.4 0 12.8 0 19.2 0 2.56-1.991 4.693-4.409 4.693-3.84 0.142-7.68 0.142-11.52 0-1.849 0-3.129 0.427-4.409 1.849-2.276 2.702-4.836 5.12-7.253 7.538-0.569 0.711-1.422 0.853-2.133 0.569s-1.138-0.996-1.138-1.849c0-2.418 0-4.836 0-7.253-0.142-0.284-0.142-0.569-0.142-0.853zM26.596 29.298c0-1.28-1.138-2.418-2.418-2.418s-2.276 1.138-2.418 2.418c0 1.422 0.996 2.418 2.276 2.418 1.422 0 2.56-0.996 2.56-2.418zM42.951 31.716c1.28 0 2.276-1.138 2.418-2.418 0-1.28-1.138-2.418-2.418-2.418s-2.418 1.138-2.418 2.418c0 1.422 1.138 2.418 2.418 2.418zM35.84 29.298c0-1.422-0.996-2.418-2.276-2.418s-2.418 1.138-2.418 2.418c0 1.28 1.138 2.418 2.418 2.418s2.276-0.996 2.276-2.418z"></path>
</svg>
