<?xml version="1.0" encoding="utf-8"?>
<!-- Generated by IcoMoon.io -->
<!DOCTYPE svg PUBLIC "-//W3C//DTD SVG 1.1//EN" "http://www.w3.org/Graphics/SVG/1.1/DTD/svg11.dtd">
<svg version="1.1" xmlns="http://www.w3.org/2000/svg" xmlns:xlink="http://www.w3.org/1999/xlink" width="20" height="20" viewBox="0 0 20 20">
<path fill="#444444" d="M10.12 0.24c-5.46 0-9.88 4.42-9.88 9.88s4.42 9.88 9.88 9.88 9.88-4.42 9.88-9.88-4.42-9.88-9.88-9.88zM4.92 7.34h1.92v-0.54c0-0.78 0.5-1.4 1.16-1.4h4.26c0.64 0 1.16 0.62 1.16 1.4v0.54h1.5v2.060c0 0.62-0.48 1.14-1.060 1.14h-7.86c-0.6 0-1.080-0.5-1.080-1.14v-2.060zM15.12 14.24h-10.46v-4.080c0.26 0.48 0.76 0.82 1.34 0.82h7.84c0.54 0 1.020-0.3 1.3-0.76l-0.020 4.020z"></path>
<path fill="#444444" d="M12.5 6.8c0-0.3-0.16-0.5-0.26-0.5h-4.24c-0.080 0-0.26 0.18-0.26 0.5v0.54h4.76v-0.54z"></path>
</svg>
