<?xml version="1.0" encoding="utf-8"?>
<!-- Generated by IcoMoon.io -->
<!DOCTYPE svg PUBLIC "-//W3C//DTD SVG 1.1//EN" "http://www.w3.org/Graphics/SVG/1.1/DTD/svg11.dtd">
<svg version="1.1" xmlns="http://www.w3.org/2000/svg" xmlns:xlink="http://www.w3.org/1999/xlink" width="20" height="20" viewBox="0 0 20 20">
<path fill="#444444" d="M12.080 6.4h-3.76c-0.080 0-0.32 0.36-0.32 0.6v0.6h4.4v-0.6c0-0.24-0.24-0.6-0.32-0.6z"></path>
<path fill="#444444" d="M2 2v16h16v-16h-16zM5.6 7.6h1.6v-0.6c0-0.68 0.56-1.4 1.12-1.4h3.76c0.56 0 1.12 0.72 1.12 1.4v0.6h1.2v1.72c0 0.56-0.36 1.080-0.92 1.080h-6.92c-0.52 0-0.96-0.52-0.96-1.080v-1.72zM14.8 13.6h-9.6v-3.6c0.4 0.44 0.84 0.8 1.36 0.8h6.92c0.48 0 0.92-0.36 1.32-0.76v3.56z"></path>
<path fill="#444444" d="M12.32 7c0-0.28-0.16-0.44-0.24-0.44h-3.76c-0.080 0-0.24 0.16-0.24 0.44v0.48h4.2v-0.48z"></path>
</svg>
