<?xml version="1.0" encoding="utf-8"?>
<!-- Generated by IcoMoon.io -->
<!DOCTYPE svg PUBLIC "-//W3C//DTD SVG 1.1//EN" "http://www.w3.org/Graphics/SVG/1.1/DTD/svg11.dtd">
<svg version="1.1" xmlns="http://www.w3.org/2000/svg" xmlns:xlink="http://www.w3.org/1999/xlink" width="64" height="64" viewBox="0 0 64 64">
<rect fill="#215ab7" x="0" y="0" width="64" height="64"></rect>
<path fill="#ffffff" d="M38.656 20.48h-12.032c-0.256 0-1.024 1.152-1.024 1.92v1.92h14.080v-1.92c0-0.768-0.768-1.92-1.024-1.92z"></path>
<path fill="#ffffff" d="M6.4 6.4v51.2h51.2v-51.2h-51.2zM17.92 24.32h5.12v-1.92c0-2.176 1.792-4.48 3.584-4.48h12.032c1.792 0 3.584 2.304 3.584 4.48v1.92h3.84v5.504c0 1.792-1.152 3.456-2.944 3.456h-22.144c-1.664 0-3.072-1.664-3.072-3.456v-5.504zM47.36 43.52h-30.72v-11.52c1.28 1.408 2.688 2.56 4.352 2.56h22.144c1.536 0 2.944-1.152 4.224-2.432v11.392z"></path>
<path fill="#ffffff" d="M39.424 22.4c0-0.896-0.512-1.408-0.768-1.408h-12.032c-0.256 0-0.768 0.512-0.768 1.408v1.536h13.44v-1.536z"></path>
</svg>
