<?xml version="1.0" encoding="utf-8"?>
<!-- Generated by IcoMoon.io -->
<!DOCTYPE svg PUBLIC "-//W3C//DTD SVG 1.1//EN" "http://www.w3.org/Graphics/SVG/1.1/DTD/svg11.dtd">
<svg version="1.1" xmlns="http://www.w3.org/2000/svg" xmlns:xlink="http://www.w3.org/1999/xlink" width="64" height="64" viewBox="0 0 64 64">
<rect fill="#215ab7" x="0" y="0" width="64" height="64"></rect>
<path fill="#ffffff" d="M32 59.648c-14.848 0-26.88-12.032-26.88-26.88s12.032-26.88 26.88-26.88c14.848 0 26.88 12.032 26.88 26.88s-12.032 26.88-26.88 26.88zM32 10.496c-12.288 0-22.272 9.984-22.272 22.272s9.984 22.144 22.272 22.144c12.288 0 22.272-9.984 22.272-22.272s-9.984-22.144-22.272-22.144z"></path>
<path fill="#ffffff" d="M22.272 32.512h19.456c1.408 0 2.688-1.28 2.688-2.816v-5.12h-3.712v-1.28c0-1.92-1.28-3.456-2.816-3.456h-10.624c-1.664 0-2.816 1.536-2.816 3.456v1.28h-4.736v5.12c-0.128 1.536 1.152 2.816 2.56 2.816zM26.624 23.168c0-0.768 0.384-1.28 0.64-1.28h10.624c0.256 0 0.64 0.512 0.64 1.28v1.28h-11.776v-1.28z"></path>
<path fill="#ffffff" d="M41.728 33.664h-19.456c-1.408 0-2.688-0.768-3.328-2.048v10.112h25.984v-9.984c-0.64 1.152-1.792 1.92-3.2 1.92z"></path>
</svg>
