<?xml version="1.0" encoding="utf-8"?>
<!-- Generated by IcoMoon.io -->
<!DOCTYPE svg PUBLIC "-//W3C//DTD SVG 1.1//EN" "http://www.w3.org/Graphics/SVG/1.1/DTD/svg11.dtd">
<svg version="1.1" xmlns="http://www.w3.org/2000/svg" xmlns:xlink="http://www.w3.org/1999/xlink" width="20" height="20" viewBox="0 0 20 20">
<path fill="#444444" d="M10 18.64c-4.64 0-8.4-3.76-8.4-8.4s3.76-8.4 8.4-8.4c4.64 0 8.4 3.76 8.4 8.4s-3.76 8.4-8.4 8.4zM10 3.28c-3.84 0-6.96 3.12-6.96 6.96s3.12 6.92 6.96 6.92c3.84 0 6.96-3.12 6.96-6.96s-3.12-6.92-6.96-6.92z"></path>
<path fill="#444444" d="M6.96 10.16h6.080c0.44 0 0.84-0.4 0.84-0.88v-1.6h-1.16v-0.4c0-0.6-0.4-1.080-0.88-1.080h-3.32c-0.52 0-0.88 0.48-0.88 1.080v0.4h-1.48v1.6c-0.040 0.48 0.36 0.88 0.8 0.88zM8.32 7.24c0-0.24 0.12-0.4 0.2-0.4h3.32c0.080 0 0.2 0.16 0.2 0.4v0.4h-3.68v-0.4z"></path>
<path fill="#444444" d="M13.040 10.52h-6.080c-0.44 0-0.84-0.24-1.040-0.64v3.16h8.12v-3.12c-0.2 0.36-0.56 0.6-1 0.6z"></path>
</svg>
