<?xml version="1.0" encoding="utf-8"?>
<!-- Generated by IcoMoon.io -->
<!DOCTYPE svg PUBLIC "-//W3C//DTD SVG 1.1//EN" "http://www.w3.org/Graphics/SVG/1.1/DTD/svg11.dtd">
<svg version="1.1" xmlns="http://www.w3.org/2000/svg" xmlns:xlink="http://www.w3.org/1999/xlink" width="64" height="64" viewBox="0 0 64 64">
<rect fill="#215ab7" x="0" y="0" width="64" height="64"></rect>
<path fill="#ffffff" d="M33.564 51.911c-0.142 0-0.427 0-0.569 0-0.853-0.142-1.707-0.284-2.56-0.284-12.516-1.849-20.196-15.36-15.218-27.164 3.129-7.538 10.667-12.373 18.631-12.231 8.533 0.284 15.502 5.404 18.347 13.369 0.569 1.564 0.711 3.129 1.138 4.693 0 1.138 0 2.276 0 3.556 0 0.284-0.142 0.569-0.142 0.853-1.28 7.822-5.547 13.227-12.942 15.929-2.133 0.711-4.551 0.853-6.684 1.28zM33.422 47.787c8.818 0.284 15.929-7.538 15.929-15.787 0-8.107-6.827-16.071-16.071-16.071-8.391 0-15.644 7.396-15.787 15.787 0 9.102 7.822 16.498 15.929 16.071z"></path>
<path fill="#ffffff" d="M22.756 29.44c7.111 0 13.938 0 20.907 0 0 1.849 0 3.698 0 5.689-6.684 0-13.511 0-20.764 0z"></path>
</svg>
