<?xml version="1.0" encoding="utf-8"?>
<!-- Generated by IcoMoon.io -->
<!DOCTYPE svg PUBLIC "-//W3C//DTD SVG 1.1//EN" "http://www.w3.org/Graphics/SVG/1.1/DTD/svg11.dtd">
<svg version="1.1" xmlns="http://www.w3.org/2000/svg" xmlns:xlink="http://www.w3.org/1999/xlink" width="20" height="20" viewBox="0 0 20 20">
<path fill="#444444" d="M10.489 16.222c-0.044 0-0.133 0-0.178 0-0.267-0.044-0.533-0.089-0.8-0.089-3.911-0.578-6.311-4.8-4.756-8.489 0.978-2.356 3.333-3.867 5.822-3.822 2.667 0.089 4.844 1.689 5.733 4.178 0.178 0.489 0.222 0.978 0.356 1.467 0 0.356 0 0.711 0 1.111 0 0.089-0.044 0.178-0.044 0.267-0.4 2.444-1.733 4.133-4.044 4.978-0.667 0.222-1.422 0.267-2.089 0.4zM10.444 14.933c2.756 0.089 4.978-2.356 4.978-4.933 0-2.533-2.133-5.022-5.022-5.022-2.622 0-4.889 2.311-4.933 4.933 0 2.844 2.444 5.156 4.978 5.022z"></path>
<path fill="#444444" d="M7.111 9.2c2.222 0 4.356 0 6.533 0 0 0.578 0 1.156 0 1.778-2.089 0-4.222 0-6.489 0z"></path>
</svg>
