<?xml version="1.0" encoding="utf-8"?>
<!-- Generated by IcoMoon.io -->
<!DOCTYPE svg PUBLIC "-//W3C//DTD SVG 1.1//EN" "http://www.w3.org/Graphics/SVG/1.1/DTD/svg11.dtd">
<svg version="1.1" xmlns="http://www.w3.org/2000/svg" xmlns:xlink="http://www.w3.org/1999/xlink" width="20" height="20" viewBox="0 0 20 20">
<path fill="#444444" d="M17.64 3.2h-8.6c-0.48 0-1.040 0.080-1.040 0.56v5.4c0 0.48 0.56 1.24 1.040 1.24h4.64l2.32 2.88v-2.88h1.64c0.48 0 1.16-0.76 1.16-1.24v-5.4c0-0.48-0.68-0.56-1.16-0.56z"></path>
<path fill="#444444" d="M7.6 9.16v-3.56h-4.040c-0.48 0-0.76 0.88-0.76 1.36v5.4c0 0.48 0.28 1.64 0.76 1.64h1.24v2.32l3.44-2.32h3.96c0.48 0 1.040-1.16 1.040-1.64v-1.16h-4.2c-1 0-1.44-1.040-1.44-2.040z"></path>
</svg>
