<?xml version="1.0" encoding="utf-8"?>
<!-- Generated by IcoMoon.io -->
<!DOCTYPE svg PUBLIC "-//W3C//DTD SVG 1.1//EN" "http://www.w3.org/Graphics/SVG/1.1/DTD/svg11.dtd">
<svg version="1.1" xmlns="http://www.w3.org/2000/svg" xmlns:xlink="http://www.w3.org/1999/xlink" width="64" height="64" viewBox="0 0 64 64">
<rect fill="#215ab7" x="0" y="0" width="64" height="64"></rect>
<path fill="#ffffff" d="M56.448 10.24h-27.52c-1.536 0-3.328 0.256-3.328 1.792v17.28c0 1.536 1.792 3.968 3.328 3.968h14.848l7.424 9.216v-9.216h5.248c1.536 0 3.712-2.432 3.712-3.968v-17.28c0-1.536-2.176-1.792-3.712-1.792z"></path>
<path fill="#ffffff" d="M24.32 29.312v-11.392h-12.928c-1.536 0-2.432 2.816-2.432 4.352v17.28c0 1.536 0.896 5.248 2.432 5.248h3.968v7.424l11.008-7.424h12.672c1.536 0 3.328-3.712 3.328-5.248v-3.712h-13.44c-3.2 0-4.608-3.328-4.608-6.528z"></path>
</svg>
