<?xml version="1.0" encoding="utf-8"?>
<!-- Generated by IcoMoon.io -->
<!DOCTYPE svg PUBLIC "-//W3C//DTD SVG 1.1//EN" "http://www.w3.org/Graphics/SVG/1.1/DTD/svg11.dtd">
<svg version="1.1" xmlns="http://www.w3.org/2000/svg" xmlns:xlink="http://www.w3.org/1999/xlink" width="64" height="64" viewBox="0 0 64 64">
<rect fill="#215ab7" x="0" y="0" width="64" height="64"></rect>
<path fill="#ffffff" d="M32.384 0.768c-17.472 0-31.616 14.144-31.616 31.616s14.144 31.616 31.616 31.616c17.472 0 31.616-14.144 31.616-31.616s-14.144-31.616-31.616-31.616zM15.744 23.488h6.144v-1.728c0-2.496 1.6-4.48 3.712-4.48h13.632c2.048 0 3.712 1.984 3.712 4.48v1.728h4.8v6.592c0 1.984-1.536 3.648-3.392 3.648h-25.152c-1.92 0-3.456-1.6-3.456-3.648v-6.592zM48.384 45.568h-33.472v-13.056c0.832 1.536 2.432 2.624 4.288 2.624h25.088c1.728 0 3.264-0.96 4.16-2.432v12.864z"></path>
<path fill="#ffffff" d="M40 21.76c0-0.96-0.512-1.6-0.832-1.6h-13.568c-0.256 0-0.832 0.576-0.832 1.6v1.728h15.232v-1.728z"></path>
</svg>
