<?xml version="1.0" encoding="utf-8"?>
<!-- Generated by IcoMoon.io -->
<!DOCTYPE svg PUBLIC "-//W3C//DTD SVG 1.1//EN" "http://www.w3.org/Graphics/SVG/1.1/DTD/svg11.dtd">
<svg version="1.1" xmlns="http://www.w3.org/2000/svg" xmlns:xlink="http://www.w3.org/1999/xlink" width="64" height="64" viewBox="0 0 64 64">
<rect fill="#215ab7" x="0" y="0" width="64" height="64"></rect>
<path fill="#ffffff" d="M31.936 0.768c-17.28 0-31.296 14.016-31.296 31.296s14.016 31.296 31.296 31.296c17.28 0 31.296-14.016 31.296-31.296s-14.016-31.296-31.296-31.296zM48.192 38.080c-3.648 0-7.296 0-10.944 0 0 3.648 0 7.232 0 10.88-3.968 0-7.872 0-11.84 0 0-3.648 0-7.232 0-10.88-3.584 0-7.168 0-10.752 0 0-3.968 0-7.936 0-11.84 3.584 0 7.168 0 10.752 0 0-3.584 0-7.232 0-10.816 3.968 0 7.936 0 11.84 0 0 3.584 0 7.232 0 10.816 3.648 0 7.296 0 10.944 0 0 3.904 0 7.872 0 11.84z"></path>
</svg>
