<?xml version="1.0" encoding="utf-8"?>
<!-- Generated by IcoMoon.io -->
<!DOCTYPE svg PUBLIC "-//W3C//DTD SVG 1.1//EN" "http://www.w3.org/Graphics/SVG/1.1/DTD/svg11.dtd">
<svg version="1.1" xmlns="http://www.w3.org/2000/svg" xmlns:xlink="http://www.w3.org/1999/xlink" width="20" height="20" viewBox="0 0 20 20">
<path fill="#444444" d="M9.86 0c-5.44 0-9.86 4.42-9.86 9.86s4.42 9.86 9.86 9.86c5.44 0 9.86-4.42 9.86-9.86-0.020-5.44-4.42-9.86-9.86-9.86zM14.4 13.48c-4.8 3.36-8.8 0-8.8 0v-3.52l4.38 2.52 0.24 0.16 0.28-0.18 3.9-2.62v3.64zM10.18 12.060l-4.66-2.68 4.44-2.060-5.16 1.6v2.28h-0.040l0.24 2.62c0 0-0.22 0.2-0.56 0.2-0.16 0-0.36-0.020-0.58-0.18l0.2-2.64h-0.060v-2.64l-0.78-0.48 6.7-3.98 6.68 3.6-6.42 4.36z"></path>
</svg>
