<?xml version="1.0" encoding="utf-8"?>
<!-- Generated by IcoMoon.io -->
<!DOCTYPE svg PUBLIC "-//W3C//DTD SVG 1.1//EN" "http://www.w3.org/Graphics/SVG/1.1/DTD/svg11.dtd">
<svg version="1.1" xmlns="http://www.w3.org/2000/svg" xmlns:xlink="http://www.w3.org/1999/xlink" width="64" height="64" viewBox="0 0 64 64">
<rect fill="#215ab7" x="0" y="0" width="64" height="64"></rect>
<path fill="#ffffff" d="M15.929 19.911c3.413 0 6.969 0 10.524 0 0 1.849 0 3.413 0 5.262-1.707 0-3.271 0-5.12 0 0 7.111 0 13.938 0 21.049 6.827 0 13.796 0 21.049 0 0-2.56 0-5.12 0-7.68 1.849 0 3.413 0 5.262 0 0 4.267 0 8.533 0 13.084-10.524 0-21.049 0-31.573 0-0.142-10.524-0.142-21.191-0.142-31.716z"></path>
<path fill="#ffffff" d="M42.524 17.209l-15.36 18.062 0.284 7.396h7.111l15.076-17.778z"></path>
<path fill="#ffffff" d="M44.516 14.649l7.396 6.969 2.702-2.844-7.538-7.253z"></path>
</svg>
