<?xml version="1.0" encoding="utf-8"?>
<!-- Generated by IcoMoon.io -->
<!DOCTYPE svg PUBLIC "-//W3C//DTD SVG 1.1//EN" "http://www.w3.org/Graphics/SVG/1.1/DTD/svg11.dtd">
<svg version="1.1" xmlns="http://www.w3.org/2000/svg" xmlns:xlink="http://www.w3.org/1999/xlink" width="64" height="64" viewBox="0 0 64 64">
<rect fill="#215ab7" x="0" y="0" width="64" height="64"></rect>
<path fill="#ffffff" d="M5.888 6.784v50.432h52.352v-50.432h-52.352zM47.36 37.248c-3.2 0-6.528 0-9.728 0 0 3.2 0 6.528 0 9.728-3.584 0-7.040 0-10.624 0 0-3.2 0-6.528 0-9.728-3.2 0-6.4 0-9.6 0 0-3.584 0-7.040 0-10.624 3.2 0 6.4 0 9.6 0 0-3.2 0-6.4 0-9.728 3.584 0 7.040 0 10.624 0 0 3.2 0 6.4 0 9.728 3.2 0 6.528 0 9.728 0 0 3.584 0 7.168 0 10.624z"></path>
</svg>
