<?xml version="1.0" encoding="utf-8"?>
<!-- Generated by IcoMoon.io -->
<!DOCTYPE svg PUBLIC "-//W3C//DTD SVG 1.1//EN" "http://www.w3.org/Graphics/SVG/1.1/DTD/svg11.dtd">
<svg version="1.1" xmlns="http://www.w3.org/2000/svg" xmlns:xlink="http://www.w3.org/1999/xlink" width="20" height="20" viewBox="0 0 20 20">
<path fill="#444444" d="M11.4 14.040c0-0.88 0-1.76 0-2.68 0.88 0 1.8 0 2.68 0 0-0.96 0-1.96 0-2.92-0.88 0-1.8 0-2.68 0 0-0.88 0-1.76 0-2.64-0.96 0-1.92 0-2.92 0 0 0.88 0 1.76 0 2.64-0.88 0-1.76 0-2.64 0 0 0.96 0 1.92 0 2.92 0.88 0 1.76 0 2.64 0 0 0.88 0 1.8 0 2.68 1 0 1.96 0 2.92 0z"></path>
<path fill="#444444" d="M10 18.4c-4.64 0-8.4-3.76-8.4-8.4s3.76-8.4 8.4-8.4 8.4 3.76 8.4 8.4-3.76 8.4-8.4 8.4zM10 3.040c-3.84 0-6.96 3.12-6.96 6.96s3.12 6.96 6.96 6.96 6.96-3.12 6.96-6.96-3.12-6.96-6.96-6.96z"></path>
</svg>
