<?xml version="1.0" encoding="utf-8"?>
<!-- Generated by IcoMoon.io -->
<!DOCTYPE svg PUBLIC "-//W3C//DTD SVG 1.1//EN" "http://www.w3.org/Graphics/SVG/1.1/DTD/svg11.dtd">
<svg version="1.1" xmlns="http://www.w3.org/2000/svg" xmlns:xlink="http://www.w3.org/1999/xlink" width="20" height="20" viewBox="0 0 20 20">
<path fill="#444444" d="M1.84 2.12v15.76h16.36v-15.76h-16.36zM14.8 11.64c-1 0-2.040 0-3.040 0 0 1 0 2.040 0 3.040-1.12 0-2.2 0-3.32 0 0-1 0-2.040 0-3.040-1 0-2 0-3 0 0-1.12 0-2.2 0-3.32 1 0 2 0 3 0 0-1 0-2 0-3.040 1.12 0 2.2 0 3.32 0 0 1 0 2 0 3.040 1 0 2.040 0 3.040 0 0 1.12 0 2.24 0 3.32z"></path>
</svg>
