<?xml version="1.0" encoding="utf-8"?>
<!-- Generated by IcoMoon.io -->
<!DOCTYPE svg PUBLIC "-//W3C//DTD SVG 1.1//EN" "http://www.w3.org/Graphics/SVG/1.1/DTD/svg11.dtd">
<svg version="1.1" xmlns="http://www.w3.org/2000/svg" xmlns:xlink="http://www.w3.org/1999/xlink" width="20" height="20" viewBox="0 0 20 20">
<path fill="#444444" d="M12.28 9.2h-1.88v1.6h1.28c0.32-0.8 0.52-1.2 0.6-1.6z"></path>
<path fill="#444444" d="M12.28 8.12c-0.040-0.52-0.2-0.92-0.4-1.72h-1.48v2.4h1.92c0-0.4 0-0.56-0.040-0.68z"></path>
<path fill="#444444" d="M10 9.2h-1.88c0.080 0.4 0.28 0.8 0.6 1.6h1.28v-1.6z"></path>
<path fill="#444444" d="M11.32 11.2h-0.92v1.56c0.4-0.36 0.68-0.76 0.92-1.56z"></path>
<path fill="#444444" d="M12.84 8.080c0 0.12 0.040 0.32 0.040 0.72h1.36c-0.040-1.2-0.2-1.6-0.48-2.4h-1.24c0.16 0.8 0.28 1.2 0.32 1.68z"></path>
<path fill="#444444" d="M11.68 11.88l0.16 0.36c0 0 0.040 0.080 0.12 0.16 0.2-0.24 0.44-0.4 0.52-0.48l0.28-0.2v-0.16c0.040-0.040 0.040-0.36 0.080-0.36h-0.84c-0.12 0-0.2 0.56-0.32 0.68z"></path>
<path fill="#444444" d="M13.48 10.76l0.12 0.24c0.080-0.24 0.24-0.4 0.32-0.52 0.16-0.36 0.28-0.88 0.32-1.28h-1.4c-0.080 0.4-0.24 0.8-0.56 1.6h1l0.2-0.040z"></path>
<path fill="#444444" d="M13.4 6c-0.56-0.4-1.4-1.28-2.32-1.48 0.36 0.36 0.8 1.080 1.16 1.48h1.16z"></path>
<path fill="#444444" d="M10.4 5.2v0.8h1.2c-0.36-0.4-0.8-0.52-1.2-0.8z"></path>
<path fill="#444444" d="M10 6.4h-1.48c-0.2 0.8-0.36 1.2-0.4 1.72 0 0.12 0 0.28 0 0.68h1.88v-2.4z"></path>
<path fill="#444444" d="M15.32 11.28c0.84 0 0.48-1.2 0.48-1.2s-1.36 0.080-0.92 0.96c-0.040 0.040-0.080 0.12-0.12 0.16-0.080-0.2-0.24-0.36-0.32-0.48-0.040-0.040-0.080-0.080-0.080-0.080s-0.6 0.56-0.4 0.96c0.040 0.12 0.16 0.2 0.36 0.28-0.12 0.12-0.24 0.28-0.36 0.4 0-0.16-0.080-0.32-0.2-0.44-0.12-0.2-0.28-0.32-0.28-0.32s-0.64 0.6-0.4 1c0.040 0.12 0.16 0.2 0.36 0.28-0.12 0.12-0.28 0.24-0.4 0.36 0-0.16-0.080-0.32-0.12-0.44-0.12-0.2-0.24-0.32-0.24-0.32s-0.6 0.4-0.6 0.8c0 0.16 0.080 0.32 0.28 0.44-0.12 0.080-0.24 0.16-0.4 0.2 0.080-0.2 0.040-0.4-0.040-0.6s-0.2-0.36-0.28-0.48l-0.080-0.12-0.36 0.2c-0.16 0.16-0.36 0.4-0.44 0.64-0.040 0.24 0.040 0.48 0.36 0.68-0.32 0.12-0.6 0.2-0.88 0.28-0.28-0.080-0.6-0.16-0.88-0.28 0.32-0.2 0.4-0.44 0.36-0.68s-0.24-0.48-0.4-0.64c-0.16-0.16-0.36-0.28-0.36-0.28s-0.040 0.040-0.12 0.16c-0.080 0.12-0.2 0.28-0.28 0.48s-0.12 0.4-0.040 0.6c-0.12-0.080-0.28-0.16-0.4-0.2 0.2-0.12 0.28-0.28 0.28-0.44 0-0.44-0.6-0.84-0.6-0.84s-0.12 0.16-0.24 0.36c-0.080 0.12-0.12 0.28-0.12 0.44-0.12-0.12-0.28-0.24-0.4-0.36 0.16-0.080 0.28-0.16 0.32-0.24 0.28-0.4-0.36-1.040-0.36-1.040s-0.16 0.16-0.32 0.36c-0.080 0.12-0.16 0.28-0.16 0.4-0.12-0.12-0.24-0.28-0.36-0.4 0.16-0.080 0.28-0.16 0.32-0.24 0.24-0.4-0.36-0.96-0.36-0.96s-0.080 0.080-0.12 0.16c-0.12 0.12-0.24 0.28-0.28 0.44-0.040-0.040-0.080-0.12-0.12-0.16 0.44-0.88-0.92-0.96-0.92-0.96s-0.36 1.2 0.48 1.2c0.040 0 0.080 0 0.12 0 0.040 0.080 0.12 0.16 0.16 0.24-0.36 0-0.8 0.32-0.8 0.32s0.36 0.56 0.8 0.56c0.16 0 0.28-0.080 0.44-0.28 0.080 0.12 0.16 0.2 0.24 0.32-0.36 0.040-0.72 0.36-0.72 0.36s0.4 0.56 0.84 0.56c0.16 0 0.32-0.080 0.48-0.32 0.12 0.12 0.28 0.24 0.4 0.32-0.36 0.12-0.72 0.48-0.72 0.48s0.44 0.44 0.84 0.44c0.2 0 0.4-0.12 0.56-0.44 0.16 0.080 0.28 0.16 0.4 0.24-0.44 0.24-0.76 0.76-0.76 0.76s0.52 0.36 1 0.36c0.32 0 0.6-0.16 0.72-0.68 0.080 0.040 0.16 0.040 0.24 0.080l0.080 0.36c0.24-0.040 0.48-0.080 0.72-0.16 0.24 0.040 0.48 0.12 0.72 0.16l0.080-0.36c0.080-0.040 0.16-0.040 0.24-0.080 0.12 0.52 0.4 0.68 0.72 0.68 0.48 0 1-0.36 1-0.36s-0.32-0.56-0.76-0.76c0.12-0.080 0.28-0.16 0.4-0.24 0.12 0.32 0.32 0.44 0.56 0.44 0.4 0 0.84-0.44 0.84-0.44s-0.36-0.36-0.72-0.48c0.12-0.12 0.28-0.24 0.4-0.32 0.16 0.24 0.32 0.32 0.48 0.32 0.44 0 0.84-0.56 0.84-0.56s-0.36-0.28-0.72-0.36c0.080-0.080 0.16-0.2 0.28-0.32 0.12 0.2 0.28 0.28 0.44 0.28 0.4 0 0.8-0.56 0.8-0.56s-0.4-0.32-0.8-0.32c0.040-0.080 0.12-0.16 0.16-0.24 0.080-0.040 0.12-0.040 0.16-0.040z"></path>
<path fill="#444444" d="M7.56 8.080c0.040-0.48 0.16-0.88 0.32-1.68h-1.24c-0.28 0.8-0.44 1.2-0.48 2.4h1.36c0-0.4 0.040-0.6 0.040-0.72z"></path>
<path fill="#444444" d="M2 2v16h16.4v-16h-16.4zM16.16 12.080c-0.040 0.080-0.28 0.4-0.6 0.56l0.040 0.040-0.2 0.32c-0.080 0.12-0.44 0.6-0.92 0.72l0.16 0.16-0.28 0.28c-0.040 0.040-0.48 0.48-1 0.56l0.16 0.28-0.28 0.2c-0.080 0.040-0.64 0.44-1.24 0.44-0.28 0-0.56-0.080-0.72-0.28l-0.040 0.080-0.36-0.040c-0.2-0.040-0.4-0.080-0.64-0.12-0.24 0.040-0.44 0.080-0.64 0.12l-0.36 0.040-0.040-0.080c-0.2 0.16-0.44 0.28-0.72 0.28-0.6 0-1.2-0.4-1.24-0.44l-0.32-0.2 0.16-0.28c-0.52-0.080-0.92-0.52-1-0.56l-0.28-0.28 0.16-0.16c-0.48-0.12-0.84-0.6-0.92-0.72l-0.2-0.32 0.040-0.040c-0.32-0.2-0.56-0.48-0.6-0.56l-0.2-0.32 0.28-0.24c0.040 0 0.040-0.040 0.080-0.080-0.040-0.040-0.080-0.080-0.080-0.12-0.36-0.48-0.16-1.2-0.12-1.36l0.080-0.32h0.32c0.12 0 0.72 0.040 1.080 0.36-0.080-0.36-0.16-0.72-0.16-1.12 0-2.52 2.040-4.6 4.6-4.6 2.56 0.080 4.64 2.12 4.64 4.68 0 0.4-0.040 0.8-0.16 1.16 0.36-0.36 1-0.4 1.12-0.44h0.32l0.080 0.32c0.040 0.16 0.24 0.88-0.12 1.36-0.040 0.040-0.040 0.080-0.080 0.12 0.040 0.040 0.080 0.040 0.080 0.080l0.28 0.24-0.16 0.28z"></path>
<path fill="#444444" d="M10 12.76v-1.56h-0.92c0.24 0.8 0.52 1.2 0.92 1.56z"></path>
<path fill="#444444" d="M9.32 4.52c-0.92 0.2-1.76 1.080-2.32 1.48h1.16c0.36-0.4 0.8-1.12 1.16-1.48z"></path>
<path fill="#444444" d="M7.72 11.76l0.28 0.2c0.080 0.040 0.32 0.2 0.52 0.48 0.040-0.080 0.080-0.12 0.12-0.16l0.16-0.36c-0.12-0.16-0.24 0.080-0.32-0.72h-0.8c0.040 0 0.040 0.32 0.080 0.36l-0.040 0.2z"></path>
<path fill="#444444" d="M6.2 9.2c0.040 0.4 0.12 0.76 0.28 1.12 0.12 0.12 0.32 0.4 0.44 0.68l0.12-0.2 0.16-0.040h0.96c-0.28-0.8-0.48-1.2-0.56-1.6h-1.4z"></path>
<path fill="#444444" d="M10 5.2c-0.4 0.28-0.8 0.4-1.2 0.8h1.2v-0.8z"></path>
</svg>
