<?xml version="1.0" encoding="utf-8"?>
<!-- Generated by IcoMoon.io -->
<!DOCTYPE svg PUBLIC "-//W3C//DTD SVG 1.1//EN" "http://www.w3.org/Graphics/SVG/1.1/DTD/svg11.dtd">
<svg version="1.1" xmlns="http://www.w3.org/2000/svg" xmlns:xlink="http://www.w3.org/1999/xlink" width="64" height="64" viewBox="0 0 64 64">
<rect fill="#215ab7" x="0" y="0" width="64" height="64"></rect>
<path fill="#ffffff" d="M32.896 60.288c-14.848 0-26.88-12.032-26.88-26.88s12.032-26.88 26.88-26.88c14.848 0 26.88 12.032 26.88 26.88s-12.032 26.88-26.88 26.88zM32.896 11.136c-12.288 0-22.272 9.984-22.272 22.272s9.984 22.272 22.272 22.272c12.288 0 22.272-9.984 22.272-22.272s-9.984-22.272-22.272-22.272z"></path>
<path fill="#ffffff" d="M42.368 38.4c0 0-0.64 0.64-1.024 1.28l1.408-0.896c-0.256-0.256-0.384-0.384-0.384-0.384z"></path>
<path fill="#ffffff" d="M20.48 34.944l0.512-0.512 0.768 0.64c0 0 0.128 0.64 0.128 0.768-0.384-1.024-0.64-2.688-0.768-2.688h3.968c0.128 1.28 0.768 2.56 1.536 3.84h-2.816l0.256 0.128c0.128 0.128 0.64 1.152 1.024 1.152h2.304c0.256 0 0.64 1.28 0.896 1.664l0.256-0.128 0.896 0.64c0.384 0.256 2.56 1.792 2.688 3.712 0.128 0 0.256 0 0.384 0s0.384 0 0.512 0c0.256-1.92 2.304-3.456 2.688-3.712l0.896-0.512 0.128-0.128c0.256-0.384 0.64-1.664 0.896-1.664h2.432c0.384 0 0.896-1.024 1.152-1.152l0.256-0.128h-2.944c0.896-1.28 1.408-2.56 1.536-3.84h3.968c-0.128 1.28-0.384 1.792-0.896 2.944 0.128-0.256 0.384-0.64 0.384-0.768l0.768-0.896 0.512 0.384c0.128-0.128 0.256-0.384 0.384-0.512 0.256-1.152 0.512-2.304 0.512-3.456 0-7.296-6.016-13.312-13.312-13.312s-13.312 6.016-13.312 13.312c0 1.152 0.128 2.176 0.384 3.2 0.64 0.512 0.896 0.768 1.024 1.024zM43.136 25.6c0.768 1.28 1.28 3.84 1.408 6.4h-3.968c0-2.56 0-1.408 0-1.792-0.128-1.408-0.512-4.608-1.024-4.608h3.584zM42.112 24.32h-3.328c-1.024-2.56-2.304-3.328-3.328-4.352 2.688 0.64 4.992 1.792 6.656 4.352zM33.28 20.224c1.28 0.768 2.56 1.536 3.584 4.096h-3.584v-4.096zM33.28 25.6h4.48c0.512 0 1.024 3.2 1.152 4.736 0 0.384 0 1.664 0 1.664h-5.632v-6.4zM33.28 33.28h5.504c-0.256 1.28-0.768 2.56-1.792 3.84h-3.712v-3.84zM33.28 38.4h2.816c-0.64 2.56-1.536 2.56-2.816 3.584v-3.584zM32 41.984c0-1.024-1.792-1.024-2.432-3.584h2.432v3.584zM32 37.12h-3.456c-1.024-1.28-1.536-2.56-1.792-3.84h5.248v3.84zM32 32h-5.248c0 0 0-1.408 0-1.664 0.128-1.536 0.64-4.736 1.152-4.736h4.096v6.4zM32 20.224v4.096h-3.2c1.024-2.56 3.2-3.328 3.2-4.096zM30.208 19.968c-1.024 1.024-2.304 1.792-3.328 4.352h-3.328c1.664-2.56 3.968-3.712 6.656-4.352zM22.528 25.6h3.584c-0.512 0-0.896 3.2-1.024 4.608 0 0.384 0-0.768 0 1.792h-3.968c0.128-2.56 0.512-5.12 1.408-6.4z"></path>
<path fill="#ffffff" d="M34.432 44.544l-1.024 0.768c0 0 0 0.128 0 0.128l1.024-0.768c0 0 0 0 0-0.128z"></path>
<path fill="#ffffff" d="M43.648 40.704c0.384-0.384 0.64-0.768 1.024-1.152-0.512-0.256-0.896-0.512-1.024-0.768-0.128 0.256-0.384 0.512-0.512 0.64 0.256 0.384 0.512 0.768 0.512 1.28z"></path>
<path fill="#ffffff" d="M40.96 43.136c0.384-0.256 0.768-0.64 1.152-1.024-0.512-0.256-0.768-0.512-1.024-0.768-0.128 0.128-0.384 0.256-0.64 0.384 0.384 0.512 0.512 0.896 0.512 1.408z"></path>
<path fill="#ffffff" d="M37.888 45.184c0.384-0.256 0.768-0.384 1.152-0.64-0.64-0.384-0.768-0.896-0.768-1.28-0.128 0.128-0.256 0.128-0.512 0.256 0.256 0.384 0.256 1.024 0.128 1.664z"></path>
<path fill="#ffffff" d="M46.336 37.12c-0.128-0.256-0.256-0.512-0.256-0.768l-0.512 0.384c0.128 0.256 0.384 0.512 0.512 0.768 0 0 0.128-0.128 0.256-0.384z"></path>
<path fill="#ffffff" d="M43.52 35.584c-0.384 0.384-0.768 0.896-1.024 1.536l-0.256-0.256-0.512 0.512h0.896c0.384-0.512 0.64-1.152 0.896-1.792z"></path>
<path fill="#ffffff" d="M32.256 45.696c0.128-0.384 0.256-0.768 0.256-1.024 0-0.128 0-0.128 0-0.256-0.384 0-0.768 0-1.152-0.128 0.128 0.64-0.128 1.408-1.024 1.92 0.384 0.128 0.768 0.256 1.152 0.384l1.28-0.896c-0.128 0-0.384 0-0.512 0z"></path>
<path fill="#ffffff" d="M21.12 39.424c0.384 0.384 0.64 0.768 1.024 1.152 0-0.384 0.256-0.768 0.512-1.152-0.128-0.256-0.384-0.384-0.512-0.64-0.256 0.256-0.64 0.512-1.024 0.64z"></path>
<path fill="#ffffff" d="M35.456 46.208c-0.64-0.512-1.024-1.024-1.024-1.536l-1.024 0.768c0 0 0 0.128 0 0.128-0.128 0-0.384 0.128-0.512 0.128l-1.28 0.896c0.384 0.128 0.768 0.256 1.152 0.384 0.896-0.128 1.792-0.384 2.688-0.768z"></path>
<path fill="#ffffff" d="M23.552 42.112c0.384 0.384 0.768 0.64 1.152 1.024 0-0.384 0.128-0.896 0.384-1.28-0.256-0.128-0.384-0.256-0.64-0.384-0.128 0.256-0.384 0.512-0.896 0.64z"></path>
<path fill="#ffffff" d="M46.080 36.352c0 0.128 0 0.128 0 0z"></path>
<path fill="#ffffff" d="M46.080 36.48c0 0 0 0 0 0l-0.64 0.384c0 0 0 0 0 0l0.64-0.384z"></path>
<path fill="#ffffff" d="M32.896 45.824c0 0-0.128 0-0.128 0l-1.28 0.896c0.128 0 0.128 0 0.256 0l1.152-0.896c0 0 0 0 0 0z"></path>
<path fill="#ffffff" d="M35.712 42.368c0.512-0.512 0.896-0.768 0.896-0.768s0.128-0.128 0.256 0.128c1.664-0.64 3.2-0.768 4.48-3.328h-1.024c-0.128 0-0.128 0.512-0.256 0.64v0.128l-0.896 0.64c-0.256 0.128-0.896 0.64-1.536 1.408-0.128-0.256-0.256-0.256-0.256-0.384l-0.256-0.512c-0.512 0.768-1.024 1.408-1.664 2.176 0 0 0.128-0.128 0.256-0.128z"></path>
<path fill="#ffffff" d="M33.408 45.312l1.024-0.768c0-0.128 0-0.256 0-0.384-0.384 0-0.768 0.128-1.152 0.128 0 0.128 0 0.128 0 0.256 0 0.256 0 0.512 0.128 0.768z"></path>
<path fill="#ffffff" d="M23.168 37.12c-0.256-0.896-0.896-1.536-1.152-1.792 0.256 0.768 0.64 1.408 1.024 2.048h1.024l-0.512-0.512-0.384 0.256z"></path>
<path fill="#ffffff" d="M27.776 49.28c-1.408 0-2.944-1.024-2.944-1.024s0.896-1.536 2.176-2.176c-0.384-0.256-0.768-0.512-1.152-0.64-0.384 1.024-1.024 1.28-1.536 1.28-1.152 0-2.432-1.28-2.432-1.28s1.024-1.152 2.048-1.408c-0.384-0.256-0.768-0.64-1.152-1.024-0.384 0.64-0.896 0.896-1.408 0.896-1.28 0-2.432-1.664-2.432-1.664s1.024-0.768 2.048-1.024c-0.256-0.256-0.512-0.512-0.768-0.896-0.384 0.512-0.896 0.768-1.28 0.768-1.152 0-2.304-1.536-2.304-1.536s1.152-0.896 2.304-0.896c-0.128-0.256-0.256-0.384-0.384-0.64-0.128 0-0.256 0-0.384 0-2.432 0-1.408-3.456-1.408-3.456s3.968 0.256 2.688 2.816c0.128 0.128 0.256 0.384 0.384 0.512 0.128-0.512 0.512-1.024 0.896-1.28-0.256-0.64-0.512-1.28-0.64-2.048-1.024-0.896-2.688-1.024-3.072-1.152h-0.896l-0.256 0.896c-0.128 0.384-0.64 2.56 0.384 3.968 0.128 0.128 0.128 0.256 0.256 0.256-0.128 0.128-0.256 0.128-0.256 0.256l-0.896 0.64 0.64 0.896c0.128 0.256 0.768 1.152 1.792 1.664l-0.128 0.128 0.64 0.896c0.256 0.256 1.28 1.664 2.688 2.048l-0.384 0.512 0.768 0.768c0.128 0.128 1.408 1.408 2.816 1.664l-0.512 0.896 0.896 0.64c0.128 0.128 1.92 1.28 3.584 1.28 0.896 0 1.536-0.256 2.176-0.768l0.128 0.256 1.024-0.128c0.64-0.128 1.152-0.256 1.92-0.384 0.64 0.128 1.28 0.256 1.92 0.384l0.512-0.256 0.128-0.256c0.512 0.512 1.28 0.768 2.176 0.768 1.664 0 3.456-1.152 3.584-1.28l0.896-0.64-0.512-0.896c1.408-0.256 2.688-1.408 2.816-1.664l0.768-0.768-0.512-0.384c1.408-0.384 2.432-1.792 2.688-2.048l0.64-0.896-0.128-0.128c0.896-0.512 1.536-1.408 1.792-1.664l0.64-0.896-0.896-0.64c0 0-0.128-0.128-0.256-0.256 0.128-0.128 0.256-0.256 0.256-0.256 1.024-1.408 0.512-3.456 0.384-3.968l-0.256-0.896h-0.896c-0.384 0-2.176 0.128-3.328 1.28-0.128 0.64-0.384 1.28-0.64 1.792 0.128 0.128 0.256 0.384 0.512 0.512l0.512-0.384c-0.256-1.92 2.944-2.048 2.944-2.048s1.024 3.456-1.408 3.456c-0.128 0-0.256 0-0.384 0-0.128 0.256-0.256 0.384-0.384 0.64 1.024 0 2.304 0.896 2.304 0.896s-1.28 1.664-2.432 1.664c-0.384 0-0.896-0.256-1.28-0.768-0.256 0.256-0.512 0.64-0.768 0.896 1.024 0.128 2.048 1.024 2.048 1.024s-1.152 1.664-2.432 1.664c-0.512 0-0.896-0.256-1.408-0.896-0.384 0.384-0.768 0.64-1.152 1.024 1.024 0.256 2.048 1.408 2.048 1.408s-1.28 1.28-2.432 1.28c-0.64 0-1.152-0.384-1.536-1.28-0.384 0.256-0.768 0.512-1.152 0.64 1.28 0.64 2.176 2.176 2.176 2.176s-1.536 1.024-2.944 1.024c-0.896 0-1.792-0.512-2.048-1.92-0.256 0.128-0.512 0.128-0.64 0.256l-0.384 1.152c-0.64-0.128-1.408-0.256-2.048-0.384-0.64 0.128-1.408 0.256-2.048 0.384l-0.256-1.024z"></path>
<path fill="#ffffff" d="M26.752 44.544c0.384 0.256 0.768 0.384 1.152 0.64-0.256-0.512-0.128-1.152 0.128-1.664-0.128 0-0.256-0.128-0.384-0.128-0.128 0.256-0.256 0.768-0.896 1.152z"></path>
<path fill="#ffffff" d="M30.080 42.368c0 0 0.128 0 0.128 0-0.64-0.64-1.152-1.408-1.664-2.048l-0.384 0.512c0 0-0.128 0.128-0.256 0.384-0.512-0.768-1.28-1.152-1.536-1.28l-0.768-0.64v-0.256c-0.128-0.128-0.128-0.64-0.256-0.64h-1.152c1.28 2.56 2.816 2.688 4.608 3.328 0.128-0.256 0.256-0.256 0.256-0.256s0.512 0.512 1.024 0.896z"></path>
<path fill="#ffffff" d="M20.992 35.968c0 0 1.792 1.664 1.024 2.816 0.128 0.256 0.384 0.512 0.512 0.64 0.384-0.64 0.896-1.024 0.896-1.024s1.92 1.792 1.152 2.944c0.128 0.128 0.384 0.256 0.64 0.384 0.256-0.64 0.64-1.024 0.64-1.024s1.792 1.152 1.792 2.432c0.128 0 0.256 0.128 0.384 0.128 0.256-0.512 0.512-1.408 0.768-1.664-1.792-0.64-3.328-0.768-4.608-3.328h1.152c-0.384 0-0.896-1.024-1.024-1.152h-1.408c-0.384 0-0.768-1.152-1.024-1.92-0.128-0.128-0.128-0.128-0.128-0.128l-0.768-0.64-0.512 0.512c-0.128-0.256-0.384-0.384-0.512-0.64 0.128 0.64 0.384 1.408 0.64 2.048 0.256-0.256 0.384-0.384 0.384-0.384z"></path>
<path fill="#ffffff" d="M43.52 38.144c0 0 0 0.128 0 0z"></path>
<path fill="#ffffff" d="M37.12 40.32l-0.128-0.256-0.896 0.512c-0.384 0.256-2.56 1.792-2.688 3.712 0.384 0 0.768 0 1.152-0.128z"></path>
<path fill="#ffffff" d="M41.216 39.936l-3.84 2.688c0.128 0.256 0.256 0.512 0.384 0.768 0.128 0 0.256-0.128 0.512-0.256 0-1.152 1.792-2.304 1.792-2.304s0.384 0.384 0.64 0.896c0.256-0.128 0.384-0.256 0.64-0.384-0.384-0.384-0.384-0.896-0.128-1.408z"></path>
<path fill="#ffffff" d="M44.672 34.432l-0.768 0.64c-0.128 0.128-0.256 0.128-0.384 0.384-0.256 0.64-0.512 1.664-0.896 1.664h-0.896l-0.256 0.128c-0.128 0.128-0.64 1.152-1.152 1.152h1.024c-1.28 2.56-2.688 2.688-4.48 3.328 0.128 0.128 0.256 0.512 0.384 0.768l3.968-2.688c0.384-0.768 1.024-1.28 1.024-1.28s0.128 0.128 0.384 0.384l0.896-0.64c0-1.024 1.152-2.176 1.152-2.176s0.128 0.128 0.256 0.256c0.256-0.64 0.384-1.152 0.64-1.792-0.128 0.128-0.256 0.256-0.384 0.512l-0.512-0.64z"></path>
<path fill="#ffffff" d="M30.080 42.368c0.512 0.512 1.024 1.152 1.152 1.792 0.384 0 0.768 0.128 1.152 0.128-0.256-1.92-2.304-3.456-2.688-3.712l-0.896-0.512-0.256 0.256c0.512 0.64 1.024 1.408 1.664 2.048 0 0.128 0 0-0.128 0z"></path>
<path fill="#ffffff" d="M41.216 39.936c0 0 0-0.128 0.128-0.128l-3.968 2.816c0 0 0 0 0 0.128l3.84-2.816z"></path>
<path fill="#ffffff" d="M42.752 38.784c0.128 0.128 0.256 0.384 0.384 0.512 0.128-0.256 0.384-0.512 0.512-0.64 0-0.128-0.128-0.256-0.128-0.384l-0.768 0.512z"></path>
<path fill="#ffffff" d="M43.52 38.272c0 0 0-0.128 0 0l-0.896 0.512c0 0 0 0 0 0l0.896-0.512z"></path>
<path fill="#ffffff" d="M42.752 38.784c0 0 0 0 0 0l-1.408 0.896c0 0 0 0.128-0.128 0.128l1.536-1.024z"></path>
</svg>
