<?xml version="1.0" encoding="utf-8"?>
<!-- Generated by IcoMoon.io -->
<!DOCTYPE svg PUBLIC "-//W3C//DTD SVG 1.1//EN" "http://www.w3.org/Graphics/SVG/1.1/DTD/svg11.dtd">
<svg version="1.1" xmlns="http://www.w3.org/2000/svg" xmlns:xlink="http://www.w3.org/1999/xlink" width="64" height="64" viewBox="0 0 64 64">
<rect fill="#215ab7" x="0" y="0" width="64" height="64"></rect>
<path fill="#ffffff" d="M30.72 30.4h-6.656c0.256 1.536 1.088 3.008 2.304 6.016h4.352v-6.016z"></path>
<path fill="#ffffff" d="M39.744 30.4h-7.488v6.016h5.184c1.28-3.008 2.048-4.48 2.304-6.016z"></path>
<path fill="#ffffff" d="M30.72 18.368v-4.288c-1.536 1.024-2.688 2.752-4.096 4.288h4.096z"></path>
<path fill="#ffffff" d="M39.808 26.368c-0.192-1.92-0.704-3.52-1.472-6.528h-6.080v9.024h7.616c0-1.472 0-2.048-0.064-2.496z"></path>
<path fill="#ffffff" d="M36.16 37.952h-3.904v4.544c1.472-1.344 3.008-1.536 3.904-4.544z"></path>
<path fill="#ffffff" d="M37.44 39.936l0.64 0.768c0.064 0.064 0.192 0.384 0.384 0.64 0.704-0.896 1.664-1.472 1.92-1.664l1.088-0.64 0.064-0.32c0.064-0.192 0.192-0.768 0.256-0.768h-3.2c-0.32 0-0.704 1.408-1.152 1.984z"></path>
<path fill="#ffffff" d="M32.256 14.080v4.288h4.928c-1.408-1.536-3.456-3.264-4.928-4.288z"></path>
<path fill="#ffffff" d="M41.856 26.176c0.064 0.512 0.064 1.216 0.064 2.752h5.184c-0.128-4.544-0.704-6.016-1.792-9.024h-4.736c0.704 2.944 1.152 4.416 1.28 6.272z"></path>
<path fill="#ffffff" d="M43.968 18.368c-2.112-1.536-5.184-4.8-8.704-5.568 1.408 1.344 3.072 4.096 4.352 5.568h4.352z"></path>
<path fill="#ffffff" d="M44.224 35.84l0.384 0.384c0.32-0.832 0.832-1.216 1.28-1.728 0.576-1.408 1.024-2.624 1.152-4.16h-5.184c-0.256 1.536-0.96 3.008-2.048 6.016h3.776l0.64-0.512z"></path>
<path fill="#ffffff" d="M21.952 26.176c0.192-1.856 0.64-3.264 1.28-6.272h-4.736c-1.024 3.008-1.664 4.544-1.792 9.024h5.184c0-1.536 0-2.304 0.064-2.752z"></path>
<path fill="#ffffff" d="M28.544 12.8c-3.52 0.768-6.592 4.032-8.704 5.568h4.352c1.344-1.536 3.008-4.288 4.352-5.568z"></path>
<path fill="#ffffff" d="M30.72 37.952h-3.072c0.896 3.008 1.536 3.2 3.072 4.544v-4.544z"></path>
<path fill="#ffffff" d="M35.264 0.192c-20.224-1.984-37.12 14.848-35.136 35.072 1.472 14.976 13.568 27.072 28.544 28.544 20.224 1.984 37.12-14.848 35.136-35.072-1.472-14.976-13.568-27.072-28.544-28.544zM54.336 39.936c-0.192 0.32-1.024 1.472-2.24 2.176l0.192 0.192-0.832 1.152c-0.256 0.384-1.6 2.176-3.456 2.688l0.512 0.64-1.024 1.024c-0.192 0.192-1.792 1.792-3.712 2.112l0.64 1.088-1.152 0.768c-0.256 0.192-2.496 1.664-4.672 1.664-1.088 0-2.048-0.384-2.752-1.024l-0.128 0.32-1.344-0.192c-0.768-0.128-1.536-0.256-2.432-0.448-0.832 0.192-1.664 0.32-2.432 0.448l-1.344 0.192v-0.384c-0.704 0.64-1.664 1.024-2.752 1.024-2.24 0-4.48-1.472-4.672-1.664l-1.152-0.768 0.704-1.088c-1.92-0.32-3.52-1.92-3.712-2.112l-1.152-1.024 0.576-0.64c-1.856-0.512-3.136-2.304-3.456-2.688l-0.832-1.152 0.192-0.192c-1.216-0.704-2.048-1.856-2.24-2.176l-0.768-1.152 1.088-0.896c0.064-0.064 0.192-0.128 0.384-0.256-0.128-0.128-0.256-0.256-0.384-0.384-1.344-1.792-0.576-4.544-0.448-5.12l0.32-1.152 1.216 0.064c0.512 0 2.624 0.256 4.032 1.408-0.704-2.944-0.832-6.080 0.384-9.6 2.432-6.592 8.448-11.52 15.488-11.904 9.984-0.512 18.24 7.424 18.24 17.28 0 1.536-0.256 3.008-0.576 4.416 1.344-1.408 3.712-1.6 4.288-1.6l1.216-0.064 0.32 1.152c0.192 0.576 0.896 3.328-0.448 5.12-0.128 0.128-0.256 0.256-0.384 0.384 0.192 0.128 0.32 0.192 0.384 0.256l1.088 0.896-0.768 1.216z"></path>
<path fill="#ffffff" d="M49.536 36.16c-0.128 0.256-0.256 0.448-0.448 0.64-0.256-0.768-0.832-1.408-1.216-1.792-0.192-0.192-0.32-0.32-0.32-0.32s-2.176 1.984-1.408 3.52c0.192 0.384 0.576 0.768 1.28 1.024-0.384 0.512-0.832 1.024-1.28 1.472-0.064-0.576-0.32-1.152-0.704-1.664-0.512-0.704-1.088-1.216-1.088-1.216s-2.368 2.24-1.472 3.776c0.192 0.384 0.64 0.704 1.28 1.024-0.512 0.448-1.024 0.896-1.536 1.28 0-0.576-0.256-1.216-0.512-1.728-0.384-0.704-0.832-1.216-0.832-1.216s-2.24 1.472-2.304 3.072c0 0.576 0.256 1.152 1.024 1.664-0.512 0.256-0.96 0.576-1.472 0.832 0.256-0.704 0.128-1.536-0.192-2.24-0.256-0.768-0.704-1.408-1.024-1.856l-0.384-0.512-1.216 0.96c-0.704 0.64-1.408 1.536-1.664 2.496-0.192 0.832 0.064 1.728 1.28 2.56-1.152 0.448-2.24 0.768-3.392 1.024-1.088-0.256-2.24-0.64-3.328-1.024 1.216-0.768 1.472-1.664 1.28-2.56s-0.896-1.792-1.6-2.432c-0.704-0.64-1.28-1.024-1.28-1.024s-0.192 0.192-0.384 0.512c-0.32 0.448-0.704 1.088-1.024 1.856-0.256 0.704-0.384 1.536-0.128 2.176-0.512-0.256-0.96-0.512-1.472-0.832 0.704-0.512 1.024-1.088 1.024-1.6 0-1.6-2.304-3.136-2.304-3.136s-0.512 0.576-0.896 1.344c-0.256 0.512-0.448 1.088-0.448 1.664-0.512-0.384-1.024-0.832-1.536-1.28 0.64-0.256 1.024-0.576 1.216-0.896 1.024-1.6-1.408-3.904-1.408-3.904s-0.704 0.576-1.216 1.28c-0.32 0.448-0.576 1.024-0.64 1.536-0.448-0.448-0.832-0.96-1.28-1.472 0.64-0.256 1.024-0.576 1.216-0.896 0.96-1.472-1.344-3.648-1.344-3.648s-0.192 0.192-0.448 0.448c-0.384 0.384-0.896 1.024-1.152 1.664-0.128-0.192-0.256-0.384-0.448-0.64 1.664-3.328-3.456-3.584-3.456-3.584s-1.344 4.48 1.792 4.48c0.128 0 0.32 0 0.448 0 0.192 0.256 0.384 0.576 0.576 0.832-1.344 0-2.944 1.216-2.944 1.216s1.408 2.048 2.944 2.048c0.576 0 1.152-0.256 1.664-1.024 0.32 0.384 0.64 0.768 0.96 1.152-1.344 0.256-2.688 1.28-2.688 1.28s1.472 2.176 3.136 2.176c0.64 0 1.216-0.32 1.792-1.152 0.512 0.448 0.96 0.832 1.472 1.28-1.408 0.384-2.688 1.856-2.688 1.856s1.664 1.664 3.2 1.664c0.768 0 1.536-0.448 2.048-1.664 0.512 0.32 1.024 0.64 1.536 0.896-1.6 0.832-2.816 2.88-2.816 2.88s1.984 1.408 3.84 1.408c1.216 0 2.304-0.576 2.752-2.56 0.256 0.128 0.576 0.256 0.896 0.32l0.32 1.408c0.896-0.128 1.728-0.32 2.624-0.512 0.896 0.256 1.792 0.384 2.624 0.512l0.32-1.408c0.32-0.128 0.64-0.192 0.896-0.32 0.384 1.984 1.536 2.56 2.688 2.56 1.792 0 3.84-1.408 3.84-1.408s-1.216-2.048-2.816-2.88c0.512-0.256 1.024-0.576 1.536-0.896 0.512 1.216 1.28 1.664 2.048 1.664 1.6 0 3.2-1.664 3.2-1.664s-1.28-1.408-2.688-1.856c0.512-0.384 1.024-0.832 1.472-1.28 0.576 0.832 1.216 1.152 1.792 1.152 1.6 0 3.136-2.176 3.136-2.176s-1.344-1.088-2.688-1.28c0.32-0.384 0.64-0.768 0.96-1.152 0.512 0.704 1.088 1.024 1.664 1.024 1.536 0 2.944-2.048 2.944-2.048s-1.6-1.216-2.944-1.216c0.192-0.256 0.384-0.576 0.576-0.832 0.192 0 0.32 0 0.448 0 3.136 0 1.792-4.48 1.792-4.48s-4.672 0.256-3.008 3.648z"></path>
<path fill="#ffffff" d="M30.72 19.84h-5.248c-0.704 3.008-1.28 4.608-1.472 6.528-0.064 0.384-0.064 1.024-0.064 2.496h6.784v-9.024z"></path>
<path fill="#ffffff" d="M22.464 38.72v0l1.152 0.832c0.256 0.192 1.216 0.896 1.92 1.792 0.192-0.256 0.32-0.32 0.384-0.448l0.512-0.96c-0.448-0.576-0.832 0.896-1.216-2.112h-3.072c0.128 0.128 0.192 0.768 0.32 0.896z"></path>
<path fill="#ffffff" d="M16.768 30.4c0.128 1.536 0.512 2.432 1.024 3.712 0.448 0.448 1.216 1.024 1.6 2.112l0.384-0.384 0.64 0.512h3.584c-1.152-3.008-1.856-4.544-2.112-6.016h-5.12z"></path>
</svg>
