<?xml version="1.0" encoding="utf-8"?>
<!-- Generated by IcoMoon.io -->
<!DOCTYPE svg PUBLIC "-//W3C//DTD SVG 1.1//EN" "http://www.w3.org/Graphics/SVG/1.1/DTD/svg11.dtd">
<svg version="1.1" xmlns="http://www.w3.org/2000/svg" xmlns:xlink="http://www.w3.org/1999/xlink" width="64" height="64" viewBox="0 0 64 64">
<rect fill="#215ab7" x="0" y="0" width="64" height="64"></rect>
<path fill="#ffffff" d="M39.296 29.44h-6.016v5.12h4.096c1.024-2.56 1.664-3.84 1.92-5.12z"></path>
<path fill="#ffffff" d="M39.296 25.984c-0.128-1.664-0.64-2.944-1.28-5.504h-4.736v7.68h6.144c0-1.28 0-1.792-0.128-2.176z"></path>
<path fill="#ffffff" d="M32 29.44h-6.016c0.256 1.28 0.896 2.56 1.92 5.12h4.096v-5.12z"></path>
<path fill="#ffffff" d="M36.224 35.84h-2.944v4.992c1.28-1.152 2.176-2.432 2.944-4.992z"></path>
<path fill="#ffffff" d="M41.088 25.856c0 0.384 0.128 1.024 0.128 2.304h4.352c-0.128-3.84-0.64-5.12-1.536-7.68h-3.968c0.512 2.56 0.896 3.84 1.024 5.376z"></path>
<path fill="#ffffff" d="M37.376 38.016l0.512 1.152c0 0 0.128 0.256 0.384 0.512 0.64-0.768 1.408-1.28 1.664-1.536l0.896-0.64v-0.512c0.128-0.128 0.128-1.152 0.256-1.152h-2.688c-0.384 0-0.64 1.792-1.024 2.176z"></path>
<path fill="#ffffff" d="M43.136 34.432l0.384 0.768c0.256-0.768 0.768-1.28 1.024-1.664 0.512-1.152 0.896-2.816 1.024-4.096h-4.48c-0.256 1.28-0.768 2.56-1.792 5.12h3.2l0.64-0.128z"></path>
<path fill="#ffffff" d="M42.88 19.2c-1.792-1.28-4.48-4.096-7.424-4.736 1.152 1.152 2.56 3.456 3.712 4.736h3.712z"></path>
<path fill="#ffffff" d="M33.28 16.64v2.56h3.84c-1.152-1.28-2.56-1.664-3.84-2.56z"></path>
<path fill="#ffffff" d="M32 20.48h-4.736c-0.64 2.56-1.152 3.84-1.28 5.504 0 0.384 0 0.896 0 2.176h6.016v-7.68z"></path>
<path fill="#ffffff" d="M49.024 36.096c2.688 0 1.536-3.84 1.536-3.84s-4.352 0.256-2.944 3.072c-0.128 0.128-0.256 0.384-0.384 0.512-0.256-0.64-0.768-1.152-1.024-1.536-0.128-0.128-0.256-0.256-0.256-0.256s-1.92 1.792-1.28 3.072c0.128 0.384 0.512 0.64 1.152 0.896-0.384 0.384-0.768 0.896-1.152 1.28 0-0.512-0.256-1.024-0.64-1.408-0.384-0.64-0.896-1.024-0.896-1.024s-2.048 1.92-1.28 3.2c0.128 0.384 0.512 0.64 1.152 0.896-0.384 0.384-0.896 0.768-1.28 1.152 0-0.512-0.256-1.024-0.384-1.408-0.384-0.64-0.768-1.024-0.768-1.024s-1.92 1.28-1.92 2.56c0 0.512 0.256 1.024 0.896 1.408-0.384 0.256-0.768 0.512-1.28 0.64 0.256-0.64 0.128-1.28-0.128-1.92s-0.64-1.152-0.896-1.536l-0.256-0.384-1.152 0.64c-0.512 0.512-1.152 1.28-1.408 2.048-0.128 0.768 0.128 1.536 1.152 2.176-1.024 0.384-1.92 0.64-2.816 0.896-0.896-0.256-1.92-0.512-2.816-0.896 1.024-0.64 1.28-1.408 1.152-2.176s-0.768-1.536-1.28-2.048c-0.512-0.512-1.152-0.896-1.152-0.896s-0.128 0.128-0.384 0.512c-0.256 0.384-0.64 0.896-0.896 1.536s-0.384 1.28-0.128 1.92c-0.384-0.256-0.896-0.512-1.28-0.64 0.64-0.384 0.896-0.896 0.896-1.408 0-1.408-1.92-2.688-1.92-2.688s-0.384 0.512-0.768 1.152c-0.256 0.384-0.384 0.896-0.384 1.408-0.384-0.384-0.896-0.768-1.28-1.152 0.512-0.256 0.896-0.512 1.024-0.768 0.896-1.28-1.152-3.328-1.152-3.328s-0.512 0.512-1.024 1.152c-0.256 0.384-0.512 0.896-0.512 1.28-0.384-0.384-0.768-0.896-1.152-1.28 0.512-0.256 0.896-0.512 1.024-0.768 0.768-1.28-1.152-3.072-1.152-3.072s-0.256 0.256-0.384 0.512c-0.384 0.384-0.768 0.896-0.896 1.408-0.128-0.128-0.256-0.384-0.384-0.512 1.408-2.816-2.944-3.072-2.944-3.072s-1.152 3.84 1.536 3.84c0.128 0 0.256 0 0.384 0 0.128 0.256 0.384 0.512 0.512 0.768-1.152 0-2.56 1.024-2.56 1.024s1.152 1.792 2.56 1.792c0.512 0 0.896-0.256 1.408-0.896 0.256 0.384 0.512 0.64 0.768 1.024-1.152 0.128-2.304 1.152-2.304 1.152s1.28 1.792 2.688 1.792c0.512 0 1.024-0.256 1.536-1.024 0.384 0.384 0.896 0.768 1.28 1.024-1.152 0.384-2.304 1.536-2.304 1.536s1.408 1.408 2.688 1.408c0.64 0 1.28-0.384 1.792-1.408 0.512 0.256 0.896 0.512 1.28 0.768-1.408 0.768-2.432 2.432-2.432 2.432s1.664 1.152 3.2 1.152c1.024 0 1.92-0.512 2.304-2.176 0.256 0.128 0.512 0.128 0.768 0.256l0.256 1.152c0.768-0.128 1.536-0.256 2.304-0.512 0.768 0.128 1.536 0.384 2.304 0.512l0.256-1.152c0.256-0.128 0.512-0.128 0.768-0.256 0.384 1.664 1.28 2.176 2.304 2.176 1.536 0 3.2-1.152 3.2-1.152s-1.024-1.792-2.432-2.432c0.384-0.256 0.896-0.512 1.28-0.768 0.384 1.024 1.024 1.408 1.792 1.408 1.28 0 2.688-1.408 2.688-1.408s-1.152-1.152-2.304-1.536c0.384-0.384 0.896-0.768 1.28-1.024 0.512 0.768 1.024 1.024 1.536 1.024 1.408 0 2.688-1.792 2.688-1.792s-1.152-0.896-2.304-1.152c0.256-0.256 0.512-0.64 0.896-1.024 0.384 0.64 0.896 0.896 1.408 0.896 1.28 0 2.56-1.792 2.56-1.792s-1.28-1.024-2.56-1.024c0.128-0.256 0.384-0.512 0.512-0.768 0.256-0.128 0.384-0.128 0.512-0.128z"></path>
<path fill="#ffffff" d="M24.192 25.856c0.128-1.536 0.512-2.816 1.024-5.376h-3.968c-0.896 2.56-1.408 3.84-1.536 7.68h4.352c0-1.28 0.128-1.92 0.128-2.304z"></path>
<path fill="#ffffff" d="M6.4 6.4v51.2h52.48v-51.2h-52.48zM51.712 38.656c-0.128 0.256-0.896 1.28-1.92 1.792l0.128 0.128-0.64 1.024c-0.256 0.384-1.408 1.92-2.944 2.304l0.512 0.512-0.896 0.896c-0.128 0.128-1.536 1.536-3.2 1.792l0.512 0.896-0.896 0.64c-0.256 0.128-2.048 1.408-3.968 1.408-0.896 0-1.792-0.256-2.304-0.896l-0.128 0.256-1.152-0.128c-0.64-0.128-1.28-0.256-2.048-0.384-0.768 0.128-1.408 0.256-2.048 0.384l-1.152 0.128-0.128-0.256c-0.64 0.512-1.408 0.896-2.304 0.896-1.92 0-3.84-1.28-3.968-1.408l-1.024-0.64 0.512-0.896c-1.664-0.256-2.944-1.664-3.2-1.792l-0.896-0.896 0.512-0.512c-1.536-0.384-2.688-1.92-2.944-2.304l-0.64-1.024 0.128-0.128c-1.024-0.64-1.792-1.536-1.92-1.792l-0.64-1.024 0.896-0.768c0.128 0 0.128-0.128 0.256-0.256-0.128-0.128-0.256-0.256-0.256-0.384-1.152-1.536-0.512-3.84-0.384-4.352l0.256-1.024h1.024c0.384 0 2.304 0.128 3.456 1.152-0.256-1.152-0.512-2.304-0.512-3.584 0-8.064 6.528-14.72 14.72-14.72 8.192 0.256 14.848 6.784 14.848 14.976 0 1.28-0.128 2.56-0.512 3.712 1.152-1.152 3.2-1.28 3.584-1.408h1.024l0.256 1.024c0.128 0.512 0.768 2.816-0.384 4.352-0.128 0.128-0.128 0.256-0.256 0.384 0.128 0.128 0.256 0.128 0.256 0.256l0.896 0.768-0.512 0.896z"></path>
<path fill="#ffffff" d="M32 40.832v-4.992h-2.944c0.768 2.56 1.664 3.84 2.944 4.992z"></path>
<path fill="#ffffff" d="M29.824 14.464c-2.944 0.64-5.632 3.456-7.424 4.736h3.712c1.152-1.28 2.56-3.584 3.712-4.736z"></path>
<path fill="#ffffff" d="M24.704 37.632l0.896 0.64c0.256 0.128 1.024 0.64 1.664 1.536 0.128-0.256 0.256-0.384 0.384-0.512l0.512-1.152c-0.384-0.512-0.768 0.256-1.024-2.304h-2.56c0.128 0 0.128 1.024 0.256 1.152l-0.128 0.64z"></path>
<path fill="#ffffff" d="M19.84 29.44c0.128 1.28 0.384 2.432 0.896 3.584 0.384 0.384 1.024 1.28 1.408 2.176l0.384-0.64 0.512-0.128h3.072c-0.896-2.56-1.536-3.84-1.792-5.12h-4.48z"></path>
<path fill="#ffffff" d="M32 16.64c-1.28 0.896-2.56 1.28-3.84 2.56h3.84v-2.56z"></path>
</svg>
