<?xml version="1.0" encoding="utf-8"?>
<!-- Generated by IcoMoon.io -->
<!DOCTYPE svg PUBLIC "-//W3C//DTD SVG 1.1//EN" "http://www.w3.org/Graphics/SVG/1.1/DTD/svg11.dtd">
<svg version="1.1" xmlns="http://www.w3.org/2000/svg" xmlns:xlink="http://www.w3.org/1999/xlink" width="64" height="64" viewBox="0 0 64 64">
<rect fill="#215ab7" x="0" y="0" width="64" height="64"></rect>
<path fill="#ffffff" d="M11.662 29.867c0.427-0.996 1.28-1.28 2.418-1.28 2.276 0 4.551 0 6.827 0 1.28 0 1.991 0.711 1.991 1.991 0 5.547 0 11.093 0 16.64 0 1.138-0.569 1.849-1.849 1.849-2.56 0-4.978 0.142-7.538 0-0.569 0-1.138-0.711-1.849-1.138 0-5.973 0-12.089 0-18.062zM18.489 43.947c0-0.853-0.711-1.707-1.707-1.707s-1.707 0.853-1.707 1.707c0 0.996 0.711 1.707 1.707 1.707 0.996 0.142 1.707-0.711 1.707-1.707z"></path>
<path fill="#ffffff" d="M41.956 25.173c2.418 0 4.693 0 6.969 0s4.124 0.711 5.12 2.844c0.996 1.991 0.711 3.982-0.427 5.831-0.142 0.284-0.284 0.853-0.142 1.28 0.284 1.564 0.142 3.129-0.711 4.551-0.142 0.284-0.284 0.711-0.142 0.996 0.284 1.707-0.142 3.271-1.138 4.693-0.284 0.284-0.427 0.853-0.427 1.138-0.142 3.84-2.276 5.973-6.116 6.258-4.978 0.284-9.671-0.427-14.222-2.133-1.422-0.569-2.987-0.853-4.409-1.28-1.138-0.284-1.564-0.853-1.564-2.133 0-3.556 0-7.253 0-10.809 0-1.849 0-3.698 0-5.404 0-1.422 0.284-1.707 1.564-2.133 0.569-0.142 1.138-0.569 1.564-0.996 1.564-1.849 2.987-3.698 4.551-5.404 1.849-1.849 2.987-4.124 3.129-6.684 0 0 0 0 0-0.142 0.711-2.987 1.849-3.982 3.413-3.84 2.844 0.284 4.693 1.849 5.12 4.409 0.427 2.702 0 5.262-1.422 7.68-0.284 0.142-0.427 0.569-0.711 1.28z"></path>
</svg>
