<?xml version="1.0" encoding="utf-8"?>
<!-- Generated by IcoMoon.io -->
<!DOCTYPE svg PUBLIC "-//W3C//DTD SVG 1.1//EN" "http://www.w3.org/Graphics/SVG/1.1/DTD/svg11.dtd">
<svg version="1.1" xmlns="http://www.w3.org/2000/svg" xmlns:xlink="http://www.w3.org/1999/xlink" width="20" height="20" viewBox="0 0 20 20">
<path fill="#444444" d="M3.644 9.333c0.133-0.311 0.4-0.4 0.756-0.4 0.711 0 1.422 0 2.133 0 0.4 0 0.622 0.222 0.622 0.622 0 1.733 0 3.467 0 5.2 0 0.356-0.178 0.578-0.578 0.578-0.8 0-1.556 0.044-2.356 0-0.178 0-0.356-0.222-0.578-0.356 0-1.867 0-3.778 0-5.644zM5.778 13.733c0-0.267-0.222-0.533-0.533-0.533s-0.533 0.267-0.533 0.533c0 0.311 0.222 0.533 0.533 0.533 0.311 0.044 0.533-0.222 0.533-0.533z"></path>
<path fill="#444444" d="M13.111 7.867c0.756 0 1.467 0 2.178 0s1.289 0.222 1.6 0.889c0.311 0.622 0.222 1.244-0.133 1.822-0.044 0.089-0.089 0.267-0.044 0.4 0.089 0.489 0.044 0.978-0.222 1.422-0.044 0.089-0.089 0.222-0.044 0.311 0.089 0.533-0.044 1.022-0.356 1.467-0.089 0.089-0.133 0.267-0.133 0.356-0.044 1.2-0.711 1.867-1.911 1.956-1.556 0.089-3.022-0.133-4.444-0.667-0.444-0.178-0.933-0.267-1.378-0.4-0.356-0.089-0.489-0.267-0.489-0.667 0-1.111 0-2.267 0-3.378 0-0.578 0-1.156 0-1.689 0-0.444 0.089-0.533 0.489-0.667 0.178-0.044 0.356-0.178 0.489-0.311 0.489-0.578 0.933-1.156 1.422-1.689 0.578-0.578 0.933-1.289 0.978-2.089 0 0 0 0 0-0.044 0.222-0.933 0.578-1.244 1.067-1.2 0.889 0.089 1.467 0.578 1.6 1.378 0.133 0.844 0 1.644-0.444 2.4-0.089 0.044-0.133 0.178-0.222 0.4z"></path>
</svg>
