<?xml version="1.0" encoding="utf-8"?>
<!-- Generated by IcoMoon.io -->
<!DOCTYPE svg PUBLIC "-//W3C//DTD SVG 1.1//EN" "http://www.w3.org/Graphics/SVG/1.1/DTD/svg11.dtd">
<svg version="1.1" xmlns="http://www.w3.org/2000/svg" xmlns:xlink="http://www.w3.org/1999/xlink" width="64" height="64" viewBox="0 0 64 64">
<rect fill="#215ab7" x="0" y="0" width="64" height="64"></rect>
<path fill="#ffffff" d="M9.6 12.032c0.64 0 1.28 0.128 1.92 0.128 12.672 0 25.472 0 38.144 0 0.64 0 1.152 0 1.92 0 0 1.664 0 3.2 0 4.608 0 1.024 0.256 1.408 1.408 1.408 1.536-0.128 2.944 0 4.608 0 0 0.64 0.128 1.152 0.128 1.536 0 7.68 0 15.232 0 22.912 0 3.584-1.792 5.376-5.376 5.376-12.672 0-25.472 0-38.144 0-2.048 0-3.584-0.384-4.608-2.432 0-11.008 0-22.272 0-33.536zM12.544 15.104c0 10.112 0 20.096 0 30.080 12.032 0 24.064 0 36.096 0 0-10.112 0-20.096 0-30.080-12.032 0-24.064 0-36.096 0z"></path>
<path fill="#ffffff" d="M15.744 27.264c0 4.992 0 9.728 0 14.592 4.864 0 9.728 0 14.72 0 0-4.608 0-9.216 0-13.696 0-0.256-0.512-0.896-0.896-0.896-4.608 0-9.088 0-13.824 0zM15.744 23.808c9.984 0 19.84 0 29.696 0 0-0.896 0-1.664 0-2.432-9.984 0-19.712 0-29.696 0 0 0.768 0 1.536 0 2.432zM45.44 27.392c-3.968 0-7.68 0-11.648 0 0 0.896 0.128 1.664 0.128 2.432 3.968 0 7.68 0 11.52 0 0-0.896 0-1.664 0-2.432zM45.44 33.28c-3.2 0-6.4 0-9.472 0-2.304 0-2.56 0.256-1.92 2.56 3.712 0 7.552 0 11.392 0 0-0.768 0-1.536 0-2.56zM34.048 41.856c2.816 0 5.632 0 8.32 0 0.384-2.56 0.384-2.56-1.92-2.56-1.408 0-2.944 0-4.352 0-2.432 0-2.56 0.128-2.048 2.56z"></path>
<path fill="#ffffff" d="M15.744 27.264c4.736 0 9.216 0 13.696 0 0.256 0 0.896 0.512 0.896 0.896 0 4.48 0 9.088 0 13.696-4.992 0-9.728 0-14.72 0 0.128-4.864 0.128-9.6 0.128-14.592z"></path>
<path fill="#ffffff" d="M15.744 23.808c0-0.896 0-1.536 0-2.432 9.856 0 19.712 0 29.696 0 0 0.768 0 1.536 0 2.432-9.856 0-19.712 0-29.696 0z"></path>
<path fill="#ffffff" d="M45.44 27.392c0 0.768 0 1.536 0 2.432-3.84 0-7.552 0-11.52 0 0-0.768-0.128-1.536-0.128-2.432 3.968 0 7.68 0 11.648 0z"></path>
<path fill="#ffffff" d="M45.44 33.28c0 1.024 0 1.792 0 2.56-3.84 0-7.552 0-11.392 0-0.64-2.304-0.512-2.56 1.92-2.56 3.072 0 6.272 0 9.472 0z"></path>
<path fill="#ffffff" d="M34.048 41.856c-0.512-2.56-0.384-2.56 1.92-2.56 1.408 0 2.944 0 4.352 0 2.432 0 2.432 0 1.92 2.56-2.56 0-5.376 0-8.192 0z"></path>
</svg>
