<?xml version="1.0" encoding="utf-8"?>
<!-- Generated by IcoMoon.io -->
<!DOCTYPE svg PUBLIC "-//W3C//DTD SVG 1.1//EN" "http://www.w3.org/Graphics/SVG/1.1/DTD/svg11.dtd">
<svg version="1.1" xmlns="http://www.w3.org/2000/svg" xmlns:xlink="http://www.w3.org/1999/xlink" width="64" height="64" viewBox="0 0 64 64">
<rect fill="#215ab7" x="0" y="0" width="64" height="64"></rect>
<path fill="#ffffff" d="M56.32 48.924c-2.418-3.84-5.262-7.111-9.102-9.387-4.978-3.129-10.382-4.267-16.356-3.698 0 2.276 0 4.409 0 6.542 0 1.138 0.142 2.276-0.996 2.987-1.138 0.569-1.849-0.427-2.702-0.996-6.116-4.409-12.231-8.96-18.347-13.369-0.569-0.427-0.853-0.853-1.28-1.422 0-0.284 0-0.569 0-0.853 0.427-0.569 0.996-1.138 1.564-1.422 6.258-4.551 12.373-9.102 18.631-13.653 0.142-0.142 0.427-0.284 0.569-0.427 1.28-0.853 2.276-0.427 2.56 1.138 0.142 1.138 0.142 2.133 0.142 3.271s0 2.133 0 3.271c2.133 0.427 4.267 0.569 6.258 1.28 10.098 3.271 15.929 10.382 18.489 20.48 0.284 1.138 0.427 2.418 0.711 3.698-0.142 0.711-0.142 1.707-0.142 2.56z"></path>
</svg>
