<?xml version="1.0" encoding="utf-8"?>
<!-- Generated by IcoMoon.io -->
<!DOCTYPE svg PUBLIC "-//W3C//DTD SVG 1.1//EN" "http://www.w3.org/Graphics/SVG/1.1/DTD/svg11.dtd">
<svg version="1.1" xmlns="http://www.w3.org/2000/svg" xmlns:xlink="http://www.w3.org/1999/xlink" width="20" height="20" viewBox="0 0 20 20">
<path fill="#444444" d="M17.6 15.289c-0.756-1.2-1.644-2.222-2.844-2.933-1.556-0.978-3.244-1.333-5.111-1.156 0 0.711 0 1.378 0 2.044 0 0.356 0.044 0.711-0.311 0.933-0.356 0.178-0.578-0.133-0.844-0.311-1.911-1.378-3.822-2.8-5.733-4.178-0.178-0.133-0.267-0.267-0.4-0.444 0-0.089 0-0.178 0-0.267 0.133-0.178 0.311-0.356 0.489-0.444 1.956-1.422 3.867-2.844 5.822-4.267 0.044-0.044 0.133-0.089 0.178-0.133 0.4-0.267 0.711-0.133 0.8 0.356 0.044 0.356 0.044 0.667 0.044 1.022s0 0.667 0 1.022c0.667 0.133 1.333 0.178 1.956 0.4 3.156 1.022 4.978 3.244 5.778 6.4 0.089 0.356 0.133 0.756 0.222 1.156-0.044 0.222-0.044 0.533-0.044 0.8z"></path>
</svg>
