<?xml version="1.0" encoding="utf-8"?>
<!-- Generated by IcoMoon.io -->
<!DOCTYPE svg PUBLIC "-//W3C//DTD SVG 1.1//EN" "http://www.w3.org/Graphics/SVG/1.1/DTD/svg11.dtd">
<svg version="1.1" xmlns="http://www.w3.org/2000/svg" xmlns:xlink="http://www.w3.org/1999/xlink" width="20" height="20" viewBox="0 0 20 20">
<path fill="#444444" d="M18.756 15.778c-0.267 0.533-0.756 0.711-1.333 0.711-4.711 0-9.378 0-14.089 0-0.578 0-1.067-0.178-1.333-0.711 0-0.133 0-0.311 0-0.444 0.133-0.267 0.267-0.489 0.4-0.756 2.267-3.822 4.533-7.689 6.844-11.511 0.222-0.356 0.578-0.578 0.844-0.889 0.133 0 0.311 0 0.444 0 0.267 0.222 0.578 0.356 0.711 0.622 2.489 4.178 4.978 8.356 7.467 12.489 0.044 0.178 0.044 0.311 0.044 0.489zM10.4 4.578c-2.089 3.422-4.133 6.8-6.222 10.222 4.178 0 8.222 0 12.4 0-2.089-3.422-4.133-6.8-6.178-10.222z"></path>
<path fill="#444444" d="M11.467 8.489c-0.044 0.844-0.133 1.689-0.178 2.533-0.044 0.533-0.444 0.933-0.933 0.889-0.489 0-0.844-0.4-0.889-0.889-0.089-1.022-0.133-2.044-0.222-3.067-0.044-0.711 0.444-1.244 1.111-1.244s1.156 0.533 1.111 1.244c0 0.222 0 0.4 0 0.533 0 0 0 0 0 0z"></path>
<path fill="#444444" d="M10.356 14.178c-0.533 0-0.889-0.4-0.889-0.889 0-0.533 0.4-0.889 0.933-0.889s0.933 0.4 0.933 0.933c-0.044 0.489-0.444 0.844-0.978 0.844z"></path>
</svg>
