<?xml version="1.0" encoding="utf-8"?>
<!-- Generated by IcoMoon.io -->
<!DOCTYPE svg PUBLIC "-//W3C//DTD SVG 1.1//EN" "http://www.w3.org/Graphics/SVG/1.1/DTD/svg11.dtd">
<svg version="1.1" xmlns="http://www.w3.org/2000/svg" xmlns:xlink="http://www.w3.org/1999/xlink" width="64" height="64" viewBox="0 0 64 64">
<rect fill="#215ab7" x="0" y="0" width="64" height="64"></rect>
<path fill="#ffffff" d="M60.018 50.489c-0.853 1.707-2.418 2.276-4.267 2.276-15.076 0-30.009 0-45.084 0-1.849 0-3.413-0.569-4.267-2.276 0-0.427 0-0.996 0-1.422 0.427-0.853 0.853-1.564 1.28-2.418 7.253-12.231 14.507-24.604 21.902-36.836 0.711-1.138 1.849-1.849 2.702-2.844 0.427 0 0.996 0 1.422 0 0.853 0.711 1.849 1.138 2.276 1.991 7.964 13.369 15.929 26.738 23.893 39.964 0.142 0.569 0.142 0.996 0.142 1.564zM33.28 14.649c-6.684 10.951-13.227 21.76-19.911 32.711 13.369 0 26.311 0 39.68 0-6.684-10.951-13.227-21.76-19.769-32.711z"></path>
<path fill="#ffffff" d="M36.693 27.164c-0.142 2.702-0.427 5.404-0.569 8.107-0.142 1.707-1.422 2.987-2.987 2.844-1.564 0-2.702-1.28-2.844-2.844-0.284-3.271-0.427-6.542-0.711-9.813-0.142-2.276 1.422-3.982 3.556-3.982s3.698 1.707 3.556 3.982c0 0.711 0 1.28 0 1.707 0 0 0 0 0 0z"></path>
<path fill="#ffffff" d="M33.138 45.369c-1.707 0-2.844-1.28-2.844-2.844 0-1.707 1.28-2.844 2.987-2.844s2.987 1.28 2.987 2.987c-0.142 1.564-1.422 2.702-3.129 2.702z"></path>
</svg>
