<?xml version="1.0" encoding="utf-8"?>
<!-- Generated by IcoMoon.io -->
<!DOCTYPE svg PUBLIC "-//W3C//DTD SVG 1.1//EN" "http://www.w3.org/Graphics/SVG/1.1/DTD/svg11.dtd">
<svg version="1.1" xmlns="http://www.w3.org/2000/svg" xmlns:xlink="http://www.w3.org/1999/xlink" width="64" height="64" viewBox="0 0 64 64">
<rect fill="#215ab7" x="0" y="0" width="64" height="64"></rect>
<path fill="#ffffff" d="M57.088 45.824l-3.712 1.92c-1.92 0.896-4.224 0.128-5.12-1.664l-12.032-23.808c-0.896-1.92-0.128-4.224 1.664-5.12l3.712-1.92c1.92-0.896 4.224-0.128 5.12 1.664l12.16 23.68c0.896 1.92 0.128 4.224-1.792 5.248z"></path>
<path fill="#ffffff" d="M20.48 13.952c0-0.64-0.512-1.152-1.152-1.152h-9.216c-0.64 0-1.152 0.512-1.152 1.152v32.128c0 0.768 0.512 1.28 1.152 1.28h9.088c0.64 0 1.152-0.512 1.152-1.152v-32.256zM17.92 16.64h-6.4v-2.56h6.4v2.56z"></path>
<path fill="#ffffff" d="M35.84 13.952c0-0.64-0.512-1.152-1.152-1.152h-9.088c-0.64 0-1.152 0.512-1.152 1.152v32.128c0 0.64 0.512 1.152 1.152 1.152h9.088c0.64 0 1.152-0.512 1.152-1.152v-32.128zM30.72 16.64h-5.12v-2.56h5.12v2.56z"></path>
</svg>
