<?xml version="1.0" encoding="utf-8"?>
<!-- Generated by IcoMoon.io -->
<!DOCTYPE svg PUBLIC "-//W3C//DTD SVG 1.1//EN" "http://www.w3.org/Graphics/SVG/1.1/DTD/svg11.dtd">
<svg version="1.1" xmlns="http://www.w3.org/2000/svg" xmlns:xlink="http://www.w3.org/1999/xlink" width="64" height="64" viewBox="0 0 64 64">
<rect fill="#215ab7" x="0" y="0" width="64" height="64"></rect>
<path fill="#ffffff" d="M32 0c-17.664 0-32 14.336-32 32s14.336 32 32 32c17.664 0 32-14.336 32-32s-14.336-32-32-32zM44.608 51.648h-25.408v-2.752h8.448v-7.552l-10.624-3.584 0.96-2.752 9.728 3.264h8.128c2.944-2.048 4.8-5.44 4.8-9.28 0-3.008-1.152-5.696-3.072-7.744l-6.72 10.176 1.6 1.088-1.728 2.56-2.432-1.6-1.408 2.112-1.984-1.344 1.408-2.112-2.048-1.344-1.408 2.112-2.048-1.408 1.408-2.112-0.448-0.256 1.728-2.56 6.528 4.352-4.928-3.264 7.488-11.264 0.96 0.64 4.16-5.184-1.664-1.152 0.704-1.088 6.208 4.16-0.704 1.088-1.6-1.088-2.368 4.672c3.008 2.56 4.928 6.336 4.928 10.624 0 4.864-2.496 9.152-6.336 11.648l3.712 8.256h3.968v2.688z"></path>
</svg>
