<?xml version="1.0" encoding="utf-8"?>
<!-- Generated by IcoMoon.io -->
<!DOCTYPE svg PUBLIC "-//W3C//DTD SVG 1.1//EN" "http://www.w3.org/Graphics/SVG/1.1/DTD/svg11.dtd">
<svg version="1.1" xmlns="http://www.w3.org/2000/svg" xmlns:xlink="http://www.w3.org/1999/xlink" width="20" height="20" viewBox="0 0 20 20">
<path fill="#444444" d="M10 0c-5.52 0-10 4.48-10 10s4.48 10 10 10c5.52 0 10-4.48 10-10s-4.48-10-10-10zM13.94 16.14h-7.94v-0.86h2.64v-2.36l-3.32-1.12 0.3-0.86 3.040 1.020h2.54c0.92-0.64 1.5-1.7 1.5-2.9 0-0.94-0.36-1.78-0.96-2.42l-2.1 3.18 0.5 0.34-0.54 0.8-0.76-0.5-0.44 0.66-0.62-0.42 0.44-0.66-0.64-0.42-0.44 0.66-0.64-0.44 0.44-0.66-0.14-0.080 0.54-0.8 2.040 1.36-1.54-1.020 2.34-3.52 0.3 0.2 1.3-1.62-0.52-0.36 0.22-0.34 1.94 1.3-0.22 0.34-0.5-0.34-0.74 1.46c0.94 0.8 1.54 1.98 1.54 3.32 0 1.52-0.78 2.86-1.98 3.64l1.16 2.58h1.24v0.84z"></path>
</svg>
