<?xml version="1.0" encoding="utf-8"?>
<!-- Generated by IcoMoon.io -->
<!DOCTYPE svg PUBLIC "-//W3C//DTD SVG 1.1//EN" "http://www.w3.org/Graphics/SVG/1.1/DTD/svg11.dtd">
<svg version="1.1" xmlns="http://www.w3.org/2000/svg" xmlns:xlink="http://www.w3.org/1999/xlink" width="64" height="64" viewBox="0 0 64 64">
<rect fill="#215ab7" x="0" y="0" width="64" height="64"></rect>
<path fill="#ffffff" d="M39.040 46.080l-2.816-6.272c2.944-1.92 4.864-5.248 4.864-8.96 0-3.328-1.408-6.144-3.84-8.192l1.792-3.584 1.28 0.768 0.512-0.768-4.736-3.2-0.512 0.768 1.28 0.896-3.2 3.968-0.768-0.512-5.76 8.704-1.152-0.768-1.28 1.92 0.384 0.256-1.024 1.664 1.536 1.024 1.024-1.664 1.536 1.152-1.024 1.664 1.536 1.024 1.024-1.664 1.792 1.28 1.28-1.92-1.28-0.768 5.12-7.808c1.408 1.536 2.304 3.712 2.304 5.888 0 2.944-1.408 5.504-3.712 7.168v0h-6.272l-7.424-2.56-0.768 2.176 8.192 2.688v5.632h-6.528v2.048h19.456v-2.048h-2.816z"></path>
<path fill="#ffffff" d="M32 59.008c-14.848 0-26.88-12.032-26.88-26.88s12.032-27.008 26.88-27.008c14.848 0 26.88 12.032 26.88 26.88 0 14.976-12.032 27.008-26.88 27.008zM32 9.856c-12.288 0-22.272 9.984-22.272 22.272s9.984 22.272 22.272 22.272c12.288 0 22.272-9.984 22.272-22.272s-9.984-22.272-22.272-22.272z"></path>
</svg>
