<?xml version="1.0" encoding="utf-8"?>
<!-- Generated by IcoMoon.io -->
<!DOCTYPE svg PUBLIC "-//W3C//DTD SVG 1.1//EN" "http://www.w3.org/Graphics/SVG/1.1/DTD/svg11.dtd">
<svg version="1.1" xmlns="http://www.w3.org/2000/svg" xmlns:xlink="http://www.w3.org/1999/xlink" width="64" height="64" viewBox="0 0 64 64">
<rect fill="#215ab7" x="0" y="0" width="64" height="64"></rect>
<path fill="#ffffff" d="M6.4 7.296v49.28h51.2v-49.28h-51.2zM43.392 49.664h-20.992v-2.304h7.040v-6.144l-8.704-2.944 0.768-2.304 8.064 2.688h6.656c2.432-1.664 3.968-4.48 3.968-7.68 0-2.432-0.896-4.736-2.56-6.4l-5.632 8.576 1.28 0.896-1.28 2.048-1.92-1.28-1.152 1.664-1.664-1.024 1.152-1.664-1.664-1.152-1.152 1.664-1.664-1.152 1.152-1.664-0.384-0.256 1.408-2.176 5.376 3.584-4.096-2.688 6.144-9.216 0.768 0.512 3.456-4.352-1.408-0.896 0.64-0.896 5.12 3.456-0.64 0.896-1.28-0.896-1.92 3.84c2.432 2.048 4.096 5.248 4.096 8.704 0 3.968-2.048 7.552-5.248 9.6l3.072 6.784h3.2v2.176z"></path>
</svg>
