<?xml version="1.0" encoding="utf-8"?>
<!-- Generated by IcoMoon.io -->
<!DOCTYPE svg PUBLIC "-//W3C//DTD SVG 1.1//EN" "http://www.w3.org/Graphics/SVG/1.1/DTD/svg11.dtd">
<svg version="1.1" xmlns="http://www.w3.org/2000/svg" xmlns:xlink="http://www.w3.org/1999/xlink" width="20" height="20" viewBox="0 0 20 20">
<path fill="#444444" d="M15.84 14.56l-3.080-3.080c0.52-0.76 0.8-1.68 0.8-2.68 0-2.64-2.16-4.84-4.84-4.84s-4.8 2.2-4.8 4.84 2.16 4.84 4.84 4.84c1.080 0 2.040-0.36 2.84-0.92l3.080 3.080c0.16 0.16 0.4 0.24 0.6 0.24s0.44-0.080 0.6-0.24c0.28-0.36 0.28-0.92-0.040-1.24zM5.12 8.8c0-2 1.64-3.6 3.6-3.6 2 0 3.6 1.64 3.6 3.6s-1.64 3.6-3.6 3.6c-2 0.040-3.6-1.6-3.6-3.6z"></path>
</svg>
