<?xml version="1.0" encoding="utf-8"?>
<!-- Generated by IcoMoon.io -->
<!DOCTYPE svg PUBLIC "-//W3C//DTD SVG 1.1//EN" "http://www.w3.org/Graphics/SVG/1.1/DTD/svg11.dtd">
<svg version="1.1" xmlns="http://www.w3.org/2000/svg" xmlns:xlink="http://www.w3.org/1999/xlink" width="20" height="20" viewBox="0 0 20 20">
<path fill="#444444" d="M9.556 6.178c-1.378 0-2.489 1.111-2.489 2.444 0 1.378 1.111 2.489 2.489 2.489s2.489-1.111 2.489-2.489c-0.044-1.333-1.156-2.444-2.489-2.444z"></path>
<path fill="#444444" d="M3.111 2.222v15.111h14.667v-15.111h-14.667zM15.556 13.733c0 0.267 0 0.489 0 0.933-0.444 0-0.711 0-0.978 0-0.044 0-0.133 0-0.178 0-0.178-0.444-0.356-0.444-0.578-0.622-0.533-0.533-1.067-1.067-1.556-1.6-0.178-0.178-0.178-0.311-0.044-0.533-0.267-0.267-0.489-0.489-0.756-0.756-0.044 0.044-0.089 0.044-0.133 0.089-1.778 1.2-4.133 0.4-4.8-1.644-0.044-0.178-0.178-0.356-0.222-0.578 0-0.044-0.089-0.044-0.089-0.089 0-0.178 0-0.356 0-0.533 0-0.044 0.089-0.089 0.089-0.133 0.178-1.333 1.2-2.444 2.489-2.756 0.133-0.044 0.267-0.178 0.4-0.178 0.178 0 0.4 0 0.578 0 0.133 0 0.267 0.133 0.4 0.178 1.333 0.311 2.267 1.378 2.444 2.711 0.133 0.844-0.089 1.644-0.622 2.311-0.044 0.044-0.044 0.089-0.089 0.089 0.267 0.267 0.489 0.489 0.756 0.756 0.044 0 0.089-0.044 0.133-0.044 0.133-0.044 0.267 0 0.4 0.089 0.356 0.356 0.667 0.667 1.022 1.022s0.8 0.756 1.2 1.111c0 0 0.133 0.044 0.133 0.044 0 0.044 0 0.089 0 0.133z"></path>
</svg>
