<?xml version="1.0" encoding="utf-8"?>
<!-- Generated by IcoMoon.io -->
<!DOCTYPE svg PUBLIC "-//W3C//DTD SVG 1.1//EN" "http://www.w3.org/Graphics/SVG/1.1/DTD/svg11.dtd">
<svg version="1.1" xmlns="http://www.w3.org/2000/svg" xmlns:xlink="http://www.w3.org/1999/xlink" width="64" height="64" viewBox="0 0 64 64">
<rect fill="#215ab7" x="0" y="0" width="64" height="64"></rect>
<path fill="#ffffff" d="M50.688 46.592l-9.856-9.856c1.664-2.432 2.56-5.376 2.56-8.576 0-8.448-6.912-15.488-15.488-15.488s-15.36 7.040-15.36 15.488 6.912 15.488 15.488 15.488c3.456 0 6.528-1.152 9.088-2.944l9.856 9.856c0.512 0.512 1.28 0.768 1.92 0.768s1.408-0.256 1.92-0.768c0.896-1.152 0.896-2.944-0.128-3.968zM16.384 28.16c0-6.4 5.248-11.52 11.52-11.52 6.4 0 11.52 5.248 11.52 11.52s-5.248 11.52-11.52 11.52c-6.4 0.128-11.52-5.12-11.52-11.52z"></path>
</svg>
