<?xml version="1.0" encoding="utf-8"?>
<!-- Generated by IcoMoon.io -->
<!DOCTYPE svg PUBLIC "-//W3C//DTD SVG 1.1//EN" "http://www.w3.org/Graphics/SVG/1.1/DTD/svg11.dtd">
<svg version="1.1" xmlns="http://www.w3.org/2000/svg" xmlns:xlink="http://www.w3.org/1999/xlink" width="64" height="64" viewBox="0 0 64 64">
<rect fill="#215ab7" x="0" y="0" width="64" height="64"></rect>
<path fill="#ffffff" d="M30.578 19.769c-4.409 0-7.964 3.556-7.964 7.822 0 4.409 3.556 7.964 7.964 7.964s7.964-3.556 7.964-7.964c-0.142-4.267-3.698-7.822-7.964-7.822z"></path>
<path fill="#ffffff" d="M9.956 7.111v48.356h46.933v-48.356h-46.933zM49.778 43.947c0 0.853 0 1.564 0 2.987-1.422 0-2.276 0-3.129 0-0.142 0-0.427 0-0.569 0-0.569-1.422-1.138-1.422-1.849-1.991-1.707-1.707-3.413-3.413-4.978-5.12-0.569-0.569-0.569-0.996-0.142-1.707-0.853-0.853-1.564-1.564-2.418-2.418-0.142 0.142-0.284 0.142-0.427 0.284-5.689 3.84-13.227 1.28-15.36-5.262-0.142-0.569-0.569-1.138-0.711-1.849 0-0.142-0.284-0.142-0.284-0.284 0-0.569 0-1.138 0-1.707 0-0.142 0.284-0.284 0.284-0.427 0.569-4.267 3.84-7.822 7.964-8.818 0.427-0.142 0.853-0.569 1.28-0.569 0.569 0 1.28 0 1.849 0 0.427 0 0.853 0.427 1.28 0.569 4.267 0.996 7.253 4.409 7.822 8.676 0.427 2.702-0.284 5.262-1.991 7.396-0.142 0.142-0.142 0.284-0.284 0.284 0.853 0.853 1.564 1.564 2.418 2.418 0.142 0 0.284-0.142 0.427-0.142 0.427-0.142 0.853 0 1.28 0.284 1.138 1.138 2.133 2.133 3.271 3.271s2.56 2.418 3.84 3.556c0 0 0.427 0.142 0.427 0.142 0 0.142 0 0.284 0 0.427z"></path>
</svg>
