<?xml version="1.0" encoding="utf-8"?>
<!-- Generated by IcoMoon.io -->
<!DOCTYPE svg PUBLIC "-//W3C//DTD SVG 1.1//EN" "http://www.w3.org/Graphics/SVG/1.1/DTD/svg11.dtd">
<svg version="1.1" xmlns="http://www.w3.org/2000/svg" xmlns:xlink="http://www.w3.org/1999/xlink" width="64" height="64" viewBox="0 0 64 64">
<rect fill="#215ab7" x="0" y="0" width="64" height="64"></rect>
<path fill="#ffffff" d="M31.872 58.88c-14.848 0-26.88-12.032-26.88-26.88s12.032-26.88 26.88-26.88c14.848 0 26.88 12.032 26.88 26.88s-12.032 26.88-26.88 26.88zM31.872 9.728c-12.288 0-22.144 9.984-22.144 22.272s9.984 22.272 22.272 22.272c12.288 0 22.272-9.984 22.272-22.272s-10.112-22.272-22.4-22.272z"></path>
<path fill="#ffffff" d="M31.36 47.488l-0.256-1.92c10.752-1.792 10.88-11.52 10.88-12.032v-11.264l-10.88-2.304 0.256-2.048 12.8 2.816v12.928c0 0-0.256 11.648-12.8 13.824z"></path>
<path fill="#ffffff" d="M19.584 33.536c0 0 0 11.776 11.776 13.952v-24.576l-11.776 2.56v8.064z"></path>
<path fill="#ffffff" d="M31.36 20.096v-2.176l-11.776 2.688v2.176z"></path>
<path fill="#ffffff" d="M31.36 22.912l12.416 2.816v2.688l-12.416-2.688z"></path>
</svg>
