<?xml version="1.0" encoding="utf-8"?>
<!-- Generated by IcoMoon.io -->
<!DOCTYPE svg PUBLIC "-//W3C//DTD SVG 1.1//EN" "http://www.w3.org/Graphics/SVG/1.1/DTD/svg11.dtd">
<svg version="1.1" xmlns="http://www.w3.org/2000/svg" xmlns:xlink="http://www.w3.org/1999/xlink" width="20" height="20" viewBox="0 0 20 20">
<path fill="#444444" d="M9.96 18.4c-4.64 0-8.4-3.76-8.4-8.4s3.76-8.4 8.4-8.4c4.64 0 8.4 3.76 8.4 8.4s-3.76 8.4-8.4 8.4zM9.96 3.040c-3.84 0-6.92 3.12-6.92 6.96s3.12 6.96 6.96 6.96c3.84 0 6.96-3.12 6.96-6.96s-3.16-6.96-7-6.96z"></path>
<path fill="#444444" d="M9.8 14.84l-0.080-0.6c3.36-0.56 3.4-3.6 3.4-3.76v-3.52l-3.4-0.72 0.080-0.64 4 0.88v4.040c0 0-0.080 3.64-4 4.32z"></path>
<path fill="#444444" d="M6.12 10.48c0 0 0 3.68 3.68 4.36v-7.68l-3.68 0.8v2.52z"></path>
<path fill="#444444" d="M9.8 6.28v-0.68l-3.68 0.84v0.68z"></path>
<path fill="#444444" d="M9.8 7.16l3.88 0.88v0.84l-3.88-0.84z"></path>
</svg>
