<?xml version="1.0" encoding="utf-8"?>
<!-- Generated by IcoMoon.io -->
<!DOCTYPE svg PUBLIC "-//W3C//DTD SVG 1.1//EN" "http://www.w3.org/Graphics/SVG/1.1/DTD/svg11.dtd">
<svg version="1.1" xmlns="http://www.w3.org/2000/svg" xmlns:xlink="http://www.w3.org/1999/xlink" width="64" height="64" viewBox="0 0 64 64">
<rect fill="#215ab7" x="0" y="0" width="64" height="64"></rect>
<path fill="#ffffff" d="M31.040 49.216c13.568-2.496 13.76-14.848 13.76-15.424v-7.232l-13.76-2.88v25.536z"></path>
<path fill="#ffffff" d="M31.744 0c-17.536 0-31.744 14.208-31.744 31.744s14.208 31.808 31.744 31.808c17.536 0 31.808-14.272 31.808-31.808s-14.272-31.744-31.808-31.744zM47.616 33.792c0 0.128-0.448 15.232-16.576 17.984-15.168-2.816-15.168-18.048-15.168-18.048v-10.432l15.168-3.264 13.76 3.008v-3.776l-13.76-2.944-15.168 3.52v-2.752l15.168-3.456 16.576 3.584v16.576z"></path>
</svg>
