<?xml version="1.0" encoding="utf-8"?>
<!-- Generated by IcoMoon.io -->
<!DOCTYPE svg PUBLIC "-//W3C//DTD SVG 1.1//EN" "http://www.w3.org/Graphics/SVG/1.1/DTD/svg11.dtd">
<svg version="1.1" xmlns="http://www.w3.org/2000/svg" xmlns:xlink="http://www.w3.org/1999/xlink" width="64" height="64" viewBox="0 0 64 64">
<rect fill="#215ab7" x="0" y="0" width="64" height="64"></rect>
<path fill="#ffffff" d="M43.264 36.224c-2.432 0-4.48 1.024-6.016 2.56l-11.008-5.376c0.128-0.64 0.256-1.28 0.256-1.92s-0.128-1.28-0.256-1.792l10.496-5.12c1.536 1.92 3.84 3.2 6.528 3.2 4.608 0 8.32-3.712 8.32-8.32s-3.712-8.32-8.32-8.32-8.32 3.712-8.32 8.32c0 0.512 0 1.024 0.128 1.536l-10.624 5.248c-1.536-1.792-3.84-2.944-6.272-2.944-4.608 0-8.32 3.712-8.32 8.32s3.712 8.32 8.32 8.32c2.56 0 4.736-1.152 6.272-2.816l10.752 5.248c-0.256 0.768-0.256 1.408-0.256 2.176 0 4.608 3.712 8.32 8.32 8.32s8.32-3.712 8.32-8.32c0-4.608-3.712-8.32-8.32-8.32zM43.264 15.232c2.304 0 4.224 1.92 4.224 4.224s-1.92 4.224-4.224 4.224-4.224-1.92-4.224-4.224c0-2.304 1.92-4.224 4.224-4.224zM18.176 35.84c-2.304 0-4.224-1.92-4.224-4.224s1.92-4.224 4.224-4.224 4.224 1.92 4.224 4.224-1.92 4.224-4.224 4.224zM43.264 48.768c-2.304 0-4.224-1.92-4.224-4.224s1.92-4.224 4.224-4.224 4.224 1.92 4.224 4.224-1.92 4.224-4.224 4.224z"></path>
</svg>
