<?xml version="1.0" encoding="utf-8"?>
<!-- Generated by IcoMoon.io -->
<!DOCTYPE svg PUBLIC "-//W3C//DTD SVG 1.1//EN" "http://www.w3.org/Graphics/SVG/1.1/DTD/svg11.dtd">
<svg version="1.1" xmlns="http://www.w3.org/2000/svg" xmlns:xlink="http://www.w3.org/1999/xlink" width="20" height="20" viewBox="0 0 20 20">
<path fill="#444444" d="M13.52 11.32c-0.76 0-1.4 0.32-1.88 0.8l-3.44-1.68c0.040-0.2 0.080-0.4 0.080-0.6s-0.040-0.4-0.080-0.56l3.28-1.6c0.48 0.6 1.2 1 2.040 1 1.44 0 2.6-1.16 2.6-2.6s-1.16-2.6-2.6-2.6-2.6 1.16-2.6 2.6c0 0.16 0 0.32 0.040 0.48l-3.32 1.64c-0.48-0.56-1.2-0.92-1.96-0.92-1.44 0-2.6 1.16-2.6 2.6s1.16 2.6 2.6 2.6c0.8 0 1.48-0.36 1.96-0.88l3.36 1.64c-0.080 0.24-0.080 0.44-0.080 0.68 0 1.44 1.16 2.6 2.6 2.6s2.6-1.16 2.6-2.6c0-1.44-1.16-2.6-2.6-2.6zM13.52 4.76c0.72 0 1.32 0.6 1.32 1.32s-0.6 1.32-1.32 1.32-1.32-0.6-1.32-1.32c0-0.72 0.6-1.32 1.32-1.32zM5.68 11.2c-0.72 0-1.32-0.6-1.32-1.32s0.6-1.32 1.32-1.32 1.32 0.6 1.32 1.32-0.6 1.32-1.32 1.32zM13.52 15.24c-0.72 0-1.32-0.6-1.32-1.32s0.6-1.32 1.32-1.32 1.32 0.6 1.32 1.32-0.6 1.32-1.32 1.32z"></path>
</svg>
