<?xml version="1.0" encoding="utf-8"?>
<!-- Generated by IcoMoon.io -->
<!DOCTYPE svg PUBLIC "-//W3C//DTD SVG 1.1//EN" "http://www.w3.org/Graphics/SVG/1.1/DTD/svg11.dtd">
<svg version="1.1" xmlns="http://www.w3.org/2000/svg" xmlns:xlink="http://www.w3.org/1999/xlink" width="20" height="20" viewBox="0 0 20 20">
<path fill="#444444" d="M16.12 6.4h-2.28l0.48-2.16c0.12-0.48-0.2-0.88-0.68-0.96-0.48-0.12-0.96 0.080-1.040 0.56l-0.56 2.56h-2.88l0.48-2.16c0.12-0.48-0.2-0.88-0.68-0.96-0.48-0.12-0.96 0.080-1.040 0.56l-0.56 2.56h-2.6c-0.48 0-0.88 0.32-0.88 0.8s0.4 0.8 0.88 0.8h2.24l-0.64 3.6h-2.48c-0.48 0-0.88 0.32-0.88 0.8s0.4 0.8 0.88 0.8h2.12l-0.44 2.12c-0.12 0.48 0.2 0.96 0.68 1.080 0.080 0 0.12 0.040 0.2 0.040 0.4 0 0.76-0.32 0.88-0.72l0.52-2.48h2.88l-0.44 2.12c-0.12 0.48 0.2 0.96 0.68 1.080 0.080 0 0.12 0.040 0.2 0.040 0.4 0 0.76-0.32 0.88-0.72l0.52-2.48h2.8c0.48 0 0.88-0.32 0.88-0.8s-0.4-0.8-0.88-0.8h-2.4l0.64-3.6h2.64c0.48 0 0.88-0.32 0.88-0.8s-0.48-0.88-1-0.88zM11.040 11.6h-2.88l0.64-3.6h2.88l-0.64 3.6z"></path>
</svg>
