<?xml version="1.0" encoding="utf-8"?>
<!-- Generated by IcoMoon.io -->
<!DOCTYPE svg PUBLIC "-//W3C//DTD SVG 1.1//EN" "http://www.w3.org/Graphics/SVG/1.1/DTD/svg11.dtd">
<svg version="1.1" xmlns="http://www.w3.org/2000/svg" xmlns:xlink="http://www.w3.org/1999/xlink" width="64" height="64" viewBox="0 0 64 64">
<rect fill="#215ab7" x="0" y="0" width="64" height="64"></rect>
<path fill="#ffffff" d="M51.584 20.48h-7.296l1.536-6.912c0.384-1.536-0.64-2.816-2.176-3.072-1.536-0.384-3.072 0.256-3.328 1.792l-1.792 8.192h-9.216l1.536-6.912c0.384-1.536-0.64-2.816-2.176-3.072-1.536-0.384-3.072 0.256-3.328 1.792l-1.792 8.192h-8.32c-1.536 0-2.816 1.024-2.816 2.56s1.28 2.56 2.816 2.56h7.168l-2.048 11.52h-7.936c-1.536 0-2.816 1.024-2.816 2.56s1.28 2.56 2.816 2.56h6.784l-1.408 6.784c-0.384 1.536 0.64 3.072 2.176 3.456 0.256 0 0.384 0.128 0.64 0.128 1.28 0 2.432-1.024 2.816-2.304l1.664-7.936h9.216l-1.408 6.784c-0.384 1.536 0.64 3.072 2.176 3.456 0.256 0 0.384 0.128 0.64 0.128 1.28 0 2.432-1.024 2.816-2.304l1.664-7.936h8.96c1.536 0 2.816-1.024 2.816-2.56s-1.28-2.56-2.816-2.56h-7.68l2.048-11.52h8.448c1.536 0 2.816-1.024 2.816-2.56s-1.536-2.816-3.2-2.816zM35.328 37.12h-9.216l2.048-11.52h9.216l-2.048 11.52z"></path>
</svg>
