<?xml version="1.0" encoding="utf-8"?>
<!-- Generated by IcoMoon.io -->
<!DOCTYPE svg PUBLIC "-//W3C//DTD SVG 1.1//EN" "http://www.w3.org/Graphics/SVG/1.1/DTD/svg11.dtd">
<svg version="1.1" xmlns="http://www.w3.org/2000/svg" xmlns:xlink="http://www.w3.org/1999/xlink" width="64" height="64" viewBox="0 0 64 64">
<rect fill="#215ab7" x="0" y="0" width="64" height="64"></rect>
<path fill="#ffffff" d="M29.582 15.218c2.133 0 4.267 0 6.4 0 6.4 1.28 11.947 4.267 16.498 8.96 2.133 2.133 3.982 4.409 5.831 6.684 0 0.284 0 0.569 0 0.853-1.564 1.849-3.129 3.982-4.836 5.689-5.404 5.547-11.52 9.529-19.484 9.956-8.96 0.427-15.929-3.698-22.044-9.813-1.707-1.849-3.271-3.84-4.836-5.689 0-0.284 0-0.569 0-0.853 0.853-1.138 1.849-2.276 2.702-3.413 5.262-6.4 11.662-10.667 19.769-12.373zM42.382 31.147c0-5.262-4.409-9.529-9.813-9.529-5.262 0-9.529 4.409-9.387 9.671 0 5.262 4.409 9.671 9.813 9.529 5.12 0 9.387-4.409 9.387-9.671z"></path>
<path fill="#ffffff" d="M35.982 31.289c0 1.707-1.422 3.129-3.129 3.271-1.707 0-3.129-1.422-3.271-3.129 0-1.707 1.422-3.129 3.129-3.129 1.849-0.284 3.271 1.138 3.271 2.987z"></path>
</svg>
