<?xml version="1.0" encoding="utf-8"?>
<!-- Generated by IcoMoon.io -->
<!DOCTYPE svg PUBLIC "-//W3C//DTD SVG 1.1//EN" "http://www.w3.org/Graphics/SVG/1.1/DTD/svg11.dtd">
<svg version="1.1" xmlns="http://www.w3.org/2000/svg" xmlns:xlink="http://www.w3.org/1999/xlink" width="64" height="64" viewBox="0 0 64 64">
<rect fill="#215ab7" x="0" y="0" width="64" height="64"></rect>
<path fill="#ffffff" d="M14.933 33.564c0-0.996 0-2.133 0-3.129 0-0.142 0.142-0.142 0.142-0.284 0-1.28 0.427-2.418 0.853-3.698 0.853-2.844 2.56-5.12 4.693-7.111 1.849-1.707 3.982-2.987 6.542-3.698 1.138-0.284 2.276-0.569 3.413-0.711 0.996 0 2.133 0 3.129 0 0.853 0.142 1.849 0.427 2.702 0.569 3.271 0.853 5.973 2.56 8.249 4.978 1.707 1.849 2.987 4.124 3.698 6.542 0.284 1.138 0.427 2.276 0.711 3.413 0 0.996 0 1.991 0 2.844 0 0.142-0.142 0.284-0.142 0.284 0 1.28-0.427 2.56-0.853 3.84-2.133 5.689-6.258 9.387-12.089 10.951-0.853 0.142-1.707 0.284-2.418 0.427-0.996 0-1.849 0-2.844 0-0.142 0-0.284-0.142-0.284-0.142-1.28 0-2.56-0.427-3.698-0.853-2.702-0.853-5.12-2.56-6.969-4.693-1.707-1.849-2.987-4.124-3.698-6.542-0.711-0.711-0.853-1.849-1.138-2.987zM45.227 32c0.142-7.253-5.973-13.369-13.227-13.369s-13.369 5.973-13.369 13.227c0 7.396 5.973 13.369 13.227 13.369 7.538 0 13.369-5.831 13.369-13.227z"></path>
<path fill="#ffffff" d="M30.578 37.973c-0.427 0-0.711-0.142-0.996-0.284-1.564-1.138-3.271-2.276-4.836-3.413-0.427-0.284-0.427-0.711-0.142-1.138 0.569-0.711 1.138-1.28 1.849-1.991 0.284-0.284 0.569-0.142 0.853 0 0.711 0.569 1.564 1.138 2.276 1.707 0.427 0.284 0.711 0.284 0.996-0.142 1.707-1.991 3.413-3.982 5.12-5.973 0.711-0.853 0.853-0.853 1.707-0.142 0.569 0.284 0.996 0.711 1.564 1.138s0.569 0.853 0.142 1.28c-1.707 1.991-3.413 3.982-5.262 5.973-0.853 0.853-1.564 1.849-2.418 2.702-0.142 0.142-0.427 0.427-0.853 0.284z"></path>
</svg>
