<?xml version="1.0" encoding="utf-8"?>
<!-- Generated by IcoMoon.io -->
<!DOCTYPE svg PUBLIC "-//W3C//DTD SVG 1.1//EN" "http://www.w3.org/Graphics/SVG/1.1/DTD/svg11.dtd">
<svg version="1.1" xmlns="http://www.w3.org/2000/svg" xmlns:xlink="http://www.w3.org/1999/xlink" width="20" height="20" viewBox="0 0 20 20">
<path fill="#444444" d="M4.667 10.489c0-0.311 0-0.667 0-0.978 0-0.044 0.044-0.044 0.044-0.089 0-0.4 0.133-0.756 0.267-1.156 0.267-0.889 0.8-1.6 1.467-2.222 0.578-0.533 1.244-0.933 2.044-1.156 0.356-0.089 0.711-0.178 1.067-0.222 0.311 0 0.667 0 0.978 0 0.267 0.044 0.578 0.133 0.844 0.178 1.022 0.267 1.867 0.8 2.578 1.556 0.533 0.578 0.933 1.289 1.156 2.044 0.089 0.356 0.133 0.711 0.222 1.067 0 0.311 0 0.622 0 0.889 0 0.044-0.044 0.089-0.044 0.089 0 0.4-0.133 0.8-0.267 1.2-0.667 1.778-1.956 2.933-3.778 3.422-0.267 0.044-0.533 0.089-0.756 0.133-0.311 0-0.578 0-0.889 0-0.044 0-0.089-0.044-0.089-0.044-0.4 0-0.8-0.133-1.156-0.267-0.844-0.267-1.6-0.8-2.178-1.467-0.533-0.578-0.933-1.289-1.156-2.044-0.222-0.222-0.267-0.578-0.356-0.933zM14.133 10c0.044-2.267-1.867-4.178-4.133-4.178s-4.178 1.867-4.178 4.133c0 2.311 1.867 4.178 4.133 4.178 2.356 0 4.178-1.822 4.178-4.133z"></path>
<path fill="#444444" d="M9.556 11.867c-0.133 0-0.222-0.044-0.311-0.089-0.489-0.356-1.022-0.711-1.511-1.067-0.133-0.089-0.133-0.222-0.044-0.356 0.178-0.222 0.356-0.4 0.578-0.622 0.089-0.089 0.178-0.044 0.267 0 0.222 0.178 0.489 0.356 0.711 0.533 0.133 0.089 0.222 0.089 0.311-0.044 0.533-0.622 1.067-1.244 1.6-1.867 0.222-0.267 0.267-0.267 0.533-0.044 0.178 0.089 0.311 0.222 0.489 0.356s0.178 0.267 0.044 0.4c-0.533 0.622-1.067 1.244-1.644 1.867-0.267 0.267-0.489 0.578-0.756 0.844-0.044 0.044-0.133 0.133-0.267 0.089z"></path>
</svg>
