<?xml version="1.0" encoding="utf-8"?>
<!-- Generator: Adobe Illustrator 19.1.1, SVG Export Plug-In . SVG Version: 6.00 Build 0)  -->
<svg version="1.1" xmlns="http://www.w3.org/2000/svg" xmlns:xlink="http://www.w3.org/1999/xlink" x="0px" y="0px"
	 viewBox="0 0 1000 1000" style="enable-background:new 0 0 1000 1000;" xml:space="preserve">
<style type="text/css">
	.st0{fill:url(#SVGID_1_);}
	.st1{fill:url(#SVGID_2_);}
	.st2{fill:url(#SVGID_3_);}
	.st3{fill:#416788;}
	.st4{fill:#FFFFFF;}
	.st5{display:none;}
	.st6{display:none;fill:#FFFFFF;}
	.st7{display:inline;}
	.st8{display:inline;fill:#FFFFFF;}
	.st9{display:inline;fill:#416788;}
</style>
<g id="backdrop">
	<linearGradient id="SVGID_1_" gradientUnits="userSpaceOnUse" x1="3060" y1="1.122316e-008" x2="4060" y2="1000">
		<stop  offset="0" style="stop-color:#0C1426"/>
		<stop  offset="1" style="stop-color:#121C46"/>
	</linearGradient>
	<rect x="3060" class="st0" width="1000" height="1000"/>
	<linearGradient id="SVGID_2_" gradientUnits="userSpaceOnUse" x1="2038.9474" y1="1.122407e-008" x2="3038.9473" y2="1000">
		<stop  offset="0" style="stop-color:#0C1426"/>
		<stop  offset="1" style="stop-color:#121C46"/>
	</linearGradient>
	<rect x="2038.9" class="st1" width="1000" height="1000"/>
	<linearGradient id="SVGID_3_" gradientUnits="userSpaceOnUse" x1="1021" y1="-1" x2="2021" y2="999">
		<stop  offset="0" style="stop-color:#0C1426"/>
		<stop  offset="1" style="stop-color:#121C46"/>
	</linearGradient>
	<rect x="1021" y="-1" class="st2" width="1000" height="1000"/>
</g>
<g id="Logo_x5F_icon">
	<path id="hexjoin_x5F_blue" class="st3" d="M2899.1-467.5c-14.2-34.1-38-57.5-70.6-69.6c-0.8-0.3-2-1.6-2.3-2.3
		c-4.8-14.9-9.6-30.1-14.2-44.9c-1.3-4.2-2.6-8.5-4-12.7l-7.4-23.8c0.5-0.1,0.9-0.2,1.4-0.2c17.2-2.9,27.8-15.5,27.5-32.8
		c-0.1-9-2.9-17.8-8.6-26.9c-13.7-22.1-33.5-37-58.8-44.1c-6.9-1.9-13-2.9-18.6-2.9c-9.6,0-18,2.7-25.6,8.2
		c-0.3-0.1-0.6-0.2-0.7-0.2c-9.2-5.2-18.6-10.7-27.6-15.9l-48.5-28.1c0-1.1,0-2.2,0-3.3c0-3.9,0-7.6-0.9-11.4
		c-3.1-14-11.8-25.3-27.2-35.7c-18.9-12.7-37-18.9-55.5-18.9c-6.4,0-12.8,0.8-19.2,2.2c-19,4.5-25,15.6-26.6,24.2
		c-0.9,5-0.4,10.2,0.1,15.2c0.1,1.1,0.2,2.2,0.3,3.2c-7.5,1.4-14.9,2.8-22.4,4.2c-19.1,3.5-38.8,7.2-58.1,11.1
		c-2.1,0.4-3.9,0.6-5.4,0.6c-3.7,0-6.3-1.3-8.7-4.2c-0.9-1.1-2-1.9-2.9-2.5c-0.2-0.1-0.4-0.3-0.6-0.4
		c-20.5-14.5-44.6-21.9-71.6-21.9c-3.6,0-7.3,0.1-10.9,0.4c-17.9,1.2-33.9,6.4-47.5,15.4c-13.6,9-22,21.6-23.6,35.4
		c-1.6,13.8,3.7,28,15,39.7c9.4,9.9,20.9,17.4,35.1,22.9c2.8,1.1,5.6,2.1,8.4,3.1c0.2,0.1,0.3,0.1,0.5,0.2l-3.1,12.7
		c-7.2,29.4-14.6,59.9-22,89.6c-0.4,0.3-1.1,0.7-1.7,0.8c-3.9,0.9-8,1.6-11.9,2.3c-7.5,1.3-15.2,2.7-22.6,5.3
		c-47.4,16.8-76.6,45.1-89.2,86.3c-7.8,25.5-4,50.3,11,71.6c19.1,27.3,47.2,41.4,85.9,43.1c38.5,1.7,73.8-10.3,104.9-35.8
		c0.6-0.5,0.9-0.7,1-0.7c0.1,0,0.4,0.1,0.9,0.4c19.3,11.7,39.1,23.5,58.2,34.8l13.9,8.3c8.2,4.9,16.3,9.7,24.5,14.6
		c13.3,7.9,26.6,15.9,39.9,23.8l0.5,0.3c0.3,0.2,0.6,0.3,0.8,0.5c0,0.1,0,0.2-0.1,0.3c-4.4,14.8-6.1,30.5-4.8,46.5
		c3.7,47.4,23.7,83.2,59.5,106.4c15.7,10.2,32.4,15.3,49.7,15.3c10.9,0,22-2.1,33.2-6.2c23.1-8.5,41.2-24.9,53.8-48.7
		c19.6-36.9,21.8-76.7,6.6-118.4c-1-2.8-1-2.8,0.4-3.9c6.4-4.9,12.7-10.1,18.8-15.1c2.7-2.2,5.4-4.5,8.1-6.7
		c14.1-11.5,28.2-23,42.4-34.4l17.7-14.4c0,0,0,0,0,0c0.8,0.7,1.5,1.4,2.3,2c16.2,13.9,31.6,21.7,48.6,24.4
		c3.6,0.6,7.1,0.9,10.5,0.9c24.9,0,42.9-14.8,48.1-39.6C2908.6-433.2,2906.6-449.6,2899.1-467.5z M2756.5-487.9
		c-0.2,15.8,3.8,31.2,12.7,48.2l-87.4,65.6c-22-23-46.3-34.2-74.2-34.2l-0.6,0c-28.4,0.2-53.1,12.5-73.6,36.7l-129.8-77.3
		c13.2-28.9,13.7-54.9,1.4-79.4c-11.9-23.8-32.5-39.8-62.7-48.8l20.1-101c1.8-0.2,3.5-0.4,5.3-0.6c5.9-0.7,12-1.4,18-2.7
		c18.2-3.8,32.2-11.1,42.6-22.4c11.3-12.2,15.2-26.1,11.4-41.2l6.9-1.4c8.5-1.8,16.9-3.5,25.4-5.3c3.9-0.8,7.8-1.6,11.7-2.5
		c14.5-3,29.5-6.2,44.3-9.1c0,0,0.2,0,0.3,0c1,0,2.3,0.5,2.8,0.9c17.6,14.8,38.6,23.2,62.3,25c11,0.8,22.4-1.9,33.7-8l9.6,5.6
		c23,13.4,46.8,27.2,70.1,40.8c0.1,0.1,0.2,0.2,0.2,0.3c-1.1,22.7,11.4,38.3,23.8,50.6c10.3,10.3,23.1,18.2,38,23.7
		c0.5,0.2,1.3,0.9,1.5,1.2c7.1,24.2,14.1,48.8,20.9,72.6l3.1,10.9C2770.9-534.1,2756.8-515,2756.5-487.9z"/>
	<path id="hexjoin_x5F_blue_1_" class="st4" d="M2899.1,534.2c-14.2-34.1-38-57.5-70.6-69.6c-0.8-0.3-2-1.6-2.3-2.3
		c-4.8-14.9-9.6-30.1-14.2-44.9c-1.3-4.2-2.6-8.5-4-12.7l-7.4-23.8c0.5-0.1,0.9-0.2,1.4-0.2c17.2-2.9,27.8-15.5,27.5-32.8
		c-0.1-9-2.9-17.8-8.6-26.9c-13.7-22.1-33.5-37-58.8-44.1c-6.9-1.9-13-2.9-18.6-2.9c-9.6,0-18,2.7-25.6,8.2
		c-0.3-0.1-0.6-0.2-0.7-0.2c-9.2-5.2-18.6-10.7-27.6-15.9l-48.5-28.1c0-1.1,0-2.2,0-3.3c0-3.9,0-7.6-0.9-11.4
		c-3.1-14-11.8-25.3-27.2-35.7c-18.9-12.7-37-18.9-55.5-18.9c-6.4,0-12.8,0.8-19.2,2.2c-19,4.5-25,15.6-26.6,24.2
		c-0.9,5-0.4,10.2,0.1,15.2c0.1,1.1,0.2,2.2,0.3,3.2c-7.5,1.4-14.9,2.8-22.4,4.2c-19.1,3.5-38.8,7.2-58.1,11.1
		c-2.1,0.4-3.9,0.6-5.4,0.6c-3.7,0-6.3-1.3-8.7-4.2c-0.9-1.1-2-1.9-2.9-2.5c-0.2-0.1-0.4-0.3-0.6-0.4
		c-20.5-14.5-44.6-21.9-71.6-21.9c-3.6,0-7.3,0.1-10.9,0.4c-17.9,1.2-33.9,6.4-47.5,15.4c-13.6,9-22,21.6-23.6,35.4
		c-1.6,13.8,3.7,28,15,39.7c9.4,9.9,20.9,17.4,35.1,22.9c2.8,1.1,5.6,2.1,8.4,3.1c0.2,0.1,0.3,0.1,0.5,0.2l-3.1,12.7
		c-7.2,29.4-14.6,59.9-22,89.6c-0.4,0.3-1.1,0.7-1.7,0.8c-3.9,0.9-8,1.6-11.9,2.3c-7.5,1.3-15.2,2.7-22.6,5.3
		c-47.4,16.8-76.6,45.1-89.2,86.3c-7.8,25.5-4,50.3,11,71.6c19.1,27.3,47.2,41.4,85.9,43.1c38.5,1.7,73.8-10.3,104.9-35.8
		c0.6-0.5,0.9-0.7,1-0.7c0.1,0,0.4,0.1,0.9,0.4c19.3,11.7,39.1,23.5,58.2,34.8l13.9,8.3c8.2,4.9,16.3,9.7,24.5,14.6
		c13.3,7.9,26.6,15.9,39.9,23.8l0.5,0.3c0.3,0.2,0.6,0.3,0.8,0.5c0,0.1,0,0.2-0.1,0.3c-4.4,14.8-6.1,30.5-4.8,46.5
		c3.7,47.4,23.7,83.2,59.5,106.4c15.7,10.2,32.4,15.3,49.7,15.3c10.9,0,22-2.1,33.2-6.2c23.1-8.5,41.2-24.9,53.8-48.7
		c19.6-36.9,21.8-76.7,6.6-118.4c-1-2.8-1-2.8,0.4-3.9c6.4-4.9,12.7-10.1,18.8-15.1c2.7-2.2,5.4-4.5,8.1-6.7
		c14.1-11.5,28.2-23,42.4-34.4l17.7-14.4c0,0,0,0,0,0c0.8,0.7,1.5,1.4,2.3,2c16.2,13.9,31.6,21.7,48.6,24.4
		c3.6,0.6,7.1,0.9,10.5,0.9c24.9,0,42.9-14.8,48.1-39.6C2908.6,568.6,2906.6,552.2,2899.1,534.2z M2756.5,513.9
		c-0.2,15.8,3.8,31.2,12.7,48.2l-87.4,65.6c-22-23-46.3-34.2-74.2-34.2l-0.6,0c-28.4,0.2-53.1,12.5-73.6,36.7l-129.8-77.3
		c13.2-28.9,13.7-54.9,1.4-79.4c-11.9-23.8-32.5-39.8-62.7-48.8l20.1-101c1.8-0.2,3.5-0.4,5.3-0.6c5.9-0.7,12-1.4,18-2.7
		c18.2-3.8,32.2-11.1,42.6-22.4c11.3-12.2,15.2-26.1,11.4-41.2l6.9-1.4c8.5-1.8,16.9-3.5,25.4-5.3c3.9-0.8,7.8-1.6,11.7-2.5
		c14.5-3,29.5-6.2,44.3-9.1c0,0,0.2,0,0.3,0c1,0,2.3,0.5,2.8,0.9c17.6,14.8,38.6,23.2,62.3,25c11,0.8,22.4-1.9,33.7-8l9.6,5.6
		c23,13.4,46.8,27.2,70.1,40.8c0.1,0.1,0.2,0.2,0.2,0.3c-1.1,22.7,11.4,38.3,23.8,50.6c10.3,10.3,23.1,18.2,38,23.7
		c0.5,0.2,1.3,0.9,1.5,1.2c7.1,24.2,14.1,48.8,20.9,72.6l3.1,10.9C2770.9,467.7,2756.8,486.8,2756.5,513.9z"/>
	<path id="hexjoin_x5F_black_1_" class="st5" d="M2393.1,527.8c-14.2-34.1-38-57.5-70.6-69.6c-0.8-0.3-2-1.6-2.3-2.3
		c-4.8-14.9-9.6-30.1-14.2-44.9c-1.3-4.2-2.6-8.5-4-12.7l-7.4-23.8c0.5-0.1,0.9-0.2,1.4-0.2c17.2-2.9,27.8-15.5,27.5-32.8
		c-0.1-9-2.9-17.8-8.6-26.9c-13.7-22.1-33.5-37-58.8-44.1c-6.9-1.9-13-2.9-18.6-2.9c-9.6,0-18,2.7-25.6,8.2
		c-0.3-0.1-0.6-0.2-0.7-0.2c-9.2-5.2-18.6-10.7-27.6-15.9l-48.5-28.1c0-1.1,0-2.2,0-3.3c0-3.9,0-7.6-0.9-11.4
		c-3.1-14-11.8-25.3-27.2-35.7c-18.9-12.7-37-18.9-55.5-18.9c-6.4,0-12.8,0.8-19.2,2.2c-19,4.5-25,15.6-26.6,24.2
		c-0.9,5-0.4,10.2,0.1,15.2c0.1,1.1,0.2,2.2,0.3,3.2c-7.5,1.4-14.9,2.8-22.4,4.2c-19.1,3.5-38.8,7.2-58.1,11.1
		c-2.1,0.4-3.9,0.6-5.4,0.6c-3.7,0-6.3-1.3-8.7-4.2c-0.9-1.1-2-1.9-2.9-2.5c-0.2-0.1-0.4-0.3-0.6-0.4
		c-20.5-14.5-44.6-21.9-71.6-21.9c-3.6,0-7.3,0.1-10.9,0.4c-17.9,1.2-33.9,6.4-47.5,15.4c-13.6,9-22,21.6-23.6,35.4
		c-1.6,13.8,3.7,28,15,39.7c9.4,9.9,20.9,17.4,35.1,22.9c2.8,1.1,5.6,2.1,8.4,3.1c0.2,0.1,0.3,0.1,0.5,0.2l-3.1,12.7
		c-7.2,29.4-14.6,59.9-22,89.6c-0.4,0.3-1.1,0.7-1.7,0.8c-3.9,0.9-8,1.6-11.9,2.3c-7.5,1.3-15.2,2.7-22.6,5.3
		c-47.4,16.8-76.6,45.1-89.2,86.3c-7.8,25.5-4,50.3,11,71.6c19.1,27.3,47.2,41.4,85.9,43.1c38.5,1.7,73.8-10.3,104.9-35.8
		c0.6-0.5,0.9-0.7,1-0.7c0.1,0,0.4,0.1,0.9,0.4c19.3,11.7,39.1,23.5,58.2,34.8l13.9,8.3c8.2,4.9,16.3,9.7,24.5,14.6
		c13.3,7.9,26.6,15.9,39.9,23.8l0.5,0.3c0.3,0.2,0.6,0.3,0.8,0.5c0,0.1,0,0.2-0.1,0.3c-4.4,14.8-6.1,30.5-4.8,46.5
		c3.7,47.4,23.7,83.2,59.5,106.4c15.7,10.2,32.4,15.3,49.7,15.3c10.9,0,22-2.1,33.2-6.2c23.1-8.5,41.2-24.9,53.8-48.7
		c19.6-36.9,21.8-76.7,6.6-118.4c-1-2.8-1-2.8,0.4-3.9c6.4-4.9,12.7-10.1,18.8-15.1c2.7-2.2,5.4-4.5,8.1-6.7
		c14.1-11.5,28.2-23,42.4-34.4l17.7-14.4c0,0,0,0,0,0c0.8,0.7,1.5,1.4,2.3,2c16.2,13.9,31.6,21.7,48.6,24.4
		c3.6,0.6,7.1,0.9,10.5,0.9c24.9,0,42.9-14.8,48.1-39.6C2402.7,562.2,2400.6,545.8,2393.1,527.8z M2250.5,507.4
		c-0.2,15.8,3.8,31.2,12.7,48.2l-87.4,65.6c-22-23-46.3-34.2-74.2-34.2l-0.6,0c-28.4,0.2-53.1,12.5-73.6,36.7l-129.8-77.3
		c13.2-28.9,13.7-54.9,1.4-79.4c-11.9-23.8-32.5-39.8-62.7-48.8l20.1-101c1.8-0.2,3.5-0.4,5.3-0.6c5.9-0.7,12-1.4,18-2.7
		c18.2-3.8,32.2-11.1,42.6-22.4c11.3-12.2,15.2-26.1,11.4-41.2l6.9-1.4c8.5-1.8,16.9-3.5,25.4-5.3c3.9-0.8,7.8-1.6,11.7-2.5
		c14.5-3,29.5-6.2,44.3-9.1c0,0,0.2,0,0.3,0c1,0,2.3,0.5,2.8,0.9c17.6,14.8,38.6,23.2,62.3,25c11,0.8,22.4-1.9,33.7-8l9.6,5.6
		c23,13.4,46.8,27.2,70.1,40.8c0.1,0.1,0.2,0.2,0.2,0.3c-1.1,22.7,11.4,38.3,23.8,50.6c10.3,10.3,23.1,18.2,38,23.7
		c0.5,0.2,1.3,0.9,1.5,1.2c7.1,24.2,14.1,48.8,20.9,72.6l3.1,10.9C2265,461.2,2250.9,480.3,2250.5,507.4z"/>
	<path id="hexjoin_x5F_white" class="st6" d="M2393.1,527.8c-14.2-34.1-38-57.5-70.6-69.6c-0.8-0.3-2-1.6-2.3-2.3
		c-4.8-14.9-9.6-30.1-14.2-44.9c-1.3-4.2-2.6-8.5-4-12.7l-7.4-23.8c0.5-0.1,0.9-0.2,1.4-0.2c17.2-2.9,27.8-15.5,27.5-32.8
		c-0.1-9-2.9-17.8-8.6-26.9c-13.7-22.1-33.5-37-58.8-44.1c-6.9-1.9-13-2.9-18.6-2.9c-9.6,0-18,2.7-25.6,8.2
		c-0.3-0.1-0.6-0.2-0.7-0.2c-9.2-5.2-18.6-10.7-27.6-15.9l-48.5-28.1c0-1.1,0-2.2,0-3.3c0-3.9,0-7.6-0.9-11.4
		c-3.1-14-11.8-25.3-27.2-35.7c-18.9-12.7-37-18.9-55.5-18.9c-6.4,0-12.8,0.8-19.2,2.2c-19,4.5-25,15.6-26.6,24.2
		c-0.9,5-0.4,10.2,0.1,15.2c0.1,1.1,0.2,2.2,0.3,3.2c-7.5,1.4-14.9,2.8-22.4,4.2c-19.1,3.5-38.8,7.2-58.1,11.1
		c-2.1,0.4-3.9,0.6-5.4,0.6c-3.7,0-6.3-1.3-8.7-4.2c-0.9-1.1-2-1.9-2.9-2.5c-0.2-0.1-0.4-0.3-0.6-0.4
		c-20.5-14.5-44.6-21.9-71.6-21.9c-3.6,0-7.3,0.1-10.9,0.4c-17.9,1.2-33.9,6.4-47.5,15.4c-13.6,9-22,21.6-23.6,35.4
		c-1.6,13.8,3.7,28,15,39.7c9.4,9.9,20.9,17.4,35.1,22.9c2.8,1.1,5.6,2.1,8.4,3.1c0.2,0.1,0.3,0.1,0.5,0.2l-3.1,12.7
		c-7.2,29.4-14.6,59.9-22,89.6c-0.4,0.3-1.1,0.7-1.7,0.8c-3.9,0.9-8,1.6-11.9,2.3c-7.5,1.3-15.2,2.7-22.6,5.3
		c-47.4,16.8-76.6,45.1-89.2,86.3c-7.8,25.5-4,50.3,11,71.6c19.1,27.3,47.2,41.4,85.9,43.1c38.5,1.7,73.8-10.3,104.9-35.8
		c0.6-0.5,0.9-0.7,1-0.7c0.1,0,0.4,0.1,0.9,0.4c19.3,11.7,39.1,23.5,58.2,34.8l13.9,8.3c8.2,4.9,16.3,9.7,24.5,14.6
		c13.3,7.9,26.6,15.9,39.9,23.8l0.5,0.3c0.3,0.2,0.6,0.3,0.8,0.5c0,0.1,0,0.2-0.1,0.3c-4.4,14.8-6.1,30.5-4.8,46.5
		c3.7,47.4,23.7,83.2,59.5,106.4c15.7,10.2,32.4,15.3,49.7,15.3c10.9,0,22-2.1,33.2-6.2c23.1-8.5,41.2-24.9,53.8-48.7
		c19.6-36.9,21.8-76.7,6.6-118.4c-1-2.8-1-2.8,0.4-3.9c6.4-4.9,12.7-10.1,18.8-15.1c2.7-2.2,5.4-4.5,8.1-6.7
		c14.1-11.5,28.2-23,42.4-34.4l17.7-14.4c0,0,0,0,0,0c0.8,0.7,1.5,1.4,2.3,2c16.2,13.9,31.6,21.7,48.6,24.4
		c3.6,0.6,7.1,0.9,10.5,0.9c24.9,0,42.9-14.8,48.1-39.6C2402.7,562.2,2400.6,545.8,2393.1,527.8z M2250.5,507.4
		c-0.2,15.8,3.8,31.2,12.7,48.2l-87.4,65.6c-22-23-46.3-34.2-74.2-34.2l-0.6,0c-28.4,0.2-53.1,12.5-73.6,36.7l-129.8-77.3
		c13.2-28.9,13.7-54.9,1.4-79.4c-11.9-23.8-32.5-39.8-62.7-48.8l20.1-101c1.8-0.2,3.5-0.4,5.3-0.6c5.9-0.7,12-1.4,18-2.7
		c18.2-3.8,32.2-11.1,42.6-22.4c11.3-12.2,15.2-26.1,11.4-41.2l6.9-1.4c8.5-1.8,16.9-3.5,25.4-5.3c3.9-0.8,7.8-1.6,11.7-2.5
		c14.5-3,29.5-6.2,44.3-9.1c0,0,0.2,0,0.3,0c1,0,2.3,0.5,2.8,0.9c17.6,14.8,38.6,23.2,62.3,25c11,0.8,22.4-1.9,33.7-8l9.6,5.6
		c23,13.4,46.8,27.2,70.1,40.8c0.1,0.1,0.2,0.2,0.2,0.3c-1.1,22.7,11.4,38.3,23.8,50.6c10.3,10.3,23.1,18.2,38,23.7
		c0.5,0.2,1.3,0.9,1.5,1.2c7.1,24.2,14.1,48.8,20.9,72.6l3.1,10.9C2265,461.2,2250.9,480.3,2250.5,507.4z"/>
</g>
<g id="Logo_x5F_text">
	<g id="DEMHUB_x5F_blue">
		<path class="st3" d="M1190.3-480.9c0-42.3-34.4-76.8-76.8-76.8h-35.9v19.6h35.9c31.5,0,57.2,25.6,57.2,57.2v18.7
			c0,31.5-25.6,57.2-57.2,57.2h-35.9v19.6h35.9c42.3,0,76.8-34.4,76.8-76.8V-480.9z"/>
		<g>
			<rect x="1225.5" y="-557.7" class="st3" width="100.9" height="19.6"/>
			<rect x="1225.5" y="-405" class="st3" width="100.9" height="19.6"/>
			<rect x="1249.6" y="-481.4" class="st3" width="52.7" height="19.6"/>
		</g>
		<polygon class="st3" points="1496.7,-513.8 1496.7,-385.4 1516.3,-385.4 1516.3,-557.7 1499.9,-557.7 1439,-440 1378.2,-557.7 
			1361.6,-557.7 1361.6,-385.4 1381.2,-385.4 1381.2,-514 1439,-401.5 		"/>
		<polygon class="st3" points="1665.4,-385.4 1665.4,-557.7 1645.7,-557.7 1645.7,-481.4 1571.2,-481.4 1571.2,-557.7 
			1551.6,-557.7 1551.6,-385.4 1571.2,-385.4 1571.2,-461.7 1645.7,-461.7 1645.7,-385.4 		"/>
		<path class="st3" d="M1814.4-557.5h-19.6v115.2c0,20.6-16.7,37.3-37.3,37.3s-37.3-16.7-37.3-37.3v-115.2h-19.6v115.2
			c0,31.4,25.5,56.9,56.9,56.9c31.4,0,56.9-25.5,56.9-56.9V-557.5z"/>
		<path class="st3" d="M1946.4-468.8l-3-2.7l3-2.7c10.2-9.1,16-22,16-35.4c0-26.4-22-47.9-48.9-47.9h-63.9v172.1h63.9
			c27,0,48.9-21.5,48.9-47.9C1962.4-446.8,1956.6-459.7,1946.4-468.8z M1913.5-405.1h-44.3v-56.6h44.3c16.2,0,29.3,12.7,29.3,28.3
			C1942.8-417.8,1929.7-405.1,1913.5-405.1z M1913.5-481.3h-44.3v-56.6h44.3c16.2,0,29.3,12.7,29.3,28.3
			C1942.8-494,1929.7-481.3,1913.5-481.3z"/>
	</g>
	<g id="DEMHUB_x5F_blue_1_">
		<path class="st4" d="M1190.3,532.9c0-42.3-34.4-76.8-76.8-76.8h-35.9v19.6h35.9c31.5,0,57.2,25.6,57.2,57.2v18.7
			c0,31.5-25.6,57.2-57.2,57.2h-35.9v19.6h35.9c42.3,0,76.8-34.4,76.8-76.8V532.9z"/>
		<g>
			<rect x="1225.5" y="456.1" class="st4" width="100.9" height="19.6"/>
			<rect x="1225.5" y="608.8" class="st4" width="100.9" height="19.6"/>
			<rect x="1249.6" y="532.4" class="st4" width="52.7" height="19.6"/>
		</g>
		<polygon class="st4" points="1496.7,500 1496.7,628.4 1516.3,628.4 1516.3,456.1 1499.9,456.1 1439,573.8 1378.2,456.1 
			1361.6,456.1 1361.6,628.4 1381.2,628.4 1381.2,499.8 1439,612.3 		"/>
		<polygon class="st4" points="1665.4,628.4 1665.4,456.1 1645.7,456.1 1645.7,532.4 1571.2,532.4 1571.2,456.1 1551.6,456.1 
			1551.6,628.4 1571.2,628.4 1571.2,552 1645.7,552 1645.7,628.4 		"/>
		<path class="st4" d="M1814.4,456.2h-19.6v115.2c0,20.6-16.7,37.3-37.3,37.3s-37.3-16.7-37.3-37.3V456.2h-19.6v115.2
			c0,31.4,25.5,56.9,56.9,56.9c31.4,0,56.9-25.5,56.9-56.9V456.2z"/>
		<path class="st4" d="M1946.4,545l-3-2.7l3-2.7c10.2-9.1,16-22,16-35.4c0-26.4-22-47.9-48.9-47.9h-63.9v172.1h63.9
			c27,0,48.9-21.5,48.9-47.9C1962.4,567,1956.6,554,1946.4,545z M1913.5,608.7h-44.3v-56.6h44.3c16.2,0,29.3,12.7,29.3,28.3
			C1942.8,596,1929.7,608.7,1913.5,608.7z M1913.5,532.5h-44.3v-56.6h44.3c16.2,0,29.3,12.7,29.3,28.3
			C1942.8,519.8,1929.7,532.5,1913.5,532.5z"/>
	</g>
	<g id="DEMHUB_x5F_black_1_" class="st5">
		<path class="st7" d="M1700.3,490.6c0-42.3-34.4-76.8-76.8-76.8h-35.9v19.6h35.9c31.5,0,57.2,25.6,57.2,57.2v18.7
			c0,31.5-25.6,57.2-57.2,57.2h-35.9v19.6h35.9c42.3,0,76.8-34.4,76.8-76.8V490.6z"/>
		<g class="st7">
			<rect x="1735.5" y="413.8" width="100.9" height="19.6"/>
			<rect x="1735.5" y="566.5" width="100.9" height="19.6"/>
			<rect x="1759.6" y="490.2" width="52.7" height="19.6"/>
		</g>
		<polygon class="st7" points="2006.7,457.8 2006.7,586.2 2026.3,586.2 2026.3,413.8 2009.9,413.8 1949,531.6 1888.2,413.8 
			1871.6,413.8 1871.6,586.2 1891.2,586.2 1891.2,457.6 1949,570.1 		"/>
		<polygon class="st7" points="2175.4,586.2 2175.4,413.8 2155.7,413.8 2155.7,490.2 2081.2,490.2 2081.2,413.8 2061.6,413.8 
			2061.6,586.2 2081.2,586.2 2081.2,509.8 2155.7,509.8 2155.7,586.2 		"/>
		<path class="st7" d="M2324.4,414h-19.6v115.2c0,20.6-16.7,37.3-37.3,37.3s-37.3-16.7-37.3-37.3V414h-19.6v115.2
			c0,31.4,25.5,56.9,56.9,56.9c31.4,0,56.9-25.5,56.9-56.9V414z"/>
		<path class="st7" d="M2456.4,502.7l-3-2.7l3-2.7c10.2-9.1,16-22,16-35.4c0-26.4-22-47.9-48.9-47.9h-63.9v172.1h63.9
			c27,0,48.9-21.5,48.9-47.9C2472.4,524.7,2466.6,511.8,2456.4,502.7z M2423.5,566.5h-44.3v-56.6h44.3c16.2,0,29.3,12.7,29.3,28.3
			C2452.8,553.8,2439.7,566.5,2423.5,566.5z M2423.5,490.2h-44.3v-56.6h44.3c16.2,0,29.3,12.7,29.3,28.3
			C2452.8,477.5,2439.7,490.2,2423.5,490.2z"/>
	</g>
	<g id="DEMHUB_x5F_white" class="st5">
		<path class="st8" d="M1700.3,490.6c0-42.3-34.4-76.8-76.8-76.8h-35.9v19.6h35.9c31.5,0,57.2,25.6,57.2,57.2v18.7
			c0,31.5-25.6,57.2-57.2,57.2h-35.9v19.6h35.9c42.3,0,76.8-34.4,76.8-76.8V490.6z"/>
		<g class="st7">
			<rect x="1735.5" y="413.8" class="st4" width="100.9" height="19.6"/>
			<rect x="1735.5" y="566.5" class="st4" width="100.9" height="19.6"/>
			<rect x="1759.6" y="490.2" class="st4" width="52.7" height="19.6"/>
		</g>
		<polygon class="st8" points="2006.7,457.8 2006.7,586.2 2026.3,586.2 2026.3,413.8 2009.9,413.8 1949,531.6 1888.2,413.8 
			1871.6,413.8 1871.6,586.2 1891.2,586.2 1891.2,457.6 1949,570.1 		"/>
		<polygon class="st8" points="2175.4,586.2 2175.4,413.8 2155.7,413.8 2155.7,490.2 2081.2,490.2 2081.2,413.8 2061.6,413.8 
			2061.6,586.2 2081.2,586.2 2081.2,509.8 2155.7,509.8 2155.7,586.2 		"/>
		<path class="st8" d="M2324.4,414h-19.6v115.2c0,20.6-16.7,37.3-37.3,37.3s-37.3-16.7-37.3-37.3V414h-19.6v115.2
			c0,31.4,25.5,56.9,56.9,56.9c31.4,0,56.9-25.5,56.9-56.9V414z"/>
		<path class="st8" d="M2456.4,502.7l-3-2.7l3-2.7c10.2-9.1,16-22,16-35.4c0-26.4-22-47.9-48.9-47.9h-63.9v172.1h63.9
			c27,0,48.9-21.5,48.9-47.9C2472.4,524.7,2466.6,511.8,2456.4,502.7z M2423.5,566.5h-44.3v-56.6h44.3c16.2,0,29.3,12.7,29.3,28.3
			C2452.8,553.8,2439.7,566.5,2423.5,566.5z M2423.5,490.2h-44.3v-56.6h44.3c16.2,0,29.3,12.7,29.3,28.3
			C2452.8,477.5,2439.7,490.2,2423.5,490.2z"/>
	</g>
</g>
<g id="Logo_x5F_icon_x26_text_x5F_B">
	<g id="itB_x5F_blue" class="st5">
		<g id="DEMHUB_x5F_b_1_" class="st7">
			<path class="st3" d="M1927,493.8c0-27.8-22.6-50.4-50.4-50.4h-23.6v12.9h23.6c20.7,0,37.5,16.8,37.5,37.5v12.3
				c0,20.7-16.8,37.5-37.5,37.5h-23.6v12.9h23.6c27.8,0,50.4-22.6,50.4-50.4V493.8z"/>
			<g>
				<rect x="1950.2" y="443.5" class="st3" width="66.2" height="12.9"/>
				<rect x="1950.2" y="543.7" class="st3" width="66.2" height="12.9"/>
				<rect x="1966" y="493.6" class="st3" width="34.6" height="12.9"/>
			</g>
			<polygon class="st3" points="2128.1,472.3 2128.1,556.5 2141,556.5 2141,443.5 2130.2,443.5 2090.2,520.7 2050.3,443.5 
				2039.5,443.5 2039.5,556.5 2052.3,556.5 2052.3,472.2 2090.2,546 			"/>
			<polygon class="st3" points="2238.8,556.5 2238.8,443.5 2225.9,443.5 2225.9,493.6 2177,493.6 2177,443.5 2164.1,443.5 
				2164.1,556.5 2177,556.5 2177,506.4 2225.9,506.4 2225.9,556.5 			"/>
			<path class="st3" d="M2336.5,443.6h-12.9v75.6c0,13.5-11,24.5-24.5,24.5s-24.5-11-24.5-24.5v-75.6h-12.9v75.6
				c0,20.6,16.7,37.3,37.3,37.3c20.6,0,37.3-16.7,37.3-37.3V443.6z"/>
			<path class="st3" d="M2423.2,501.8l-2-1.8l2-1.8c6.7-6,10.5-14.4,10.5-23.3c0-17.3-14.4-31.4-32.1-31.4h-41.9v112.9h41.9
				c17.7,0,32.1-14.1,32.1-31.4C2433.7,516.2,2429.9,507.7,2423.2,501.8z M2401.6,543.6h-29.1v-37.1h29.1c10.6,0,19.2,8.3,19.2,18.6
				C2420.8,535.3,2412.2,543.6,2401.6,543.6z M2401.6,493.6h-29.1v-37.1h29.1c10.6,0,19.2,8.3,19.2,18.6
				C2420.8,485.3,2412.2,493.6,2401.6,493.6z"/>
		</g>
		<path id="hexjoin_x5F_b_1_" class="st9" d="M1812.9,507.1c-3.6-8.7-9.7-14.6-17.9-17.7c-0.2-0.1-0.5-0.4-0.6-0.6
			c-1.2-3.8-2.4-7.7-3.6-11.4c-0.3-1.1-0.7-2.2-1-3.2l-1.9-6.1c0.1,0,0.2,0,0.3-0.1c4.4-0.7,7.1-3.9,7-8.3c0-2.3-0.7-4.5-2.2-6.8
			c-3.5-5.6-8.5-9.4-15-11.2c-1.7-0.5-3.3-0.7-4.7-0.7c-2.4,0-4.6,0.7-6.5,2.1c-0.1,0-0.1,0-0.2-0.1c-2.3-1.3-4.7-2.7-7-4.1
			l-12.3-7.2c0-0.3,0-0.6,0-0.8c0-1,0-1.9-0.2-2.9c-0.8-3.6-3-6.4-6.9-9.1c-4.8-3.2-9.4-4.8-14.1-4.8c-1.6,0-3.3,0.2-4.9,0.6
			c-4.8,1.1-6.3,4-6.8,6.2c-0.2,1.3-0.1,2.6,0,3.9c0,0.3,0.1,0.5,0.1,0.8c-1.9,0.4-3.8,0.7-5.7,1.1c-4.8,0.9-9.9,1.8-14.8,2.8
			c-0.5,0.1-1,0.2-1.4,0.2c-0.9,0-1.6-0.3-2.2-1.1c-0.2-0.3-0.5-0.5-0.8-0.6c0,0-0.1-0.1-0.1-0.1c-5.2-3.7-11.3-5.6-18.2-5.6
			c-0.9,0-1.8,0-2.8,0.1c-4.6,0.3-8.6,1.6-12.1,3.9c-3.5,2.3-5.6,5.5-6,9c-0.4,3.5,1,7.1,3.8,10.1c2.4,2.5,5.3,4.4,8.9,5.8
			c0.7,0.3,1.4,0.5,2.1,0.8c0,0,0.1,0,0.1,0l-0.8,3.2c-1.8,7.5-3.7,15.2-5.6,22.8c-0.1,0.1-0.3,0.2-0.4,0.2c-1,0.2-2,0.4-3,0.6
			c-1.9,0.3-3.9,0.7-5.7,1.4c-12.1,4.3-19.5,11.5-22.7,21.9c-2,6.5-1,12.8,2.8,18.2c4.9,6.9,12,10.5,21.8,11
			c9.8,0.4,18.8-2.6,26.7-9.1c0.1-0.1,0.2-0.2,0.3-0.2c0,0,0.1,0,0.2,0.1c4.9,3,9.9,6,14.8,8.9l3.5,2.1c2.1,1.2,4.1,2.5,6.2,3.7
			c3.4,2,6.8,4,10.1,6.1l0.1,0.1c0.1,0,0.1,0.1,0.2,0.1c0,0,0,0,0,0.1c-1.1,3.8-1.5,7.8-1.2,11.8c0.9,12.1,6,21.2,15.1,27.1
			c4,2.6,8.2,3.9,12.6,3.9c2.8,0,5.6-0.5,8.4-1.6c5.9-2.2,10.5-6.3,13.7-12.4c5-9.4,5.5-19.5,1.7-30.1c-0.3-0.7-0.3-0.7,0.1-1
			c1.6-1.2,3.2-2.6,4.8-3.8c0.7-0.6,1.4-1.1,2.1-1.7c3.6-2.9,7.2-5.8,10.8-8.8l4.5-3.7c0,0,0,0,0,0c0.2,0.2,0.4,0.3,0.6,0.5
			c4.1,3.5,8,5.5,12.4,6.2c0.9,0.1,1.8,0.2,2.7,0.2c6.3,0,10.9-3.8,12.2-10.1C1815.4,515.8,1814.8,511.6,1812.9,507.1z
			 M1776.7,501.9c-0.1,4,1,7.9,3.2,12.3l-22.2,16.7c-5.6-5.8-11.8-8.7-18.9-8.7l-0.2,0c-7.2,0-13.5,3.2-18.7,9.3l-33-19.7
			c3.4-7.4,3.5-14,0.4-20.2c-3-6.1-8.3-10.1-15.9-12.4l5.1-25.7c0.5-0.1,0.9-0.1,1.3-0.2c1.5-0.2,3.1-0.4,4.6-0.7
			c4.6-1,8.2-2.8,10.8-5.7c2.9-3.1,3.9-6.6,2.9-10.5l1.8-0.4c2.2-0.5,4.3-0.9,6.4-1.4c1-0.2,2-0.4,3-0.6c3.7-0.8,7.5-1.6,11.3-2.3
			c0,0,0,0,0.1,0c0.3,0,0.6,0.1,0.7,0.2c4.5,3.8,9.8,5.9,15.9,6.4c2.8,0.2,5.7-0.5,8.6-2l2.4,1.4c5.8,3.4,11.9,6.9,17.8,10.4
			c0,0,0,0,0.1,0.1c-0.3,5.8,2.9,9.7,6,12.9c2.6,2.6,5.9,4.6,9.7,6c0.1,0,0.3,0.2,0.4,0.3c1.8,6.1,3.6,12.4,5.3,18.5l0.8,2.8
			C1780.3,490.1,1776.8,495,1776.7,501.9z"/>
	</g>
	<g id="itB_x5F_black_1_" class="st5">
		<g id="DEMHUB_x5F_b_5_" class="st7">
			<path d="M1927,493.8c0-27.8-22.6-50.4-50.4-50.4h-23.6v12.9h23.6c20.7,0,37.5,16.8,37.5,37.5v12.3c0,20.7-16.8,37.5-37.5,37.5
				h-23.6v12.9h23.6c27.8,0,50.4-22.6,50.4-50.4V493.8z"/>
			<g>
				<rect x="1950.2" y="443.5" width="66.2" height="12.9"/>
				<rect x="1950.2" y="543.7" width="66.2" height="12.9"/>
				<rect x="1966" y="493.6" width="34.6" height="12.9"/>
			</g>
			<polygon points="2128.1,472.3 2128.1,556.5 2141,556.5 2141,443.5 2130.2,443.5 2090.2,520.7 2050.3,443.5 2039.5,443.5 
				2039.5,556.5 2052.3,556.5 2052.3,472.2 2090.2,546 			"/>
			<polygon points="2238.8,556.5 2238.8,443.5 2225.9,443.5 2225.9,493.6 2177,493.6 2177,443.5 2164.1,443.5 2164.1,556.5 
				2177,556.5 2177,506.4 2225.9,506.4 2225.9,556.5 			"/>
			<path d="M2336.5,443.6h-12.9v75.6c0,13.5-11,24.5-24.5,24.5s-24.5-11-24.5-24.5v-75.6h-12.9v75.6c0,20.6,16.7,37.3,37.3,37.3
				c20.6,0,37.3-16.7,37.3-37.3V443.6z"/>
			<path d="M2423.2,501.8l-2-1.8l2-1.8c6.7-6,10.5-14.4,10.5-23.3c0-17.3-14.4-31.4-32.1-31.4h-41.9v112.9h41.9
				c17.7,0,32.1-14.1,32.1-31.4C2433.7,516.2,2429.9,507.7,2423.2,501.8z M2401.6,543.6h-29.1v-37.1h29.1c10.6,0,19.2,8.3,19.2,18.6
				C2420.8,535.3,2412.2,543.6,2401.6,543.6z M2401.6,493.6h-29.1v-37.1h29.1c10.6,0,19.2,8.3,19.2,18.6
				C2420.8,485.3,2412.2,493.6,2401.6,493.6z"/>
		</g>
		<path id="hexjoin_x5F_b_5_" class="st7" d="M1812.9,507.1c-3.6-8.7-9.7-14.6-17.9-17.7c-0.2-0.1-0.5-0.4-0.6-0.6
			c-1.2-3.8-2.4-7.7-3.6-11.4c-0.3-1.1-0.7-2.2-1-3.2l-1.9-6.1c0.1,0,0.2,0,0.3-0.1c4.4-0.7,7.1-3.9,7-8.3c0-2.3-0.7-4.5-2.2-6.8
			c-3.5-5.6-8.5-9.4-15-11.2c-1.7-0.5-3.3-0.7-4.7-0.7c-2.4,0-4.6,0.7-6.5,2.1c-0.1,0-0.1,0-0.2-0.1c-2.3-1.3-4.7-2.7-7-4.1
			l-12.3-7.2c0-0.3,0-0.6,0-0.8c0-1,0-1.9-0.2-2.9c-0.8-3.6-3-6.4-6.9-9.1c-4.8-3.2-9.4-4.8-14.1-4.8c-1.6,0-3.3,0.2-4.9,0.6
			c-4.8,1.1-6.3,4-6.8,6.2c-0.2,1.3-0.1,2.6,0,3.9c0,0.3,0.1,0.5,0.1,0.8c-1.9,0.4-3.8,0.7-5.7,1.1c-4.8,0.9-9.9,1.8-14.8,2.8
			c-0.5,0.1-1,0.2-1.4,0.2c-0.9,0-1.6-0.3-2.2-1.1c-0.2-0.3-0.5-0.5-0.8-0.6c0,0-0.1-0.1-0.1-0.1c-5.2-3.7-11.3-5.6-18.2-5.6
			c-0.9,0-1.8,0-2.8,0.1c-4.6,0.3-8.6,1.6-12.1,3.9c-3.5,2.3-5.6,5.5-6,9c-0.4,3.5,1,7.1,3.8,10.1c2.4,2.5,5.3,4.4,8.9,5.8
			c0.7,0.3,1.4,0.5,2.1,0.8c0,0,0.1,0,0.1,0l-0.8,3.2c-1.8,7.5-3.7,15.2-5.6,22.8c-0.1,0.1-0.3,0.2-0.4,0.2c-1,0.2-2,0.4-3,0.6
			c-1.9,0.3-3.9,0.7-5.7,1.4c-12.1,4.3-19.5,11.5-22.7,21.9c-2,6.5-1,12.8,2.8,18.2c4.9,6.9,12,10.5,21.8,11
			c9.8,0.4,18.8-2.6,26.7-9.1c0.1-0.1,0.2-0.2,0.3-0.2c0,0,0.1,0,0.2,0.1c4.9,3,9.9,6,14.8,8.9l3.5,2.1c2.1,1.2,4.1,2.5,6.2,3.7
			c3.4,2,6.8,4,10.1,6.1l0.1,0.1c0.1,0,0.1,0.1,0.2,0.1c0,0,0,0,0,0.1c-1.1,3.8-1.5,7.8-1.2,11.8c0.9,12.1,6,21.2,15.1,27.1
			c4,2.6,8.2,3.9,12.6,3.9c2.8,0,5.6-0.5,8.4-1.6c5.9-2.2,10.5-6.3,13.7-12.4c5-9.4,5.5-19.5,1.7-30.1c-0.3-0.7-0.3-0.7,0.1-1
			c1.6-1.2,3.2-2.6,4.8-3.8c0.7-0.6,1.4-1.1,2.1-1.7c3.6-2.9,7.2-5.8,10.8-8.8l4.5-3.7c0,0,0,0,0,0c0.2,0.2,0.4,0.3,0.6,0.5
			c4.1,3.5,8,5.5,12.4,6.2c0.9,0.1,1.8,0.2,2.7,0.2c6.3,0,10.9-3.8,12.2-10.1C1815.4,515.8,1814.8,511.6,1812.9,507.1z
			 M1776.7,501.9c-0.1,4,1,7.9,3.2,12.3l-22.2,16.7c-5.6-5.8-11.8-8.7-18.9-8.7l-0.2,0c-7.2,0-13.5,3.2-18.7,9.3l-33-19.7
			c3.4-7.4,3.5-14,0.4-20.2c-3-6.1-8.3-10.1-15.9-12.4l5.1-25.7c0.5-0.1,0.9-0.1,1.3-0.2c1.5-0.2,3.1-0.4,4.6-0.7
			c4.6-1,8.2-2.8,10.8-5.7c2.9-3.1,3.9-6.6,2.9-10.5l1.8-0.4c2.2-0.5,4.3-0.9,6.4-1.4c1-0.2,2-0.4,3-0.6c3.7-0.8,7.5-1.6,11.3-2.3
			c0,0,0,0,0.1,0c0.3,0,0.6,0.1,0.7,0.2c4.5,3.8,9.8,5.9,15.9,6.4c2.8,0.2,5.7-0.5,8.6-2l2.4,1.4c5.8,3.4,11.9,6.9,17.8,10.4
			c0,0,0,0,0.1,0.1c-0.3,5.8,2.9,9.7,6,12.9c2.6,2.6,5.9,4.6,9.7,6c0.1,0,0.3,0.2,0.4,0.3c1.8,6.1,3.6,12.4,5.3,18.5l0.8,2.8
			C1780.3,490.1,1776.8,495,1776.7,501.9z"/>
	</g>
	<g id="itB_x5F_white_3_">
		<g id="DEMHUB_x5F_b_9_">
			<path class="st4" d="M3463.5,527.7c0-27.8-22.6-50.4-50.4-50.4h-23.6v12.9h23.6c20.7,0,37.5,16.8,37.5,37.5V540
				c0,20.7-16.8,37.5-37.5,37.5h-23.6v12.9h23.6c27.8,0,50.4-22.6,50.4-50.4V527.7z"/>
			<g>
				<rect x="3486.6" y="477.3" class="st4" width="66.2" height="12.9"/>
				<rect x="3486.6" y="577.5" class="st4" width="66.2" height="12.9"/>
				<rect x="3502.4" y="527.4" class="st4" width="34.6" height="12.9"/>
			</g>
			<polygon class="st4" points="3664.6,506.1 3664.6,590.4 3677.4,590.4 3677.4,477.3 3666.7,477.3 3626.7,554.5 3586.8,477.3 
				3575.9,477.3 3575.9,590.4 3588.8,590.4 3588.8,506 3626.7,579.8 			"/>
			<polygon class="st4" points="3775.2,590.4 3775.2,477.3 3762.3,477.3 3762.3,527.4 3713.4,527.4 3713.4,477.3 3700.6,477.3 
				3700.6,590.4 3713.4,590.4 3713.4,540.3 3762.3,540.3 3762.3,590.4 			"/>
			<path class="st4" d="M3873,477.4h-12.9V553c0,13.5-11,24.5-24.5,24.5s-24.5-11-24.5-24.5v-75.6h-12.9V553
				c0,20.6,16.7,37.3,37.3,37.3c20.6,0,37.3-16.7,37.3-37.3V477.4z"/>
			<path class="st4" d="M3959.6,535.6l-2-1.8l2-1.8c6.7-6,10.5-14.4,10.5-23.3c0-17.3-14.4-31.4-32.1-31.4h-41.9v112.9h41.9
				c17.7,0,32.1-14.1,32.1-31.4C3970.1,550,3966.3,541.6,3959.6,535.6z M3938,577.4H3909v-37.1h29.1c10.6,0,19.2,8.3,19.2,18.6
				C3957.3,569.1,3948.6,577.4,3938,577.4z M3938,527.4H3909v-37.1h29.1c10.6,0,19.2,8.3,19.2,18.6
				C3957.3,519.1,3948.6,527.4,3938,527.4z"/>
		</g>
		<path id="hexjoin_x5F_b_9_" class="st4" d="M3349.4,540.9c-3.6-8.7-9.7-14.6-17.9-17.7c-0.2-0.1-0.5-0.4-0.6-0.6
			c-1.2-3.8-2.4-7.7-3.6-11.4c-0.3-1.1-0.7-2.2-1-3.2l-1.9-6.1c0.1,0,0.2,0,0.3-0.1c4.4-0.7,7.1-3.9,7-8.3c0-2.3-0.7-4.5-2.2-6.8
			c-3.5-5.6-8.5-9.4-15-11.2c-1.7-0.5-3.3-0.7-4.7-0.7c-2.4,0-4.6,0.7-6.5,2.1c-0.1,0-0.1,0-0.2-0.1c-2.3-1.3-4.7-2.7-7-4.1
			l-12.3-7.2c0-0.3,0-0.6,0-0.8c0-1,0-1.9-0.2-2.9c-0.8-3.6-3-6.4-6.9-9.1c-4.8-3.2-9.4-4.8-14.1-4.8c-1.6,0-3.3,0.2-4.9,0.6
			c-4.8,1.1-6.3,4-6.8,6.2c-0.2,1.3-0.1,2.6,0,3.9c0,0.3,0.1,0.5,0.1,0.8c-1.9,0.4-3.8,0.7-5.7,1.1c-4.8,0.9-9.9,1.8-14.8,2.8
			c-0.5,0.1-1,0.2-1.4,0.2c-0.9,0-1.6-0.3-2.2-1.1c-0.2-0.3-0.5-0.5-0.8-0.6c0,0-0.1-0.1-0.1-0.1c-5.2-3.7-11.3-5.6-18.2-5.6
			c-0.9,0-1.8,0-2.8,0.1c-4.6,0.3-8.6,1.6-12.1,3.9c-3.5,2.3-5.6,5.5-6,9c-0.4,3.5,1,7.1,3.8,10.1c2.4,2.5,5.3,4.4,8.9,5.8
			c0.7,0.3,1.4,0.5,2.1,0.8c0,0,0.1,0,0.1,0l-0.8,3.2c-1.8,7.5-3.7,15.2-5.6,22.8c-0.1,0.1-0.3,0.2-0.4,0.2c-1,0.2-2,0.4-3,0.6
			c-1.9,0.3-3.9,0.7-5.7,1.4c-12.1,4.3-19.5,11.5-22.7,21.9c-2,6.5-1,12.8,2.8,18.2c4.9,6.9,12,10.5,21.8,11
			c9.8,0.4,18.8-2.6,26.7-9.1c0.1-0.1,0.2-0.2,0.3-0.2c0,0,0.1,0,0.2,0.1c4.9,3,9.9,6,14.8,8.9l3.5,2.1c2.1,1.2,4.1,2.5,6.2,3.7
			c3.4,2,6.8,4,10.1,6.1l0.1,0.1c0.1,0,0.1,0.1,0.2,0.1c0,0,0,0,0,0.1c-1.1,3.8-1.5,7.8-1.2,11.8c0.9,12.1,6,21.2,15.1,27.1
			c4,2.6,8.2,3.9,12.6,3.9c2.8,0,5.6-0.5,8.4-1.6c5.9-2.2,10.5-6.3,13.7-12.4c5-9.4,5.5-19.5,1.7-30.1c-0.3-0.7-0.3-0.7,0.1-1
			c1.6-1.2,3.2-2.6,4.8-3.8c0.7-0.6,1.4-1.1,2.1-1.7c3.6-2.9,7.2-5.8,10.8-8.8l4.5-3.7c0,0,0,0,0,0c0.2,0.2,0.4,0.3,0.6,0.5
			c4.1,3.5,8,5.5,12.4,6.2c0.9,0.1,1.8,0.2,2.7,0.2c6.3,0,10.9-3.8,12.2-10.1C3351.8,549.6,3351.3,545.5,3349.4,540.9z
			 M3313.1,535.7c-0.1,4,1,7.9,3.2,12.3l-22.2,16.7c-5.6-5.8-11.8-8.7-18.9-8.7l-0.2,0c-7.2,0-13.5,3.2-18.7,9.3l-33-19.7
			c3.4-7.4,3.5-14,0.4-20.2c-3-6.1-8.3-10.1-15.9-12.4l5.1-25.7c0.5-0.1,0.9-0.1,1.3-0.2c1.5-0.2,3.1-0.4,4.6-0.7
			c4.6-1,8.2-2.8,10.8-5.7c2.9-3.1,3.9-6.6,2.9-10.5l1.8-0.4c2.2-0.5,4.3-0.9,6.4-1.4c1-0.2,2-0.4,3-0.6c3.7-0.8,7.5-1.6,11.3-2.3
			c0,0,0,0,0.1,0c0.3,0,0.6,0.1,0.7,0.2c4.5,3.8,9.8,5.9,15.9,6.4c2.8,0.2,5.7-0.5,8.6-2l2.4,1.4c5.8,3.4,11.9,6.9,17.8,10.4
			c0,0,0,0,0.1,0.1c-0.3,5.8,2.9,9.7,6,12.9c2.6,2.6,5.9,4.6,9.7,6c0.1,0,0.3,0.2,0.4,0.3c1.8,6.1,3.6,12.4,5.3,18.5l0.8,2.8
			C3316.8,523.9,3313.2,528.8,3313.1,535.7z"/>
	</g>
	<g id="itB_x5F_white_2_">
		<g id="DEMHUB_x5F_b_8_">
			<path class="st3" d="M3453.5-468.2c0-27.8-22.6-50.4-50.4-50.4h-23.6v12.9h23.6c20.7,0,37.5,16.8,37.5,37.5v12.3
				c0,20.7-16.8,37.5-37.5,37.5h-23.6v12.9h23.6c27.8,0,50.4-22.6,50.4-50.4V-468.2z"/>
			<g>
				<rect x="3476.6" y="-518.6" class="st3" width="66.2" height="12.9"/>
				<rect x="3476.6" y="-418.4" class="st3" width="66.2" height="12.9"/>
				<rect x="3492.4" y="-468.5" class="st3" width="34.6" height="12.9"/>
			</g>
			<polygon class="st3" points="3654.6,-489.8 3654.6,-405.5 3667.4,-405.5 3667.4,-518.6 3656.7,-518.6 3616.7,-441.4 
				3576.8,-518.6 3565.9,-518.6 3565.9,-405.5 3578.8,-405.5 3578.8,-489.9 3616.7,-416.1 			"/>
			<polygon class="st3" points="3765.2,-405.5 3765.2,-518.6 3752.3,-518.6 3752.3,-468.5 3703.4,-468.5 3703.4,-518.6 
				3690.6,-518.6 3690.6,-405.5 3703.4,-405.5 3703.4,-455.6 3752.3,-455.6 3752.3,-405.5 			"/>
			<path class="st3" d="M3863-518.5h-12.9v75.6c0,13.5-11,24.5-24.5,24.5c-13.5,0-24.5-11-24.5-24.5v-75.6h-12.9v75.6
				c0,20.6,16.7,37.3,37.3,37.3c20.6,0,37.3-16.7,37.3-37.3V-518.5z"/>
			<path class="st3" d="M3949.6-460.3l-2-1.8l2-1.8c6.7-6,10.5-14.4,10.5-23.3c0-17.3-14.4-31.4-32.1-31.4h-41.9v112.9h41.9
				c17.7,0,32.1-14.1,32.1-31.4C3960.1-445.9,3956.3-454.3,3949.6-460.3z M3928-418.5H3899v-37.1h29.1c10.6,0,19.2,8.3,19.2,18.6
				C3947.3-426.8,3938.6-418.5,3928-418.5z M3928-468.5H3899v-37.1h29.1c10.6,0,19.2,8.3,19.2,18.6
				C3947.3-476.8,3938.6-468.5,3928-468.5z"/>
		</g>
		<path id="hexjoin_x5F_b_8_" class="st3" d="M3339.4-455c-3.6-8.7-9.7-14.6-17.9-17.7c-0.2-0.1-0.5-0.4-0.6-0.6
			c-1.2-3.8-2.4-7.7-3.6-11.4c-0.3-1.1-0.7-2.2-1-3.2l-1.9-6.1c0.1,0,0.2,0,0.3-0.1c4.4-0.7,7.1-3.9,7-8.3c0-2.3-0.7-4.5-2.2-6.8
			c-3.5-5.6-8.5-9.4-15-11.2c-1.7-0.5-3.3-0.7-4.7-0.7c-2.4,0-4.6,0.7-6.5,2.1c-0.1,0-0.1,0-0.2-0.1c-2.3-1.3-4.7-2.7-7-4.1
			l-12.3-7.2c0-0.3,0-0.6,0-0.8c0-1,0-1.9-0.2-2.9c-0.8-3.6-3-6.4-6.9-9.1c-4.8-3.2-9.4-4.8-14.1-4.8c-1.6,0-3.3,0.2-4.9,0.6
			c-4.8,1.1-6.3,4-6.8,6.2c-0.2,1.3-0.1,2.6,0,3.9c0,0.3,0.1,0.5,0.1,0.8c-1.9,0.4-3.8,0.7-5.7,1.1c-4.8,0.9-9.9,1.8-14.8,2.8
			c-0.5,0.1-1,0.2-1.4,0.2c-0.9,0-1.6-0.3-2.2-1.1c-0.2-0.3-0.5-0.5-0.8-0.6c0,0-0.1-0.1-0.1-0.1c-5.2-3.7-11.3-5.6-18.2-5.6
			c-0.9,0-1.8,0-2.8,0.1c-4.6,0.3-8.6,1.6-12.1,3.9c-3.5,2.3-5.6,5.5-6,9c-0.4,3.5,1,7.1,3.8,10.1c2.4,2.5,5.3,4.4,8.9,5.8
			c0.7,0.3,1.4,0.5,2.1,0.8c0,0,0.1,0,0.1,0l-0.8,3.2c-1.8,7.5-3.7,15.2-5.6,22.8c-0.1,0.1-0.3,0.2-0.4,0.2c-1,0.2-2,0.4-3,0.6
			c-1.9,0.3-3.9,0.7-5.7,1.4c-12.1,4.3-19.5,11.5-22.7,21.9c-2,6.5-1,12.8,2.8,18.2c4.9,6.9,12,10.5,21.8,11
			c9.8,0.4,18.8-2.6,26.7-9.1c0.1-0.1,0.2-0.2,0.3-0.2c0,0,0.1,0,0.2,0.1c4.9,3,9.9,6,14.8,8.9l3.5,2.1c2.1,1.2,4.1,2.5,6.2,3.7
			c3.4,2,6.8,4,10.1,6.1l0.1,0.1c0.1,0,0.1,0.1,0.2,0.1c0,0,0,0,0,0.1c-1.1,3.8-1.5,7.8-1.2,11.8c0.9,12.1,6,21.2,15.1,27.1
			c4,2.6,8.2,3.9,12.6,3.9c2.8,0,5.6-0.5,8.4-1.6c5.9-2.2,10.5-6.3,13.7-12.4c5-9.4,5.5-19.5,1.7-30.1c-0.3-0.7-0.3-0.7,0.1-1
			c1.6-1.2,3.2-2.6,4.8-3.8c0.7-0.6,1.4-1.1,2.1-1.7c3.6-2.9,7.2-5.8,10.8-8.8l4.5-3.7c0,0,0,0,0,0c0.2,0.2,0.4,0.3,0.6,0.5
			c4.1,3.5,8,5.5,12.4,6.2c0.9,0.1,1.8,0.2,2.7,0.2c6.3,0,10.9-3.8,12.2-10.1C3341.8-446.3,3341.3-450.5,3339.4-455z M3303.1-460.2
			c-0.1,4,1,7.9,3.2,12.3l-22.2,16.7c-5.6-5.8-11.8-8.7-18.9-8.7l-0.2,0c-7.2,0-13.5,3.2-18.7,9.3l-33-19.7c3.4-7.4,3.5-14,0.4-20.2
			c-3-6.1-8.3-10.1-15.9-12.4l5.1-25.7c0.5-0.1,0.9-0.1,1.3-0.2c1.5-0.2,3.1-0.4,4.6-0.7c4.6-1,8.2-2.8,10.8-5.7
			c2.9-3.1,3.9-6.6,2.9-10.5l1.8-0.4c2.2-0.5,4.3-0.9,6.4-1.4c1-0.2,2-0.4,3-0.6c3.7-0.8,7.5-1.6,11.3-2.3c0,0,0,0,0.1,0
			c0.3,0,0.6,0.1,0.7,0.2c4.5,3.8,9.8,5.9,15.9,6.4c2.8,0.2,5.7-0.5,8.6-2l2.4,1.4c5.8,3.4,11.9,6.9,17.8,10.4c0,0,0,0,0.1,0.1
			c-0.3,5.8,2.9,9.7,6,12.9c2.6,2.6,5.9,4.6,9.7,6c0.1,0,0.3,0.2,0.4,0.3c1.8,6.1,3.6,12.4,5.3,18.5l0.8,2.8
			C3306.8-472,3303.2-467.1,3303.1-460.2z"/>
	</g>
</g>
<g id="Logo_x5F_icon_x26_text_x5F_A">
	<g id="itA_x5F_blue">
		<g id="DEMHUB_x5F_b_2_">
			<path class="st3" d="M249.2-275c0-32.2-26.2-58.4-58.4-58.4h-27.3v14.9h27.3c24,0,43.5,19.5,43.5,43.5v14.3
				c0,24-19.5,43.5-43.5,43.5h-27.3v14.9h27.3c32.2,0,58.4-26.2,58.4-58.4V-275z"/>
			<g>
				<rect x="276" y="-333.4" class="st3" width="76.7" height="14.9"/>
				<rect x="276" y="-217.2" class="st3" width="76.7" height="14.9"/>
				<rect x="294.3" y="-275.3" class="st3" width="40.1" height="14.9"/>
			</g>
			<polygon class="st3" points="482.3,-300 482.3,-202.3 497.2,-202.3 497.2,-333.4 484.7,-333.4 438.4,-243.8 392.1,-333.4 
				379.5,-333.4 379.5,-202.3 394.4,-202.3 394.4,-300.1 438.4,-214.5 			"/>
			<polygon class="st3" points="610.6,-202.3 610.6,-333.4 595.6,-333.4 595.6,-275.3 538.9,-275.3 538.9,-333.4 524,-333.4 
				524,-202.3 538.9,-202.3 538.9,-260.4 595.6,-260.4 595.6,-202.3 			"/>
			<path class="st3" d="M723.9-333.2H709v87.6c0,15.6-12.7,28.4-28.4,28.4c-15.6,0-28.4-12.7-28.4-28.4v-87.6h-14.9v87.6
				c0,23.9,19.4,43.3,43.3,43.3c23.9,0,43.3-19.4,43.3-43.3V-333.2z"/>
			<path class="st3" d="M824.4-265.8l-2.3-2l2.3-2c7.8-6.9,12.2-16.7,12.2-27c0-20.1-16.7-36.5-37.2-36.5h-48.6v130.9h48.6
				c20.5,0,37.2-16.4,37.2-36.5C836.6-249,832.1-258.9,824.4-265.8z M799.3-217.3h-33.7v-43.1h33.7c12.3,0,22.3,9.7,22.3,21.5
				C821.6-226.9,811.6-217.3,799.3-217.3z M799.3-275.3h-33.7v-43.1h33.7c12.3,0,22.3,9.7,22.3,21.5
				C821.6-284.9,811.6-275.3,799.3-275.3z"/>
		</g>
		<path id="hexjoin_x5F_b_2_" class="st3" d="M694.6-635.7c-7.6-18.3-20.4-30.8-37.8-37.3c-0.4-0.2-1.1-0.8-1.2-1.3
			c-2.6-8-5.1-16.1-7.6-24c-0.7-2.3-1.4-4.6-2.1-6.8l-4-12.8c0.2,0,0.5-0.1,0.7-0.1c9.2-1.5,14.9-8.3,14.7-17.6
			c-0.1-4.8-1.6-9.5-4.6-14.4c-7.3-11.9-17.9-19.8-31.5-23.6c-3.7-1-6.9-1.5-10-1.5c-5.2,0-9.6,1.4-13.7,4.4c-0.1,0-0.3-0.1-0.4-0.1
			c-4.9-2.8-10-5.7-14.8-8.5l-26-15.1c0-0.6,0-1.2,0-1.7c0-2.1,0-4.1-0.5-6.1c-1.7-7.5-6.3-13.6-14.6-19.1
			c-10.1-6.8-19.9-10.1-29.8-10.1c-3.4,0-6.9,0.4-10.3,1.2c-10.2,2.4-13.4,8.4-14.2,13c-0.5,2.7-0.2,5.5,0.1,8.2
			c0.1,0.6,0.1,1.2,0.2,1.7c-4,0.8-8,1.5-12,2.2c-10.2,1.9-20.8,3.8-31.1,6c-1.1,0.2-2.1,0.3-2.9,0.3c-2,0-3.4-0.7-4.6-2.2
			c-0.5-0.6-1.1-1-1.6-1.3c-0.1-0.1-0.2-0.1-0.3-0.2c-11-7.8-23.9-11.7-38.4-11.7c-1.9,0-3.9,0.1-5.9,0.2
			c-9.6,0.6-18.2,3.4-25.5,8.2c-7.3,4.8-11.8,11.6-12.6,19c-0.8,7.4,2,15,8,21.3c5.1,5.3,11.2,9.3,18.8,12.3c1.5,0.6,3,1.1,4.5,1.6
			c0.1,0,0.2,0.1,0.3,0.1l-1.7,6.8c-3.8,15.8-7.8,32.1-11.8,48c-0.2,0.2-0.6,0.4-0.9,0.4c-2.1,0.5-4.3,0.9-6.4,1.2
			c-4,0.7-8.2,1.5-12.1,2.9c-25.4,9-41.1,24.2-47.8,46.2c-4.2,13.7-2.1,27,5.9,38.4c10.2,14.6,25.3,22.2,46,23.1
			c20.6,0.9,39.6-5.5,56.2-19.2c0.3-0.3,0.5-0.4,0.5-0.4c0.1,0,0.2,0.1,0.5,0.2c10.4,6.3,21,12.6,31.2,18.7l7.4,4.4
			c4.4,2.6,8.7,5.2,13.1,7.8c7.1,4.2,14.3,8.5,21.4,12.8l0.3,0.2c0.1,0.1,0.3,0.2,0.4,0.3c0,0,0,0.1,0,0.2c-2.4,8-3.3,16.3-2.6,24.9
			c2,25.4,12.7,44.6,31.9,57c8.4,5.5,17.4,8.2,26.6,8.2c5.8,0,11.8-1.1,17.8-3.3c12.4-4.5,22.1-13.3,28.9-26.1
			c10.5-19.8,11.7-41.1,3.5-63.5c-0.5-1.5-0.5-1.5,0.2-2.1c3.4-2.6,6.8-5.4,10.1-8.1c1.4-1.2,2.9-2.4,4.3-3.6
			c7.6-6.2,15.1-12.3,22.7-18.5l9.5-7.7c0,0,0,0,0,0c0.4,0.4,0.8,0.7,1.2,1.1c8.7,7.5,16.9,11.6,26,13.1c1.9,0.3,3.8,0.5,5.6,0.5
			c13.4,0,23-7.9,25.8-21.2C699.7-617.3,698.6-626.1,694.6-635.7z M618.2-646.7c-0.1,8.5,2.1,16.7,6.8,25.9l-46.9,35.1
			C566.3-598,553.3-604,538.4-604l-0.3,0c-15.2,0.1-28.5,6.7-39.4,19.7L429-625.8c7.1-15.5,7.3-29.4,0.8-42.6
			c-6.4-12.8-17.4-21.3-33.6-26.1l10.8-54.1c0.9-0.1,1.9-0.2,2.8-0.3c3.2-0.4,6.4-0.8,9.6-1.4c9.8-2,17.2-6,22.8-12
			c6.1-6.5,8.1-14,6.1-22.1l3.7-0.8c4.5-1,9.1-1.9,13.6-2.8c2.1-0.4,4.2-0.9,6.3-1.3c7.8-1.6,15.8-3.3,23.8-4.9c0,0,0.1,0,0.2,0
			c0.5,0,1.2,0.2,1.5,0.5c9.5,7.9,20.7,12.4,33.4,13.4c5.9,0.4,12-1,18.1-4.3l5.2,3c12.3,7.2,25.1,14.6,37.6,21.9
			c0,0,0.1,0.1,0.1,0.1c-0.6,12.2,6.1,20.5,12.7,27.1c5.5,5.5,12.4,9.8,20.4,12.7c0.3,0.1,0.7,0.5,0.8,0.7
			c3.8,13,7.6,26.1,11.2,38.9l1.7,5.8C625.9-671.4,618.4-661.2,618.2-646.7z"/>
	</g>
	<g id="itA_x5F_blue_1_">
		<g id="DEMHUB_x5F_b_4_">
			<path class="st4" d="M126.4,876c0-47.5-38.6-86.1-86.1-86.1H0v22h40.3c35.4,0,64.1,28.8,64.1,64.1v21c0,35.4-28.8,64.1-64.1,64.1
				H0v22h40.3c47.5,0,86.1-38.6,86.1-86.1V876z"/>
			<g>
				<rect x="165.9" y="789.9" class="st4" width="113.2" height="22"/>
				<rect x="165.9" y="961.2" class="st4" width="113.2" height="22"/>
				<rect x="193" y="875.5" class="st4" width="59.1" height="22"/>
			</g>
			<polygon class="st4" points="470.1,839.2 470.1,983.2 492.1,983.2 492.1,789.9 473.7,789.9 405.4,922 337.1,789.9 318.6,789.9 
				318.6,983.2 340.6,983.2 340.6,839 405.4,965.2 			"/>
			<polygon class="st4" points="659.2,983.2 659.2,789.9 637.2,789.9 637.2,875.5 553.6,875.5 553.6,789.9 531.6,789.9 531.6,983.2 
				553.6,983.2 553.6,897.5 637.2,897.5 637.2,983.2 			"/>
			<path class="st4" d="M826.3,790.1h-22v129.2c0,23.1-18.8,41.8-41.8,41.8c-23,0-41.8-18.8-41.8-41.8V790.1h-22v129.2
				c0,35.2,28.6,63.8,63.8,63.8c35.2,0,63.8-28.6,63.8-63.8V790.1z"/>
			<path class="st4" d="M974.4,889.6l-3.4-3l3.4-3c11.4-10.2,18-24.7,18-39.7c0-29.6-24.6-53.8-54.9-53.8h-71.7v193h71.7
				c30.3,0,54.9-24.1,54.9-53.8C992.4,914.3,985.9,899.8,974.4,889.6z M937.5,961.1h-49.7v-63.5h49.7c18.1,0,32.9,14.2,32.9,31.7
				C970.4,946.9,955.7,961.1,937.5,961.1z M937.5,875.6h-49.7v-63.5h49.7c18.1,0,32.9,14.2,32.9,31.7
				C970.4,861.4,955.7,875.6,937.5,875.6z"/>
		</g>
		<path id="hexjoin_x5F_b_4_" class="st4" d="M783.1,344.1c-11.2-26.9-30-45.4-55.8-55c-0.6-0.2-1.6-1.2-1.8-1.8
			c-3.8-11.8-7.6-23.8-11.2-35.4c-1-3.4-2.1-6.7-3.1-10.1l-5.9-18.8c0.4-0.1,0.7-0.1,1.1-0.2c13.6-2.3,21.9-12.2,21.7-25.9
			c-0.1-7.1-2.3-14-6.8-21.2c-10.8-17.5-26.4-29.2-46.5-34.9c-5.4-1.5-10.2-2.3-14.7-2.3c-7.6,0-14.2,2.1-20.2,6.5
			c-0.2,0-0.4-0.1-0.6-0.2c-7.3-4.1-14.7-8.4-21.8-12.6l-38.3-22.2c0-0.9,0-1.7,0-2.6c0-3.1,0-6-0.7-9c-2.5-11-9.3-20-21.5-28.2
			c-14.9-10.1-29.3-14.9-43.9-14.9c-5,0-10.1,0.6-15.2,1.8c-15.1,3.5-19.7,12.4-21,19.1c-0.7,4-0.3,8.1,0.1,12
			c0.1,0.8,0.2,1.7,0.3,2.6c-5.9,1.1-11.8,2.2-17.7,3.3c-15.1,2.8-30.6,5.7-45.9,8.8c-1.7,0.3-3,0.5-4.2,0.5c-2.9,0-5-1-6.8-3.3
			c-0.7-0.9-1.6-1.5-2.3-2c-0.2-0.1-0.3-0.2-0.5-0.3c-16.2-11.5-35.2-17.3-56.6-17.3c-2.8,0-5.7,0.1-8.7,0.3
			c-14.1,1-26.8,5-37.5,12.1c-10.8,7.1-17.4,17-18.6,28c-1.2,10.9,3,22.1,11.8,31.4c7.5,7.8,16.5,13.7,27.7,18.1
			c2.2,0.8,4.4,1.7,6.6,2.4c0.1,0,0.2,0.1,0.4,0.1l-2.5,10.1c-5.7,23.3-11.5,47.3-17.4,70.8c-0.3,0.2-0.9,0.6-1.3,0.7
			c-3.1,0.7-6.3,1.3-9.4,1.8c-5.9,1.1-12,2.1-17.9,4.2c-37.5,13.3-60.5,35.6-70.4,68.2c-6.1,20.2-3.1,39.7,8.7,56.6
			c15.1,21.5,37.3,32.7,67.8,34.1c30.4,1.4,58.3-8.2,82.9-28.3c0.5-0.4,0.7-0.5,0.8-0.6c0.1,0,0.3,0.1,0.7,0.3
			c15.3,9.2,30.9,18.5,46,27.5l11,6.5c6.4,3.8,12.9,7.7,19.3,11.5c10.5,6.3,21,12.5,31.5,18.8l0.4,0.2c0.2,0.1,0.5,0.3,0.7,0.4
			c0,0.1,0,0.2-0.1,0.2c-3.5,11.7-4.8,24.1-3.8,36.7c2.9,37.5,18.8,65.8,47,84.1c12.4,8,25.6,12.1,39.3,12.1
			c8.6,0,17.4-1.6,26.2-4.9c18.3-6.7,32.6-19.6,42.5-38.5c15.5-29.2,17.2-60.6,5.2-93.6c-0.8-2.2-0.8-2.2,0.4-3.1
			c5.1-3.9,10-8,14.8-11.9c2.1-1.8,4.3-3.5,6.4-5.3c11.2-9.1,22.3-18.2,33.5-27.2l14-11.4c0,0,0,0,0,0c0.6,0.5,1.2,1.1,1.8,1.6
			c12.8,11,25,17.1,38.4,19.3c2.8,0.5,5.6,0.7,8.3,0.7c19.7,0,33.9-11.7,38-31.3C790.7,371.3,789.1,358.3,783.1,344.1z M670.5,328
			c-0.2,12.5,3,24.7,10.1,38.1L611.4,418c-17.4-18.2-36.6-27-58.7-27l-0.5,0c-22.5,0.1-42,9.9-58.1,29l-102.6-61.1
			c10.4-22.9,10.8-43.4,1.1-62.7c-9.4-18.8-25.6-31.4-49.6-38.5l15.9-79.8c1.4-0.2,2.8-0.3,4.2-0.5c4.7-0.6,9.5-1.1,14.2-2.1
			c14.4-3,25.4-8.8,33.7-17.7c9-9.7,12-20.6,9-32.6l5.5-1.1c6.7-1.4,13.4-2.8,20-4.2c3.1-0.6,6.2-1.3,9.3-1.9
			c11.5-2.4,23.3-4.9,35-7.2c0,0,0.1,0,0.3,0c0.8,0,1.8,0.4,2.2,0.7c13.9,11.7,30.5,18.3,49.3,19.8c8.7,0.7,17.7-1.5,26.7-6.3
			l7.6,4.4c18.2,10.6,37,21.5,55.4,32.3c0.1,0,0.1,0.1,0.2,0.2c-0.9,17.9,9,30.3,18.8,40c8.2,8.1,18.3,14.4,30,18.8
			c0.4,0.2,1,0.7,1.2,1c5.6,19.1,11.1,38.5,16.5,57.4l2.5,8.6C681.9,291.5,670.7,306.6,670.5,328z"/>
	</g>
	<g id="itA_x5F_black_1_" class="st5">
		<g id="DEMHUB_x5F_b_6_" class="st7">
			<path d="M1779.2,742c0-32.2-26.2-58.4-58.4-58.4h-27.3v14.9h27.3c24,0,43.5,19.5,43.5,43.5v14.3c0,24-19.5,43.5-43.5,43.5h-27.3
				v14.9h27.3c32.2,0,58.4-26.2,58.4-58.4V742z"/>
			<g>
				<rect x="1806" y="683.6" width="76.7" height="14.9"/>
				<rect x="1806" y="799.8" width="76.7" height="14.9"/>
				<rect x="1824.3" y="741.7" width="40.1" height="14.9"/>
			</g>
			<polygon points="2012.3,717 2012.3,814.7 2027.2,814.7 2027.2,683.6 2014.7,683.6 1968.4,773.2 1922.1,683.6 1909.5,683.6 
				1909.5,814.7 1924.4,814.7 1924.4,716.9 1968.4,802.5 			"/>
			<polygon points="2140.6,814.7 2140.6,683.6 2125.6,683.6 2125.6,741.7 2068.9,741.7 2068.9,683.6 2054,683.6 2054,814.7 
				2068.9,814.7 2068.9,756.6 2125.6,756.6 2125.6,814.7 			"/>
			<path d="M2253.9,683.8H2239v87.6c0,15.6-12.7,28.4-28.4,28.4c-15.6,0-28.4-12.7-28.4-28.4v-87.6h-14.9v87.6
				c0,23.9,19.4,43.3,43.3,43.3c23.9,0,43.3-19.4,43.3-43.3V683.8z"/>
			<path d="M2354.4,751.2l-2.3-2l2.3-2c7.8-6.9,12.2-16.7,12.2-27c0-20.1-16.7-36.5-37.2-36.5h-48.6v130.9h48.6
				c20.5,0,37.2-16.4,37.2-36.5C2366.6,768,2362.1,758.1,2354.4,751.2z M2329.3,799.7h-33.7v-43.1h33.7c12.3,0,22.3,9.7,22.3,21.5
				C2351.6,790.1,2341.6,799.7,2329.3,799.7z M2329.3,741.7h-33.7v-43.1h33.7c12.3,0,22.3,9.7,22.3,21.5
				C2351.6,732.1,2341.6,741.7,2329.3,741.7z"/>
		</g>
		<path id="hexjoin_x5F_b_6_" class="st7" d="M2224.6,381.3c-7.6-18.3-20.4-30.8-37.8-37.3c-0.4-0.2-1.1-0.8-1.2-1.3
			c-2.6-8-5.1-16.1-7.6-24c-0.7-2.3-1.4-4.6-2.1-6.8l-4-12.8c0.2,0,0.5-0.1,0.7-0.1c9.2-1.5,14.9-8.3,14.7-17.6
			c-0.1-4.8-1.6-9.5-4.6-14.4c-7.3-11.9-17.9-19.8-31.5-23.6c-3.7-1-6.9-1.5-10-1.5c-5.2,0-9.6,1.4-13.7,4.4c-0.1,0-0.3-0.1-0.4-0.1
			c-4.9-2.8-10-5.7-14.8-8.5l-26-15.1c0-0.6,0-1.2,0-1.7c0-2.1,0-4.1-0.5-6.1c-1.7-7.5-6.3-13.6-14.6-19.1
			c-10.1-6.8-19.9-10.1-29.8-10.1c-3.4,0-6.9,0.4-10.3,1.2c-10.2,2.4-13.4,8.4-14.2,13c-0.5,2.7-0.2,5.5,0.1,8.2
			c0.1,0.6,0.1,1.2,0.2,1.7c-4,0.8-8,1.5-12,2.2c-10.2,1.9-20.8,3.8-31.1,6c-1.1,0.2-2.1,0.3-2.9,0.3c-2,0-3.4-0.7-4.6-2.2
			c-0.5-0.6-1.1-1-1.6-1.3c-0.1-0.1-0.2-0.1-0.3-0.2c-11-7.8-23.9-11.7-38.4-11.7c-1.9,0-3.9,0.1-5.9,0.2
			c-9.6,0.6-18.2,3.4-25.5,8.2c-7.3,4.8-11.8,11.6-12.6,19c-0.8,7.4,2,15,8,21.3c5.1,5.3,11.2,9.3,18.8,12.3c1.5,0.6,3,1.1,4.5,1.6
			c0.1,0,0.2,0.1,0.3,0.1l-1.7,6.8c-3.8,15.8-7.8,32.1-11.8,48c-0.2,0.2-0.6,0.4-0.9,0.4c-2.1,0.5-4.3,0.9-6.4,1.2
			c-4,0.7-8.2,1.5-12.1,2.9c-25.4,9-41.1,24.2-47.8,46.2c-4.2,13.7-2.1,27,5.9,38.4c10.2,14.6,25.3,22.2,46,23.1
			c20.6,0.9,39.6-5.5,56.2-19.2c0.3-0.3,0.5-0.4,0.5-0.4c0.1,0,0.2,0.1,0.5,0.2c10.4,6.3,21,12.6,31.2,18.7l7.4,4.4
			c4.4,2.6,8.7,5.2,13.1,7.8c7.1,4.2,14.3,8.5,21.4,12.8l0.3,0.2c0.1,0.1,0.3,0.2,0.4,0.3c0,0,0,0.1,0,0.2c-2.4,8-3.3,16.3-2.6,24.9
			c2,25.4,12.7,44.6,31.9,57c8.4,5.5,17.4,8.2,26.6,8.2c5.8,0,11.8-1.1,17.8-3.3c12.4-4.5,22.1-13.3,28.9-26.1
			c10.5-19.8,11.7-41.1,3.5-63.5c-0.5-1.5-0.5-1.5,0.2-2.1c3.4-2.6,6.8-5.4,10.1-8.1c1.4-1.2,2.9-2.4,4.3-3.6
			c7.6-6.2,15.1-12.3,22.7-18.5l9.5-7.7c0,0,0,0,0,0c0.4,0.4,0.8,0.7,1.2,1.1c8.7,7.5,16.9,11.6,26,13.1c1.9,0.3,3.8,0.5,5.6,0.5
			c13.4,0,23-7.9,25.8-21.2C2229.7,399.7,2228.6,390.9,2224.6,381.3z M2148.2,370.3c-0.1,8.5,2.1,16.7,6.8,25.9l-46.9,35.1
			c-11.8-12.3-24.8-18.3-39.8-18.3l-0.3,0c-15.2,0.1-28.5,6.7-39.4,19.7l-69.6-41.4c7.1-15.5,7.3-29.4,0.8-42.6
			c-6.4-12.8-17.4-21.3-33.6-26.1l10.8-54.1c0.9-0.1,1.9-0.2,2.8-0.3c3.2-0.4,6.4-0.8,9.6-1.4c9.8-2,17.2-6,22.8-12
			c6.1-6.5,8.1-14,6.1-22.1l3.7-0.8c4.5-1,9.1-1.9,13.6-2.8c2.1-0.4,4.2-0.9,6.3-1.3c7.8-1.6,15.8-3.3,23.8-4.9c0,0,0.1,0,0.2,0
			c0.5,0,1.2,0.2,1.5,0.5c9.5,7.9,20.7,12.4,33.4,13.4c5.9,0.4,12-1,18.1-4.3l5.2,3c12.3,7.2,25.1,14.6,37.6,21.9
			c0,0,0.1,0.1,0.1,0.1c-0.6,12.2,6.1,20.5,12.7,27.1c5.5,5.5,12.4,9.8,20.4,12.7c0.3,0.1,0.7,0.5,0.8,0.7
			c3.8,13,7.6,26.1,11.2,38.9l1.7,5.8C2155.9,345.6,2148.4,355.8,2148.2,370.3z"/>
	</g>
	<g id="itA_x5F_white" class="st5">
		<g id="DEMHUB_x5F_b_3_" class="st7">
			<path class="st4" d="M1779.2,742c0-32.2-26.2-58.4-58.4-58.4h-27.3v14.9h27.3c24,0,43.5,19.5,43.5,43.5v14.3
				c0,24-19.5,43.5-43.5,43.5h-27.3v14.9h27.3c32.2,0,58.4-26.2,58.4-58.4V742z"/>
			<g>
				<rect x="1806" y="683.6" class="st4" width="76.7" height="14.9"/>
				<rect x="1806" y="799.8" class="st4" width="76.7" height="14.9"/>
				<rect x="1824.3" y="741.7" class="st4" width="40.1" height="14.9"/>
			</g>
			<polygon class="st4" points="2012.3,717 2012.3,814.7 2027.2,814.7 2027.2,683.6 2014.7,683.6 1968.4,773.2 1922.1,683.6 
				1909.5,683.6 1909.5,814.7 1924.4,814.7 1924.4,716.9 1968.4,802.5 			"/>
			<polygon class="st4" points="2140.6,814.7 2140.6,683.6 2125.6,683.6 2125.6,741.7 2068.9,741.7 2068.9,683.6 2054,683.6 
				2054,814.7 2068.9,814.7 2068.9,756.6 2125.6,756.6 2125.6,814.7 			"/>
			<path class="st4" d="M2253.9,683.8H2239v87.6c0,15.6-12.7,28.4-28.4,28.4c-15.6,0-28.4-12.7-28.4-28.4v-87.6h-14.9v87.6
				c0,23.9,19.4,43.3,43.3,43.3c23.9,0,43.3-19.4,43.3-43.3V683.8z"/>
			<path class="st4" d="M2354.4,751.2l-2.3-2l2.3-2c7.8-6.9,12.2-16.7,12.2-27c0-20.1-16.7-36.5-37.2-36.5h-48.6v130.9h48.6
				c20.5,0,37.2-16.4,37.2-36.5C2366.6,768,2362.1,758.1,2354.4,751.2z M2329.3,799.7h-33.7v-43.1h33.7c12.3,0,22.3,9.7,22.3,21.5
				C2351.6,790.1,2341.6,799.7,2329.3,799.7z M2329.3,741.7h-33.7v-43.1h33.7c12.3,0,22.3,9.7,22.3,21.5
				C2351.6,732.1,2341.6,741.7,2329.3,741.7z"/>
		</g>
		<path id="hexjoin_x5F_b_3_" class="st8" d="M2224.6,381.3c-7.6-18.3-20.4-30.8-37.8-37.3c-0.4-0.2-1.1-0.8-1.2-1.3
			c-2.6-8-5.1-16.1-7.6-24c-0.7-2.3-1.4-4.6-2.1-6.8l-4-12.8c0.2,0,0.5-0.1,0.7-0.1c9.2-1.5,14.9-8.3,14.7-17.6
			c-0.1-4.8-1.6-9.5-4.6-14.4c-7.3-11.9-17.9-19.8-31.5-23.6c-3.7-1-6.9-1.5-10-1.5c-5.2,0-9.6,1.4-13.7,4.4c-0.1,0-0.3-0.1-0.4-0.1
			c-4.9-2.8-10-5.7-14.8-8.5l-26-15.1c0-0.6,0-1.2,0-1.7c0-2.1,0-4.1-0.5-6.1c-1.7-7.5-6.3-13.6-14.6-19.1
			c-10.1-6.8-19.9-10.1-29.8-10.1c-3.4,0-6.9,0.4-10.3,1.2c-10.2,2.4-13.4,8.4-14.2,13c-0.5,2.7-0.2,5.5,0.1,8.2
			c0.1,0.6,0.1,1.2,0.2,1.7c-4,0.8-8,1.5-12,2.2c-10.2,1.9-20.8,3.8-31.1,6c-1.1,0.2-2.1,0.3-2.9,0.3c-2,0-3.4-0.7-4.6-2.2
			c-0.5-0.6-1.1-1-1.6-1.3c-0.1-0.1-0.2-0.1-0.3-0.2c-11-7.8-23.9-11.7-38.4-11.7c-1.9,0-3.9,0.1-5.9,0.2
			c-9.6,0.6-18.2,3.4-25.5,8.2c-7.3,4.8-11.8,11.6-12.6,19c-0.8,7.4,2,15,8,21.3c5.1,5.3,11.2,9.3,18.8,12.3c1.5,0.6,3,1.1,4.5,1.6
			c0.1,0,0.2,0.1,0.3,0.1l-1.7,6.8c-3.8,15.8-7.8,32.1-11.8,48c-0.2,0.2-0.6,0.4-0.9,0.4c-2.1,0.5-4.3,0.9-6.4,1.2
			c-4,0.7-8.2,1.5-12.1,2.9c-25.4,9-41.1,24.2-47.8,46.2c-4.2,13.7-2.1,27,5.9,38.4c10.2,14.6,25.3,22.2,46,23.1
			c20.6,0.9,39.6-5.5,56.2-19.2c0.3-0.3,0.5-0.4,0.5-0.4c0.1,0,0.2,0.1,0.5,0.2c10.4,6.3,21,12.6,31.2,18.7l7.4,4.4
			c4.4,2.6,8.7,5.2,13.1,7.8c7.1,4.2,14.3,8.5,21.4,12.8l0.3,0.2c0.1,0.1,0.3,0.2,0.4,0.3c0,0,0,0.1,0,0.2c-2.4,8-3.3,16.3-2.6,24.9
			c2,25.4,12.7,44.6,31.9,57c8.4,5.5,17.4,8.2,26.6,8.2c5.8,0,11.8-1.1,17.8-3.3c12.4-4.5,22.1-13.3,28.9-26.1
			c10.5-19.8,11.7-41.1,3.5-63.5c-0.5-1.5-0.5-1.5,0.2-2.1c3.4-2.6,6.8-5.4,10.1-8.1c1.4-1.2,2.9-2.4,4.3-3.6
			c7.6-6.2,15.1-12.3,22.7-18.5l9.5-7.7c0,0,0,0,0,0c0.4,0.4,0.8,0.7,1.2,1.1c8.7,7.5,16.9,11.6,26,13.1c1.9,0.3,3.8,0.5,5.6,0.5
			c13.4,0,23-7.9,25.8-21.2C2229.7,399.7,2228.6,390.9,2224.6,381.3z M2148.2,370.3c-0.1,8.5,2.1,16.7,6.8,25.9l-46.9,35.1
			c-11.8-12.3-24.8-18.3-39.8-18.3l-0.3,0c-15.2,0.1-28.5,6.7-39.4,19.7l-69.6-41.4c7.1-15.5,7.3-29.4,0.8-42.6
			c-6.4-12.8-17.4-21.3-33.6-26.1l10.8-54.1c0.9-0.1,1.9-0.2,2.8-0.3c3.2-0.4,6.4-0.8,9.6-1.4c9.8-2,17.2-6,22.8-12
			c6.1-6.5,8.1-14,6.1-22.1l3.7-0.8c4.5-1,9.1-1.9,13.6-2.8c2.1-0.4,4.2-0.9,6.3-1.3c7.8-1.6,15.8-3.3,23.8-4.9c0,0,0.1,0,0.2,0
			c0.5,0,1.2,0.2,1.5,0.5c9.5,7.9,20.7,12.4,33.4,13.4c5.9,0.4,12-1,18.1-4.3l5.2,3c12.3,7.2,25.1,14.6,37.6,21.9
			c0,0,0.1,0.1,0.1,0.1c-0.6,12.2,6.1,20.5,12.7,27.1c5.5,5.5,12.4,9.8,20.4,12.7c0.3,0.1,0.7,0.5,0.8,0.7
			c3.8,13,7.6,26.1,11.2,38.9l1.7,5.8C2155.9,345.6,2148.4,355.8,2148.2,370.3z"/>
	</g>
	<g id="itA_x5F_blue_2_">
		<g id="DEMHUB_x5F_b_7_">
			<path d="M247.4,1762c0-32.2-26.2-58.4-58.4-58.4h-27.3v14.9H189c24,0,43.5,19.5,43.5,43.5v14.3c0,24-19.5,43.5-43.5,43.5h-27.3
				v14.9H189c32.2,0,58.4-26.2,58.4-58.4V1762z"/>
			<g>
				<rect x="274.2" y="1703.6" width="76.7" height="14.9"/>
				<rect x="274.2" y="1819.8" width="76.7" height="14.9"/>
				<rect x="292.5" y="1761.7" width="40.1" height="14.9"/>
			</g>
			<polygon points="480.5,1737 480.5,1834.7 495.4,1834.7 495.4,1703.6 482.9,1703.6 436.6,1793.2 390.3,1703.6 377.7,1703.6 
				377.7,1834.7 392.7,1834.7 392.7,1736.9 436.6,1822.5 			"/>
			<polygon points="608.8,1834.7 608.8,1703.6 593.9,1703.6 593.9,1761.7 537.2,1761.7 537.2,1703.6 522.2,1703.6 522.2,1834.7 
				537.2,1834.7 537.2,1776.6 593.9,1776.6 593.9,1834.7 			"/>
			<path d="M722.1,1703.8h-14.9v87.6c0,15.6-12.7,28.4-28.4,28.4c-15.6,0-28.4-12.7-28.4-28.4v-87.6h-14.9v87.6
				c0,23.9,19.4,43.3,43.3,43.3c23.9,0,43.3-19.4,43.3-43.3V1703.8z"/>
			<path d="M822.6,1771.2l-2.3-2l2.3-2c7.8-6.9,12.2-16.7,12.2-27c0-20.1-16.7-36.5-37.2-36.5h-48.6v130.9h48.6
				c20.5,0,37.2-16.4,37.2-36.5C834.8,1788,830.3,1778.1,822.6,1771.2z M797.6,1819.7h-33.7v-43.1h33.7c12.3,0,22.3,9.7,22.3,21.5
				C819.9,1810.1,809.9,1819.7,797.6,1819.7z M797.6,1761.7h-33.7v-43.1h33.7c12.3,0,22.3,9.7,22.3,21.5
				C819.9,1752.1,809.9,1761.7,797.6,1761.7z"/>
		</g>
		<path id="hexjoin_x5F_b_7_" d="M692.8,1401.3c-7.6-18.3-20.4-30.8-37.8-37.3c-0.4-0.2-1.1-0.8-1.2-1.3c-2.6-8-5.1-16.1-7.6-24
			c-0.7-2.3-1.4-4.6-2.1-6.8l-4-12.8c0.2,0,0.5-0.1,0.7-0.1c9.2-1.5,14.9-8.3,14.7-17.6c-0.1-4.8-1.6-9.5-4.6-14.4
			c-7.3-11.9-17.9-19.8-31.5-23.6c-3.7-1-6.9-1.5-10-1.5c-5.2,0-9.6,1.4-13.7,4.4c-0.1,0-0.3-0.1-0.4-0.1c-4.9-2.8-10-5.7-14.8-8.5
			l-26-15.1c0-0.6,0-1.2,0-1.7c0-2.1,0-4.1-0.5-6.1c-1.7-7.5-6.3-13.6-14.6-19.1c-10.1-6.8-19.9-10.1-29.8-10.1
			c-3.4,0-6.9,0.4-10.3,1.2c-10.2,2.4-13.4,8.4-14.2,13c-0.5,2.7-0.2,5.5,0.1,8.2c0.1,0.6,0.1,1.2,0.2,1.7c-4,0.8-8,1.5-12,2.2
			c-10.2,1.9-20.8,3.8-31.1,6c-1.1,0.2-2.1,0.3-2.9,0.3c-2,0-3.4-0.7-4.6-2.2c-0.5-0.6-1.1-1-1.6-1.3c-0.1-0.1-0.2-0.1-0.3-0.2
			c-11-7.8-23.9-11.7-38.4-11.7c-1.9,0-3.9,0.1-5.9,0.2c-9.6,0.6-18.2,3.4-25.5,8.2c-7.3,4.8-11.8,11.6-12.6,19
			c-0.8,7.4,2,15,8,21.3c5.1,5.3,11.2,9.3,18.8,12.3c1.5,0.6,3,1.1,4.5,1.6c0.1,0,0.2,0.1,0.3,0.1l-1.7,6.8
			c-3.8,15.8-7.8,32.1-11.8,48c-0.2,0.2-0.6,0.4-0.9,0.4c-2.1,0.5-4.3,0.9-6.4,1.2c-4,0.7-8.2,1.5-12.1,2.9
			c-25.4,9-41.1,24.2-47.8,46.2c-4.2,13.7-2.1,27,5.9,38.4c10.2,14.6,25.3,22.2,46,23.1c20.6,0.9,39.6-5.5,56.2-19.2
			c0.3-0.3,0.5-0.4,0.5-0.4c0.1,0,0.2,0.1,0.5,0.2c10.4,6.3,21,12.6,31.2,18.7l7.4,4.4c4.4,2.6,8.7,5.2,13.1,7.8
			c7.1,4.2,14.3,8.5,21.4,12.8l0.3,0.2c0.1,0.1,0.3,0.2,0.4,0.3c0,0,0,0.1,0,0.2c-2.4,8-3.3,16.3-2.6,24.9c2,25.4,12.7,44.6,31.9,57
			c8.4,5.5,17.4,8.2,26.6,8.2c5.8,0,11.8-1.1,17.8-3.3c12.4-4.5,22.1-13.3,28.9-26.1c10.5-19.8,11.7-41.1,3.5-63.5
			c-0.5-1.5-0.5-1.5,0.2-2.1c3.4-2.6,6.8-5.4,10.1-8.1c1.4-1.2,2.9-2.4,4.3-3.6c7.6-6.2,15.1-12.3,22.7-18.5l9.5-7.7c0,0,0,0,0,0
			c0.4,0.4,0.8,0.7,1.2,1.1c8.7,7.5,16.9,11.6,26,13.1c1.9,0.3,3.8,0.5,5.6,0.5c13.4,0,23-7.9,25.8-21.2
			C698,1419.7,696.9,1410.9,692.8,1401.3z M616.4,1390.3c-0.1,8.5,2.1,16.7,6.8,25.9l-46.9,35.1c-11.8-12.3-24.8-18.3-39.8-18.3
			l-0.3,0c-15.2,0.1-28.5,6.7-39.4,19.7l-69.6-41.4c7.1-15.5,7.3-29.4,0.8-42.6c-6.4-12.8-17.4-21.3-33.6-26.1l10.8-54.1
			c0.9-0.1,1.9-0.2,2.8-0.3c3.2-0.4,6.4-0.8,9.6-1.4c9.8-2,17.2-6,22.8-12c6.1-6.5,8.1-14,6.1-22.1l3.7-0.8c4.5-1,9.1-1.9,13.6-2.8
			c2.1-0.4,4.2-0.9,6.3-1.3c7.8-1.6,15.8-3.3,23.8-4.9c0,0,0.1,0,0.2,0c0.5,0,1.2,0.2,1.5,0.5c9.5,7.9,20.7,12.4,33.4,13.4
			c5.9,0.4,12-1,18.1-4.3l5.2,3c12.3,7.2,25.1,14.6,37.6,21.9c0,0,0.1,0.1,0.1,0.1c-0.6,12.2,6.1,20.5,12.7,27.1
			c5.5,5.5,12.4,9.8,20.4,12.7c0.3,0.1,0.7,0.5,0.8,0.7c3.8,13,7.6,26.1,11.2,38.9l1.7,5.8C624.1,1365.6,616.6,1375.8,616.4,1390.3z
			"/>
	</g>
	<g id="itA_x5F_blue_3_">
		<g id="DEMHUB_x5F_b_10_">
			<path class="st4" d="M1265.5,1758c0-32.2-26.2-58.4-58.4-58.4h-27.3v14.9h27.3c24,0,43.5,19.5,43.5,43.5v14.3
				c0,24-19.5,43.5-43.5,43.5h-27.3v14.9h27.3c32.2,0,58.4-26.2,58.4-58.4V1758z"/>
			<g>
				<rect x="1292.3" y="1699.6" class="st4" width="76.7" height="14.9"/>
				<rect x="1292.3" y="1815.8" class="st4" width="76.7" height="14.9"/>
				<rect x="1310.7" y="1757.7" class="st4" width="40.1" height="14.9"/>
			</g>
			<polygon class="st4" points="1498.6,1733 1498.6,1830.7 1513.6,1830.7 1513.6,1699.6 1501.1,1699.6 1454.7,1789.2 1408.4,1699.6 
				1395.9,1699.6 1395.9,1830.7 1410.8,1830.7 1410.8,1732.9 1454.7,1818.5 			"/>
			<polygon class="st4" points="1626.9,1830.7 1626.9,1699.6 1612,1699.6 1612,1757.7 1555.3,1757.7 1555.3,1699.6 1540.4,1699.6 
				1540.4,1830.7 1555.3,1830.7 1555.3,1772.6 1612,1772.6 1612,1830.7 			"/>
			<path class="st4" d="M1740.3,1699.8h-14.9v87.6c0,15.6-12.7,28.4-28.4,28.4c-15.6,0-28.4-12.7-28.4-28.4v-87.6h-14.9v87.6
				c0,23.9,19.4,43.3,43.3,43.3c23.9,0,43.3-19.4,43.3-43.3V1699.8z"/>
			<path class="st4" d="M1840.7,1767.2l-2.3-2l2.3-2c7.8-6.9,12.2-16.7,12.2-27c0-20.1-16.7-36.5-37.2-36.5h-48.6v130.9h48.6
				c20.5,0,37.2-16.4,37.2-36.5C1852.9,1784,1848.5,1774.1,1840.7,1767.2z M1815.7,1815.7H1782v-43.1h33.7
				c12.3,0,22.3,9.7,22.3,21.5C1838,1806.1,1828,1815.7,1815.7,1815.7z M1815.7,1757.7H1782v-43.1h33.7c12.3,0,22.3,9.7,22.3,21.5
				C1838,1748.1,1828,1757.7,1815.7,1757.7z"/>
		</g>
		<path id="hexjoin_x5F_b_10_" class="st4" d="M1711,1397.3c-7.6-18.3-20.4-30.8-37.8-37.3c-0.4-0.2-1.1-0.8-1.2-1.3
			c-2.6-8-5.1-16.1-7.6-24c-0.7-2.3-1.4-4.6-2.1-6.8l-4-12.8c0.2,0,0.5-0.1,0.7-0.1c9.2-1.5,14.9-8.3,14.7-17.6
			c-0.1-4.8-1.6-9.5-4.6-14.4c-7.3-11.9-17.9-19.8-31.5-23.6c-3.7-1-6.9-1.5-10-1.5c-5.2,0-9.6,1.4-13.7,4.4c-0.1,0-0.3-0.1-0.4-0.1
			c-4.9-2.8-10-5.7-14.8-8.5l-26-15.1c0-0.6,0-1.2,0-1.7c0-2.1,0-4.1-0.5-6.1c-1.7-7.5-6.3-13.6-14.6-19.1
			c-10.1-6.8-19.9-10.1-29.8-10.1c-3.4,0-6.9,0.4-10.3,1.2c-10.2,2.4-13.4,8.4-14.2,13c-0.5,2.7-0.2,5.5,0.1,8.2
			c0.1,0.6,0.1,1.2,0.2,1.7c-4,0.8-8,1.5-12,2.2c-10.2,1.9-20.8,3.8-31.1,6c-1.1,0.2-2.1,0.3-2.9,0.3c-2,0-3.4-0.7-4.6-2.2
			c-0.5-0.6-1.1-1-1.6-1.3c-0.1-0.1-0.2-0.1-0.3-0.2c-11-7.8-23.9-11.7-38.4-11.7c-1.9,0-3.9,0.1-5.9,0.2
			c-9.6,0.6-18.2,3.4-25.5,8.2c-7.3,4.8-11.8,11.6-12.6,19c-0.8,7.4,2,15,8,21.3c5.1,5.3,11.2,9.3,18.8,12.3c1.5,0.6,3,1.1,4.5,1.6
			c0.1,0,0.2,0.1,0.3,0.1l-1.7,6.8c-3.8,15.8-7.8,32.1-11.8,48c-0.2,0.2-0.6,0.4-0.9,0.4c-2.1,0.5-4.3,0.9-6.4,1.2
			c-4,0.7-8.2,1.5-12.1,2.9c-25.4,9-41.1,24.2-47.8,46.2c-4.2,13.7-2.1,27,5.9,38.4c10.2,14.6,25.3,22.2,46,23.1
			c20.6,0.9,39.6-5.5,56.2-19.2c0.3-0.3,0.5-0.4,0.5-0.4c0.1,0,0.2,0.1,0.5,0.2c10.4,6.3,21,12.6,31.2,18.7l7.4,4.4
			c4.4,2.6,8.7,5.2,13.1,7.8c7.1,4.2,14.3,8.5,21.4,12.8l0.3,0.2c0.1,0.1,0.3,0.2,0.4,0.3c0,0,0,0.1,0,0.2c-2.4,8-3.3,16.3-2.6,24.9
			c2,25.4,12.7,44.6,31.9,57c8.4,5.5,17.4,8.2,26.6,8.2c5.8,0,11.8-1.1,17.8-3.3c12.4-4.5,22.1-13.3,28.9-26.1
			c10.5-19.8,11.7-41.1,3.5-63.5c-0.5-1.5-0.5-1.5,0.2-2.1c3.4-2.6,6.8-5.4,10.1-8.1c1.4-1.2,2.9-2.4,4.3-3.6
			c7.6-6.2,15.1-12.3,22.7-18.5l9.5-7.7c0,0,0,0,0,0c0.4,0.4,0.8,0.7,1.2,1.1c8.7,7.5,16.9,11.6,26,13.1c1.9,0.3,3.8,0.5,5.6,0.5
			c13.4,0,23-7.9,25.8-21.2C1716.1,1415.7,1715,1406.9,1711,1397.3z M1634.5,1386.3c-0.1,8.5,2.1,16.7,6.8,25.9l-46.9,35.1
			c-11.8-12.3-24.8-18.3-39.8-18.3l-0.3,0c-15.2,0.1-28.5,6.7-39.4,19.7l-69.6-41.4c7.1-15.5,7.3-29.4,0.8-42.6
			c-6.4-12.8-17.4-21.3-33.6-26.1l10.8-54.1c0.9-0.1,1.9-0.2,2.8-0.3c3.2-0.4,6.4-0.8,9.6-1.4c9.8-2,17.2-6,22.8-12
			c6.1-6.5,8.1-14,6.1-22.1l3.7-0.8c4.5-1,9.1-1.9,13.6-2.8c2.1-0.4,4.2-0.9,6.3-1.3c7.8-1.6,15.8-3.3,23.8-4.9c0,0,0.1,0,0.2,0
			c0.5,0,1.2,0.2,1.5,0.5c9.5,7.9,20.7,12.4,33.4,13.4c5.9,0.4,12-1,18.1-4.3l5.2,3c12.3,7.2,25.1,14.6,37.6,21.9
			c0,0,0.1,0.1,0.1,0.1c-0.6,12.2,6.1,20.5,12.7,27.1c5.5,5.5,12.4,9.8,20.4,12.7c0.3,0.1,0.7,0.5,0.8,0.7
			c3.8,13,7.6,26.1,11.2,38.9l1.7,5.8C1642.3,1361.6,1634.7,1371.8,1634.5,1386.3z"/>
	</g>
</g>
</svg>
