<?xml version="1.0" encoding="utf-8"?>
<!-- Generator: Adobe Illustrator 19.1.1, SVG Export Plug-In . SVG Version: 6.00 Build 0)  -->
<svg version="1.1" xmlns="http://www.w3.org/2000/svg" xmlns:xlink="http://www.w3.org/1999/xlink" x="0px" y="0px"
	 viewBox="0 0 1000 1000" style="enable-background:new 0 0 1000 1000;" xml:space="preserve">
<style type="text/css">
	.st0{fill:url(#SVGID_1_);}
	.st1{fill:url(#SVGID_2_);}
	.st2{fill:url(#SVGID_3_);}
	.st3{fill:#416788;}
	.st4{fill:#FFFFFF;}
	.st5{display:none;}
	.st6{display:none;fill:#FFFFFF;}
	.st7{display:inline;}
	.st8{display:inline;fill:#FFFFFF;}
	.st9{display:inline;fill:#416788;}
</style>
<g id="backdrop">
</g>
<g id="Logo_x5F_icon">
</g>
<g id="Logo_x5F_text">
</g>
<g id="Logo_x5F_icon_x26_text_x5F_B">
</g>
<g id="Logo_x5F_icon_x26_text_x5F_A">
	<g id="itA_x5F_blue_1_">
		<g id="DEMHUB_x5F_b_4_">
			<path class="st4" d="M129.3,849.6c0-48.6-39.5-88.1-88.1-88.1H0v22.5h41.2c36.2,0,65.6,29.4,65.6,65.6v21.5
				c0,36.2-29.4,65.6-65.6,65.6H0v22.5h41.2c48.6,0,88.1-39.5,88.1-88.1V849.6z"/>
			<g>
				<rect x="169.7" y="761.6" class="st4" width="115.7" height="22.5"/>
				<rect x="169.7" y="936.7" class="st4" width="115.7" height="22.5"/>
				<rect x="197.3" y="849.1" class="st4" width="60.4" height="22.5"/>
			</g>
			<polygon class="st4" points="480.8,812 480.8,959.2 503.3,959.2 503.3,761.6 484.4,761.6 414.6,896.6 344.8,761.6 325.8,761.6 
				325.8,959.2 348.3,959.2 348.3,811.7 414.6,940.8 			"/>
			<polygon class="st4" points="674.2,959.2 674.2,761.6 651.7,761.6 651.7,849.1 566.2,849.1 566.2,761.6 543.7,761.6 543.7,959.2 
				566.2,959.2 566.2,871.6 651.7,871.6 651.7,959.2 			"/>
			<path class="st4" d="M845.1,761.8h-22.5v132.1c0,23.6-19.2,42.8-42.8,42.8c-23.6,0-42.8-19.2-42.8-42.8V761.8h-22.5v132.1
				c0,36,29.3,65.3,65.3,65.3c36,0,65.3-29.3,65.3-65.3V761.8z"/>
			<path class="st4" d="M996.5,863.5l-3.4-3.1l3.4-3.1c11.7-10.4,18.4-25.2,18.4-40.6c0-30.3-25.2-55-56.1-55h-73.3v197.4h73.3
				c31,0,56.1-24.7,56.1-55C1014.9,888.8,1008.2,873.9,996.5,863.5z M958.8,936.6H908v-64.9h50.8c18.5,0,33.6,14.6,33.6,32.5
				C992.4,922.1,977.3,936.6,958.8,936.6z M958.8,849.2H908v-64.9h50.8c18.5,0,33.6,14.6,33.6,32.5
				C992.4,834.6,977.3,849.2,958.8,849.2z"/>
		</g>
		<path id="hexjoin_x5F_b_4_" class="st4" d="M800.9,305.7c-11.5-27.5-30.7-46.4-57.1-56.2c-0.6-0.2-1.7-1.3-1.9-1.9
			c-3.9-12-7.7-24.4-11.4-36.2c-1.1-3.4-2.1-6.9-3.2-10.3l-6-19.3c0.4-0.1,0.7-0.1,1.1-0.2c13.9-2.3,22.4-12.5,22.2-26.5
			c-0.1-7.2-2.4-14.4-6.9-21.7c-11-17.9-27-29.9-47.5-35.6c-5.6-1.6-10.5-2.3-15-2.3c-7.8,0-14.5,2.2-20.7,6.6
			c-0.2,0-0.5-0.1-0.6-0.2c-7.5-4.2-15-8.6-22.3-12.9l-39.2-22.7c0-0.9,0-1.8,0-2.6c0-3.2,0-6.2-0.7-9.2
			c-2.5-11.3-9.5-20.5-21.9-28.9c-15.2-10.3-29.9-15.3-44.9-15.3c-5.1,0-10.3,0.6-15.5,1.8C494,15.6,489.2,24.7,488,31.6
			c-0.8,4.1-0.3,8.3,0.1,12.3c0.1,0.9,0.2,1.7,0.3,2.6c-6,1.1-12.1,2.3-18.1,3.4c-15.4,2.9-31.3,5.8-46.9,9
			c-1.7,0.3-3.1,0.5-4.3,0.5c-3,0-5.1-1-7-3.4c-0.8-0.9-1.7-1.5-2.4-2c-0.2-0.1-0.3-0.2-0.5-0.3C392.6,42,373.1,36,351.2,36
			c-2.9,0-5.9,0.1-8.8,0.3c-14.5,1-27.4,5.2-38.4,12.4c-11,7.3-17.8,17.4-19.1,28.6c-1.3,11.2,3,22.6,12.1,32.1
			c7.6,8,16.9,14.1,28.4,18.5c2.2,0.9,4.5,1.7,6.8,2.5c0.1,0,0.3,0.1,0.4,0.1l-2.5,10.3c-5.8,23.8-11.8,48.4-17.8,72.4
			c-0.3,0.2-0.9,0.6-1.3,0.7c-3.2,0.7-6.5,1.3-9.6,1.9c-6.1,1.1-12.3,2.2-18.3,4.3c-38.3,13.6-61.9,36.4-72,69.7
			c-6.3,20.6-3.2,40.7,8.9,57.9c15.4,22,38.1,33.4,69.4,34.8c31.1,1.4,59.6-8.3,84.8-28.9c0.5-0.4,0.7-0.5,0.8-0.6
			c0.1,0,0.3,0.1,0.7,0.4c15.6,9.5,31.6,19,47,28.2l11.2,6.7c6.6,3.9,13.2,7.9,19.8,11.8c10.8,6.4,21.5,12.8,32.3,19.2l0.4,0.2
			c0.2,0.1,0.5,0.3,0.7,0.4c0,0.1,0,0.2-0.1,0.3c-3.6,12-4.9,24.6-3.9,37.6c3,38.3,19.2,67.3,48.1,86c12.7,8.2,26.2,12.4,40.2,12.4
			c8.8,0,17.8-1.7,26.8-5c18.7-6.9,33.3-20.1,43.5-39.3c15.8-29.8,17.6-62,5.3-95.7c-0.8-2.2-0.8-2.2,0.4-3.1
			c5.2-3.9,10.3-8.1,15.2-12.2c2.2-1.8,4.4-3.6,6.5-5.4c11.4-9.3,22.8-18.6,34.2-27.8l14.3-11.6c0,0,0,0,0,0
			c0.6,0.6,1.2,1.1,1.9,1.6c13.1,11.3,25.5,17.5,39.3,19.7c2.9,0.5,5.7,0.7,8.5,0.7c20.1,0,34.7-12,38.9-32
			C808.6,333.5,807,320.2,800.9,305.7z M685.7,289.2c-0.2,12.8,3.1,25.2,10.3,39l-70.7,53c-17.8-18.6-37.4-27.6-60-27.6l-0.5,0
			c-23,0.1-43,10.1-59.5,29.7l-104.9-62.5c10.7-23.4,11-44.4,1.2-64.2c-9.6-19.2-26.2-32.2-50.7-39.4l16.3-81.6
			c1.4-0.2,2.9-0.4,4.3-0.5c4.8-0.6,9.7-1.2,14.5-2.2c14.7-3.1,26-9,34.4-18.1c9.2-9.9,12.2-21.1,9.2-33.3l5.6-1.2
			c6.9-1.4,13.7-2.9,20.5-4.3c3.2-0.7,6.3-1.3,9.5-2c11.7-2.5,23.9-5,35.8-7.4c0,0,0.1,0,0.3,0c0.8,0,1.8,0.4,2.2,0.7
			c14.3,12,31.2,18.8,50.4,20.2c8.9,0.7,18.1-1.5,27.3-6.4l7.8,4.5c18.6,10.8,37.8,22,56.6,33c0.1,0,0.1,0.1,0.2,0.2
			c-0.9,18.3,9.2,31,19.2,40.9c8.4,8.3,18.7,14.7,30.7,19.2c0.4,0.2,1.1,0.7,1.2,1c5.7,19.5,11.4,39.4,16.9,58.7l2.5,8.8
			C697.3,251.9,685.9,267.3,685.7,289.2z"/>
	</g>
</g>
</svg>
