<?xml version="1.0" encoding="utf-8"?>
<!-- Generator: Adobe Illustrator 19.1.1, SVG Export Plug-In . SVG Version: 6.00 Build 0)  -->
<svg version="1.1" id="Layer_1" xmlns="http://www.w3.org/2000/svg" xmlns:xlink="http://www.w3.org/1999/xlink" x="0px" y="0px"
	 viewBox="0 0 400 370" style="enable-background:new 0 0 400 370;" xml:space="preserve">
<style type="text/css">
	.st0{fill:#FFFFFF;}
</style>
<g id="DEMHUB_x5F_b_4_">
	<path class="st0" d="M53.3,314.8c0-18.9-15.4-34.3-34.3-34.3H3v8.8h16c14.1,0,25.5,11.4,25.5,25.5v8.4c0,14.1-11.4,25.5-25.5,25.5
		H3v8.8h16c18.9,0,34.3-15.4,34.3-34.3V314.8z"/>
	<g>
		<rect x="69" y="280.5" class="st0" width="45" height="8.8"/>
		<rect x="69" y="348.7" class="st0" width="45" height="8.8"/>
		<rect x="79.8" y="314.6" class="st0" width="23.5" height="8.8"/>
	</g>
	<polygon class="st0" points="190.1,300.2 190.1,357.5 198.9,357.5 198.9,280.5 191.5,280.5 164.4,333.1 137.2,280.5 129.8,280.5 
		129.8,357.5 138.6,357.5 138.6,300.1 164.4,350.3 	"/>
	<polygon class="st0" points="265.4,357.5 265.4,280.5 256.6,280.5 256.6,314.6 223.3,314.6 223.3,280.5 214.6,280.5 214.6,357.5 
		223.3,357.5 223.3,323.4 256.6,323.4 256.6,357.5 	"/>
	<path class="st0" d="M331.9,280.6h-8.8V332c0,9.2-7.5,16.6-16.6,16.6c-9.2,0-16.6-7.5-16.6-16.6v-51.4h-8.8V332
		c0,14,11.4,25.4,25.4,25.4c14,0,25.4-11.4,25.4-25.4V280.6z"/>
	<path class="st0" d="M390.8,320.2l-1.3-1.2l1.3-1.2c4.5-4.1,7.2-9.8,7.2-15.8c0-11.8-9.8-21.4-21.8-21.4h-28.5v76.8h28.5
		c12,0,21.8-9.6,21.8-21.4C398,330,395.4,324.3,390.8,320.2z M376.2,348.7h-19.8v-25.3h19.8c7.2,0,13.1,5.7,13.1,12.6
		C389.2,343,383.4,348.7,376.2,348.7z M376.2,314.6h-19.8v-25.3h19.8c7.2,0,13.1,5.7,13.1,12.6C389.2,309,383.4,314.6,376.2,314.6z"
		/>
</g>
<path id="hexjoin_x5F_b_4_" class="st0" d="M314.7,127c-4.5-10.7-11.9-18.1-22.2-21.9c-0.3-0.1-0.6-0.5-0.7-0.7
	c-1.5-4.7-3-9.5-4.5-14.1c-0.4-1.3-0.8-2.7-1.2-4l-2.3-7.5c0.1,0,0.3,0,0.4-0.1c5.4-0.9,8.7-4.9,8.7-10.3c0-2.8-0.9-5.6-2.7-8.5
	c-4.3-7-10.5-11.6-18.5-13.9c-2.2-0.6-4.1-0.9-5.9-0.9c-3,0-5.7,0.8-8,2.6c-0.1,0-0.2,0-0.2-0.1c-2.9-1.7-5.8-3.4-8.7-5l-15.2-8.8
	c0-0.3,0-0.7,0-1c0-1.2,0-2.4-0.3-3.6c-1-4.4-3.7-8-8.5-11.2c-5.9-4-11.6-5.9-17.5-5.9c-2,0-4,0.2-6,0.7c-6,1.4-7.8,4.9-8.4,7.6
	c-0.3,1.6-0.1,3.2,0,4.8c0,0.3,0.1,0.7,0.1,1c-2.3,0.4-4.7,0.9-7,1.3c-6,1.1-12.2,2.3-18.3,3.5c-0.7,0.1-1.2,0.2-1.7,0.2
	c-1.2,0-2-0.4-2.7-1.3c-0.3-0.4-0.6-0.6-0.9-0.8c-0.1,0-0.1-0.1-0.2-0.1c-6.4-4.6-14-6.9-22.5-6.9c-1.1,0-2.3,0-3.4,0.1
	c-5.6,0.4-10.7,2-14.9,4.8c-4.3,2.8-6.9,6.8-7.4,11.1c-0.5,4.4,1.2,8.8,4.7,12.5c3,3.1,6.6,5.5,11,7.2c0.9,0.3,1.8,0.7,2.6,1
	c0,0,0.1,0,0.1,0.1l-1,4c-2.3,9.3-4.6,18.8-6.9,28.2c-0.1,0.1-0.3,0.2-0.5,0.3c-1.2,0.3-2.5,0.5-3.8,0.7c-2.4,0.4-4.8,0.9-7.1,1.7
	c-14.9,5.3-24.1,14.2-28,27.1c-2.4,8-1.3,15.8,3.5,22.5c6,8.6,14.8,13,27,13.6c12.1,0.5,23.2-3.2,33-11.2c0.2-0.2,0.3-0.2,0.3-0.2
	c0,0,0.1,0,0.3,0.1c6.1,3.7,12.3,7.4,18.3,11l4.4,2.6c2.6,1.5,5.1,3.1,7.7,4.6c4.2,2.5,8.4,5,12.6,7.5l0.2,0.1
	c0.1,0,0.2,0.1,0.3,0.2c0,0,0,0.1,0,0.1c-1.4,4.7-1.9,9.6-1.5,14.6c1.2,14.9,7.5,26.2,18.7,33.5c4.9,3.2,10.2,4.8,15.6,4.8
	c3.4,0,6.9-0.7,10.4-1.9c7.3-2.7,13-7.8,16.9-15.3c6.2-11.6,6.9-24.1,2.1-37.2c-0.3-0.9-0.3-0.9,0.1-1.2c2-1.5,4-3.2,5.9-4.8
	c0.8-0.7,1.7-1.4,2.5-2.1c4.4-3.6,8.9-7.2,13.3-10.8l5.6-4.5c0,0,0,0,0,0c0.2,0.2,0.5,0.4,0.7,0.6c5.1,4.4,9.9,6.8,15.3,7.7
	c1.1,0.2,2.2,0.3,3.3,0.3c7.8,0,13.5-4.7,15.1-12.5C317.7,137.8,317.1,132.7,314.7,127z M269.9,120.6c-0.1,5,1.2,9.8,4,15.2
	l-27.5,20.6c-6.9-7.2-14.6-10.8-23.4-10.8l-0.2,0c-8.9,0.1-16.7,3.9-23.1,11.6l-40.8-24.3c4.2-9.1,4.3-17.3,0.5-25
	c-3.7-7.5-10.2-12.5-19.7-15.3l6.3-31.8c0.6-0.1,1.1-0.1,1.7-0.2c1.9-0.2,3.8-0.5,5.6-0.8c5.7-1.2,10.1-3.5,13.4-7
	c3.6-3.8,4.8-8.2,3.6-13l2.2-0.5c2.7-0.6,5.3-1.1,8-1.7c1.2-0.3,2.5-0.5,3.7-0.8c4.6-1,9.3-1.9,13.9-2.9c0,0,0,0,0.1,0
	c0.3,0,0.7,0.1,0.9,0.3c5.6,4.7,12.1,7.3,19.6,7.9c3.5,0.3,7-0.6,10.6-2.5l3,1.8c7.2,4.2,14.7,8.5,22,12.8c0,0,0,0,0.1,0.1
	c-0.4,7.1,3.6,12.1,7.5,15.9c3.3,3.2,7.3,5.7,12,7.5c0.2,0.1,0.4,0.3,0.5,0.4c2.2,7.6,4.4,15.3,6.6,22.8l1,3.4
	C274.4,106.1,270,112.1,269.9,120.6z"/>
</svg>
