<?xml version="1.0" encoding="utf-8"?>
<!-- Generator: Adobe Illustrator 19.1.1, SVG Export Plug-In . SVG Version: 6.00 Build 0)  -->
<svg version="1.1" xmlns="http://www.w3.org/2000/svg" xmlns:xlink="http://www.w3.org/1999/xlink" x="0px" y="0px"
	 viewBox="0 0 1000 1000" style="enable-background:new 0 0 1000 1000;" xml:space="preserve">
<style type="text/css">
	.st0{fill:url(#SVGID_1_);}
	.st1{fill:url(#SVGID_2_);}
	.st2{fill:#416788;}
	.st3{fill:#FFFFFF;}
	.st4{display:none;}
	.st5{display:none;fill:#FFFFFF;}
	.st6{display:inline;}
	.st7{display:inline;fill:#FFFFFF;}
	.st8{display:inline;fill:#416788;}
</style>
<g id="backdrop">
</g>
<g id="Logo_x5F_icon">
</g>
<g id="Logo_x5F_text">
</g>
<g id="Logo_x5F_icon_x26_text_x5F_B">
	<g id="itB_x5F_white_3_">
		<g id="DEMHUB_x5F_b_9_">
			<path class="st3" d="M403.5,527.7c0-27.8-22.6-50.4-50.4-50.4h-23.6v12.9h23.6c20.7,0,37.5,16.8,37.5,37.5V540
				c0,20.7-16.8,37.5-37.5,37.5h-23.6v12.9h23.6c27.8,0,50.4-22.6,50.4-50.4V527.7z"/>
			<g>
				<rect x="426.6" y="477.3" class="st3" width="66.2" height="12.9"/>
				<rect x="426.6" y="577.5" class="st3" width="66.2" height="12.9"/>
				<rect x="442.4" y="527.4" class="st3" width="34.6" height="12.9"/>
			</g>
			<polygon class="st3" points="604.6,506.1 604.6,590.4 617.4,590.4 617.4,477.3 606.7,477.3 566.7,554.5 526.8,477.3 515.9,477.3 
				515.9,590.4 528.8,590.4 528.8,506 566.7,579.8 			"/>
			<polygon class="st3" points="715.2,590.4 715.2,477.3 702.3,477.3 702.3,527.4 653.4,527.4 653.4,477.3 640.6,477.3 640.6,590.4 
				653.4,590.4 653.4,540.3 702.3,540.3 702.3,590.4 			"/>
			<path class="st3" d="M813,477.4h-12.9V553c0,13.5-11,24.5-24.5,24.5c-13.5,0-24.5-11-24.5-24.5v-75.6h-12.9V553
				c0,20.6,16.7,37.3,37.3,37.3c20.6,0,37.3-16.7,37.3-37.3V477.4z"/>
			<path class="st3" d="M899.6,535.6l-2-1.8l2-1.8c6.7-6,10.5-14.4,10.5-23.3c0-17.3-14.4-31.4-32.1-31.4h-41.9v112.9H878
				c17.7,0,32.1-14.1,32.1-31.4C910.1,550,906.3,541.6,899.6,535.6z M878,577.4H849v-37.1H878c10.6,0,19.2,8.3,19.2,18.6
				C897.3,569.1,888.6,577.4,878,577.4z M878,527.4H849v-37.1H878c10.6,0,19.2,8.3,19.2,18.6C897.3,519.1,888.6,527.4,878,527.4z"/>
		</g>
		<path id="hexjoin_x5F_b_9_" class="st3" d="M289.4,540.9c-3.6-8.7-9.7-14.6-17.9-17.7c-0.2-0.1-0.5-0.4-0.6-0.6
			c-1.2-3.8-2.4-7.7-3.6-11.4c-0.3-1.1-0.7-2.2-1-3.2l-1.9-6.1c0.1,0,0.2,0,0.3-0.1c4.4-0.7,7.1-3.9,7-8.3c0-2.3-0.7-4.5-2.2-6.8
			c-3.5-5.6-8.5-9.4-15-11.2c-1.7-0.5-3.3-0.7-4.7-0.7c-2.4,0-4.6,0.7-6.5,2.1c-0.1,0-0.1,0-0.2-0.1c-2.3-1.3-4.7-2.7-7-4.1
			l-12.3-7.2c0-0.3,0-0.6,0-0.8c0-1,0-1.9-0.2-2.9c-0.8-3.6-3-6.4-6.9-9.1c-4.8-3.2-9.4-4.8-14.1-4.8c-1.6,0-3.3,0.2-4.9,0.6
			c-4.8,1.1-6.3,4-6.8,6.2c-0.2,1.3-0.1,2.6,0,3.9c0,0.3,0.1,0.5,0.1,0.8c-1.9,0.4-3.8,0.7-5.7,1.1c-4.8,0.9-9.9,1.8-14.8,2.8
			c-0.5,0.1-1,0.2-1.4,0.2c-0.9,0-1.6-0.3-2.2-1.1c-0.2-0.3-0.5-0.5-0.8-0.6c0,0-0.1-0.1-0.1-0.1c-5.2-3.7-11.3-5.6-18.2-5.6
			c-0.9,0-1.8,0-2.8,0.1c-4.6,0.3-8.6,1.6-12.1,3.9c-3.5,2.3-5.6,5.5-6,9c-0.4,3.5,1,7.1,3.8,10.1c2.4,2.5,5.3,4.4,8.9,5.8
			c0.7,0.3,1.4,0.5,2.1,0.8c0,0,0.1,0,0.1,0l-0.8,3.2c-1.8,7.5-3.7,15.2-5.6,22.8c-0.1,0.1-0.3,0.2-0.4,0.2c-1,0.2-2,0.4-3,0.6
			c-1.9,0.3-3.9,0.7-5.7,1.4c-12.1,4.3-19.5,11.5-22.7,21.9c-2,6.5-1,12.8,2.8,18.2c4.9,6.9,12,10.5,21.8,11
			c9.8,0.4,18.8-2.6,26.7-9.1c0.1-0.1,0.2-0.2,0.3-0.2c0,0,0.1,0,0.2,0.1c4.9,3,9.9,6,14.8,8.9l3.5,2.1c2.1,1.2,4.1,2.5,6.2,3.7
			c3.4,2,6.8,4,10.1,6.1l0.1,0.1c0.1,0,0.1,0.1,0.2,0.1c0,0,0,0,0,0.1c-1.1,3.8-1.5,7.8-1.2,11.8c0.9,12.1,6,21.2,15.1,27.1
			c4,2.6,8.2,3.9,12.6,3.9c2.8,0,5.6-0.5,8.4-1.6c5.9-2.2,10.5-6.3,13.7-12.4c5-9.4,5.5-19.5,1.7-30.1c-0.3-0.7-0.3-0.7,0.1-1
			c1.6-1.2,3.2-2.6,4.8-3.8c0.7-0.6,1.4-1.1,2.1-1.7c3.6-2.9,7.2-5.8,10.8-8.8l4.5-3.7c0,0,0,0,0,0c0.2,0.2,0.4,0.3,0.6,0.5
			c4.1,3.5,8,5.5,12.4,6.2c0.9,0.1,1.8,0.2,2.7,0.2c6.3,0,10.9-3.8,12.2-10.1C291.8,549.6,291.3,545.5,289.4,540.9z M253.1,535.7
			c-0.1,4,1,7.9,3.2,12.3l-22.2,16.7c-5.6-5.8-11.8-8.7-18.9-8.7l-0.2,0c-7.2,0-13.5,3.2-18.7,9.3l-33-19.7c3.4-7.4,3.5-14,0.4-20.2
			c-3-6.1-8.3-10.1-15.9-12.4l5.1-25.7c0.5-0.1,0.9-0.1,1.3-0.2c1.5-0.2,3.1-0.4,4.6-0.7c4.6-1,8.2-2.8,10.8-5.7
			c2.9-3.1,3.9-6.6,2.9-10.5l1.8-0.4c2.2-0.5,4.3-0.9,6.4-1.4c1-0.2,2-0.4,3-0.6c3.7-0.8,7.5-1.6,11.3-2.3c0,0,0,0,0.1,0
			c0.3,0,0.6,0.1,0.7,0.2c4.5,3.8,9.8,5.9,15.9,6.4c2.8,0.2,5.7-0.5,8.6-2l2.4,1.4c5.8,3.4,11.9,6.9,17.8,10.4c0,0,0,0,0.1,0.1
			c-0.3,5.8,2.9,9.7,6,12.9c2.6,2.6,5.9,4.6,9.7,6c0.1,0,0.3,0.2,0.4,0.3c1.8,6.1,3.6,12.4,5.3,18.5l0.8,2.8
			C256.8,523.9,253.2,528.8,253.1,535.7z"/>
	</g>
</g>
<g id="Logo_x5F_icon_x26_text_x5F_A">
</g>
</svg>
