<?xml version="1.0" encoding="utf-8"?>
<!-- Generator: Adobe Illustrator 16.0.0, SVG Export Plug-In . SVG Version: 6.00 Build 0)  -->
<!DOCTYPE svg PUBLIC "-//W3C//DTD SVG 1.1//EN" "http://www.w3.org/Graphics/SVG/1.1/DTD/svg11.dtd">
<svg version="1.1" id="Layer_1" xmlns="http://www.w3.org/2000/svg" xmlns:xlink="http://www.w3.org/1999/xlink" x="0px" y="0px"
	 width="195px" height="69.672px" viewBox="38.243 13.664 195 69.672" enable-background="new 38.243 13.664 195 69.672"
	 xml:space="preserve">
<g enable-background="new    ">
	<path fill="#FFFFFF" d="M58.093,28.261c1.954,0,3.773,0.351,5.459,1.051c1.684,0.701,3.144,1.751,4.375,3.153
		c1.232,1.401,2.195,3.151,2.889,5.255c0.693,2.101,1.041,4.57,1.041,7.404c0,2.483-0.283,4.775-0.849,6.878
		c-0.566,2.103-1.422,3.918-2.57,5.445c-1.147,1.529-2.577,2.732-4.291,3.608c-1.715,0.875-3.732,1.312-6.054,1.312H45.009V28.259
		L58.093,28.261L58.093,28.261z M57.626,56.064c0.961,0,1.896-0.176,2.803-0.526c0.907-0.351,1.714-0.932,2.421-1.744
		c0.708-0.812,1.276-1.871,1.7-3.177c0.425-1.305,0.637-2.897,0.637-4.777c0-1.72-0.149-3.272-0.445-4.656
		c-0.298-1.386-0.787-2.572-1.466-3.56c-0.68-0.985-1.58-1.743-2.698-2.268c-1.119-0.526-2.5-0.79-4.143-0.79h-4.757v21.498H57.626
		L57.626,56.064z"/>
	<path fill="#FFFFFF" d="M99.172,28.261v6.305H83.156v7.309h14.7v5.827h-14.7v8.36h16.355v6.305H76.488V28.259L99.172,28.261
		L99.172,28.261z"/>
	<path fill="#FFFFFF" d="M113.403,28.261l7.094,23.455h0.085l6.711-23.455h9.389v34.108h-6.245V38.197h-0.084l-7.435,24.172h-5.139
		l-7.435-23.933h-0.084v23.933h-6.243V28.261H113.403L113.403,28.261z"/>
</g>
<g enable-background="new    ">
	<path fill="#FFFFFF" d="M142.291,28.261h1.867v15.479h19.373V28.261h1.868v34.108h-1.868V45.554h-19.373v16.815h-1.867V28.261z"/>
	<path fill="#FFFFFF" d="M172.62,28.261v20.447c0,0.669,0.026,1.448,0.086,2.339c0.055,0.892,0.197,1.807,0.424,2.746
		s0.545,1.864,0.957,2.772c0.408,0.908,0.97,1.719,1.677,2.434c0.709,0.72,1.579,1.293,2.613,1.722
		c1.032,0.431,2.287,0.646,3.76,0.646c1.869,0,3.435-0.294,4.693-0.886c1.261-0.586,2.28-1.432,3.06-2.531
		c0.779-1.097,1.337-2.426,1.679-3.987c0.338-1.562,0.51-3.312,0.51-5.254V28.261h1.868v20.447c0,2.039-0.192,3.932-0.572,5.684
		c-0.385,1.751-1.028,3.28-1.935,4.585c-0.907,1.308-2.116,2.332-3.631,3.083c-1.515,0.747-3.406,1.123-5.671,1.123
		c-1.785,0-3.313-0.256-4.588-0.766c-1.275-0.509-2.33-1.172-3.166-1.982c-0.834-0.813-1.493-1.743-1.975-2.795
		c-0.482-1.051-0.848-2.111-1.104-3.176c-0.254-1.067-0.412-2.104-0.467-3.105c-0.059-1.003-0.085-1.888-0.085-2.651V28.261H172.62
		L172.62,28.261z"/>
	<path fill="#FFFFFF" d="M199.3,28.261h12.149c1.81,0,3.327,0.255,4.545,0.765s2.194,1.178,2.932,2.006
		c0.734,0.828,1.268,1.775,1.594,2.842c0.325,1.067,0.487,2.142,0.487,3.224c0,0.925-0.142,1.8-0.425,2.628
		c-0.282,0.828-0.687,1.559-1.212,2.196c-0.522,0.638-1.147,1.17-1.868,1.6c-0.723,0.431-1.523,0.709-2.399,0.836l0.084,0.096
		c0.199-0.031,0.666,0.064,1.401,0.286c0.737,0.225,1.51,0.645,2.316,1.266c0.808,0.622,1.529,1.48,2.166,2.58
		c0.639,1.098,0.957,2.507,0.957,4.229c0,1.559-0.255,2.929-0.766,4.107c-0.51,1.178-1.225,2.174-2.145,2.985
		c-0.92,0.814-2.032,1.427-3.334,1.839c-1.304,0.416-2.748,0.621-4.332,0.621h-12.15L199.3,28.261L199.3,28.261z M211.449,43.739
		c2.575,0,4.503-0.646,5.777-1.934c1.272-1.291,1.911-2.986,1.911-5.088c0-1.242-0.212-2.284-0.639-3.13
		c-0.424-0.843-0.99-1.528-1.699-2.052c-0.707-0.525-1.521-0.899-2.441-1.123c-0.919-0.222-1.892-0.334-2.909-0.334h-10.282v13.662
		H211.449z M211.449,60.553c2.718,0,4.848-0.645,6.395-1.934c1.542-1.289,2.315-3.226,2.315-5.803c0-1.467-0.271-2.67-0.809-3.609
		c-0.538-0.938-1.226-1.678-2.061-2.22c-0.836-0.541-1.771-0.916-2.803-1.124c-1.035-0.207-2.048-0.31-3.037-0.31h-10.282v14.999
		H211.449z"/>
</g>
<polygon fill="#FFFFFF" stroke="#FFFFFF" stroke-width="0.5969" stroke-miterlimit="10" points="142.291,62.369 144.159,62.369 
	144.159,45.554 163.531,45.554 163.531,62.369 165.399,62.369 165.399,28.261 163.531,28.261 163.531,43.739 144.159,43.739 
	144.159,28.261 142.291,28.261 "/>
<line fill="none" stroke="#FFFFFF" stroke-width="0.8954" stroke-miterlimit="10" x1="139.363" y1="24.729" x2="224.257" y2="24.729"/>
<line fill="none" stroke="#FFFFFF" stroke-width="0.8954" stroke-miterlimit="10" x1="224.256" y1="64.648" x2="139.363" y2="64.648"/>
<g enable-background="new    ">
	<path fill="#FFFFFF" d="M42.802,69.058V68.35h3.665v0.708h-1.341v3.128h-0.982v-3.128H42.802z"/>
	<path fill="#FFFFFF" d="M47.965,68.35v1.471h1.811V68.35h0.985v3.836h-0.985v-1.657h-1.811v1.657h-0.982V68.35H47.965z"/>
	<path fill="#FFFFFF" d="M54.97,68.35v0.708h-2.363v0.82h2.168v0.657h-2.168v0.939h2.413v0.71h-3.396V68.35H54.97L54.97,68.35z"/>
	<path fill="#FFFFFF" d="M59.355,68.35c0.288,0,0.556,0.04,0.804,0.114c0.249,0.08,0.464,0.2,0.646,0.357
		c0.181,0.156,0.324,0.354,0.425,0.59c0.102,0.236,0.153,0.514,0.153,0.832c0,0.28-0.041,0.537-0.125,0.775
		c-0.083,0.235-0.21,0.441-0.379,0.612s-0.381,0.306-0.633,0.405c-0.253,0.1-0.55,0.148-0.893,0.148h-1.93v-3.836L59.355,68.35
		L59.355,68.35z M59.287,71.475c0.142,0,0.279-0.018,0.413-0.058c0.134-0.04,0.253-0.104,0.357-0.197
		c0.104-0.091,0.188-0.211,0.25-0.356c0.062-0.147,0.094-0.326,0.094-0.537c0-0.195-0.022-0.369-0.065-0.525
		c-0.044-0.154-0.116-0.289-0.217-0.398c-0.099-0.11-0.233-0.196-0.397-0.255c-0.164-0.062-0.368-0.09-0.611-0.09h-0.702v2.417
		H59.287L59.287,71.475z"/>
	<path fill="#FFFFFF" d="M63.051,68.35v3.836h-0.983V68.35H63.051z"/>
	<path fill="#FFFFFF" d="M64.668,71.238c0.054,0.09,0.126,0.161,0.216,0.219c0.09,0.054,0.195,0.096,0.315,0.121
		c0.123,0.029,0.248,0.041,0.375,0.041c0.09,0,0.183-0.007,0.283-0.017c0.099-0.014,0.193-0.036,0.281-0.072
		c0.088-0.036,0.161-0.087,0.219-0.148c0.06-0.063,0.088-0.142,0.088-0.24c0-0.104-0.04-0.187-0.116-0.253
		c-0.077-0.064-0.178-0.117-0.304-0.16c-0.126-0.043-0.268-0.081-0.426-0.112c-0.16-0.032-0.32-0.068-0.482-0.108
		c-0.168-0.036-0.331-0.08-0.489-0.13c-0.159-0.053-0.3-0.12-0.427-0.203s-0.226-0.186-0.305-0.308
		c-0.076-0.125-0.114-0.275-0.114-0.449c0-0.196,0.048-0.369,0.147-0.513c0.097-0.146,0.226-0.266,0.385-0.363
		c0.159-0.096,0.338-0.167,0.538-0.215c0.201-0.044,0.401-0.07,0.602-0.07c0.233,0,0.459,0.023,0.675,0.067
		c0.214,0.046,0.405,0.118,0.572,0.218c0.167,0.103,0.301,0.23,0.398,0.386c0.099,0.154,0.147,0.345,0.147,0.567h-0.952
		c-0.008-0.115-0.036-0.209-0.085-0.285c-0.047-0.076-0.111-0.133-0.19-0.177c-0.08-0.044-0.17-0.074-0.272-0.093
		c-0.102-0.016-0.214-0.027-0.335-0.027c-0.079,0-0.159,0.008-0.237,0.021c-0.08,0.016-0.152,0.04-0.216,0.076
		c-0.065,0.036-0.119,0.081-0.161,0.137c-0.042,0.052-0.062,0.12-0.062,0.202c0,0.076,0.017,0.137,0.05,0.183
		c0.033,0.048,0.1,0.089,0.196,0.129c0.1,0.04,0.234,0.079,0.409,0.118c0.172,0.04,0.4,0.091,0.679,0.15
		c0.083,0.017,0.199,0.042,0.348,0.078c0.148,0.038,0.294,0.098,0.441,0.181c0.146,0.082,0.273,0.191,0.379,0.331
		c0.106,0.137,0.161,0.313,0.161,0.528c0,0.174-0.04,0.339-0.12,0.488c-0.079,0.148-0.198,0.281-0.354,0.39
		c-0.157,0.108-0.351,0.192-0.582,0.256c-0.232,0.06-0.5,0.09-0.805,0.09c-0.248,0-0.486-0.025-0.718-0.078
		c-0.231-0.05-0.437-0.133-0.614-0.244c-0.177-0.11-0.317-0.253-0.422-0.423c-0.105-0.172-0.155-0.378-0.15-0.612h0.952
		C64.586,71.039,64.614,71.149,64.668,71.238z"/>
	<path fill="#FFFFFF" d="M70.212,68.35l1.672,3.836h-1.02l-0.339-0.855h-1.673l-0.351,0.855h-0.991l1.693-3.836H70.212z
		 M70.269,70.703l-0.564-1.408h-0.013l-0.583,1.408H70.269z"/>
	<path fill="#FFFFFF" d="M73.025,71.238c0.055,0.09,0.126,0.161,0.216,0.219c0.089,0.054,0.195,0.096,0.318,0.121
		c0.12,0.029,0.246,0.041,0.375,0.041c0.088,0,0.183-0.007,0.281-0.017c0.102-0.014,0.195-0.036,0.283-0.072
		c0.088-0.036,0.161-0.087,0.219-0.148c0.058-0.063,0.088-0.142,0.088-0.24c0-0.104-0.038-0.187-0.116-0.253
		c-0.078-0.064-0.179-0.117-0.303-0.16c-0.125-0.043-0.267-0.081-0.427-0.112c-0.159-0.032-0.319-0.068-0.481-0.108
		c-0.167-0.036-0.331-0.08-0.489-0.13c-0.158-0.053-0.3-0.12-0.426-0.203s-0.228-0.186-0.303-0.308
		c-0.078-0.125-0.116-0.275-0.116-0.449c0-0.196,0.048-0.369,0.147-0.513c0.097-0.146,0.226-0.266,0.386-0.363
		c0.158-0.096,0.339-0.167,0.538-0.215c0.201-0.044,0.401-0.07,0.601-0.07c0.234,0,0.458,0.023,0.674,0.067
		c0.215,0.046,0.406,0.118,0.572,0.218c0.168,0.103,0.301,0.23,0.398,0.386c0.098,0.154,0.147,0.345,0.147,0.567h-0.952
		c-0.009-0.115-0.036-0.209-0.084-0.285s-0.111-0.133-0.191-0.177c-0.078-0.044-0.169-0.074-0.272-0.093
		c-0.102-0.016-0.214-0.027-0.335-0.027c-0.08,0-0.159,0.008-0.238,0.021c-0.081,0.016-0.152,0.04-0.216,0.076
		c-0.064,0.036-0.118,0.081-0.16,0.137c-0.043,0.052-0.063,0.12-0.063,0.202c0,0.076,0.016,0.137,0.05,0.183
		c0.033,0.048,0.098,0.089,0.198,0.129c0.097,0.04,0.233,0.079,0.406,0.118c0.173,0.04,0.401,0.091,0.68,0.15
		c0.085,0.017,0.2,0.042,0.348,0.078c0.148,0.038,0.296,0.098,0.442,0.181c0.146,0.082,0.272,0.191,0.379,0.331
		c0.107,0.137,0.16,0.313,0.16,0.528c0,0.174-0.04,0.339-0.12,0.488c-0.078,0.148-0.198,0.281-0.354,0.39
		c-0.156,0.108-0.351,0.192-0.583,0.256c-0.232,0.06-0.5,0.09-0.805,0.09c-0.247,0-0.485-0.025-0.717-0.078
		c-0.232-0.05-0.437-0.133-0.614-0.244c-0.178-0.11-0.319-0.253-0.423-0.423c-0.105-0.172-0.155-0.378-0.151-0.612h0.954
		C72.944,71.039,72.971,71.149,73.025,71.238z"/>
	<path fill="#FFFFFF" d="M75.988,69.058V68.35h3.665v0.708h-1.34v3.128h-0.983v-3.128H75.988z"/>
	<path fill="#FFFFFF" d="M83.513,68.35v0.708h-2.362v0.82h2.167v0.657h-2.167v0.939h2.413v0.71h-3.396V68.35H83.513L83.513,68.35z"
		/>
	<path fill="#FFFFFF" d="M86.64,68.35c0.199,0,0.38,0.026,0.541,0.08c0.161,0.058,0.298,0.134,0.414,0.23
		c0.114,0.097,0.202,0.208,0.262,0.337c0.061,0.125,0.091,0.261,0.091,0.409c0,0.227-0.055,0.422-0.166,0.586
		c-0.112,0.167-0.292,0.29-0.542,0.378v0.009c0.123,0.03,0.222,0.072,0.302,0.133c0.079,0.059,0.144,0.128,0.193,0.209
		c0.05,0.081,0.086,0.168,0.11,0.268c0.023,0.095,0.039,0.19,0.046,0.289c0.005,0.061,0.009,0.133,0.013,0.217
		c0.002,0.079,0.01,0.165,0.021,0.252c0.011,0.083,0.028,0.166,0.051,0.243c0.022,0.077,0.056,0.142,0.104,0.196h-0.985
		c-0.055-0.121-0.088-0.267-0.1-0.435c-0.012-0.17-0.03-0.329-0.056-0.484c-0.033-0.201-0.104-0.347-0.213-0.441
		c-0.109-0.092-0.286-0.138-0.532-0.138h-0.984v1.498h-0.984v-3.835L86.64,68.35L86.64,68.35z M86.287,70.085
		c0.227,0,0.396-0.045,0.508-0.131c0.113-0.085,0.17-0.226,0.17-0.418c0-0.187-0.057-0.321-0.17-0.406
		c-0.113-0.084-0.281-0.125-0.508-0.125h-1.076v1.08H86.287z"/>
	<path fill="#FFFFFF" d="M92.723,68.35l1.672,3.836h-1.021l-0.338-0.855h-1.673l-0.35,0.855h-0.991l1.692-3.836H92.723z
		 M92.779,70.703l-0.564-1.408h-0.013l-0.583,1.408H92.779z"/>
	<path fill="#FFFFFF" d="M95.761,68.35l1.866,2.571h0.014V68.35h0.921v3.836h-0.984l-1.862-2.567h-0.012v2.567h-0.921V68.35H95.761z
		"/>
	<path fill="#FFFFFF" d="M101.356,68.35c0.289,0,0.556,0.04,0.804,0.114c0.25,0.08,0.465,0.2,0.646,0.357
		c0.182,0.155,0.325,0.354,0.426,0.59c0.102,0.236,0.154,0.514,0.154,0.832c0,0.28-0.042,0.537-0.125,0.775
		c-0.084,0.235-0.211,0.441-0.379,0.612c-0.17,0.171-0.38,0.306-0.632,0.405c-0.253,0.1-0.552,0.148-0.894,0.148h-1.928v-3.836
		L101.356,68.35L101.356,68.35z M101.287,71.475c0.142,0,0.279-0.018,0.413-0.058s0.254-0.104,0.357-0.197
		c0.104-0.091,0.188-0.211,0.25-0.356c0.063-0.147,0.094-0.326,0.094-0.537c0-0.195-0.023-0.369-0.065-0.525
		c-0.044-0.154-0.117-0.289-0.217-0.398c-0.101-0.11-0.232-0.196-0.397-0.255c-0.166-0.062-0.369-0.09-0.611-0.09h-0.704v2.417
		H101.287L101.287,71.475z"/>
	<path fill="#FFFFFF" d="M109.156,68.35v0.708h-2.361v0.82h2.168v0.657h-2.168v0.939h2.411v0.71h-3.396V68.35H109.156L109.156,68.35
		z"/>
	<path fill="#FFFFFF" d="M111.255,68.35l1.046,2.638h0.012l0.991-2.638h1.384v3.836h-0.921v-2.719h-0.013l-1.096,2.719H111.9
		l-1.095-2.692h-0.014v2.692h-0.92V68.35H111.255z"/>
	<path fill="#FFFFFF" d="M118.898,68.35v0.708h-2.361v0.82h2.168v0.657h-2.168v0.939h2.412v0.71h-3.396V68.35H118.898L118.898,68.35
		z"/>
	<path fill="#FFFFFF" d="M122.025,68.35c0.2,0,0.381,0.026,0.541,0.08c0.16,0.058,0.298,0.134,0.414,0.23
		c0.115,0.097,0.203,0.208,0.263,0.337c0.06,0.125,0.09,0.261,0.09,0.409c0,0.227-0.055,0.422-0.166,0.586
		c-0.111,0.167-0.292,0.29-0.542,0.378v0.009c0.121,0.03,0.221,0.072,0.3,0.133c0.079,0.059,0.144,0.128,0.195,0.209
		c0.05,0.081,0.086,0.168,0.109,0.268c0.022,0.095,0.039,0.19,0.047,0.289c0.003,0.061,0.007,0.133,0.013,0.217
		c0.004,0.079,0.011,0.165,0.021,0.252c0.011,0.083,0.027,0.166,0.05,0.243s0.057,0.142,0.103,0.196h-0.983
		c-0.053-0.121-0.087-0.267-0.101-0.435c-0.012-0.17-0.031-0.329-0.057-0.484c-0.033-0.201-0.104-0.347-0.212-0.441
		c-0.108-0.092-0.286-0.138-0.532-0.138h-0.984v1.498h-0.983v-3.835L122.025,68.35L122.025,68.35z M121.673,70.085
		c0.226,0,0.396-0.045,0.508-0.131c0.112-0.085,0.169-0.226,0.169-0.418c0-0.187-0.057-0.321-0.169-0.406
		c-0.112-0.084-0.282-0.125-0.508-0.125h-1.076v1.08H121.673z"/>
	<path fill="#FFFFFF" d="M126.784,72.153c-0.212,0.078-0.427,0.116-0.644,0.116c-0.342,0-0.651-0.049-0.924-0.153
		c-0.274-0.102-0.504-0.241-0.691-0.421c-0.188-0.179-0.332-0.388-0.433-0.631c-0.102-0.244-0.15-0.505-0.15-0.782
		c0-0.287,0.049-0.554,0.15-0.799c0.101-0.245,0.243-0.458,0.433-0.641c0.187-0.183,0.417-0.325,0.691-0.429
		c0.273-0.104,0.582-0.157,0.924-0.157c0.229,0,0.453,0.029,0.667,0.09c0.214,0.058,0.41,0.146,0.583,0.261
		c0.172,0.113,0.315,0.254,0.428,0.425c0.113,0.167,0.182,0.362,0.208,0.58h-0.939c-0.059-0.215-0.172-0.378-0.338-0.484
		c-0.168-0.107-0.37-0.159-0.608-0.159c-0.223,0-0.41,0.036-0.565,0.109c-0.154,0.072-0.279,0.171-0.375,0.293
		c-0.096,0.124-0.167,0.264-0.21,0.422c-0.044,0.156-0.066,0.321-0.066,0.489c0,0.162,0.021,0.317,0.066,0.47
		c0.043,0.152,0.114,0.289,0.21,0.412c0.097,0.119,0.222,0.219,0.375,0.293c0.155,0.074,0.342,0.11,0.565,0.11
		c0.325,0,0.577-0.07,0.755-0.214c0.178-0.142,0.282-0.347,0.31-0.613h-0.989v-0.63h1.879v2.074h-0.627l-0.101-0.435
		C127.193,71.942,127,72.077,126.784,72.153z"/>
	<path fill="#FFFFFF" d="M132.237,68.35v0.708h-2.363v0.82h2.168v0.657h-2.168v0.939h2.413v0.71h-3.396V68.35H132.237L132.237,68.35
		z"/>
	<path fill="#FFFFFF" d="M133.927,68.35l1.867,2.571h0.013V68.35h0.922v3.836h-0.984l-1.861-2.567h-0.014v2.567h-0.921V68.35
		H133.927z"/>
	<path fill="#FFFFFF" d="M140.462,69.371c-0.058-0.077-0.131-0.149-0.22-0.212c-0.087-0.06-0.188-0.107-0.296-0.142
		c-0.109-0.035-0.228-0.049-0.349-0.049c-0.222,0-0.411,0.036-0.563,0.109c-0.156,0.072-0.281,0.171-0.377,0.293
		c-0.096,0.124-0.165,0.265-0.21,0.422c-0.044,0.157-0.064,0.321-0.064,0.489c0,0.162,0.021,0.317,0.064,0.47
		c0.045,0.153,0.114,0.289,0.21,0.412c0.096,0.12,0.221,0.22,0.377,0.293c0.152,0.074,0.341,0.11,0.563,0.11
		c0.301,0,0.535-0.079,0.705-0.237c0.169-0.156,0.271-0.366,0.31-0.625h0.953c-0.027,0.242-0.092,0.459-0.195,0.651
		c-0.104,0.193-0.241,0.358-0.412,0.495c-0.173,0.137-0.374,0.239-0.603,0.311c-0.229,0.072-0.481,0.107-0.758,0.107
		c-0.342,0-0.651-0.049-0.924-0.153c-0.274-0.102-0.504-0.241-0.692-0.421c-0.188-0.179-0.333-0.388-0.433-0.631
		c-0.1-0.242-0.15-0.505-0.15-0.782c0-0.287,0.051-0.554,0.15-0.799c0.1-0.243,0.244-0.458,0.433-0.64
		c0.188-0.184,0.417-0.326,0.692-0.43c0.272-0.104,0.581-0.157,0.924-0.157c0.245,0,0.479,0.03,0.698,0.094
		c0.22,0.06,0.415,0.149,0.59,0.263c0.173,0.118,0.317,0.263,0.429,0.434c0.112,0.173,0.185,0.369,0.213,0.591h-0.953
		C140.559,69.542,140.523,69.452,140.462,69.371z"/>
	<path fill="#FFFFFF" d="M141.753,68.35h1.103l1.047,1.515l1.038-1.515h1.097l-1.659,2.361v1.474h-0.983v-1.493L141.753,68.35z"/>
	<path fill="#FFFFFF" d="M149.541,68.35l1.046,2.638h0.014l0.988-2.638h1.385v3.836h-0.923v-2.719h-0.01l-1.098,2.719h-0.757
		l-1.098-2.692h-0.011v2.692h-0.922V68.35H149.541z"/>
	<path fill="#FFFFFF" d="M156.068,68.35l1.673,3.836h-1.021l-0.338-0.855h-1.673l-0.351,0.855h-0.991l1.691-3.836H156.068z
		 M156.126,70.703l-0.566-1.408h-0.012l-0.583,1.408H156.126z"/>
	<path fill="#FFFFFF" d="M159.106,68.35l1.869,2.571h0.011V68.35h0.923v3.836h-0.985l-1.861-2.567h-0.012v2.567h-0.922V68.35
		H159.106z"/>
	<path fill="#FFFFFF" d="M165.004,68.35l1.673,3.836h-1.021l-0.34-0.855h-1.671l-0.354,0.855h-0.987l1.69-3.836H165.004z
		 M165.057,70.703l-0.562-1.408h-0.015l-0.579,1.408H165.057z"/>
	<path fill="#FFFFFF" d="M169.715,72.153c-0.213,0.078-0.429,0.116-0.646,0.116c-0.342,0-0.65-0.049-0.925-0.153
		c-0.272-0.102-0.504-0.241-0.692-0.421c-0.189-0.179-0.333-0.388-0.433-0.631c-0.099-0.243-0.15-0.505-0.15-0.782
		c0-0.287,0.052-0.554,0.15-0.799c0.1-0.245,0.243-0.458,0.433-0.641c0.188-0.183,0.419-0.325,0.692-0.429
		c0.274-0.104,0.582-0.157,0.925-0.157c0.229,0,0.452,0.029,0.666,0.09c0.216,0.058,0.41,0.146,0.583,0.261
		c0.172,0.113,0.316,0.254,0.429,0.425c0.113,0.167,0.183,0.362,0.205,0.58h-0.938c-0.058-0.215-0.171-0.378-0.337-0.484
		c-0.17-0.107-0.37-0.159-0.607-0.159c-0.222,0-0.41,0.036-0.565,0.109c-0.155,0.072-0.279,0.171-0.375,0.293
		c-0.097,0.124-0.168,0.264-0.212,0.422c-0.041,0.156-0.064,0.321-0.064,0.489c0,0.162,0.023,0.317,0.064,0.47
		c0.045,0.152,0.115,0.289,0.212,0.412c0.096,0.119,0.22,0.219,0.375,0.293s0.344,0.11,0.565,0.11c0.324,0,0.577-0.07,0.756-0.214
		c0.176-0.142,0.279-0.347,0.309-0.613h-0.991v-0.63h1.88v2.074h-0.625l-0.101-0.435C170.121,71.942,169.927,72.077,169.715,72.153z
		"/>
	<path fill="#FFFFFF" d="M175.165,68.35v0.708h-2.362v0.82h2.168v0.657h-2.168v0.939h2.411v0.71h-3.396V68.35H175.165L175.165,68.35
		z"/>
	<path fill="#FFFFFF" d="M177.263,68.35l1.047,2.638h0.011l0.991-2.638h1.385v3.836h-0.921v-2.719h-0.013l-1.097,2.719h-0.758
		l-1.097-2.692h-0.011v2.692h-0.923V68.35H177.263z"/>
	<path fill="#FFFFFF" d="M184.906,68.35v0.708h-2.36v0.82h2.168v0.657h-2.168v0.939h2.413v0.71h-3.396V68.35H184.906L184.906,68.35z
		"/>
	<path fill="#FFFFFF" d="M186.597,68.35l1.868,2.571h0.011V68.35h0.923v3.836h-0.984l-1.858-2.567h-0.016v2.567h-0.922V68.35
		H186.597z"/>
	<path fill="#FFFFFF" d="M189.913,69.058V68.35h3.663v0.708h-1.341v3.128h-0.981v-3.128H189.913z"/>
	<path fill="#FFFFFF" d="M196.81,68.35l1.867,2.571h0.013V68.35h0.919v3.836h-0.983l-1.859-2.567h-0.014v2.567h-0.92V68.35H196.81z"
		/>
	<path fill="#FFFFFF" d="M203.821,68.35v0.708h-2.361v0.82h2.168v0.657h-2.168v0.939h2.411v0.71h-3.396V68.35H203.821L203.821,68.35
		z"/>
	<path fill="#FFFFFF" d="M204.185,69.058V68.35h3.663v0.708h-1.341v3.128h-0.981v-3.128H204.185z"/>
	<path fill="#FFFFFF" d="M211.645,72.185l-0.758-2.611h-0.014l-0.745,2.611h-0.994l-1.187-3.835h0.983l0.71,2.607h0.01l0.78-2.607
		h0.919l0.765,2.643h0.014l0.733-2.643h0.965l-1.204,3.835H211.645z"/>
	<path fill="#FFFFFF" d="M214.234,69.483c0.101-0.245,0.244-0.458,0.433-0.641c0.186-0.183,0.417-0.326,0.69-0.43
		c0.274-0.103,0.581-0.156,0.925-0.156c0.347,0,0.657,0.054,0.928,0.156c0.271,0.104,0.501,0.247,0.689,0.43
		s0.332,0.396,0.432,0.641s0.151,0.511,0.151,0.799c0,0.277-0.052,0.538-0.151,0.782c-0.1,0.243-0.243,0.452-0.432,0.631
		s-0.417,0.319-0.689,0.421c-0.271,0.104-0.581,0.153-0.928,0.153c-0.342,0-0.65-0.049-0.925-0.153
		c-0.272-0.104-0.505-0.242-0.69-0.421c-0.188-0.179-0.332-0.389-0.433-0.631c-0.103-0.243-0.15-0.505-0.15-0.782
		C214.084,69.995,214.132,69.729,214.234,69.483z M215.134,70.752c0.041,0.153,0.113,0.29,0.209,0.413
		c0.095,0.119,0.222,0.219,0.374,0.293c0.155,0.073,0.344,0.109,0.566,0.109c0.222,0,0.409-0.037,0.562-0.109
		c0.155-0.074,0.28-0.173,0.378-0.293c0.095-0.124,0.165-0.26,0.209-0.413c0.045-0.152,0.065-0.307,0.065-0.47
		c0-0.168-0.021-0.332-0.065-0.487c-0.044-0.159-0.114-0.3-0.209-0.424c-0.098-0.122-0.223-0.221-0.378-0.293
		c-0.153-0.073-0.34-0.109-0.562-0.109c-0.222,0-0.411,0.036-0.566,0.109c-0.152,0.072-0.279,0.171-0.374,0.293
		c-0.096,0.124-0.168,0.265-0.209,0.424c-0.045,0.155-0.068,0.319-0.068,0.487C215.065,70.444,215.089,70.6,215.134,70.752z"/>
	<path fill="#FFFFFF" d="M221.564,68.35c0.198,0,0.379,0.026,0.541,0.08c0.159,0.058,0.296,0.134,0.412,0.23
		s0.204,0.208,0.264,0.337c0.06,0.125,0.09,0.261,0.09,0.409c0,0.227-0.055,0.422-0.165,0.586c-0.112,0.167-0.292,0.29-0.542,0.378
		v0.009c0.122,0.03,0.222,0.072,0.301,0.133c0.081,0.059,0.145,0.128,0.193,0.209c0.052,0.081,0.088,0.168,0.109,0.268
		c0.025,0.095,0.039,0.19,0.047,0.289c0.005,0.061,0.01,0.133,0.015,0.217c0.005,0.079,0.01,0.165,0.021,0.252
		c0.012,0.083,0.025,0.166,0.051,0.243c0.021,0.077,0.056,0.142,0.103,0.196h-0.983c-0.053-0.121-0.089-0.267-0.101-0.435
		c-0.014-0.17-0.03-0.329-0.057-0.484c-0.034-0.201-0.105-0.347-0.212-0.441c-0.109-0.092-0.287-0.138-0.532-0.138h-0.984v1.498
		h-0.984v-3.835L221.564,68.35L221.564,68.35z M221.213,70.085c0.226,0,0.394-0.045,0.506-0.131
		c0.112-0.085,0.172-0.226,0.172-0.418c0-0.187-0.06-0.321-0.172-0.406c-0.112-0.084-0.28-0.125-0.506-0.125h-1.078v1.08H221.213z"
		/>
	<path fill="#FFFFFF" d="M224.658,68.35v1.59l1.749-1.59h1.228l-1.749,1.515l1.917,2.32h-1.234l-1.347-1.726l-0.564,0.49v1.236
		h-0.983V68.35H224.658L224.658,68.35z"/>
</g>
</svg>
