<?xml version="1.0" encoding="utf-8"?>
<!-- Generator: Adobe Illustrator 16.0.0, SVG Export Plug-In . SVG Version: 6.00 Build 0)  -->
<!DOCTYPE svg PUBLIC "-//W3C//DTD SVG 1.1//EN" "http://www.w3.org/Graphics/SVG/1.1/DTD/svg11.dtd">
<svg version="1.1" id="Layer_1" xmlns="http://www.w3.org/2000/svg" xmlns:xlink="http://www.w3.org/1999/xlink" x="0px" y="0px"
	 width="514px" height="286px" viewBox="0 0 514 286" enable-background="new 0 0 514 286" xml:space="preserve">
<pattern  x="-222.5" y="423.5" width="72.997" height="115.664" patternUnits="userSpaceOnUse" id="New_Pattern" viewBox="47.008 -158.182 72.997 115.664" overflow="visible">
	<g>
		<polygon fill="none" points="47.008,-158.182 120.005,-158.182 120.005,-42.518 47.008,-42.518 		"/>
		<g>
			<g>
				<path fill="#CCCCCC" d="M89.616-0.277c-0.86,0.859-2.192-0.473-1.332-1.332c2.818-2.818,5.638-5.639,8.457-8.458
					c0,0.445-0.001,0.889-0.001,1.333c-0.095-0.095-0.191-0.191-0.286-0.286c-3.276-3.276-6.552-6.552-9.827-9.827
					c-4.961-4.961-9.921-9.921-14.881-14.882c-2.562-2.561-5.123-5.122-7.684-7.683c0.444,0,0.888,0,1.333-0.001
					c-0.834,0.835-1.669,1.669-2.503,2.504c-0.859,0.859-2.191-0.473-1.332-1.332c0.834-0.835,1.669-1.669,2.503-2.504
					c0.363-0.362,0.969-0.362,1.333,0c0.095,0.096,0.191,0.191,0.287,0.288c3.275,3.275,6.551,6.551,9.827,9.826
					c4.96,4.96,9.921,9.921,14.881,14.881c2.562,2.562,5.122,5.122,7.684,7.683c0.362,0.363,0.363,0.97,0,1.333
					C95.254-5.916,92.435-3.096,89.616-0.277L89.616-0.277z"/>
			</g>
		</g>
		<g>
			<g>
				<path fill="#00A99D" d="M126.235-147.584c0.858-0.859,2.19,0.473,1.332,1.332c-2.82,2.819-5.639,5.639-8.457,8.457
					c0-0.444,0-0.888,0-1.332c0.117,0.117,0.234,0.234,0.352,0.353c3.338,3.337,6.677,6.676,10.015,10.015
					c4.962,4.961,9.925,9.924,14.886,14.885c2.552,2.553,5.103,5.103,7.654,7.654c-0.445,0-0.889,0-1.333,0
					c0.835-0.834,1.669-1.669,2.503-2.504c0.859-0.858,2.191,0.475,1.333,1.332c-0.835,0.835-1.67,1.67-2.504,2.504
					c-0.363,0.363-0.969,0.363-1.332,0c-0.117-0.117-0.235-0.234-0.354-0.352c-3.338-3.339-6.675-6.678-10.013-10.015
					c-4.963-4.962-9.925-9.925-14.887-14.887c-2.551-2.552-5.102-5.103-7.653-7.653c-0.362-0.363-0.362-0.969,0-1.332
					C120.597-141.945,123.415-144.765,126.235-147.584L126.235-147.584z"/>
			</g>
		</g>
		<g>
			<g>
				<path fill="#00A99D" d="M68.19-58.66c1.883-1.882,4.934-1.882,6.816,0.001c1.881,1.882,1.883,4.933,0,6.815
					s-4.935,1.882-6.816,0C66.308-53.727,66.309-56.777,68.19-58.66z M70.23-56.62c-0.757,0.757-0.757,1.981,0,2.737
					c0.756,0.756,1.981,0.756,2.737,0s0.756-1.98,0-2.736C72.211-57.376,70.986-57.376,70.23-56.62z"/>
				<path fill="#00A99D" d="M73.314-52.011c-0.983-0.983,0.542-2.509,1.525-1.525c3.228,3.228,6.455,6.455,9.683,9.683
					c-0.51,0-1.018-0.001-1.526,0c0.135-0.135,0.271-0.27,0.404-0.404c3.821-3.821,7.643-7.643,11.464-11.464
					c5.682-5.681,11.361-11.362,17.043-17.042c2.92-2.922,5.841-5.842,8.762-8.763c-0.001,0.509,0,1.017,0,1.526
					c-0.956-0.956-1.91-1.91-2.867-2.867c-0.982-0.982,0.543-2.508,1.525-1.525c0.957,0.957,1.911,1.911,2.867,2.867
					c0.415,0.415,0.415,1.109,0,1.524c-0.135,0.135-0.27,0.269-0.404,0.403c-3.822,3.822-7.643,7.644-11.464,11.465
					c-5.681,5.682-11.362,11.361-17.043,17.043c-2.921,2.92-5.841,5.841-8.761,8.762c-0.416,0.415-1.11,0.415-1.525,0
					C79.77-45.556,76.542-48.783,73.314-52.011L73.314-52.011z"/>
				<path fill="#CCCCCC" d="M109.54-93.658c0.984,0.984-0.541,2.51-1.525,1.525c-3.227-3.227-6.455-6.455-9.682-9.682
					c0.509-0.001,1.017,0,1.524,0c-0.108,0.109-0.219,0.219-0.328,0.328c-3.75,3.75-7.501,7.5-11.25,11.25
					c-5.679,5.679-11.358,11.357-17.036,17.037c-2.933,2.932-5.864,5.863-8.797,8.795c0.001-0.508,0.001-1.017,0-1.525
					c0.955,0.955,1.911,1.911,2.866,2.866c0.984,0.984-0.54,2.509-1.524,1.524c-0.955-0.955-1.911-1.91-2.866-2.865
					c-0.415-0.416-0.416-1.109-0.001-1.525c0.109-0.109,0.22-0.219,0.329-0.328c3.75-3.75,7.501-7.5,11.251-11.25
					c5.678-5.68,11.357-11.357,17.035-17.037c2.933-2.932,5.863-5.863,8.796-8.795c0.416-0.416,1.11-0.416,1.526,0
					C103.085-100.113,106.313-96.885,109.54-93.658L109.54-93.658z"/>
				<g>
					<path fill="#00A99D" d="M80.08-62.726c1.883-1.883,4.933-1.884,6.815-0.001s1.883,4.934,0,6.816
						c-1.881,1.883-4.933,1.883-6.816,0C78.197-57.793,78.198-60.844,80.08-62.726z M82.119-60.687
						c-0.756,0.756-0.755,1.981,0,2.736c0.757,0.757,1.982,0.758,2.738,0.002c0.757-0.757,0.755-1.983-0.001-2.739
						S82.876-61.443,82.119-60.687z"/>
					<path fill="#00A99D" d="M94.022-76.668c1.883-1.883,4.934-1.884,6.816-0.002c1.883,1.884,1.882,4.936,0,6.818
						c-1.883,1.882-4.934,1.883-6.817-0.001C92.14-71.734,92.14-74.785,94.022-76.668z M96.062-74.629
						c-0.756,0.756-0.756,1.982-0.001,2.737c0.757,0.757,1.983,0.757,2.739,0.001s0.755-1.982-0.002-2.738
						C98.043-75.385,96.817-75.385,96.062-74.629z"/>
					<path fill="#00A99D" d="M81.966-62.521c0.983,0.983-0.541,2.509-1.525,1.524c-2.711-2.711-5.422-5.422-8.133-8.133
						c-0.416-0.416-0.415-1.108,0.001-1.524c0.348-0.348,0.696-0.696,1.044-1.044c4.351-4.351,8.701-8.701,13.053-13.053
						c0.416-0.416,1.109-0.416,1.524-0.001c2.711,2.711,5.423,5.423,8.134,8.134c0.982,0.982-0.542,2.508-1.525,1.524
						c-2.711-2.711-5.422-5.423-8.133-8.134c0.508,0.002,1.016,0.002,1.523,0.002c-0.348,0.348-0.695,0.695-1.043,1.043
						c-4.352,4.352-8.701,8.701-13.053,13.053c0-0.508,0-1.016,0-1.525C76.544-67.943,79.255-65.231,81.966-62.521L81.966-62.521z"
						/>
				</g>
				<g>
					<path fill="#CCCCCC" d="M103.046-83.136c-1.883,1.882-4.934,1.882-6.816-0.001c-1.882-1.882-1.883-4.934,0-6.815
						c1.883-1.883,4.935-1.883,6.816-0.001C104.929-88.07,104.929-85.019,103.046-83.136z M101.007-85.176
						c0.756-0.756,0.756-1.98,0-2.736c-0.757-0.757-1.981-0.757-2.738,0c-0.756,0.756-0.756,1.98,0,2.736
						S100.249-84.418,101.007-85.176z"/>
					<path fill="#CCCCCC" d="M89.104-69.193c-1.883,1.882-4.936,1.881-6.816,0c-1.883-1.883-1.883-4.935,0-6.816
						c1.882-1.883,4.934-1.883,6.816,0C90.985-74.129,90.986-71.076,89.104-69.193z M87.064-71.233c0.756-0.756,0.756-1.981,0-2.737
						c-0.757-0.756-1.981-0.756-2.737,0c-0.757,0.757-0.757,1.981,0,2.738C85.083-70.477,86.308-70.477,87.064-71.233z"/>
					<path fill="#CCCCCC" d="M101.159-83.342c-0.982-0.982,0.543-2.508,1.525-1.525c2.712,2.712,5.423,5.423,8.134,8.134
						c0.415,0.415,0.415,1.108-0.001,1.524c-0.348,0.348-0.695,0.695-1.045,1.045c-4.35,4.35-8.701,8.701-13.052,13.052
						c-0.415,0.415-1.108,0.417-1.524,0.001c-2.711-2.711-5.422-5.422-8.133-8.133c-0.983-0.983,0.542-2.509,1.525-1.525
						c2.711,2.711,5.422,5.422,8.133,8.133c-0.508,0-1.018,0-1.525,0c0.349-0.348,0.696-0.695,1.045-1.043
						c4.351-4.352,8.701-8.703,13.053-13.054c0,0.507,0,1.017-0.001,1.525C106.582-77.919,103.871-80.63,101.159-83.342
						L101.159-83.342z"/>
				</g>
				<path fill="#CCCCCC" d="M114.586-87.086c-1.882,1.882-4.933,1.883-6.815,0s-1.883-4.934,0-6.816s4.934-1.883,6.816,0
					S116.47-88.969,114.586-87.086z M112.547-89.125c0.757-0.757,0.757-1.982,0.001-2.738s-1.981-0.756-2.738,0.001
					c-0.756,0.756-0.756,1.981,0,2.737S111.791-88.369,112.547-89.125z"/>
			</g>
			<g>
				<path fill="#00A99D" d="M59.045-152.061c1.645,1.645,1.644,4.311,0,5.954c-1.644,1.644-4.309,1.646-5.954,0.001
					c-1.644-1.645-1.643-4.311,0-5.954C54.736-153.703,57.401-153.704,59.045-152.061z M57.264-150.278
					c-0.661-0.661-1.731-0.661-2.391,0c-0.661,0.661-0.661,1.73,0,2.392c0.66,0.66,1.73,0.66,2.391,0
					C57.924-148.548,57.924-149.617,57.264-150.278z"/>
				<path fill="#00A99D" d="M53.238-147.584c0.859-0.859,2.191,0.473,1.332,1.332c-2.819,2.819-5.638,5.639-8.457,8.457
					c0-0.444,0-0.888,0-1.332c0.118,0.117,0.235,0.234,0.353,0.353c3.338,3.337,6.676,6.676,10.014,10.015
					c4.962,4.961,9.924,9.924,14.886,14.885c2.551,2.553,5.102,5.103,7.654,7.654c-0.445,0-0.889,0-1.333,0
					c0.835-0.834,1.669-1.669,2.503-2.504c0.859-0.858,2.191,0.475,1.333,1.332c-0.835,0.835-1.67,1.67-2.504,2.504
					c-0.363,0.363-0.969,0.363-1.332,0c-0.117-0.117-0.235-0.234-0.354-0.352c-3.338-3.339-6.675-6.678-10.013-10.015
					c-4.962-4.962-9.924-9.925-14.887-14.887c-2.551-2.552-5.102-5.103-7.653-7.653c-0.363-0.363-0.363-0.969,0-1.332
					C47.6-141.945,50.418-144.765,53.238-147.584L53.238-147.584z"/>
				<path fill="#CCCCCC" d="M89.616-115.941c-0.86,0.859-2.192-0.473-1.332-1.332c2.818-2.818,5.638-5.639,8.457-8.458
					c0,0.445-0.001,0.889-0.001,1.333c-0.095-0.096-0.191-0.191-0.286-0.287c-3.276-3.275-6.552-6.551-9.827-9.826
					c-4.961-4.961-9.921-9.922-14.881-14.882c-2.562-2.562-5.123-5.122-7.684-7.683c0.444,0,0.888,0,1.333-0.001
					c-0.834,0.835-1.669,1.669-2.503,2.504c-0.859,0.858-2.191-0.474-1.332-1.333c0.834-0.834,1.669-1.668,2.503-2.503
					c0.363-0.362,0.969-0.362,1.333,0c0.095,0.096,0.191,0.191,0.287,0.288c3.275,3.275,6.551,6.551,9.827,9.826
					c4.96,4.96,9.921,9.92,14.881,14.881c2.562,2.562,5.122,5.122,7.684,7.683c0.362,0.363,0.363,0.97,0,1.333
					C95.254-121.58,92.435-118.76,89.616-115.941L89.616-115.941z"/>
				<g>
					<path fill="#00A99D" d="M62.597-141.675c1.645,1.645,1.645,4.31,0,5.954c-1.645,1.645-4.31,1.645-5.954,0
						c-1.645-1.645-1.645-4.311,0-5.954C58.288-143.319,60.953-143.318,62.597-141.675z M60.816-139.893
						c-0.661-0.661-1.73-0.661-2.391-0.001s-0.662,1.731-0.001,2.392c0.661,0.661,1.731,0.66,2.392,0
						C61.477-138.162,61.477-139.232,60.816-139.893z"/>
					<path fill="#00A99D" d="M74.775-129.496c1.645,1.645,1.645,4.309,0,5.953c-1.644,1.646-4.31,1.646-5.954,0
						c-1.645-1.645-1.644-4.309,0-5.953C70.466-131.141,73.131-131.141,74.775-129.496z M72.994-127.715
						c-0.66-0.66-1.731-0.66-2.391-0.001c-0.66,0.661-0.661,1.731,0,2.392c0.661,0.661,1.731,0.66,2.392,0
						S73.654-127.054,72.994-127.715z"/>
					<path fill="#00A99D" d="M62.418-140.027c-0.859,0.859-2.191-0.473-1.333-1.332c2.368-2.368,4.736-4.736,7.104-7.104
						c0.363-0.362,0.969-0.362,1.332,0.001c0.304,0.304,0.608,0.607,0.912,0.912c3.8,3.801,7.601,7.601,11.401,11.4
						c0.363,0.363,0.363,0.969,0.001,1.332c-2.368,2.369-4.736,4.736-7.104,7.105c-0.859,0.857-2.19-0.475-1.332-1.332
						c2.368-2.369,4.736-4.737,7.104-7.105c-0.001,0.444-0.001,0.889-0.001,1.332c-0.304-0.304-0.608-0.607-0.912-0.912
						c-3.801-3.801-7.601-7.6-11.401-11.4c0.444-0.001,0.889-0.001,1.333-0.001C67.154-144.764,64.786-142.396,62.418-140.027
						L62.418-140.027z"/>
				</g>
				<g>
					<path fill="#CCCCCC" d="M80.426-121.614c-1.645-1.645-1.645-4.31-0.001-5.954c1.645-1.645,4.311-1.645,5.955,0
						c1.644,1.645,1.644,4.31-0.001,5.954C84.735-119.971,82.069-119.971,80.426-121.614z M82.207-123.396
						c0.66,0.661,1.729,0.661,2.391,0s0.661-1.73,0-2.392c-0.661-0.66-1.73-0.66-2.391,0
						C81.546-125.126,81.545-124.057,82.207-123.396z"/>
					<path fill="#CCCCCC" d="M68.247-133.793c-1.644-1.645-1.645-4.31,0-5.953c1.645-1.645,4.31-1.645,5.955,0
						c1.644,1.644,1.645,4.309,0,5.953S69.891-132.148,68.247-133.793z M70.028-135.574c0.661,0.661,1.731,0.66,2.392,0
						c0.66-0.66,0.66-1.73,0-2.391c-0.661-0.66-1.731-0.661-2.392,0C69.368-137.305,69.368-136.234,70.028-135.574z"/>
					<path fill="#CCCCCC" d="M80.604-123.262c0.858-0.857,2.191,0.474,1.332,1.333c-2.368,2.368-4.736,4.735-7.104,7.104
						c-0.362,0.363-0.968,0.362-1.331,0c-0.304-0.304-0.607-0.608-0.912-0.913c-3.8-3.8-7.601-7.6-11.401-11.4
						c-0.363-0.363-0.364-0.969,0-1.332c2.368-2.368,4.736-4.736,7.104-7.104c0.859-0.859,2.191,0.473,1.332,1.332
						c-2.368,2.367-4.736,4.735-7.104,7.104c0-0.443,0-0.888,0-1.332c0.304,0.305,0.608,0.607,0.912,0.912
						c3.8,3.801,7.601,7.602,11.401,11.4c-0.443,0.001-0.888,0.001-1.331,0.001C75.869-118.525,78.236-120.893,80.604-123.262
						L80.604-123.262z"/>
				</g>
				<path fill="#CCCCCC" d="M83.876-111.533c-1.645-1.645-1.645-4.311-0.001-5.954c1.645-1.644,4.311-1.644,5.954,0
					c1.645,1.645,1.645,4.31,0,5.954C88.186-109.89,85.52-109.889,83.876-111.533z M85.656-113.314c0.661,0.66,1.731,0.66,2.392,0
					c0.661-0.66,0.661-1.73,0-2.391c-0.661-0.661-1.73-0.661-2.392,0C84.996-115.045,84.996-113.975,85.656-113.314z"/>
			</g>
		</g>
		<g>
			<g>
				<path fill="#00A99D" d="M0.317-52.011c-0.983-0.983,0.542-2.509,1.525-1.525c3.228,3.228,6.455,6.455,9.683,9.683
					c-0.51,0-1.018-0.001-1.526,0c0.135-0.135,0.271-0.27,0.404-0.404c3.821-3.821,7.643-7.643,11.464-11.464
					c5.682-5.681,11.361-11.362,17.043-17.042c2.92-2.922,5.841-5.842,8.762-8.763c-0.001,0.509,0,1.017,0,1.526
					c-0.956-0.956-1.91-1.91-2.867-2.867c-0.982-0.982,0.543-2.508,1.525-1.525c0.957,0.957,1.911,1.911,2.867,2.867
					c0.415,0.415,0.415,1.109,0,1.524c-0.135,0.135-0.27,0.269-0.404,0.403c-3.822,3.822-7.643,7.644-11.464,11.465
					c-5.681,5.682-11.362,11.361-17.043,17.043c-2.921,2.92-5.841,5.841-8.761,8.762c-0.416,0.415-1.11,0.415-1.525,0
					C6.772-45.556,3.545-48.783,0.317-52.011L0.317-52.011z"/>
			</g>
		</g>
		<g>
			<g>
				<path fill="#00A99D" d="M73.314-167.675c-0.983-0.983,0.542-2.509,1.525-1.525c3.228,3.228,6.455,6.455,9.683,9.683
					c-0.51,0-1.018-0.001-1.526,0c0.135-0.135,0.271-0.27,0.404-0.404c3.821-3.821,7.643-7.643,11.464-11.464
					c5.682-5.681,11.361-11.362,17.043-17.043c2.92-2.921,5.841-5.841,8.762-8.762c-0.001,0.509,0,1.017,0,1.526
					c-0.956-0.956-1.91-1.911-2.867-2.867c-0.982-0.983,0.543-2.509,1.525-1.525c0.957,0.956,1.911,1.911,2.867,2.867
					c0.415,0.415,0.415,1.109,0,1.524c-0.135,0.135-0.27,0.269-0.404,0.403c-3.822,3.822-7.643,7.644-11.464,11.465
					c-5.681,5.682-11.362,11.361-17.043,17.043c-2.921,2.92-5.841,5.841-8.761,8.762c-0.416,0.415-1.11,0.415-1.525,0
					C79.77-161.22,76.542-164.447,73.314-167.675L73.314-167.675z"/>
			</g>
		</g>
		<g>
			<g>
				<path fill="#00A99D" d="M0.317-167.675c-0.983-0.983,0.542-2.509,1.525-1.525c3.228,3.228,6.455,6.455,9.683,9.683
					c-0.51,0-1.018-0.001-1.526,0c0.135-0.135,0.271-0.27,0.404-0.404c3.821-3.821,7.643-7.643,11.464-11.464
					c5.682-5.681,11.361-11.362,17.043-17.043c2.92-2.921,5.841-5.841,8.762-8.762c-0.001,0.509,0,1.017,0,1.526
					c-0.956-0.956-1.91-1.911-2.867-2.867c-0.982-0.983,0.543-2.509,1.525-1.525c0.957,0.956,1.911,1.911,2.867,2.867
					c0.415,0.415,0.415,1.109,0,1.524c-0.135,0.135-0.27,0.269-0.404,0.403c-3.822,3.822-7.643,7.644-11.464,11.465
					c-5.681,5.682-11.362,11.361-17.043,17.043c-2.921,2.92-5.841,5.841-8.761,8.762c-0.416,0.415-1.11,0.415-1.525,0
					C6.772-161.22,3.545-164.447,0.317-167.675L0.317-167.675z"/>
			</g>
		</g>
	</g>
</pattern>
<rect opacity="0.05" fill="url(#New_Pattern)" width="514" height="286"/>
</svg>
