<?xml version="1.0" encoding="utf-8"?>
<!-- Generator: Adobe Illustrator 16.0.0, SVG Export Plug-In . SVG Version: 6.00 Build 0)  -->
<!DOCTYPE svg PUBLIC "-//W3C//DTD SVG 1.1//EN" "http://www.w3.org/Graphics/SVG/1.1/DTD/svg11.dtd">
<svg version="1.1" id="Layer_1" xmlns="http://www.w3.org/2000/svg" xmlns:xlink="http://www.w3.org/1999/xlink" x="0px" y="0px"
	 width="100px" height="100px" viewBox="0 0 100 100" enable-background="new 0 0 100 100" xml:space="preserve">
<g>
	<path fill="#00A99D" d="M100,99.355c0,0.355-0.288,0.645-0.645,0.645H0.644C0.289,100,0,99.712,0,99.355V0.644
		c0-0.355,0.289-0.645,0.644-0.645h98.711c0.354,0,0.645,0.289,0.645,0.645V99.355z"/>
	<circle fill="#FFFFFF" cx="50.13" cy="21.649" r="17.721"/>
	<path fill="#FFFFFF" d="M16.367,89.146c0,3.748,0.375,7.387,1.079,10.854h65.368c0.703-3.468,1.077-7.105,1.077-10.854
		c0-23.826-15.114-43.141-33.762-43.141C31.483,46.005,16.367,65.319,16.367,89.146z"/>
</g>
</svg>
