<?xml version="1.0" encoding="utf-8"?>
<!-- Generated by IcoMoon.io -->
<!DOCTYPE svg PUBLIC "-//W3C//DTD SVG 1.1//EN" "http://www.w3.org/Graphics/SVG/1.1/DTD/svg11.dtd">
<svg version="1.1" xmlns="http://www.w3.org/2000/svg" xmlns:xlink="http://www.w3.org/1999/xlink" width="20" height="20" viewBox="0 0 20 20">
<path fill="#444444" d="M6.889 13.689c-0.222 0-0.444 0-0.667 0s-0.444 0-0.667 0c-0.844-0.044-1.467-0.667-1.467-1.556 0-1.911 0-3.867 0-5.778 0-1.022 0.622-1.644 1.644-1.644 2.578 0 5.111 0 7.689 0 0.578 0 1.2 0 1.778 0.044 0.756 0.044 1.378 0.711 1.378 1.467 0 2 0 4 0 6 0 0.8-0.622 1.467-1.378 1.467-1.2 0.044-2.4 0.044-3.6 0-0.578 0-0.978 0.133-1.378 0.578-0.711 0.844-1.511 1.6-2.267 2.356-0.178 0.222-0.444 0.267-0.667 0.178s-0.356-0.311-0.356-0.578c0-0.756 0-1.511 0-2.267-0.044-0.089-0.044-0.178-0.044-0.267zM8.311 9.156c0-0.4-0.356-0.756-0.756-0.756s-0.711 0.356-0.756 0.756c0 0.444 0.311 0.756 0.711 0.756 0.444 0 0.8-0.311 0.8-0.756zM13.422 9.911c0.4 0 0.711-0.356 0.756-0.756 0-0.4-0.356-0.756-0.756-0.756s-0.756 0.356-0.756 0.756c0 0.444 0.356 0.756 0.756 0.756zM11.2 9.156c0-0.444-0.311-0.756-0.711-0.756s-0.756 0.356-0.756 0.756c0 0.4 0.356 0.756 0.756 0.756s0.711-0.311 0.711-0.756z"></path>
</svg>
