<?xml version="1.0" encoding="utf-8"?>
<!-- Generator: Adobe Illustrator 19.1.1, SVG Export Plug-In . SVG Version: 6.00 Build 0)  -->
<svg version="1.1" xmlns="http://www.w3.org/2000/svg" xmlns:xlink="http://www.w3.org/1999/xlink" x="0px" y="0px"
	 viewBox="0 0 100 100" style="enable-background:new 0 0 100 100;" xml:space="preserve">
<style type="text/css">
	.st0{display:none;}
	.st1{display:inline;fill:#2173A2;}
	.st2{fill:#838788;}
	.st3{fill:#933132;}
	.st4{fill:#774393;}
	.st5{fill-rule:evenodd;clip-rule:evenodd;fill:#0A8D56;}
	.st6{fill:#2173A2;}
	.st7{fill:#FFFFFF;}
	.st8{fill-rule:evenodd;clip-rule:evenodd;fill:#838788;}
	.st9{fill:#0A8D56;}
	.st10{fill:#DB9528;}
</style>
<g id="Layer_2" class="st0">
	<rect id="XMLID_155_" x="-15.2" y="-7" class="st1" width="369.8" height="255.5"/>
</g>
<g id="Layer_1">
	<path id="XMLID_173_" class="st7" d="M49.9,1.2C22.9,1.2,1,23.1,1,50.1C1,77.1,22.9,99,49.9,99c27,0,48.9-21.9,48.9-48.9
		C98.8,23.1,76.9,1.2,49.9,1.2z M75.3,59.5c-5.7,0-11.4,0-17.1,0c0,5.7,0,11.3,0,17c-6.2,0-12.3,0-18.5,0c0-5.7,0-11.3,0-17
		c-5.6,0-11.2,0-16.8,0c0-6.2,0-12.4,0-18.5c5.6,0,11.2,0,16.8,0c0-5.6,0-11.3,0-16.9c6.2,0,12.4,0,18.5,0c0,5.6,0,11.3,0,16.9
		c5.7,0,11.4,0,17.1,0C75.3,47.1,75.3,53.3,75.3,59.5z"/>
</g>
</svg>
