<?xml version="1.0" encoding="utf-8"?>
<!-- Generator: Adobe Illustrator 19.1.1, SVG Export Plug-In . SVG Version: 6.00 Build 0)  -->
<svg version="1.1" xmlns="http://www.w3.org/2000/svg" xmlns:xlink="http://www.w3.org/1999/xlink" x="0px" y="0px"
	 viewBox="0 0 100 100" style="enable-background:new 0 0 100 100;" xml:space="preserve">
<style type="text/css">
	.st0{display:none;}
	.st1{display:inline;fill:#2173A2;}
	.st2{fill:#838788;}
	.st3{fill:#933132;}
	.st4{fill:#774393;}
	.st5{fill-rule:evenodd;clip-rule:evenodd;fill:#0A8D56;}
	.st6{fill:#2173A2;}
	.st7{fill:#FFFFFF;}
	.st8{fill-rule:evenodd;clip-rule:evenodd;fill:#838788;}
	.st9{fill:#0A8D56;}
	.st10{fill:#DB9528;}
</style>
<g id="Layer_2" class="st0">
	<rect id="XMLID_155_" x="-255.2" y="-127" class="st1" width="369.8" height="255.5"/>
</g>
<g id="Layer_1">
	<g id="XMLID_185_">
		<path id="XMLID_187_" class="st7" d="M50.6,1.2C23.3,1.2,1.2,23.3,1.2,50.6c0,27.3,22.1,49.4,49.4,49.4
			c27.3,0,49.4-22.1,49.4-49.4C100,23.3,77.9,1.2,50.6,1.2z M24.6,36.7h9.6V34c0-3.9,2.5-7,5.8-7h21.3c3.2,0,5.8,3.1,5.8,7v2.7h7.5
			V47c0,3.1-2.4,5.7-5.3,5.7H30c-3,0-5.4-2.5-5.4-5.7V36.7z M75.6,71.2H23.3V50.8c1.3,2.4,3.8,4.1,6.7,4.1h39.2
			c2.7,0,5.1-1.5,6.5-3.8V71.2z"/>
		<path id="XMLID_186_" class="st7" d="M62.5,34c0-1.5-0.8-2.5-1.3-2.5H40c-0.4,0-1.3,0.9-1.3,2.5v2.7h23.8V34z"/>
	</g>
</g>
</svg>
