<?xml version="1.0" encoding="utf-8"?>
<!-- Generator: Adobe Illustrator 19.1.1, SVG Export Plug-In . SVG Version: 6.00 Build 0)  -->
<svg version="1.1" xmlns="http://www.w3.org/2000/svg" xmlns:xlink="http://www.w3.org/1999/xlink" x="0px" y="0px"
	 viewBox="0 0 100 100" style="enable-background:new 0 0 100 100;" xml:space="preserve">
<style type="text/css">
	.st0{display:none;}
	.st1{display:inline;fill:#2173A2;}
	.st2{fill:#838788;}
	.st3{fill:#933132;}
	.st4{fill:#774393;}
	.st5{fill-rule:evenodd;clip-rule:evenodd;fill:#0A8D56;}
	.st6{fill:#2173A2;}
	.st7{fill:#FFFFFF;}
	.st8{fill-rule:evenodd;clip-rule:evenodd;fill:#838788;}
	.st9{fill:#0A8D56;}
	.st10{fill:#DB9528;}
</style>
<g id="Layer_2" class="st0">
	<rect id="XMLID_155_" x="-15.2" y="-127" class="st1" width="369.8" height="255.5"/>
</g>
<g id="Layer_1">
	<g id="XMLID_373_">
		<path id="XMLID_377_" class="st7" d="M48.5,76.9C69.7,73,70,53.7,70,52.8V41.5L48.5,37V76.9z"/>
		<path id="XMLID_374_" class="st7" d="M49.6,0C22.2,0,0,22.2,0,49.6C0,77,22.2,99.3,49.6,99.3C77,99.3,99.3,77,99.3,49.6
			C99.3,22.2,77,0,49.6,0z M74.4,52.8c0,0.2-0.7,23.8-25.9,28.1c-23.7-4.4-23.7-28.2-23.7-28.2V36.4l23.7-5.1L70,36v-5.9l-21.5-4.6
			L24.8,31v-4.3l23.7-5.4l25.9,5.6V52.8z"/>
	</g>
</g>
</svg>
