<?xml version="1.0" encoding="utf-8"?>
<!-- Generated by IcoMoon.io -->
<!DOCTYPE svg PUBLIC "-//W3C//DTD SVG 1.1//EN" "http://www.w3.org/Graphics/SVG/1.1/DTD/svg11.dtd">
<svg version="1.1" xmlns="http://www.w3.org/2000/svg" xmlns:xlink="http://www.w3.org/1999/xlink" width="20" height="20" viewBox="0 0 20 20">
<path fill="#444444" d="M4.978 6.222c1.067 0 2.178 0 3.289 0 0 0.578 0 1.067 0 1.644-0.533 0-1.022 0-1.6 0 0 2.222 0 4.356 0 6.578 2.133 0 4.311 0 6.578 0 0-0.8 0-1.6 0-2.4 0.578 0 1.067 0 1.644 0 0 1.333 0 2.667 0 4.089-3.289 0-6.578 0-9.867 0-0.044-3.289-0.044-6.622-0.044-9.911z"></path>
<path fill="#444444" d="M13.289 5.378l-4.8 5.644 0.089 2.311h2.222l4.711-5.556z"></path>
<path fill="#444444" d="M13.911 4.578l2.311 2.178 0.844-0.889-2.356-2.267z"></path>
</svg>
