<?xml version="1.0" encoding="utf-8"?>
<!-- Generated by IcoMoon.io -->
<!DOCTYPE svg PUBLIC "-//W3C//DTD SVG 1.1//EN" "http://www.w3.org/Graphics/SVG/1.1/DTD/svg11.dtd">
<svg version="1.1" xmlns="http://www.w3.org/2000/svg" xmlns:xlink="http://www.w3.org/1999/xlink" width="20" height="20" viewBox="0 0 20 20">
<path fill="#444444" d="M9.98 0.24c-5.4 0-9.78 4.38-9.78 9.78s4.38 9.78 9.78 9.78c5.4 0 9.78-4.38 9.78-9.78s-4.38-9.78-9.78-9.78zM15.060 11.9c-1.14 0-2.28 0-3.42 0 0 1.14 0 2.26 0 3.4-1.24 0-2.46 0-3.7 0 0-1.14 0-2.26 0-3.4-1.12 0-2.24 0-3.36 0 0-1.24 0-2.48 0-3.7 1.12 0 2.24 0 3.36 0 0-1.12 0-2.26 0-3.38 1.24 0 2.48 0 3.7 0 0 1.12 0 2.26 0 3.38 1.14 0 2.28 0 3.42 0 0 1.22 0 2.46 0 3.7z"></path>
</svg>
