<?xml version="1.0" encoding="utf-8"?>
<!-- Generated by IcoMoon.io -->
<!DOCTYPE svg PUBLIC "-//W3C//DTD SVG 1.1//EN" "http://www.w3.org/Graphics/SVG/1.1/DTD/svg11.dtd">
<svg version="1.1" xmlns="http://www.w3.org/2000/svg" xmlns:xlink="http://www.w3.org/1999/xlink" width="20" height="20" viewBox="0 0 20 20">
<path fill="#444444" d="M10.28 18.84c-4.64 0-8.4-3.76-8.4-8.4s3.76-8.4 8.4-8.4c4.64 0 8.4 3.76 8.4 8.4s-3.76 8.4-8.4 8.4zM10.28 3.48c-3.84 0-6.96 3.12-6.96 6.96s3.12 6.96 6.96 6.96c3.84 0 6.96-3.12 6.96-6.96s-3.12-6.96-6.96-6.96z"></path>
<path fill="#444444" d="M13.24 12c0 0-0.2 0.2-0.32 0.4l0.44-0.28c-0.080-0.080-0.12-0.12-0.12-0.12z"></path>
<path fill="#444444" d="M6.4 10.92l0.16-0.16 0.24 0.2c0 0 0.040 0.2 0.040 0.24-0.12-0.32-0.2-0.84-0.24-0.84h1.24c0.040 0.4 0.24 0.8 0.48 1.2h-0.88l0.080 0.040c0.040 0.040 0.2 0.36 0.32 0.36h0.72c0.080 0 0.2 0.4 0.28 0.52l0.080-0.040 0.28 0.2c0.12 0.080 0.8 0.56 0.84 1.16 0.040 0 0.080 0 0.12 0s0.12 0 0.16 0c0.080-0.6 0.72-1.080 0.84-1.16l0.28-0.16 0.040-0.040c0.080-0.12 0.2-0.52 0.28-0.52h0.76c0.12 0 0.28-0.32 0.36-0.36l0.080-0.040h-0.92c0.28-0.4 0.44-0.8 0.48-1.2h1.24c-0.040 0.4-0.12 0.56-0.28 0.92 0.040-0.080 0.12-0.2 0.12-0.24l0.24-0.28 0.16 0.12c0.040-0.040 0.080-0.12 0.12-0.16 0.080-0.36 0.16-0.72 0.16-1.080 0-2.28-1.88-4.16-4.16-4.16s-4.16 1.88-4.16 4.16c0 0.36 0.040 0.68 0.12 1 0.2 0.16 0.28 0.24 0.32 0.32zM13.48 8c0.24 0.4 0.4 1.2 0.44 2h-1.24c0-0.8 0-0.44 0-0.56-0.040-0.44-0.16-1.44-0.32-1.44h1.12zM13.16 7.6h-1.040c-0.32-0.8-0.72-1.040-1.040-1.36 0.84 0.2 1.56 0.56 2.080 1.36zM10.4 6.32c0.4 0.24 0.8 0.48 1.12 1.28h-1.12v-1.28zM10.4 8h1.4c0.16 0 0.32 1 0.36 1.48 0 0.12 0 0.52 0 0.52h-1.76v-2zM10.4 10.4h1.72c-0.080 0.4-0.24 0.8-0.56 1.2h-1.16v-1.2zM10.4 12h0.88c-0.2 0.8-0.48 0.8-0.88 1.12v-1.12zM10 13.12c0-0.32-0.56-0.32-0.76-1.12h0.76v1.12zM10 11.6h-1.080c-0.32-0.4-0.48-0.8-0.56-1.2h1.64v1.2zM10 10h-1.64c0 0 0-0.44 0-0.52 0.040-0.48 0.2-1.48 0.36-1.48h1.28v2zM10 6.32v1.28h-1c0.32-0.8 1-1.040 1-1.28zM9.44 6.24c-0.32 0.32-0.72 0.56-1.040 1.36h-1.040c0.52-0.8 1.24-1.16 2.080-1.36zM7.040 8h1.12c-0.16 0-0.28 1-0.32 1.44 0 0.12 0-0.24 0 0.56h-1.24c0.040-0.8 0.16-1.6 0.44-2z"></path>
<path fill="#444444" d="M10.76 13.92l-0.32 0.24c0 0 0 0.040 0 0.040l0.32-0.24c0 0 0 0 0-0.040z"></path>
<path fill="#444444" d="M13.64 12.72c0.12-0.12 0.2-0.24 0.32-0.36-0.16-0.080-0.28-0.16-0.32-0.24-0.040 0.080-0.12 0.16-0.16 0.2 0.080 0.12 0.16 0.24 0.16 0.4z"></path>
<path fill="#444444" d="M12.8 13.48c0.12-0.080 0.24-0.2 0.36-0.32-0.16-0.080-0.24-0.16-0.32-0.24-0.040 0.040-0.12 0.080-0.2 0.12 0.12 0.16 0.16 0.28 0.16 0.44z"></path>
<path fill="#444444" d="M11.84 14.12c0.12-0.080 0.24-0.12 0.36-0.2-0.2-0.12-0.24-0.28-0.24-0.4-0.040 0.040-0.080 0.040-0.16 0.080 0.080 0.12 0.080 0.32 0.040 0.52z"></path>
<path fill="#444444" d="M14.48 11.6c-0.040-0.080-0.080-0.16-0.080-0.24l-0.16 0.12c0.040 0.080 0.12 0.16 0.16 0.24 0 0 0.040-0.040 0.080-0.12z"></path>
<path fill="#444444" d="M13.6 11.12c-0.12 0.12-0.24 0.28-0.32 0.48l-0.080-0.080-0.16 0.16h0.28c0.12-0.16 0.2-0.36 0.28-0.56z"></path>
<path fill="#444444" d="M10.080 14.28c0.040-0.12 0.080-0.24 0.080-0.32 0-0.040 0-0.040 0-0.080-0.12 0-0.24 0-0.36-0.040 0.040 0.2-0.040 0.44-0.32 0.6 0.12 0.040 0.24 0.080 0.36 0.12l0.4-0.28c-0.040 0-0.12 0-0.16 0z"></path>
<path fill="#444444" d="M6.6 12.32c0.12 0.12 0.2 0.24 0.32 0.36 0-0.12 0.080-0.24 0.16-0.36-0.040-0.080-0.12-0.12-0.16-0.2-0.080 0.080-0.2 0.16-0.32 0.2z"></path>
<path fill="#444444" d="M11.080 14.44c-0.2-0.16-0.32-0.32-0.32-0.48l-0.32 0.24c0 0 0 0.040 0 0.040-0.040 0-0.12 0.040-0.16 0.040l-0.4 0.28c0.12 0.040 0.24 0.080 0.36 0.12 0.28-0.040 0.56-0.12 0.84-0.24z"></path>
<path fill="#444444" d="M7.36 13.16c0.12 0.12 0.24 0.2 0.36 0.32 0-0.12 0.040-0.28 0.12-0.4-0.080-0.040-0.12-0.080-0.2-0.12-0.040 0.080-0.12 0.16-0.28 0.2z"></path>
<path fill="#444444" d="M14.4 11.36c0 0.040 0 0.040 0 0z"></path>
<path fill="#444444" d="M14.4 11.4c0 0 0 0 0 0l-0.2 0.12c0 0 0 0 0 0l0.2-0.12z"></path>
<path fill="#444444" d="M10.28 14.32c0 0-0.040 0-0.040 0l-0.4 0.28c0.040 0 0.040 0 0.080 0l0.36-0.28c0 0 0 0 0 0z"></path>
<path fill="#444444" d="M11.16 13.24c0.16-0.16 0.28-0.24 0.28-0.24s0.040-0.040 0.080 0.040c0.52-0.2 1-0.24 1.4-1.040h-0.32c-0.040 0-0.040 0.16-0.080 0.2v0.040l-0.28 0.2c-0.080 0.040-0.28 0.2-0.48 0.44-0.040-0.080-0.080-0.080-0.080-0.12l-0.080-0.16c-0.16 0.24-0.32 0.44-0.52 0.68 0 0 0.040-0.040 0.080-0.040z"></path>
<path fill="#444444" d="M10.44 14.16l0.32-0.24c0-0.040 0-0.080 0-0.12-0.12 0-0.24 0.040-0.36 0.040 0 0.040 0 0.040 0 0.080 0 0.080 0 0.16 0.040 0.24z"></path>
<path fill="#444444" d="M7.24 11.6c-0.080-0.28-0.28-0.48-0.36-0.56 0.080 0.24 0.2 0.44 0.32 0.64h0.32l-0.16-0.16-0.12 0.080z"></path>
<path fill="#444444" d="M8.68 15.4c-0.44 0-0.92-0.32-0.92-0.32s0.28-0.48 0.68-0.68c-0.12-0.080-0.24-0.16-0.36-0.2-0.12 0.32-0.32 0.4-0.48 0.4-0.36 0-0.76-0.4-0.76-0.4s0.32-0.36 0.64-0.44c-0.12-0.080-0.24-0.2-0.36-0.32-0.12 0.2-0.28 0.28-0.44 0.28-0.4 0-0.76-0.52-0.76-0.52s0.32-0.24 0.64-0.32c-0.080-0.080-0.16-0.16-0.24-0.28-0.12 0.16-0.28 0.24-0.4 0.24-0.36 0-0.72-0.48-0.72-0.48s0.36-0.28 0.72-0.28c-0.040-0.080-0.080-0.12-0.12-0.2-0.040 0-0.080 0-0.12 0-0.76 0-0.44-1.080-0.44-1.080s1.24 0.080 0.84 0.88c0.040 0.040 0.080 0.12 0.12 0.16 0.040-0.16 0.16-0.32 0.28-0.4-0.080-0.2-0.16-0.4-0.2-0.64-0.32-0.28-0.84-0.32-0.96-0.36h-0.28l-0.080 0.28c-0.040 0.12-0.2 0.8 0.12 1.24 0.040 0.040 0.040 0.080 0.080 0.080-0.040 0.040-0.080 0.040-0.080 0.080l-0.28 0.2 0.2 0.28c0.040 0.080 0.24 0.36 0.56 0.52l-0.040 0.040 0.2 0.28c0.080 0.080 0.4 0.52 0.84 0.64l-0.12 0.16 0.24 0.24c0.040 0.040 0.44 0.44 0.88 0.52l-0.16 0.28 0.28 0.2c0.040 0.040 0.6 0.4 1.12 0.4 0.28 0 0.48-0.080 0.68-0.24l0.040 0.080 0.32-0.040c0.2-0.040 0.36-0.080 0.6-0.12 0.2 0.040 0.4 0.080 0.6 0.12l0.16-0.080 0.040-0.080c0.16 0.16 0.4 0.24 0.68 0.24 0.52 0 1.080-0.36 1.12-0.4l0.28-0.2-0.16-0.28c0.44-0.080 0.84-0.44 0.88-0.52l0.24-0.24-0.16-0.12c0.44-0.12 0.76-0.56 0.84-0.64l0.2-0.28-0.040-0.040c0.28-0.16 0.48-0.44 0.56-0.52l0.2-0.28-0.28-0.2c0 0-0.040-0.040-0.080-0.080 0.040-0.040 0.080-0.080 0.080-0.080 0.32-0.44 0.16-1.080 0.12-1.24l-0.080-0.28h-0.28c-0.12 0-0.68 0.040-1.040 0.4-0.040 0.2-0.12 0.4-0.2 0.56 0.040 0.040 0.080 0.12 0.16 0.16l0.16-0.12c-0.080-0.6 0.92-0.64 0.92-0.64s0.32 1.080-0.44 1.080c-0.040 0-0.080 0-0.12 0-0.040 0.080-0.080 0.12-0.12 0.2 0.32 0 0.72 0.28 0.72 0.28s-0.4 0.52-0.76 0.52c-0.12 0-0.28-0.080-0.4-0.24-0.080 0.080-0.16 0.2-0.24 0.28 0.32 0.040 0.64 0.32 0.64 0.32s-0.36 0.52-0.76 0.52c-0.16 0-0.28-0.080-0.44-0.28-0.12 0.12-0.24 0.2-0.36 0.32 0.32 0.080 0.64 0.44 0.64 0.44s-0.4 0.4-0.76 0.4c-0.2 0-0.36-0.12-0.48-0.4-0.12 0.080-0.24 0.16-0.36 0.2 0.4 0.2 0.68 0.68 0.68 0.68s-0.48 0.32-0.92 0.32c-0.28 0-0.56-0.16-0.64-0.6-0.080 0.040-0.16 0.040-0.2 0.080l-0.12 0.36c-0.2-0.040-0.44-0.080-0.64-0.12-0.2 0.040-0.44 0.080-0.64 0.12l-0.080-0.32z"></path>
<path fill="#444444" d="M8.36 13.92c0.12 0.080 0.24 0.12 0.36 0.2-0.080-0.16-0.040-0.36 0.040-0.52-0.040 0-0.080-0.040-0.12-0.040-0.040 0.080-0.080 0.24-0.28 0.36z"></path>
<path fill="#444444" d="M9.4 13.24c0 0 0.040 0 0.040 0-0.2-0.2-0.36-0.44-0.52-0.64l-0.12 0.16c0 0-0.040 0.040-0.080 0.12-0.16-0.24-0.4-0.36-0.48-0.4l-0.24-0.2v-0.080c-0.040-0.040-0.040-0.2-0.080-0.2h-0.36c0.4 0.8 0.88 0.84 1.44 1.040 0.040-0.080 0.080-0.080 0.080-0.080s0.16 0.16 0.32 0.28z"></path>
<path fill="#444444" d="M6.56 11.24c0 0 0.56 0.52 0.32 0.88 0.040 0.080 0.12 0.16 0.16 0.2 0.12-0.2 0.28-0.32 0.28-0.32s0.6 0.56 0.36 0.92c0.040 0.040 0.12 0.080 0.2 0.12 0.080-0.2 0.2-0.32 0.2-0.32s0.56 0.36 0.56 0.76c0.040 0 0.080 0.040 0.12 0.040 0.080-0.16 0.16-0.44 0.24-0.52-0.56-0.2-1.040-0.24-1.44-1.040h0.36c-0.12 0-0.28-0.32-0.32-0.36h-0.44c-0.12 0-0.24-0.36-0.32-0.6-0.040-0.040-0.040-0.040-0.040-0.040l-0.24-0.2-0.16 0.16c-0.040-0.080-0.12-0.12-0.16-0.2 0.040 0.2 0.12 0.44 0.2 0.64 0.080-0.080 0.12-0.12 0.12-0.12z"></path>
<path fill="#444444" d="M13.6 11.92c0 0 0 0.040 0 0z"></path>
<path fill="#444444" d="M11.6 12.6l-0.040-0.080-0.28 0.16c-0.12 0.080-0.8 0.56-0.84 1.16 0.12 0 0.24 0 0.36-0.040z"></path>
<path fill="#444444" d="M12.88 12.48l-1.2 0.84c0.040 0.080 0.080 0.16 0.12 0.24 0.040 0 0.080-0.040 0.16-0.080 0-0.36 0.56-0.72 0.56-0.72s0.12 0.12 0.2 0.28c0.080-0.040 0.12-0.080 0.2-0.12-0.12-0.12-0.12-0.28-0.040-0.44z"></path>
<path fill="#444444" d="M13.96 10.76l-0.24 0.2c-0.040 0.040-0.080 0.040-0.12 0.12-0.080 0.2-0.16 0.52-0.28 0.52h-0.28l-0.080 0.040c-0.040 0.040-0.2 0.36-0.36 0.36h0.32c-0.4 0.8-0.84 0.84-1.4 1.040 0.040 0.040 0.080 0.16 0.12 0.24l1.24-0.84c0.12-0.24 0.32-0.4 0.32-0.4s0.040 0.040 0.12 0.12l0.28-0.2c0-0.32 0.36-0.68 0.36-0.68s0.040 0.040 0.080 0.080c0.080-0.2 0.12-0.36 0.2-0.56-0.040 0.040-0.080 0.080-0.12 0.16l-0.16-0.2z"></path>
<path fill="#444444" d="M9.4 13.24c0.16 0.16 0.32 0.36 0.36 0.56 0.12 0 0.24 0.040 0.36 0.040-0.080-0.6-0.72-1.080-0.84-1.16l-0.28-0.16-0.080 0.080c0.16 0.2 0.32 0.44 0.52 0.64 0 0.040 0 0-0.040 0z"></path>
<path fill="#444444" d="M12.88 12.48c0 0 0-0.040 0.040-0.040l-1.24 0.88c0 0 0 0 0 0.040l1.2-0.88z"></path>
<path fill="#444444" d="M13.36 12.12c0.040 0.040 0.080 0.12 0.12 0.16 0.040-0.080 0.12-0.16 0.16-0.2 0-0.040-0.040-0.080-0.040-0.12l-0.24 0.16z"></path>
<path fill="#444444" d="M13.6 11.96c0 0 0-0.040 0 0l-0.28 0.16c0 0 0 0 0 0l0.28-0.16z"></path>
<path fill="#444444" d="M13.36 12.12c0 0 0 0 0 0l-0.44 0.28c0 0 0 0.040-0.040 0.040l0.48-0.32z"></path>
</svg>
