<?xml version="1.0" encoding="utf-8"?>
<!-- Generated by IcoMoon.io -->
<!DOCTYPE svg PUBLIC "-//W3C//DTD SVG 1.1//EN" "http://www.w3.org/Graphics/SVG/1.1/DTD/svg11.dtd">
<svg version="1.1" xmlns="http://www.w3.org/2000/svg" xmlns:xlink="http://www.w3.org/1999/xlink" width="20" height="20" viewBox="0 0 20 20">
<path fill="#444444" d="M3 3.76c0.2 0 0.4 0.040 0.6 0.040 3.96 0 7.96 0 11.92 0 0.2 0 0.36 0 0.6 0 0 0.52 0 1 0 1.44 0 0.32 0.080 0.44 0.44 0.44 0.48-0.040 0.92 0 1.44 0 0 0.2 0.040 0.36 0.040 0.48 0 2.4 0 4.76 0 7.16 0 1.12-0.56 1.68-1.68 1.68-3.96 0-7.96 0-11.92 0-0.64 0-1.12-0.12-1.44-0.76 0-3.44 0-6.96 0-10.48zM3.92 4.72c0 3.16 0 6.28 0 9.4 3.76 0 7.52 0 11.28 0 0-3.16 0-6.28 0-9.4-3.76 0-7.52 0-11.28 0z"></path>
<path fill="#444444" d="M4.92 8.52c0 1.56 0 3.040 0 4.56 1.52 0 3.040 0 4.6 0 0-1.44 0-2.88 0-4.28 0-0.080-0.16-0.28-0.28-0.28-1.44 0-2.84 0-4.32 0zM4.92 7.44c3.12 0 6.2 0 9.28 0 0-0.28 0-0.52 0-0.76-3.12 0-6.16 0-9.28 0 0 0.24 0 0.48 0 0.76zM14.2 8.56c-1.24 0-2.4 0-3.64 0 0 0.28 0.040 0.52 0.040 0.76 1.24 0 2.4 0 3.6 0 0-0.28 0-0.52 0-0.76zM14.2 10.4c-1 0-2 0-2.96 0-0.72 0-0.8 0.080-0.6 0.8 1.16 0 2.36 0 3.56 0 0-0.24 0-0.48 0-0.8zM10.64 13.080c0.88 0 1.76 0 2.6 0 0.12-0.8 0.12-0.8-0.6-0.8-0.44 0-0.92 0-1.36 0-0.76 0-0.8 0.040-0.64 0.8z"></path>
<path fill="#444444" d="M4.92 8.52c1.48 0 2.88 0 4.28 0 0.080 0 0.28 0.16 0.28 0.28 0 1.4 0 2.84 0 4.28-1.56 0-3.040 0-4.6 0 0.040-1.52 0.040-3 0.040-4.56z"></path>
<path fill="#444444" d="M4.92 7.44c0-0.28 0-0.48 0-0.76 3.080 0 6.16 0 9.28 0 0 0.24 0 0.48 0 0.76-3.080 0-6.16 0-9.28 0z"></path>
<path fill="#444444" d="M14.2 8.56c0 0.24 0 0.48 0 0.76-1.2 0-2.36 0-3.6 0 0-0.24-0.040-0.48-0.040-0.76 1.24 0 2.4 0 3.64 0z"></path>
<path fill="#444444" d="M14.2 10.4c0 0.32 0 0.56 0 0.8-1.2 0-2.36 0-3.56 0-0.2-0.72-0.16-0.8 0.6-0.8 0.96 0 1.96 0 2.96 0z"></path>
<path fill="#444444" d="M10.64 13.080c-0.16-0.8-0.12-0.8 0.6-0.8 0.44 0 0.92 0 1.36 0 0.76 0 0.76 0 0.6 0.8-0.8 0-1.68 0-2.56 0z"></path>
</svg>
