<?xml version="1.0" encoding="utf-8"?>
<!-- Generated by IcoMoon.io -->
<!DOCTYPE svg PUBLIC "-//W3C//DTD SVG 1.1//EN" "http://www.w3.org/Graphics/SVG/1.1/DTD/svg11.dtd">
<svg version="1.1" xmlns="http://www.w3.org/2000/svg" xmlns:xlink="http://www.w3.org/1999/xlink" width="20" height="20" viewBox="0 0 20 20">
<path fill="#444444" d="M17.84 14.32l-1.16 0.6c-0.6 0.28-1.32 0.040-1.6-0.52l-3.76-7.44c-0.28-0.6-0.040-1.32 0.52-1.6l1.16-0.6c0.6-0.28 1.32-0.040 1.6 0.52l3.8 7.4c0.28 0.6 0.040 1.32-0.56 1.64z"></path>
<path fill="#444444" d="M6.4 4.36c0-0.2-0.16-0.36-0.36-0.36h-2.88c-0.2 0-0.36 0.16-0.36 0.36v10.040c0 0.24 0.16 0.4 0.36 0.4h2.84c0.2 0 0.36-0.16 0.36-0.36v-10.080zM5.6 5.2h-2v-0.8h2v0.8z"></path>
<path fill="#444444" d="M11.2 4.36c0-0.2-0.16-0.36-0.36-0.36h-2.84c-0.2 0-0.36 0.16-0.36 0.36v10.040c0 0.2 0.16 0.36 0.36 0.36h2.84c0.2 0 0.36-0.16 0.36-0.36v-10.040zM9.6 5.2h-1.6v-0.8h1.6v0.8z"></path>
</svg>
