<?xml version="1.0" encoding="utf-8"?>
<!-- Generated by IcoMoon.io -->
<!DOCTYPE svg PUBLIC "-//W3C//DTD SVG 1.1//EN" "http://www.w3.org/Graphics/SVG/1.1/DTD/svg11.dtd">
<svg version="1.1" xmlns="http://www.w3.org/2000/svg" xmlns:xlink="http://www.w3.org/1999/xlink" width="20" height="20" viewBox="0 0 20 20">
<path fill="#444444" d="M2 2.28v15.4h16v-15.4h-16zM13.56 15.52h-6.56v-0.72h2.2v-1.92l-2.72-0.92 0.24-0.72 2.52 0.84h2.080c0.76-0.52 1.24-1.4 1.24-2.4 0-0.76-0.28-1.48-0.8-2l-1.76 2.68 0.4 0.28-0.4 0.64-0.6-0.4-0.36 0.52-0.52-0.32 0.36-0.52-0.52-0.36-0.36 0.52-0.52-0.36 0.36-0.52-0.12-0.080 0.44-0.68 1.68 1.12-1.28-0.84 1.92-2.88 0.24 0.16 1.080-1.36-0.44-0.28 0.2-0.28 1.6 1.080-0.2 0.28-0.4-0.28-0.6 1.2c0.76 0.64 1.28 1.64 1.28 2.72 0 1.24-0.64 2.36-1.64 3l0.96 2.12h1v0.68z"></path>
</svg>
