<?xml version="1.0" encoding="utf-8"?>
<!-- Generated by IcoMoon.io -->
<!DOCTYPE svg PUBLIC "-//W3C//DTD SVG 1.1//EN" "http://www.w3.org/Graphics/SVG/1.1/DTD/svg11.dtd">
<svg version="1.1" xmlns="http://www.w3.org/2000/svg" xmlns:xlink="http://www.w3.org/1999/xlink" width="20" height="20" viewBox="0 0 20 20">
<path fill="#444444" d="M9.7 15.38c4.24-0.78 4.3-4.64 4.3-4.82v-2.26l-4.3-0.9v7.98z"></path>
<path fill="#444444" d="M9.92 0c-5.48 0-9.92 4.44-9.92 9.92s4.44 9.94 9.92 9.94c5.48 0 9.94-4.46 9.94-9.94s-4.46-9.92-9.94-9.92zM14.88 10.56c0 0.040-0.14 4.76-5.18 5.62-4.74-0.88-4.74-5.64-4.74-5.64v-3.26l4.74-1.020 4.3 0.94v-1.18l-4.3-0.92-4.74 1.1v-0.86l4.74-1.080 5.18 1.12v5.18z"></path>
</svg>
