<?xml version="1.0" encoding="utf-8"?>
<!-- Generated by IcoMoon.io -->
<!DOCTYPE svg PUBLIC "-//W3C//DTD SVG 1.1//EN" "http://www.w3.org/Graphics/SVG/1.1/DTD/svg11.dtd">
<svg version="1.1" xmlns="http://www.w3.org/2000/svg" xmlns:xlink="http://www.w3.org/1999/xlink" width="1264" height="304" viewBox="0 0 1264 304">
<svg id="icon-add" width="64" height="64" viewBox="0 0 64 64" x="0" y="0">
<path fill="#ffffff" d="M39.538 31.431c2.418 0 4.693 0 6.969 0 0 2.987 0 5.831 0 8.96 2.987 0 5.973 0 8.96 0 0 2.418 0 4.551 0 6.969-2.844 0-5.831 0-8.818 0 0 3.129 0 5.973 0 9.102-2.418 0-4.693 0-6.969 0 0-2.987 0-5.831 0-8.96-3.129 0-6.116 0-9.102 0 0-2.418 0-4.693 0-7.111 2.276 0 4.693 0 6.969 0 2.133 0 2.133 0 2.133-2.133-0.142-2.133-0.142-4.409-0.142-6.827z"></path>
<path fill="#ffffff" d="M27.022 45.511h-5.689v-9.244l-9.956 0.142v-25.031h27.022v17.067h2.844v-19.911h-32.711v28.444h1.422l11.378 11.52v0.142-0.284h5.689z"></path>
</svg>
<svg id="icon-comment" width="64" height="64" viewBox="0 0 64 64" x="80" y="0">
<path fill="#ffffff" d="M22.044 43.804c-0.711 0-1.422 0-2.133 0s-1.422 0-2.133 0c-2.702-0.142-4.693-2.133-4.693-4.978 0-6.116 0-12.373 0-18.489 0-3.271 1.991-5.262 5.262-5.262 8.249 0 16.356 0 24.604 0 1.849 0 3.84 0 5.689 0.142 2.418 0.142 4.409 2.276 4.409 4.693 0 6.4 0 12.8 0 19.2 0 2.56-1.991 4.693-4.409 4.693-3.84 0.142-7.68 0.142-11.52 0-1.849 0-3.129 0.427-4.409 1.849-2.276 2.702-4.836 5.12-7.253 7.538-0.569 0.711-1.422 0.853-2.133 0.569s-1.138-0.996-1.138-1.849c0-2.418 0-4.836 0-7.253-0.142-0.284-0.142-0.569-0.142-0.853zM26.596 29.298c0-1.28-1.138-2.418-2.418-2.418s-2.276 1.138-2.418 2.418c0 1.422 0.996 2.418 2.276 2.418 1.422 0 2.56-0.996 2.56-2.418zM42.951 31.716c1.28 0 2.276-1.138 2.418-2.418 0-1.28-1.138-2.418-2.418-2.418s-2.418 1.138-2.418 2.418c0 1.422 1.138 2.418 2.418 2.418zM35.84 29.298c0-1.422-0.996-2.418-2.276-2.418s-2.418 1.138-2.418 2.418c0 1.28 1.138 2.418 2.418 2.418s2.276-0.996 2.276-2.418z"></path>
</svg>
<svg id="icon-continuity" width="0.05em" height="0.21em" viewBox="0 0 64 64" x="160" y="0">
<path fill="#ffffff" d="M32.384 0.768c-17.472 0-31.616 14.144-31.616 31.616s14.144 31.616 31.616 31.616 31.616-14.144 31.616-31.616-14.144-31.616-31.616-31.616zM15.744 23.488h6.144v-1.728c0-2.496 1.6-4.48 3.712-4.48h13.632c2.048 0 3.712 1.984 3.712 4.48v1.728h4.8v6.592c0 1.984-1.536 3.648-3.392 3.648h-25.152c-1.92 0-3.456-1.6-3.456-3.648v-6.592zM48.384 45.568h-33.472v-13.056c0.832 1.536 2.432 2.624 4.288 2.624h25.088c1.728 0 3.264-0.96 4.16-2.432l-0.064 12.864z"></path>
<path fill="#ffffff" d="M40 21.76c0-0.96-0.512-1.6-0.832-1.6h-13.568c-0.256 0-0.832 0.576-0.832 1.6v1.728h15.232v-1.728z"></path>
</svg>
<svg id="icon-continuity-box" width="0.05em" height="0.21em" viewBox="0 0 64 64" x="240" y="0">
<path fill="#ffffff" d="M38.656 20.48h-12.032c-0.256 0-1.024 1.152-1.024 1.92v1.92h14.080v-1.92c0-0.768-0.768-1.92-1.024-1.92z"></path>
<path fill="#ffffff" d="M6.4 6.4v51.2h51.2v-51.2h-51.2zM17.92 24.32h5.12v-1.92c0-2.176 1.792-4.48 3.584-4.48h12.032c1.792 0 3.584 2.304 3.584 4.48v1.92h3.84v5.504c0 1.792-1.152 3.456-2.944 3.456h-22.144c-1.664 0-3.072-1.664-3.072-3.456v-5.504zM47.36 43.52h-30.72v-11.52c1.28 1.408 2.688 2.56 4.352 2.56h22.144c1.536 0 2.944-1.152 4.224-2.432v11.392z"></path>
<path fill="#ffffff" d="M39.424 22.4c0-0.896-0.512-1.408-0.768-1.408h-12.032c-0.256 0-0.768 0.512-0.768 1.408v1.536h13.44v-1.536z"></path>
</svg>
<svg id="icon-continuity-circle" width="64" height="64" viewBox="0 0 64 64" x="320" y="0">
<path fill="#ffffff" d="M32 59.648c-14.848 0-26.88-12.032-26.88-26.88s12.032-26.88 26.88-26.88c14.848 0 26.88 12.032 26.88 26.88s-12.032 26.88-26.88 26.88zM32 10.496c-12.288 0-22.272 9.984-22.272 22.272s9.984 22.144 22.272 22.144c12.288 0 22.272-9.984 22.272-22.272s-9.984-22.144-22.272-22.144z"></path>
<path fill="#ffffff" d="M22.272 32.512h19.456c1.408 0 2.688-1.28 2.688-2.816v-5.12h-3.712v-1.28c0-1.92-1.28-3.456-2.816-3.456h-10.624c-1.664 0-2.816 1.536-2.816 3.456v1.28h-4.736v5.12c-0.128 1.536 1.152 2.816 2.56 2.816zM26.624 23.168c0-0.768 0.384-1.28 0.64-1.28h10.624c0.256 0 0.64 0.512 0.64 1.28v1.28h-11.776v-1.28z"></path>
<path fill="#ffffff" d="M41.728 33.664h-19.456c-1.408 0-2.688-0.768-3.328-2.048v10.112h25.984v-9.984c-0.64 1.152-1.792 1.92-3.2 1.92z"></path>
</svg>
<svg id="icon-delete" width="64" height="64" viewBox="0 0 64 64" x="400" y="0">
<path fill="#ffffff" d="M33.564 51.911c-0.142 0-0.427 0-0.569 0-0.853-0.142-1.707-0.284-2.56-0.284-12.516-1.849-20.196-15.36-15.218-27.164 3.129-7.538 10.667-12.373 18.631-12.231 8.533 0.284 15.502 5.404 18.347 13.369 0.569 1.564 0.711 3.129 1.138 4.693 0 1.138 0 2.276 0 3.556 0 0.284-0.142 0.569-0.142 0.853-1.28 7.822-5.547 13.227-12.942 15.929-2.133 0.711-4.551 0.853-6.684 1.28zM33.422 47.787c8.818 0.284 15.929-7.538 15.929-15.787 0-8.107-6.827-16.071-16.071-16.071-8.391 0-15.644 7.396-15.787 15.787 0 9.102 7.822 16.498 15.929 16.071z"></path>
<path fill="#ffffff" d="M22.756 29.44c7.111 0 13.938 0 20.907 0 0 1.849 0 3.698 0 5.689-6.684 0-13.511 0-20.764 0z"></path>
</svg>
<svg id="icon-discuss" width="64" height="64" viewBox="0 0 64 64" x="480" y="0">
<path fill="#ffffff" d="M56.448 10.24h-27.52c-1.536 0-3.328 0.256-3.328 1.792v17.28c0 1.536 1.792 3.968 3.328 3.968h14.848l7.424 9.216v-9.216h5.248c1.536 0 3.712-2.432 3.712-3.968v-17.28c0-1.536-2.176-1.792-3.712-1.792z"></path>
<path fill="#ffffff" d="M24.32 29.312v-11.392h-12.928c-1.536 0-2.432 2.816-2.432 4.352v17.28c0 1.536 0.896 5.248 2.432 5.248h3.968v7.424l11.008-7.424h12.672c1.536 0 3.328-3.712 3.328-5.248v-3.712h-13.44c-3.2 0-4.608-3.328-4.608-6.528z"></path>
</svg>
<svg id="icon-edit" width="64" height="64" viewBox="0 0 64 64" x="560" y="0">
<path fill="#ffffff" d="M15.929 19.911c3.413 0 6.969 0 10.524 0 0 1.849 0 3.413 0 5.262-1.707 0-3.271 0-5.12 0 0 7.111 0 13.938 0 21.049 6.827 0 13.796 0 21.049 0 0-2.56 0-5.12 0-7.68 1.849 0 3.413 0 5.262 0 0 4.267 0 8.533 0 13.084-10.524 0-21.049 0-31.573 0-0.142-10.524-0.142-21.191-0.142-31.716z"></path>
<path fill="#ffffff" d="M42.524 17.209l-15.36 18.062 0.284 7.396h7.111l15.076-17.778z"></path>
<path fill="#ffffff" d="M44.516 14.649l7.396 6.969 2.702-2.844-7.538-7.253z"></path>
</svg>
<svg id="icon-health" width="64" height="64" viewBox="0 0 64 64" x="640" y="0">
<path fill="#ffffff" d="M31.936 0.768c-17.28 0-31.296 14.016-31.296 31.296s14.016 31.296 31.296 31.296c17.28 0 31.296-14.016 31.296-31.296s-14.016-31.296-31.296-31.296zM48.192 38.080c-3.648 0-7.296 0-10.944 0 0 3.648 0 7.232 0 10.88-3.968 0-7.872 0-11.84 0 0-3.648 0-7.232 0-10.88-3.584 0-7.168 0-10.752 0 0-3.968 0-7.936 0-11.84 3.584 0 7.168 0 10.752 0 0-3.584 0-7.232 0-10.816 3.968 0 7.936 0 11.84 0 0 3.584 0 7.232 0 10.816 3.648 0 7.296 0 10.944 0 0 3.904 0 7.872 0 11.84z"></path>
</svg>
<svg id="icon-health-box" width="64" height="64" viewBox="0 0 64 64" x="720" y="0">
<path fill="#ffffff" d="M5.888 6.784v50.432h52.352v-50.432h-52.352zM47.36 37.248c-3.2 0-6.528 0-9.728 0 0 3.2 0 6.528 0 9.728-3.584 0-7.040 0-10.624 0 0-3.2 0-6.528 0-9.728-3.2 0-6.4 0-9.6 0 0-3.584 0-7.040 0-10.624 3.2 0 6.4 0 9.6 0 0-3.2 0-6.4 0-9.728 3.584 0 7.040 0 10.624 0 0 3.2 0 6.4 0 9.728 3.2 0 6.528 0 9.728 0 0 3.584 0 7.168 0 10.624z"></path>
</svg>
<svg id="icon-health-circle" width="64" height="64" viewBox="0 0 64 64" x="800" y="0">
<path fill="#ffffff" d="M36.48 44.928c0-2.816 0-5.632 0-8.576 2.816 0 5.76 0 8.576 0 0-3.072 0-6.272 0-9.344-2.816 0-5.76 0-8.576 0 0-2.816 0-5.632 0-8.448-3.072 0-6.144 0-9.344 0 0 2.816 0 5.632 0 8.448-2.816 0-5.632 0-8.448 0 0 3.072 0 6.144 0 9.344 2.816 0 5.632 0 8.448 0 0 2.816 0 5.76 0 8.576 3.2 0 6.272 0 9.344 0z"></path>
<path fill="#ffffff" d="M32 58.88c-14.848 0-26.88-12.032-26.88-26.88s12.032-26.88 26.88-26.88 26.88 12.032 26.88 26.88-12.032 26.88-26.88 26.88zM32 9.728c-12.288 0-22.272 9.984-22.272 22.272s9.984 22.272 22.272 22.272 22.272-9.984 22.272-22.272-9.984-22.272-22.272-22.272z"></path>
</svg>
<svg id="icon-humanitarian" width="64" height="64" viewBox="0 0 64 64" x="880" y="0">
<path fill="#ffffff" d="M30.72 30.4h-6.656c0.256 1.536 1.088 3.008 2.304 6.016h4.352v-6.016z"></path>
<path fill="#ffffff" d="M39.744 30.4h-7.488v6.016h5.184c1.28-3.008 2.048-4.48 2.304-6.016z"></path>
<path fill="#ffffff" d="M30.72 18.368v-4.288c-1.536 1.024-2.688 2.752-4.096 4.288h4.096z"></path>
<path fill="#ffffff" d="M39.808 26.368c-0.192-1.92-0.704-3.52-1.472-6.528h-6.080v9.024h7.616c0-1.472 0-2.048-0.064-2.496z"></path>
<path fill="#ffffff" d="M36.16 37.952h-3.904v4.544c1.472-1.344 3.008-1.536 3.904-4.544z"></path>
<path fill="#ffffff" d="M37.44 39.936l0.64 0.768c0.064 0.064 0.192 0.384 0.384 0.64 0.704-0.896 1.664-1.472 1.92-1.664l1.088-0.64 0.064-0.32c0.064-0.192 0.192-0.768 0.256-0.768h-3.2c-0.32 0-0.704 1.408-1.152 1.984z"></path>
<path fill="#ffffff" d="M32.256 14.080v4.288h4.928c-1.408-1.536-3.456-3.264-4.928-4.288z"></path>
<path fill="#ffffff" d="M41.856 26.176c0.064 0.512 0.064 1.216 0.064 2.752h5.184c-0.128-4.544-0.704-6.016-1.792-9.024h-4.736c0.704 2.944 1.152 4.416 1.28 6.272z"></path>
<path fill="#ffffff" d="M43.968 18.368c-2.112-1.536-5.184-4.8-8.704-5.568 1.408 1.344 3.072 4.096 4.352 5.568h4.352z"></path>
<path fill="#ffffff" d="M44.224 35.84l0.384 0.384c0.32-0.832 0.832-1.216 1.28-1.728 0.576-1.408 1.024-2.624 1.152-4.16h-5.184c-0.256 1.536-0.96 3.008-2.048 6.016h3.776l0.64-0.512z"></path>
<path fill="#ffffff" d="M21.952 26.176c0.192-1.856 0.64-3.264 1.28-6.272h-4.736c-1.024 3.008-1.664 4.544-1.792 9.024h5.184c0-1.536 0-2.304 0.064-2.752z"></path>
<path fill="#ffffff" d="M28.544 12.8c-3.52 0.768-6.592 4.032-8.704 5.568h4.352c1.344-1.536 3.008-4.288 4.352-5.568z"></path>
<path fill="#ffffff" d="M30.72 37.952h-3.072c0.896 3.008 1.536 3.2 3.072 4.544v-4.544z"></path>
<path fill="#ffffff" d="M35.264 0.192c-20.224-1.984-37.12 14.848-35.136 35.072 1.472 14.976 13.568 27.072 28.544 28.544 20.224 1.984 37.12-14.848 35.136-35.072-1.472-14.976-13.568-27.072-28.544-28.544zM54.336 39.936c-0.192 0.32-1.024 1.472-2.24 2.176l0.192 0.192-0.832 1.152c-0.256 0.384-1.6 2.176-3.456 2.688l0.512 0.64-1.024 1.024c-0.192 0.192-1.792 1.792-3.712 2.112l0.64 1.088-1.152 0.768c-0.256 0.192-2.496 1.664-4.672 1.664-1.088 0-2.048-0.384-2.752-1.024l-0.128 0.32-1.344-0.192c-0.768-0.128-1.536-0.256-2.432-0.448-0.832 0.192-1.664 0.32-2.432 0.448l-1.344 0.192v-0.384c-0.704 0.64-1.664 1.024-2.752 1.024-2.24 0-4.48-1.472-4.672-1.664l-1.152-0.768 0.704-1.088c-1.92-0.32-3.52-1.92-3.712-2.112l-1.152-1.024 0.576-0.64c-1.856-0.512-3.136-2.304-3.456-2.688l-0.832-1.152 0.192-0.192c-1.216-0.704-2.048-1.856-2.24-2.176l-0.768-1.152 1.088-0.896c0.064-0.064 0.192-0.128 0.384-0.256-0.128-0.128-0.256-0.256-0.384-0.384-1.344-1.792-0.576-4.544-0.448-5.12l0.32-1.152 1.216 0.064c0.512 0 2.624 0.256 4.032 1.408-0.704-2.944-0.832-6.080 0.384-9.6 2.432-6.592 8.448-11.52 15.488-11.904 9.984-0.512 18.24 7.424 18.24 17.28 0 1.536-0.256 3.008-0.576 4.416 1.344-1.408 3.712-1.6 4.288-1.6l1.216-0.064 0.32 1.152c0.192 0.576 0.896 3.328-0.448 5.12-0.128 0.128-0.256 0.256-0.384 0.384 0.192 0.128 0.32 0.192 0.384 0.256l1.088 0.896-0.768 1.216z"></path>
<path fill="#ffffff" d="M49.536 36.16c-0.128 0.256-0.256 0.448-0.448 0.64-0.256-0.768-0.832-1.408-1.216-1.792-0.192-0.192-0.32-0.32-0.32-0.32s-2.176 1.984-1.408 3.52c0.192 0.384 0.576 0.768 1.28 1.024-0.384 0.512-0.832 1.024-1.28 1.472-0.064-0.576-0.32-1.152-0.704-1.664-0.512-0.704-1.088-1.216-1.088-1.216s-2.368 2.24-1.472 3.776c0.192 0.384 0.64 0.704 1.28 1.024-0.512 0.448-1.024 0.896-1.536 1.28 0-0.576-0.256-1.216-0.512-1.728-0.384-0.704-0.832-1.216-0.832-1.216s-2.24 1.472-2.304 3.072c0 0.576 0.256 1.152 1.024 1.664-0.512 0.256-0.96 0.576-1.472 0.832 0.256-0.704 0.128-1.536-0.192-2.24-0.256-0.768-0.704-1.408-1.024-1.856l-0.384-0.512-1.216 0.96c-0.704 0.64-1.408 1.536-1.664 2.496-0.192 0.832 0.064 1.728 1.28 2.56-1.152 0.448-2.24 0.768-3.392 1.024-1.088-0.256-2.24-0.64-3.328-1.024 1.216-0.768 1.472-1.664 1.28-2.56s-0.896-1.792-1.6-2.432c-0.704-0.64-1.28-1.024-1.28-1.024s-0.192 0.192-0.384 0.512c-0.32 0.448-0.704 1.088-1.024 1.856-0.256 0.704-0.384 1.536-0.128 2.176-0.512-0.256-0.96-0.512-1.472-0.832 0.704-0.512 1.024-1.088 1.024-1.6 0-1.6-2.304-3.136-2.304-3.136s-0.512 0.576-0.896 1.344c-0.256 0.512-0.448 1.088-0.448 1.664-0.512-0.384-1.024-0.832-1.536-1.28 0.64-0.256 1.024-0.576 1.216-0.896 1.024-1.6-1.408-3.904-1.408-3.904s-0.704 0.576-1.216 1.28c-0.32 0.448-0.576 1.024-0.64 1.536-0.448-0.448-0.832-0.96-1.28-1.472 0.64-0.256 1.024-0.576 1.216-0.896 0.96-1.472-1.344-3.648-1.344-3.648s-0.192 0.192-0.448 0.448c-0.384 0.384-0.896 1.024-1.152 1.664-0.128-0.192-0.256-0.384-0.448-0.64 1.664-3.328-3.456-3.584-3.456-3.584s-1.344 4.48 1.792 4.48c0.128 0 0.32 0 0.448 0 0.192 0.256 0.384 0.576 0.576 0.832-1.344 0-2.944 1.216-2.944 1.216s1.408 2.048 2.944 2.048c0.576 0 1.152-0.256 1.664-1.024 0.32 0.384 0.64 0.768 0.96 1.152-1.344 0.256-2.688 1.28-2.688 1.28s1.472 2.176 3.136 2.176c0.64 0 1.216-0.32 1.792-1.152 0.512 0.448 0.96 0.832 1.472 1.28-1.408 0.384-2.688 1.856-2.688 1.856s1.664 1.664 3.2 1.664c0.768 0 1.536-0.448 2.048-1.664 0.512 0.32 1.024 0.64 1.536 0.896-1.6 0.832-2.816 2.88-2.816 2.88s1.984 1.408 3.84 1.408c1.216 0 2.304-0.576 2.752-2.56 0.256 0.128 0.576 0.256 0.896 0.32l0.32 1.408c0.896-0.128 1.728-0.32 2.624-0.512 0.896 0.256 1.792 0.384 2.624 0.512l0.32-1.408c0.32-0.128 0.64-0.192 0.896-0.32 0.384 1.984 1.536 2.56 2.688 2.56 1.792 0 3.84-1.408 3.84-1.408s-1.216-2.048-2.816-2.88c0.512-0.256 1.024-0.576 1.536-0.896 0.512 1.216 1.28 1.664 2.048 1.664 1.6 0 3.2-1.664 3.2-1.664s-1.28-1.408-2.688-1.856c0.512-0.384 1.024-0.832 1.472-1.28 0.576 0.832 1.216 1.152 1.792 1.152 1.6 0 3.136-2.176 3.136-2.176s-1.344-1.088-2.688-1.28c0.32-0.384 0.64-0.768 0.96-1.152 0.512 0.704 1.088 1.024 1.664 1.024 1.536 0 2.944-2.048 2.944-2.048s-1.6-1.216-2.944-1.216c0.192-0.256 0.384-0.576 0.576-0.832 0.192 0 0.32 0 0.448 0 3.136 0 1.792-4.48 1.792-4.48s-4.672 0.256-3.008 3.648z"></path>
<path fill="#ffffff" d="M30.72 19.84h-5.248c-0.704 3.008-1.28 4.608-1.472 6.528-0.064 0.384-0.064 1.024-0.064 2.496h6.784v-9.024z"></path>
<path fill="#ffffff" d="M22.464 38.72v0l1.152 0.832c0.256 0.192 1.216 0.896 1.92 1.792 0.192-0.256 0.32-0.32 0.384-0.448l0.512-0.96c-0.448-0.576-0.832 0.896-1.216-2.112h-3.072c0.128 0.128 0.192 0.768 0.32 0.896z"></path>
<path fill="#ffffff" d="M16.768 30.4c0.128 1.536 0.512 2.432 1.024 3.712 0.448 0.448 1.216 1.024 1.6 2.112l0.384-0.384 0.64 0.512h3.584c-1.152-3.008-1.856-4.544-2.112-6.016h-5.12z"></path>
</svg>
<svg id="icon-humanitarian-box" width="64" height="64" viewBox="0 0 64 64" x="960" y="0">
<path fill="#ffffff" d="M39.296 29.44h-6.016v5.12h4.096c1.024-2.56 1.664-3.84 1.92-5.12z"></path>
<path fill="#ffffff" d="M39.296 25.984c-0.128-1.664-0.64-2.944-1.28-5.504h-4.736v7.68h6.144c0-1.28 0-1.792-0.128-2.176z"></path>
<path fill="#ffffff" d="M32 29.44h-6.016c0.256 1.28 0.896 2.56 1.92 5.12h4.096v-5.12z"></path>
<path fill="#ffffff" d="M36.224 35.84h-2.944v4.992c1.28-1.152 2.176-2.432 2.944-4.992z"></path>
<path fill="#ffffff" d="M41.088 25.856c0 0.384 0.128 1.024 0.128 2.304h4.352c-0.128-3.84-0.64-5.12-1.536-7.68h-3.968c0.512 2.56 0.896 3.84 1.024 5.376z"></path>
<path fill="#ffffff" d="M37.376 38.016l0.512 1.152c0 0 0.128 0.256 0.384 0.512 0.64-0.768 1.408-1.28 1.664-1.536l0.896-0.64v-0.512c0.128-0.128 0.128-1.152 0.256-1.152h-2.688c-0.384 0-0.64 1.792-1.024 2.176z"></path>
<path fill="#ffffff" d="M43.136 34.432l0.384 0.768c0.256-0.768 0.768-1.28 1.024-1.664 0.512-1.152 0.896-2.816 1.024-4.096h-4.48c-0.256 1.28-0.768 2.56-1.792 5.12h3.2l0.64-0.128z"></path>
<path fill="#ffffff" d="M42.88 19.2c-1.792-1.28-4.48-4.096-7.424-4.736 1.152 1.152 2.56 3.456 3.712 4.736h3.712z"></path>
<path fill="#ffffff" d="M33.28 16.64v2.56h3.84c-1.152-1.28-2.56-1.664-3.84-2.56z"></path>
<path fill="#ffffff" d="M32 20.48h-4.736c-0.64 2.56-1.152 3.84-1.28 5.504 0 0.384 0 0.896 0 2.176h6.016v-7.68z"></path>
<path fill="#ffffff" d="M49.024 36.096c2.688 0 1.536-3.84 1.536-3.84s-4.352 0.256-2.944 3.072c-0.128 0.128-0.256 0.384-0.384 0.512-0.256-0.64-0.768-1.152-1.024-1.536-0.128-0.128-0.256-0.256-0.256-0.256s-1.92 1.792-1.28 3.072c0.128 0.384 0.512 0.64 1.152 0.896-0.384 0.384-0.768 0.896-1.152 1.28 0-0.512-0.256-1.024-0.64-1.408-0.384-0.64-0.896-1.024-0.896-1.024s-2.048 1.92-1.28 3.2c0.128 0.384 0.512 0.64 1.152 0.896-0.384 0.384-0.896 0.768-1.28 1.152 0-0.512-0.256-1.024-0.384-1.408-0.384-0.64-0.768-1.024-0.768-1.024s-1.92 1.28-1.92 2.56c0 0.512 0.256 1.024 0.896 1.408-0.384 0.256-0.768 0.512-1.28 0.64 0.256-0.64 0.128-1.28-0.128-1.92s-0.64-1.152-0.896-1.536l-0.256-0.384-1.152 0.64c-0.512 0.512-1.152 1.28-1.408 2.048-0.128 0.768 0.128 1.536 1.152 2.176-1.024 0.384-1.92 0.64-2.816 0.896-0.896-0.256-1.92-0.512-2.816-0.896 1.024-0.64 1.28-1.408 1.152-2.176s-0.768-1.536-1.28-2.048c-0.512-0.512-1.152-0.896-1.152-0.896s-0.128 0.128-0.384 0.512c-0.256 0.384-0.64 0.896-0.896 1.536s-0.384 1.28-0.128 1.92c-0.384-0.256-0.896-0.512-1.28-0.64 0.64-0.384 0.896-0.896 0.896-1.408 0-1.408-1.92-2.688-1.92-2.688s-0.384 0.512-0.768 1.152c-0.256 0.384-0.384 0.896-0.384 1.408-0.384-0.384-0.896-0.768-1.28-1.152 0.512-0.256 0.896-0.512 1.024-0.768 0.896-1.28-1.152-3.328-1.152-3.328s-0.512 0.512-1.024 1.152c-0.256 0.384-0.512 0.896-0.512 1.28-0.384-0.384-0.768-0.896-1.152-1.28 0.512-0.256 0.896-0.512 1.024-0.768 0.768-1.28-1.152-3.072-1.152-3.072s-0.256 0.256-0.384 0.512c-0.384 0.384-0.768 0.896-0.896 1.408-0.128-0.128-0.256-0.384-0.384-0.512 1.408-2.816-2.944-3.072-2.944-3.072s-1.152 3.84 1.536 3.84c0.128 0 0.256 0 0.384 0 0.128 0.256 0.384 0.512 0.512 0.768-1.152 0-2.56 1.024-2.56 1.024s1.152 1.792 2.56 1.792c0.512 0 0.896-0.256 1.408-0.896 0.256 0.384 0.512 0.64 0.768 1.024-1.152 0.128-2.304 1.152-2.304 1.152s1.28 1.792 2.688 1.792c0.512 0 1.024-0.256 1.536-1.024 0.384 0.384 0.896 0.768 1.28 1.024-1.152 0.384-2.304 1.536-2.304 1.536s1.408 1.408 2.688 1.408c0.64 0 1.28-0.384 1.792-1.408 0.512 0.256 0.896 0.512 1.28 0.768-1.408 0.768-2.432 2.432-2.432 2.432s1.664 1.152 3.2 1.152c1.024 0 1.92-0.512 2.304-2.176 0.256 0.128 0.512 0.128 0.768 0.256l0.256 1.152c0.768-0.128 1.536-0.256 2.304-0.512 0.768 0.128 1.536 0.384 2.304 0.512l0.256-1.152c0.256-0.128 0.512-0.128 0.768-0.256 0.384 1.664 1.28 2.176 2.304 2.176 1.536 0 3.2-1.152 3.2-1.152s-1.024-1.792-2.432-2.432c0.384-0.256 0.896-0.512 1.28-0.768 0.384 1.024 1.024 1.408 1.792 1.408 1.28 0 2.688-1.408 2.688-1.408s-1.152-1.152-2.304-1.536c0.384-0.384 0.896-0.768 1.28-1.024 0.512 0.768 1.024 1.024 1.536 1.024 1.408 0 2.688-1.792 2.688-1.792s-1.152-0.896-2.304-1.152c0.256-0.256 0.512-0.64 0.896-1.024 0.384 0.64 0.896 0.896 1.408 0.896 1.28 0 2.56-1.792 2.56-1.792s-1.28-1.024-2.56-1.024c0.128-0.256 0.384-0.512 0.512-0.768 0.256-0.128 0.384-0.128 0.512-0.128z"></path>
<path fill="#ffffff" d="M24.192 25.856c0.128-1.536 0.512-2.816 1.024-5.376h-3.968c-0.896 2.56-1.408 3.84-1.536 7.68h4.352c0-1.28 0.128-1.92 0.128-2.304z"></path>
<path fill="#ffffff" d="M6.4 6.4v51.2h52.48v-51.2h-52.48zM51.712 38.656c-0.128 0.256-0.896 1.28-1.92 1.792l0.128 0.128-0.64 1.024c-0.256 0.384-1.408 1.92-2.944 2.304l0.512 0.512-0.896 0.896c-0.128 0.128-1.536 1.536-3.2 1.792l0.512 0.896-0.896 0.64c-0.256 0.128-2.048 1.408-3.968 1.408-0.896 0-1.792-0.256-2.304-0.896l-0.128 0.256-1.152-0.128c-0.64-0.128-1.28-0.256-2.048-0.384-0.768 0.128-1.408 0.256-2.048 0.384l-1.152 0.128-0.128-0.256c-0.64 0.512-1.408 0.896-2.304 0.896-1.92 0-3.84-1.28-3.968-1.408l-1.024-0.64 0.512-0.896c-1.664-0.256-2.944-1.664-3.2-1.792l-0.896-0.896 0.512-0.512c-1.536-0.384-2.688-1.92-2.944-2.304l-0.64-1.024 0.128-0.128c-1.024-0.64-1.792-1.536-1.92-1.792l-0.64-1.024 0.896-0.768c0.128 0 0.128-0.128 0.256-0.256-0.128-0.128-0.256-0.256-0.256-0.384-1.152-1.536-0.512-3.84-0.384-4.352l0.256-1.024h1.024c0.384 0 2.304 0.128 3.456 1.152-0.256-1.152-0.512-2.304-0.512-3.584 0-8.064 6.528-14.72 14.72-14.72 8.192 0.256 14.848 6.784 14.848 14.976 0 1.28-0.128 2.56-0.512 3.712 1.152-1.152 3.2-1.28 3.584-1.408h1.024l0.256 1.024c0.128 0.512 0.768 2.816-0.384 4.352-0.128 0.128-0.128 0.256-0.256 0.384 0.128 0.128 0.256 0.128 0.256 0.256l0.896 0.768-0.512 0.896z"></path>
<path fill="#ffffff" d="M32 40.832v-4.992h-2.944c0.768 2.56 1.664 3.84 2.944 4.992z"></path>
<path fill="#ffffff" d="M29.824 14.464c-2.944 0.64-5.632 3.456-7.424 4.736h3.712c1.152-1.28 2.56-3.584 3.712-4.736z"></path>
<path fill="#ffffff" d="M24.704 37.632l0.896 0.64c0.256 0.128 1.024 0.64 1.664 1.536 0.128-0.256 0.256-0.384 0.384-0.512l0.512-1.152c-0.384-0.512-0.768 0.256-1.024-2.304h-2.56c0.128 0 0.128 1.024 0.256 1.152l-0.128 0.64z"></path>
<path fill="#ffffff" d="M19.84 29.44c0.128 1.28 0.384 2.432 0.896 3.584 0.384 0.384 1.024 1.28 1.408 2.176l0.384-0.64 0.512-0.128h3.072c-0.896-2.56-1.536-3.84-1.792-5.12h-4.48z"></path>
<path fill="#ffffff" d="M32 16.64c-1.28 0.896-2.56 1.28-3.84 2.56h3.84v-2.56z"></path>
</svg>
<svg id="icon-humanitarian-circle" width="64" height="64" viewBox="0 0 64 64" x="1040" y="0">
<path fill="#ffffff" d="M32.896 60.288c-14.848 0-26.88-12.032-26.88-26.88s12.032-26.88 26.88-26.88c14.848 0 26.88 12.032 26.88 26.88s-12.032 26.88-26.88 26.88zM32.896 11.136c-12.288 0-22.272 9.984-22.272 22.272s9.984 22.272 22.272 22.272c12.288 0 22.272-9.984 22.272-22.272s-9.984-22.272-22.272-22.272z"></path>
<path fill="#ffffff" d="M42.368 38.4c0 0-0.64 0.64-1.024 1.28l1.408-0.896c-0.256-0.256-0.384-0.384-0.384-0.384z"></path>
<path fill="#ffffff" d="M20.48 34.944l0.512-0.512 0.768 0.64c0 0 0.128 0.64 0.128 0.768-0.384-1.024-0.64-2.688-0.768-2.688h3.968c0.128 1.28 0.768 2.56 1.536 3.84h-2.816l0.256 0.128c0.128 0.128 0.64 1.152 1.024 1.152h2.304c0.256 0 0.64 1.28 0.896 1.664l0.256-0.128 0.896 0.64c0.384 0.256 2.56 1.792 2.688 3.712 0.128 0 0.256 0 0.384 0s0.384 0 0.512 0c0.256-1.92 2.304-3.456 2.688-3.712l0.896-0.512 0.128-0.128c0.256-0.384 0.64-1.664 0.896-1.664h2.432c0.384 0 0.896-1.024 1.152-1.152l0.256-0.128h-2.944c0.896-1.28 1.408-2.56 1.536-3.84h3.968c-0.128 1.28-0.384 1.792-0.896 2.944 0.128-0.256 0.384-0.64 0.384-0.768l0.768-0.896 0.512 0.384c0.128-0.128 0.256-0.384 0.384-0.512 0.256-1.152 0.512-2.304 0.512-3.456 0-7.296-6.016-13.312-13.312-13.312s-13.312 6.016-13.312 13.312c0 1.152 0.128 2.176 0.384 3.2 0.64 0.512 0.896 0.768 1.024 1.024zM43.136 25.6c0.768 1.28 1.28 3.84 1.408 6.4h-3.968c0-2.56 0-1.408 0-1.792-0.128-1.408-0.512-4.608-1.024-4.608h3.584zM42.112 24.32h-3.328c-1.024-2.56-2.304-3.328-3.328-4.352 2.688 0.64 4.992 1.792 6.656 4.352zM33.28 20.224c1.28 0.768 2.56 1.536 3.584 4.096h-3.584v-4.096zM33.28 25.6h4.48c0.512 0 1.024 3.2 1.152 4.736 0 0.384 0 1.664 0 1.664h-5.632v-6.4zM33.28 33.28h5.504c-0.256 1.28-0.768 2.56-1.792 3.84h-3.712v-3.84zM33.28 38.4h2.816c-0.64 2.56-1.536 2.56-2.816 3.584v-3.584zM32 41.984c0-1.024-1.792-1.024-2.432-3.584h2.432v3.584zM32 37.12h-3.456c-1.024-1.28-1.536-2.56-1.792-3.84h5.248v3.84zM32 32h-5.248c0 0 0-1.408 0-1.664 0.128-1.536 0.64-4.736 1.152-4.736h4.096v6.4zM32 20.224v4.096h-3.2c1.024-2.56 3.2-3.328 3.2-4.096zM30.208 19.968c-1.024 1.024-2.304 1.792-3.328 4.352h-3.328c1.664-2.56 3.968-3.712 6.656-4.352zM22.528 25.6h3.584c-0.512 0-0.896 3.2-1.024 4.608 0 0.384 0-0.768 0 1.792h-3.968c0.128-2.56 0.512-5.12 1.408-6.4z"></path>
<path fill="#ffffff" d="M34.432 44.544l-1.024 0.768c0 0 0 0.128 0 0.128l1.024-0.768c0 0 0 0 0-0.128z"></path>
<path fill="#ffffff" d="M43.648 40.704c0.384-0.384 0.64-0.768 1.024-1.152-0.512-0.256-0.896-0.512-1.024-0.768-0.128 0.256-0.384 0.512-0.512 0.64 0.256 0.384 0.512 0.768 0.512 1.28z"></path>
<path fill="#ffffff" d="M40.96 43.136c0.384-0.256 0.768-0.64 1.152-1.024-0.512-0.256-0.768-0.512-1.024-0.768-0.128 0.128-0.384 0.256-0.64 0.384 0.384 0.512 0.512 0.896 0.512 1.408z"></path>
<path fill="#ffffff" d="M37.888 45.184c0.384-0.256 0.768-0.384 1.152-0.64-0.64-0.384-0.768-0.896-0.768-1.28-0.128 0.128-0.256 0.128-0.512 0.256 0.256 0.384 0.256 1.024 0.128 1.664z"></path>
<path fill="#ffffff" d="M46.336 37.12c-0.128-0.256-0.256-0.512-0.256-0.768l-0.512 0.384c0.128 0.256 0.384 0.512 0.512 0.768 0 0 0.128-0.128 0.256-0.384z"></path>
<path fill="#ffffff" d="M43.52 35.584c-0.384 0.384-0.768 0.896-1.024 1.536l-0.256-0.256-0.512 0.512h0.896c0.384-0.512 0.64-1.152 0.896-1.792z"></path>
<path fill="#ffffff" d="M32.256 45.696c0.128-0.384 0.256-0.768 0.256-1.024 0-0.128 0-0.128 0-0.256-0.384 0-0.768 0-1.152-0.128 0.128 0.64-0.128 1.408-1.024 1.92 0.384 0.128 0.768 0.256 1.152 0.384l1.28-0.896c-0.128 0-0.384 0-0.512 0z"></path>
<path fill="#ffffff" d="M21.12 39.424c0.384 0.384 0.64 0.768 1.024 1.152 0-0.384 0.256-0.768 0.512-1.152-0.128-0.256-0.384-0.384-0.512-0.64-0.256 0.256-0.64 0.512-1.024 0.64z"></path>
<path fill="#ffffff" d="M35.456 46.208c-0.64-0.512-1.024-1.024-1.024-1.536l-1.024 0.768c0 0 0 0.128 0 0.128-0.128 0-0.384 0.128-0.512 0.128l-1.28 0.896c0.384 0.128 0.768 0.256 1.152 0.384 0.896-0.128 1.792-0.384 2.688-0.768z"></path>
<path fill="#ffffff" d="M23.552 42.112c0.384 0.384 0.768 0.64 1.152 1.024 0-0.384 0.128-0.896 0.384-1.28-0.256-0.128-0.384-0.256-0.64-0.384-0.128 0.256-0.384 0.512-0.896 0.64z"></path>
<path fill="#ffffff" d="M46.080 36.352c0 0.128 0 0.128 0 0z"></path>
<path fill="#ffffff" d="M46.080 36.48c0 0 0 0 0 0l-0.64 0.384c0 0 0 0 0 0l0.64-0.384z"></path>
<path fill="#ffffff" d="M32.896 45.824c0 0-0.128 0-0.128 0l-1.28 0.896c0.128 0 0.128 0 0.256 0l1.152-0.896c0 0 0 0 0 0z"></path>
<path fill="#ffffff" d="M35.712 42.368c0.512-0.512 0.896-0.768 0.896-0.768s0.128-0.128 0.256 0.128c1.664-0.64 3.2-0.768 4.48-3.328h-1.024c-0.128 0-0.128 0.512-0.256 0.64v0.128l-0.896 0.64c-0.256 0.128-0.896 0.64-1.536 1.408-0.128-0.256-0.256-0.256-0.256-0.384l-0.256-0.512c-0.512 0.768-1.024 1.408-1.664 2.176 0 0 0.128-0.128 0.256-0.128z"></path>
<path fill="#ffffff" d="M33.408 45.312l1.024-0.768c0-0.128 0-0.256 0-0.384-0.384 0-0.768 0.128-1.152 0.128 0 0.128 0 0.128 0 0.256 0 0.256 0 0.512 0.128 0.768z"></path>
<path fill="#ffffff" d="M23.168 37.12c-0.256-0.896-0.896-1.536-1.152-1.792 0.256 0.768 0.64 1.408 1.024 2.048h1.024l-0.512-0.512-0.384 0.256z"></path>
<path fill="#ffffff" d="M27.776 49.28c-1.408 0-2.944-1.024-2.944-1.024s0.896-1.536 2.176-2.176c-0.384-0.256-0.768-0.512-1.152-0.64-0.384 1.024-1.024 1.28-1.536 1.28-1.152 0-2.432-1.28-2.432-1.28s1.024-1.152 2.048-1.408c-0.384-0.256-0.768-0.64-1.152-1.024-0.384 0.64-0.896 0.896-1.408 0.896-1.28 0-2.432-1.664-2.432-1.664s1.024-0.768 2.048-1.024c-0.256-0.256-0.512-0.512-0.768-0.896-0.384 0.512-0.896 0.768-1.28 0.768-1.152 0-2.304-1.536-2.304-1.536s1.152-0.896 2.304-0.896c-0.128-0.256-0.256-0.384-0.384-0.64-0.128 0-0.256 0-0.384 0-2.432 0-1.408-3.456-1.408-3.456s3.968 0.256 2.688 2.816c0.128 0.128 0.256 0.384 0.384 0.512 0.128-0.512 0.512-1.024 0.896-1.28-0.256-0.64-0.512-1.28-0.64-2.048-1.024-0.896-2.688-1.024-3.072-1.152h-0.896l-0.256 0.896c-0.128 0.384-0.64 2.56 0.384 3.968 0.128 0.128 0.128 0.256 0.256 0.256-0.128 0.128-0.256 0.128-0.256 0.256l-0.896 0.64 0.64 0.896c0.128 0.256 0.768 1.152 1.792 1.664l-0.128 0.128 0.64 0.896c0.256 0.256 1.28 1.664 2.688 2.048l-0.384 0.512 0.768 0.768c0.128 0.128 1.408 1.408 2.816 1.664l-0.512 0.896 0.896 0.64c0.128 0.128 1.92 1.28 3.584 1.28 0.896 0 1.536-0.256 2.176-0.768l0.128 0.256 1.024-0.128c0.64-0.128 1.152-0.256 1.92-0.384 0.64 0.128 1.28 0.256 1.92 0.384l0.512-0.256 0.128-0.256c0.512 0.512 1.28 0.768 2.176 0.768 1.664 0 3.456-1.152 3.584-1.28l0.896-0.64-0.512-0.896c1.408-0.256 2.688-1.408 2.816-1.664l0.768-0.768-0.512-0.384c1.408-0.384 2.432-1.792 2.688-2.048l0.64-0.896-0.128-0.128c0.896-0.512 1.536-1.408 1.792-1.664l0.64-0.896-0.896-0.64c0 0-0.128-0.128-0.256-0.256 0.128-0.128 0.256-0.256 0.256-0.256 1.024-1.408 0.512-3.456 0.384-3.968l-0.256-0.896h-0.896c-0.384 0-2.176 0.128-3.328 1.28-0.128 0.64-0.384 1.28-0.64 1.792 0.128 0.128 0.256 0.384 0.512 0.512l0.512-0.384c-0.256-1.92 2.944-2.048 2.944-2.048s1.024 3.456-1.408 3.456c-0.128 0-0.256 0-0.384 0-0.128 0.256-0.256 0.384-0.384 0.64 1.024 0 2.304 0.896 2.304 0.896s-1.28 1.664-2.432 1.664c-0.384 0-0.896-0.256-1.28-0.768-0.256 0.256-0.512 0.64-0.768 0.896 1.024 0.128 2.048 1.024 2.048 1.024s-1.152 1.664-2.432 1.664c-0.512 0-0.896-0.256-1.408-0.896-0.384 0.384-0.768 0.64-1.152 1.024 1.024 0.256 2.048 1.408 2.048 1.408s-1.28 1.28-2.432 1.28c-0.64 0-1.152-0.384-1.536-1.28-0.384 0.256-0.768 0.512-1.152 0.64 1.28 0.64 2.176 2.176 2.176 2.176s-1.536 1.024-2.944 1.024c-0.896 0-1.792-0.512-2.048-1.92-0.256 0.128-0.512 0.128-0.64 0.256l-0.384 1.152c-0.64-0.128-1.408-0.256-2.048-0.384-0.64 0.128-1.408 0.256-2.048 0.384l-0.256-1.024z"></path>
<path fill="#ffffff" d="M26.752 44.544c0.384 0.256 0.768 0.384 1.152 0.64-0.256-0.512-0.128-1.152 0.128-1.664-0.128 0-0.256-0.128-0.384-0.128-0.128 0.256-0.256 0.768-0.896 1.152z"></path>
<path fill="#ffffff" d="M30.080 42.368c0 0 0.128 0 0.128 0-0.64-0.64-1.152-1.408-1.664-2.048l-0.384 0.512c0 0-0.128 0.128-0.256 0.384-0.512-0.768-1.28-1.152-1.536-1.28l-0.768-0.64v-0.256c-0.128-0.128-0.128-0.64-0.256-0.64h-1.152c1.28 2.56 2.816 2.688 4.608 3.328 0.128-0.256 0.256-0.256 0.256-0.256s0.512 0.512 1.024 0.896z"></path>
<path fill="#ffffff" d="M20.992 35.968c0 0 1.792 1.664 1.024 2.816 0.128 0.256 0.384 0.512 0.512 0.64 0.384-0.64 0.896-1.024 0.896-1.024s1.92 1.792 1.152 2.944c0.128 0.128 0.384 0.256 0.64 0.384 0.256-0.64 0.64-1.024 0.64-1.024s1.792 1.152 1.792 2.432c0.128 0 0.256 0.128 0.384 0.128 0.256-0.512 0.512-1.408 0.768-1.664-1.792-0.64-3.328-0.768-4.608-3.328h1.152c-0.384 0-0.896-1.024-1.024-1.152h-1.408c-0.384 0-0.768-1.152-1.024-1.92-0.128-0.128-0.128-0.128-0.128-0.128l-0.768-0.64-0.512 0.512c-0.128-0.256-0.384-0.384-0.512-0.64 0.128 0.64 0.384 1.408 0.64 2.048 0.256-0.256 0.384-0.384 0.384-0.384z"></path>
<path fill="#ffffff" d="M43.52 38.144c0 0 0 0.128 0 0z"></path>
<path fill="#ffffff" d="M37.12 40.32l-0.128-0.256-0.896 0.512c-0.384 0.256-2.56 1.792-2.688 3.712 0.384 0 0.768 0 1.152-0.128z"></path>
<path fill="#ffffff" d="M41.216 39.936l-3.84 2.688c0.128 0.256 0.256 0.512 0.384 0.768 0.128 0 0.256-0.128 0.512-0.256 0-1.152 1.792-2.304 1.792-2.304s0.384 0.384 0.64 0.896c0.256-0.128 0.384-0.256 0.64-0.384-0.384-0.384-0.384-0.896-0.128-1.408z"></path>
<path fill="#ffffff" d="M44.672 34.432l-0.768 0.64c-0.128 0.128-0.256 0.128-0.384 0.384-0.256 0.64-0.512 1.664-0.896 1.664h-0.896l-0.256 0.128c-0.128 0.128-0.64 1.152-1.152 1.152h1.024c-1.28 2.56-2.688 2.688-4.48 3.328 0.128 0.128 0.256 0.512 0.384 0.768l3.968-2.688c0.384-0.768 1.024-1.28 1.024-1.28s0.128 0.128 0.384 0.384l0.896-0.64c0-1.024 1.152-2.176 1.152-2.176s0.128 0.128 0.256 0.256c0.256-0.64 0.384-1.152 0.64-1.792-0.128 0.128-0.256 0.256-0.384 0.512l-0.512-0.64z"></path>
<path fill="#ffffff" d="M30.080 42.368c0.512 0.512 1.024 1.152 1.152 1.792 0.384 0 0.768 0.128 1.152 0.128-0.256-1.92-2.304-3.456-2.688-3.712l-0.896-0.512-0.256 0.256c0.512 0.64 1.024 1.408 1.664 2.048 0 0.128 0 0-0.128 0z"></path>
<path fill="#ffffff" d="M41.216 39.936c0 0 0-0.128 0.128-0.128l-3.968 2.816c0 0 0 0 0 0.128l3.84-2.816z"></path>
<path fill="#ffffff" d="M42.752 38.784c0.128 0.128 0.256 0.384 0.384 0.512 0.128-0.256 0.384-0.512 0.512-0.64 0-0.128-0.128-0.256-0.128-0.384l-0.768 0.512z"></path>
<path fill="#ffffff" d="M43.52 38.272c0 0 0-0.128 0 0l-0.896 0.512c0 0 0 0 0 0l0.896-0.512z"></path>
<path fill="#ffffff" d="M42.752 38.784c0 0 0 0 0 0l-1.408 0.896c0 0 0 0.128-0.128 0.128l1.536-1.024z"></path>
</svg>
<svg id="icon-like" width="64" height="64" viewBox="0 0 64 64" x="1120" y="0">
<path fill="#ffffff" d="M11.662 29.867c0.427-0.996 1.28-1.28 2.418-1.28 2.276 0 4.551 0 6.827 0 1.28 0 1.991 0.711 1.991 1.991 0 5.547 0 11.093 0 16.64 0 1.138-0.569 1.849-1.849 1.849-2.56 0-4.978 0.142-7.538 0-0.569 0-1.138-0.711-1.849-1.138 0-5.973 0-12.089 0-18.062zM18.489 43.947c0-0.853-0.711-1.707-1.707-1.707s-1.707 0.853-1.707 1.707c0 0.996 0.711 1.707 1.707 1.707 0.996 0.142 1.707-0.711 1.707-1.707z"></path>
<path fill="#ffffff" d="M41.956 25.173c2.418 0 4.693 0 6.969 0s4.124 0.711 5.12 2.844c0.996 1.991 0.711 3.982-0.427 5.831-0.142 0.284-0.284 0.853-0.142 1.28 0.284 1.564 0.142 3.129-0.711 4.551-0.142 0.284-0.284 0.711-0.142 0.996 0.284 1.707-0.142 3.271-1.138 4.693-0.284 0.284-0.427 0.853-0.427 1.138-0.142 3.84-2.276 5.973-6.116 6.258-4.978 0.284-9.671-0.427-14.222-2.133-1.422-0.569-2.987-0.853-4.409-1.28-1.138-0.284-1.564-0.853-1.564-2.133 0-3.556 0-7.253 0-10.809 0-1.849 0-3.698 0-5.404 0-1.422 0.284-1.707 1.564-2.133 0.569-0.142 1.138-0.569 1.564-0.996 1.564-1.849 2.987-3.698 4.551-5.404 1.849-1.849 2.987-4.124 3.129-6.684 0 0 0 0 0-0.142 0.711-2.987 1.849-3.982 3.413-3.84 2.844 0.284 4.693 1.849 5.12 4.409 0.427 2.702 0 5.262-1.422 7.68-0.284 0.142-0.427 0.569-0.711 1.28z"></path>
</svg>
<svg id="icon-mail" width="64" height="64" viewBox="0 0 64 64" x="1200" y="0">
<path fill="#ffffff" d="M54.187 47.076h-42.098v-31.858h42.098v31.858zM15.787 43.378h34.702v-24.462h-34.702v24.462z"></path>
<path fill="#ffffff" d="M33.138 33.422l-20.196-14.791 2.133-2.987 18.062 13.227 18.204-13.227 2.133 2.987z"></path>
</svg>
<svg id="icon-media" width="64" height="64" viewBox="0 0 64 64" x="0" y="80">
<path fill="#ffffff" d="M42.24 42.24h-26.88v-18.176l6.528-7.424h-9.344l-3.584 5.248v25.472h42.24v-23.040h-8.96z"></path>
<path fill="#ffffff" d="M29.568 24.32l6.656-7.68h-9.344l-6.144 7.68z"></path>
<path fill="#ffffff" d="M43.776 24.32l6.656-7.68h-9.216l-6.528 7.68z"></path>
</svg>
<svg id="icon-news" width="64" height="64" viewBox="0 0 64 64" x="80" y="80">
<path fill="#ffffff" d="M9.6 12.032c0.64 0 1.28 0.128 1.92 0.128 12.672 0 25.472 0 38.144 0 0.64 0 1.152 0 1.92 0 0 1.664 0 3.2 0 4.608 0 1.024 0.256 1.408 1.408 1.408 1.536-0.128 2.944 0 4.608 0 0 0.64 0.128 1.152 0.128 1.536 0 7.68 0 15.232 0 22.912 0 3.584-1.792 5.376-5.376 5.376-12.672 0-25.472 0-38.144 0-2.048 0-3.584-0.384-4.608-2.432 0-11.008 0-22.272 0-33.536zM12.544 15.104c0 10.112 0 20.096 0 30.080 12.032 0 24.064 0 36.096 0 0-10.112 0-20.096 0-30.080-12.032 0-24.064 0-36.096 0z"></path>
<path fill="#ffffff" d="M15.744 27.264c0 4.992 0 9.728 0 14.592 4.864 0 9.728 0 14.72 0 0-4.608 0-9.216 0-13.696 0-0.256-0.512-0.896-0.896-0.896-4.608 0-9.088 0-13.824 0zM15.744 23.808c9.984 0 19.84 0 29.696 0 0-0.896 0-1.664 0-2.432-9.984 0-19.712 0-29.696 0 0 0.768 0 1.536 0 2.432zM45.44 27.392c-3.968 0-7.68 0-11.648 0 0 0.896 0.128 1.664 0.128 2.432 3.968 0 7.68 0 11.52 0 0-0.896 0-1.664 0-2.432zM45.44 33.28c-3.2 0-6.4 0-9.472 0-2.304 0-2.56 0.256-1.92 2.56 3.712 0 7.552 0 11.392 0 0-0.768 0-1.536 0-2.56zM34.048 41.856c2.816 0 5.632 0 8.32 0 0.384-2.56 0.384-2.56-1.92-2.56-1.408 0-2.944 0-4.352 0-2.432 0-2.56 0.128-2.048 2.56z"></path>
<path fill="#ffffff" d="M15.744 27.264c4.736 0 9.216 0 13.696 0 0.256 0 0.896 0.512 0.896 0.896 0 4.48 0 9.088 0 13.696-4.992 0-9.728 0-14.72 0 0.128-4.864 0.128-9.6 0.128-14.592z"></path>
<path fill="#ffffff" d="M15.744 23.808c0-0.896 0-1.536 0-2.432 9.856 0 19.712 0 29.696 0 0 0.768 0 1.536 0 2.432-9.856 0-19.712 0-29.696 0z"></path>
<path fill="#ffffff" d="M45.44 27.392c0 0.768 0 1.536 0 2.432-3.84 0-7.552 0-11.52 0 0-0.768-0.128-1.536-0.128-2.432 3.968 0 7.68 0 11.648 0z"></path>
<path fill="#ffffff" d="M45.44 33.28c0 1.024 0 1.792 0 2.56-3.84 0-7.552 0-11.392 0-0.64-2.304-0.512-2.56 1.92-2.56 3.072 0 6.272 0 9.472 0z"></path>
<path fill="#ffffff" d="M34.048 41.856c-0.512-2.56-0.384-2.56 1.92-2.56 1.408 0 2.944 0 4.352 0 2.432 0 2.432 0 1.92 2.56-2.56 0-5.376 0-8.192 0z"></path>
</svg>
<svg id="icon-practice" width="64" height="64" viewBox="0 0 64 64" x="160" y="80">
<path fill="#ffffff" d="M31.232 4.608c-14.592 0-26.496 11.904-26.496 26.496s11.904 26.496 26.496 26.496c14.592 0 26.496-11.904 26.496-26.496s-11.904-26.496-26.496-26.496zM12.16 45.312l19.072-35.712 19.072 35.584h-38.144z"></path>
</svg>
<svg id="icon-practice-box" width="64" height="64" viewBox="0 0 64 64" x="240" y="80">
<path fill="#ffffff" d="M6.4 6.4v51.2h51.2v-51.2h-51.2zM32 48.384c-8.448 0-15.232-6.784-15.232-15.232 0-8.32 6.784-15.232 15.232-15.232s15.232 6.784 15.232 15.232c0 8.448-6.784 15.232-15.232 15.232z"></path>
<path fill="#ffffff" d="M21.12 40.96h21.76l-10.88-20.48z"></path>
</svg>
<svg id="icon-practice-circle" width="64" height="64" viewBox="0 0 64 64" x="320" y="80">
<path fill="#ffffff" d="M32 4.864c-14.848 0-26.88 12.032-26.88 26.88s12.032 26.88 26.88 26.88 26.88-12.032 26.88-26.88-12.032-26.88-26.88-26.88zM32 54.016c-7.808 0-14.72-4.096-18.688-10.112h36.608l-18.304-34.304-18.304 34.176c-2.304-3.456-3.584-7.552-3.584-12.032 0-12.288 9.984-22.272 22.272-22.272s22.272 9.984 22.272 22.272-9.984 22.272-22.272 22.272z"></path>
</svg>
<svg id="icon-reply" width="64" height="64" viewBox="0 0 64 64" x="400" y="80">
<path fill="#ffffff" d="M56.32 48.924c-2.418-3.84-5.262-7.111-9.102-9.387-4.978-3.129-10.382-4.267-16.356-3.698 0 2.276 0 4.409 0 6.542 0 1.138 0.142 2.276-0.996 2.987-1.138 0.569-1.849-0.427-2.702-0.996-6.116-4.409-12.231-8.96-18.347-13.369-0.569-0.427-0.853-0.853-1.28-1.422 0-0.284 0-0.569 0-0.853 0.427-0.569 0.996-1.138 1.564-1.422 6.258-4.551 12.373-9.102 18.631-13.653 0.142-0.142 0.427-0.284 0.569-0.427 1.28-0.853 2.276-0.427 2.56 1.138 0.142 1.138 0.142 2.133 0.142 3.271s0 2.133 0 3.271c2.133 0.427 4.267 0.569 6.258 1.28 10.098 3.271 15.929 10.382 18.489 20.48 0.284 1.138 0.427 2.418 0.711 3.698-0.142 0.711-0.142 1.707-0.142 2.56z"></path>
</svg>
<svg id="icon-report" width="64" height="64" viewBox="0 0 64 64" x="480" y="80">
<path fill="#ffffff" d="M60.018 50.489c-0.853 1.707-2.418 2.276-4.267 2.276-15.076 0-30.009 0-45.084 0-1.849 0-3.413-0.569-4.267-2.276 0-0.427 0-0.996 0-1.422 0.427-0.853 0.853-1.564 1.28-2.418 7.253-12.231 14.507-24.604 21.902-36.836 0.711-1.138 1.849-1.849 2.702-2.844 0.427 0 0.996 0 1.422 0 0.853 0.711 1.849 1.138 2.276 1.991 7.964 13.369 15.929 26.738 23.893 39.964 0.142 0.569 0.142 0.996 0.142 1.564zM33.28 14.649c-6.684 10.951-13.227 21.76-19.911 32.711 13.369 0 26.311 0 39.68 0-6.684-10.951-13.227-21.76-19.769-32.711z"></path>
<path fill="#ffffff" d="M36.693 27.164c-0.142 2.702-0.427 5.404-0.569 8.107-0.142 1.707-1.422 2.987-2.987 2.844-1.564 0-2.702-1.28-2.844-2.844-0.284-3.271-0.427-6.542-0.711-9.813-0.142-2.276 1.422-3.982 3.556-3.982s3.698 1.707 3.556 3.982c0 0.711 0 1.28 0 1.707 0 0 0 0 0 0z"></path>
<path fill="#ffffff" d="M33.138 45.369c-1.707 0-2.844-1.28-2.844-2.844 0-1.707 1.28-2.844 2.987-2.844s2.987 1.28 2.987 2.987c-0.142 1.564-1.422 2.702-3.129 2.702z"></path>
</svg>
<svg id="icon-research" width="64" height="64" viewBox="0 0 64 64" x="560" y="80">
<path fill="#ffffff" d="M57.088 45.824l-3.712 1.92c-1.92 0.896-4.224 0.128-5.12-1.664l-12.032-23.808c-0.896-1.92-0.128-4.224 1.664-5.12l3.712-1.92c1.92-0.896 4.224-0.128 5.12 1.664l12.16 23.68c0.896 1.92 0.128 4.224-1.792 5.248z"></path>
<path fill="#ffffff" d="M20.48 13.952c0-0.64-0.512-1.152-1.152-1.152h-9.216c-0.64 0-1.152 0.512-1.152 1.152v32.128c0 0.768 0.512 1.28 1.152 1.28h9.088c0.64 0 1.152-0.512 1.152-1.152v-32.256zM17.92 16.64h-6.4v-2.56h6.4v2.56z"></path>
<path fill="#ffffff" d="M35.84 13.952c0-0.64-0.512-1.152-1.152-1.152h-9.088c-0.64 0-1.152 0.512-1.152 1.152v32.128c0 0.64 0.512 1.152 1.152 1.152h9.088c0.64 0 1.152-0.512 1.152-1.152v-32.128zM30.72 16.64h-5.12v-2.56h5.12v2.56z"></path>
</svg>
<svg id="icon-response" width="64" height="64" viewBox="0 0 64 64" x="640" y="80">
<path fill="#ffffff" d="M32.32 2.112c-17.088 0-30.912 13.888-30.912 30.976s13.824 30.912 30.912 30.912c17.088 0 30.912-13.824 30.912-30.912s-13.824-30.976-30.912-30.976zM10.112 49.664l22.208-41.6 22.208 41.6h-44.416z"></path>
</svg>
<svg id="icon-science" width="64" height="64" viewBox="0 0 64 64" x="720" y="80">
<path fill="#ffffff" d="M32 0c-17.664 0-32 14.336-32 32s14.336 32 32 32c17.664 0 32-14.336 32-32s-14.336-32-32-32zM44.608 51.648h-25.408v-2.752h8.448v-7.552l-10.624-3.584 0.96-2.752 9.728 3.264h8.128c2.944-2.048 4.8-5.44 4.8-9.28 0-3.008-1.152-5.696-3.072-7.744l-6.72 10.176 1.6 1.088-1.728 2.56-2.432-1.6-1.408 2.112-1.984-1.344 1.408-2.112-2.048-1.344-1.408 2.112-2.048-1.408 1.408-2.112-0.448-0.256 1.728-2.56 6.528 4.352-4.928-3.264 7.488-11.264 0.96 0.64 4.16-5.184-1.664-1.152 0.704-1.088 6.208 4.16-0.704 1.088-1.6-1.088-2.368 4.672c3.008 2.56 4.928 6.336 4.928 10.624 0 4.864-2.496 9.152-6.336 11.648l3.712 8.256h3.968v2.688z"></path>
</svg>
<svg id="icon-science-box" width="64" height="64" viewBox="0 0 64 64" x="800" y="80">
<path fill="#ffffff" d="M6.4 7.296v49.28h51.2v-49.28h-51.2zM43.392 49.664h-20.992v-2.304h7.040v-6.144l-8.704-2.944 0.768-2.304 8.064 2.688h6.656c2.432-1.664 3.968-4.48 3.968-7.68 0-2.432-0.896-4.736-2.56-6.4l-5.632 8.576 1.28 0.896-1.28 2.048-1.92-1.28-1.152 1.664-1.664-1.024 1.152-1.664-1.664-1.152-1.152 1.664-1.664-1.152 1.152-1.664-0.384-0.256 1.408-2.176 5.376 3.584-4.096-2.688 6.144-9.216 0.768 0.512 3.456-4.352-1.408-0.896 0.64-0.896 5.12 3.456-0.64 0.896-1.28-0.896-1.92 3.84c2.432 2.048 4.096 5.248 4.096 8.704 0 3.968-2.048 7.552-5.248 9.6l3.072 6.784h3.2v2.176z"></path>
</svg>
<svg id="icon-science-circle" width="64" height="64" viewBox="0 0 64 64" x="880" y="80">
<path fill="#ffffff" d="M39.040 46.080l-2.816-6.272c2.944-1.92 4.864-5.248 4.864-8.96 0-3.328-1.408-6.144-3.84-8.192l1.792-3.584 1.28 0.768 0.512-0.768-4.736-3.2-0.512 0.768 1.28 0.896-3.2 3.968-0.768-0.512-5.76 8.704-1.152-0.768-1.28 1.92 0.384 0.256-1.024 1.664 1.536 1.024 1.024-1.664 1.536 1.152-1.024 1.664 1.536 1.024 1.024-1.664 1.792 1.28 1.28-1.92-1.28-0.768 5.12-7.808c1.408 1.536 2.304 3.712 2.304 5.888 0 2.944-1.408 5.504-3.712 7.168v0h-6.272l-7.424-2.56-0.768 2.176 8.192 2.688v5.632h-6.528v2.048h19.456v-2.048h-2.816z"></path>
<path fill="#ffffff" d="M32 59.008c-14.848 0-26.88-12.032-26.88-26.88s12.032-27.008 26.88-27.008c14.848 0 26.88 12.032 26.88 26.88 0 14.976-12.032 27.008-26.88 27.008zM32 9.856c-12.288 0-22.272 9.984-22.272 22.272s9.984 22.272 22.272 22.272c12.288 0 22.272-9.984 22.272-22.272s-9.984-22.272-22.272-22.272z"></path>
</svg>
<svg id="icon-search" width="64" height="64" viewBox="0 0 64 64" x="960" y="80">
<path fill="#ffffff" d="M50.688 46.592l-9.856-9.856c1.664-2.432 2.56-5.376 2.56-8.576 0-8.448-6.912-15.488-15.488-15.488s-15.36 7.040-15.36 15.488 6.912 15.488 15.488 15.488c3.456 0 6.528-1.152 9.088-2.944l9.856 9.856c0.512 0.512 1.28 0.768 1.92 0.768s1.408-0.256 1.92-0.768c0.896-1.152 0.896-2.944-0.128-3.968zM16.384 28.16c0-6.4 5.248-11.52 11.52-11.52 6.4 0 11.52 5.248 11.52 11.52s-5.248 11.52-11.52 11.52c-6.4 0.128-11.52-5.12-11.52-11.52z"></path>
</svg>
<svg id="icon-searchbox" width="64" height="64" viewBox="0 0 64 64" x="1040" y="80">
<path fill="#ffffff" d="M30.578 19.769c-4.409 0-7.964 3.556-7.964 7.822 0 4.409 3.556 7.964 7.964 7.964s7.964-3.556 7.964-7.964c-0.142-4.267-3.698-7.822-7.964-7.822z"></path>
<path fill="#ffffff" d="M9.956 7.111v48.356h46.933v-48.356h-46.933zM49.778 43.947c0 0.853 0 1.564 0 2.987-1.422 0-2.276 0-3.129 0-0.142 0-0.427 0-0.569 0-0.569-1.422-1.138-1.422-1.849-1.991-1.707-1.707-3.413-3.413-4.978-5.12-0.569-0.569-0.569-0.996-0.142-1.707-0.853-0.853-1.564-1.564-2.418-2.418-0.142 0.142-0.284 0.142-0.427 0.284-5.689 3.84-13.227 1.28-15.36-5.262-0.142-0.569-0.569-1.138-0.711-1.849 0-0.142-0.284-0.142-0.284-0.284 0-0.569 0-1.138 0-1.707 0-0.142 0.284-0.284 0.284-0.427 0.569-4.267 3.84-7.822 7.964-8.818 0.427-0.142 0.853-0.569 1.28-0.569 0.569 0 1.28 0 1.849 0 0.427 0 0.853 0.427 1.28 0.569 4.267 0.996 7.253 4.409 7.822 8.676 0.427 2.702-0.284 5.262-1.991 7.396-0.142 0.142-0.142 0.284-0.284 0.284 0.853 0.853 1.564 1.564 2.418 2.418 0.142 0 0.284-0.142 0.427-0.142 0.427-0.142 0.853 0 1.28 0.284 1.138 1.138 2.133 2.133 3.271 3.271s2.56 2.418 3.84 3.556c0 0 0.427 0.142 0.427 0.142 0 0.142 0 0.284 0 0.427z"></path>
</svg>
<svg id="icon-security" width="64" height="64" viewBox="0 0 64 64" x="1120" y="80">
<path fill="#ffffff" d="M31.040 49.216c13.568-2.496 13.76-14.848 13.76-15.424v-7.232l-13.76-2.88v25.536z"></path>
<path fill="#ffffff" d="M31.744 0c-17.536 0-31.744 14.208-31.744 31.744s14.208 31.808 31.744 31.808c17.536 0 31.808-14.272 31.808-31.808s-14.272-31.744-31.808-31.744zM47.616 33.792c0 0.128-0.448 15.232-16.576 17.984-15.168-2.816-15.168-18.048-15.168-18.048v-10.432l15.168-3.264 13.76 3.008v-3.776l-13.76-2.944-15.168 3.52v-2.752l15.168-3.456 16.576 3.584v16.576z"></path>
</svg>
<svg id="icon-security-box" width="64" height="64" viewBox="0 0 64 64" x="1200" y="80">
<path fill="#ffffff" d="M6.272 6.912v50.176h52.096v-50.176h-52.096zM44.8 34.432c0 0.128-0.384 12.032-13.056 14.208-12.032-2.176-12.032-14.208-12.032-14.208v-8.32l12.032-2.56 10.88 2.432v-2.944l-10.88-2.304-12.032 2.688v-2.176l12.032-2.688 13.056 2.688v13.184z"></path>
<path fill="#ffffff" d="M31.744 46.592c10.752-1.92 10.88-11.776 10.88-12.16v-5.76l-10.88-2.304v20.224z"></path>
</svg>
<svg id="icon-security-circle" width="64" height="64" viewBox="0 0 64 64" x="0" y="160">
<path fill="#ffffff" d="M31.872 58.88c-14.848 0-26.88-12.032-26.88-26.88s12.032-26.88 26.88-26.88c14.848 0 26.88 12.032 26.88 26.88s-12.032 26.88-26.88 26.88zM31.872 9.728c-12.288 0-22.144 9.984-22.144 22.272s9.984 22.272 22.272 22.272c12.288 0 22.272-9.984 22.272-22.272s-10.112-22.272-22.4-22.272z"></path>
<path fill="#ffffff" d="M31.36 47.488l-0.256-1.92c10.752-1.792 10.88-11.52 10.88-12.032v-11.264l-10.88-2.304 0.256-2.048 12.8 2.816v12.928c0 0-0.256 11.648-12.8 13.824z"></path>
<path fill="#ffffff" d="M19.584 33.536c0 0 0 11.776 11.776 13.952v-24.576l-11.776 2.56v8.064z"></path>
<path fill="#ffffff" d="M31.36 20.096v-2.176l-11.776 2.688v2.176z"></path>
<path fill="#ffffff" d="M31.36 22.912l12.416 2.816v2.688l-12.416-2.688z"></path>
</svg>
<svg id="icon-share" width="64" height="64" viewBox="0 0 64 64" x="80" y="160">
<path fill="#ffffff" d="M43.264 36.224c-2.432 0-4.48 1.024-6.016 2.56l-11.008-5.376c0.128-0.64 0.256-1.28 0.256-1.92s-0.128-1.28-0.256-1.792l10.496-5.12c1.536 1.92 3.84 3.2 6.528 3.2 4.608 0 8.32-3.712 8.32-8.32s-3.712-8.32-8.32-8.32-8.32 3.712-8.32 8.32c0 0.512 0 1.024 0.128 1.536l-10.624 5.248c-1.536-1.792-3.84-2.944-6.272-2.944-4.608 0-8.32 3.712-8.32 8.32s3.712 8.32 8.32 8.32c2.56 0 4.736-1.152 6.272-2.816l10.752 5.248c-0.256 0.768-0.256 1.408-0.256 2.176 0 4.608 3.712 8.32 8.32 8.32s8.32-3.712 8.32-8.32c0-4.608-3.712-8.32-8.32-8.32zM43.264 15.232c2.304 0 4.224 1.92 4.224 4.224s-1.92 4.224-4.224 4.224-4.224-1.92-4.224-4.224c0-2.304 1.92-4.224 4.224-4.224zM18.176 35.84c-2.304 0-4.224-1.92-4.224-4.224s1.92-4.224 4.224-4.224 4.224 1.92 4.224 4.224-1.92 4.224-4.224 4.224zM43.264 48.768c-2.304 0-4.224-1.92-4.224-4.224s1.92-4.224 4.224-4.224 4.224 1.92 4.224 4.224-1.92 4.224-4.224 4.224z"></path>
</svg>
<svg id="icon-tag" width="64" height="64" viewBox="0 0 64 64" x="160" y="160">
<path fill="#ffffff" d="M54.044 37.404v-9.244l-8.533-10.098v0.427h0.711l-0.711-0.853v0.853h-35.556v29.867h36.551l7.538-10.951zM41.529 32.711c0-1.849 1.564-3.413 3.413-3.413s3.413 1.564 3.413 3.413c0 1.849-1.564 3.413-3.413 3.413s-3.413-1.564-3.413-3.413z"></path>
</svg>
<svg id="icon-track" width="64" height="64" viewBox="0 0 64 64" x="240" y="160">
<path fill="#ffffff" d="M51.584 20.48h-7.296l1.536-6.912c0.384-1.536-0.64-2.816-2.176-3.072-1.536-0.384-3.072 0.256-3.328 1.792l-1.792 8.192h-9.216l1.536-6.912c0.384-1.536-0.64-2.816-2.176-3.072-1.536-0.384-3.072 0.256-3.328 1.792l-1.792 8.192h-8.32c-1.536 0-2.816 1.024-2.816 2.56s1.28 2.56 2.816 2.56h7.168l-2.048 11.52h-7.936c-1.536 0-2.816 1.024-2.816 2.56s1.28 2.56 2.816 2.56h6.784l-1.408 6.784c-0.384 1.536 0.64 3.072 2.176 3.456 0.256 0 0.384 0.128 0.64 0.128 1.28 0 2.432-1.024 2.816-2.304l1.664-7.936h9.216l-1.408 6.784c-0.384 1.536 0.64 3.072 2.176 3.456 0.256 0 0.384 0.128 0.64 0.128 1.28 0 2.432-1.024 2.816-2.304l1.664-7.936h8.96c1.536 0 2.816-1.024 2.816-2.56s-1.28-2.56-2.816-2.56h-7.68l2.048-11.52h8.448c1.536 0 2.816-1.024 2.816-2.56s-1.536-2.816-3.2-2.816zM35.328 37.12h-9.216l2.048-11.52h9.216l-2.048 11.52z"></path>
</svg>
<svg id="icon-upload" width="64" height="64" viewBox="0 0 64 64" x="320" y="160">
<path fill="#ffffff" d="M28.032 32h6.4v-12.8h8.832l-11.392-11.136-11.648 11.136h7.808z"></path>
<path fill="#ffffff" d="M36.992 25.344v4.352l13.824 5.376-19.328 7.168-19.2-7.168 13.184-5.248v-4.48l-17.152 6.4v11.904l24.448 8.704 24.704-8.704v-11.392z"></path>
</svg>
<svg id="icon-view" width="64" height="64" viewBox="0 0 64 64" x="400" y="160">
<path fill="#ffffff" d="M29.582 15.218c2.133 0 4.267 0 6.4 0 6.4 1.28 11.947 4.267 16.498 8.96 2.133 2.133 3.982 4.409 5.831 6.684 0 0.284 0 0.569 0 0.853-1.564 1.849-3.129 3.982-4.836 5.689-5.404 5.547-11.52 9.529-19.484 9.956-8.96 0.427-15.929-3.698-22.044-9.813-1.707-1.849-3.271-3.84-4.836-5.689 0-0.284 0-0.569 0-0.853 0.853-1.138 1.849-2.276 2.702-3.413 5.262-6.4 11.662-10.667 19.769-12.373zM42.382 31.147c0-5.262-4.409-9.529-9.813-9.529-5.262 0-9.529 4.409-9.387 9.671 0 5.262 4.409 9.671 9.813 9.529 5.12 0 9.387-4.409 9.387-9.671z"></path>
<path fill="#ffffff" d="M35.982 31.289c0 1.707-1.422 3.129-3.129 3.271-1.707 0-3.129-1.422-3.271-3.129 0-1.707 1.422-3.129 3.129-3.129 1.849-0.284 3.271 1.138 3.271 2.987z"></path>
</svg>
<svg id="icon-VIP" width="64" height="64" viewBox="0 0 64 64" x="480" y="160">
<path fill="#ffffff" d="M14.933 33.564c0-0.996 0-2.133 0-3.129 0-0.142 0.142-0.142 0.142-0.284 0-1.28 0.427-2.418 0.853-3.698 0.853-2.844 2.56-5.12 4.693-7.111 1.849-1.707 3.982-2.987 6.542-3.698 1.138-0.284 2.276-0.569 3.413-0.711 0.996 0 2.133 0 3.129 0 0.853 0.142 1.849 0.427 2.702 0.569 3.271 0.853 5.973 2.56 8.249 4.978 1.707 1.849 2.987 4.124 3.698 6.542 0.284 1.138 0.427 2.276 0.711 3.413 0 0.996 0 1.991 0 2.844 0 0.142-0.142 0.284-0.142 0.284 0 1.28-0.427 2.56-0.853 3.84-2.133 5.689-6.258 9.387-12.089 10.951-0.853 0.142-1.707 0.284-2.418 0.427-0.996 0-1.849 0-2.844 0-0.142 0-0.284-0.142-0.284-0.142-1.28 0-2.56-0.427-3.698-0.853-2.702-0.853-5.12-2.56-6.969-4.693-1.707-1.849-2.987-4.124-3.698-6.542-0.711-0.711-0.853-1.849-1.138-2.987zM45.227 32c0.142-7.253-5.973-13.369-13.227-13.369s-13.369 5.973-13.369 13.227c0 7.396 5.973 13.369 13.227 13.369 7.538 0 13.369-5.831 13.369-13.227z"></path>
<path fill="#ffffff" d="M30.578 37.973c-0.427 0-0.711-0.142-0.996-0.284-1.564-1.138-3.271-2.276-4.836-3.413-0.427-0.284-0.427-0.711-0.142-1.138 0.569-0.711 1.138-1.28 1.849-1.991 0.284-0.284 0.569-0.142 0.853 0 0.711 0.569 1.564 1.138 2.276 1.707 0.427 0.284 0.711 0.284 0.996-0.142 1.707-1.991 3.413-3.982 5.12-5.973 0.711-0.853 0.853-0.853 1.707-0.142 0.569 0.284 0.996 0.711 1.564 1.138s0.569 0.853 0.142 1.28c-1.707 1.991-3.413 3.982-5.262 5.973-0.853 0.853-1.564 1.849-2.418 2.702-0.142 0.142-0.427 0.427-0.853 0.284z"></path>
</svg>
<svg id="icon-division-01" width="64" height="64" viewBox="0 0 64 64" x="560" y="160">
<path fill="#ffffff" d="M31.936 0.768c-17.28 0-31.296 14.016-31.296 31.296s14.016 31.296 31.296 31.296c17.28 0 31.296-14.016 31.296-31.296s-14.016-31.296-31.296-31.296zM48.192 38.080c-3.648 0-7.296 0-10.944 0 0 3.648 0 7.232 0 10.88-3.968 0-7.872 0-11.84 0 0-3.648 0-7.232 0-10.88-3.584 0-7.168 0-10.752 0 0-3.968 0-7.936 0-11.84 3.584 0 7.168 0 10.752 0 0-3.584 0-7.232 0-10.816 3.968 0 7.936 0 11.84 0 0 3.584 0 7.232 0 10.816 3.648 0 7.296 0 10.944 0 0 3.904 0 7.872 0 11.84z"></path>
</svg>
<svg id="icon-division-02" width="64" height="64" viewBox="0 0 64 64" x="640" y="160">
<path fill="#ffffff" d="M32 0c-17.664 0-32 14.336-32 32s14.336 32 32 32c17.664 0 32-14.336 32-32s-14.336-32-32-32zM44.608 51.648h-25.408v-2.752h8.448v-7.552l-10.624-3.584 0.96-2.752 9.728 3.264h8.128c2.944-2.048 4.8-5.44 4.8-9.28 0-3.008-1.152-5.696-3.072-7.744l-6.72 10.176 1.6 1.088-1.728 2.56-2.432-1.6-1.408 2.112-1.984-1.344 1.408-2.112-2.048-1.344-1.408 2.112-2.048-1.408 1.408-2.112-0.448-0.256 1.728-2.56 6.528 4.352-4.928-3.264 7.488-11.264 0.96 0.64 4.16-5.184-1.664-1.152 0.704-1.088 6.208 4.16-0.704 1.088-1.6-1.088-2.368 4.672c3.008 2.56 4.928 6.336 4.928 10.624 0 4.864-2.496 9.152-6.336 11.648l3.712 8.256h3.968v2.688z"></path>
</svg>
<svg id="icon-division-03" width="64" height="64" viewBox="0 0 64 64" x="720" y="160">
<path fill="#ffffff" d="M32.32 2.112c-17.088 0-30.912 13.888-30.912 30.976s13.824 30.912 30.912 30.912c17.088 0 30.912-13.824 30.912-30.912s-13.824-30.976-30.912-30.976zM10.112 49.664l22.208-41.6 22.208 41.6h-44.416z"></path>
</svg>
<svg id="icon-division-04" width="64" height="64" viewBox="0 0 64 64" x="800" y="160">
<path fill="#ffffff" d="M31.040 49.216c13.568-2.496 13.76-14.848 13.76-15.424v-7.232l-13.76-2.88v25.536z"></path>
<path fill="#ffffff" d="M31.744 0c-17.536 0-31.744 14.208-31.744 31.744s14.208 31.808 31.744 31.808c17.536 0 31.808-14.272 31.808-31.808s-14.272-31.744-31.808-31.744zM47.616 33.792c0 0.128-0.448 15.232-16.576 17.984-15.168-2.816-15.168-18.048-15.168-18.048v-10.432l15.168-3.264 13.76 3.008v-3.776l-13.76-2.944-15.168 3.52v-2.752l15.168-3.456 16.576 3.584v16.576z"></path>
</svg>
<svg id="icon-division-05" width="64" height="64" viewBox="0 0 64 64" x="880" y="160">
<path fill="#ffffff" d="M30.72 30.080h-6.592c0.256 1.92 1.024 4.48 2.304 6.4h4.288v-6.4z"></path>
<path fill="#ffffff" d="M39.68 30.080h-7.040v6.4h4.736c1.28-1.92 2.048-4.48 2.304-6.4z"></path>
<path fill="#ffffff" d="M30.72 19.2v-4.736c-1.28 1.024-2.624 2.816-4.032 4.736h4.032z"></path>
<path fill="#ffffff" d="M39.744 26.624c-0.192-1.92-0.704-3.584-1.472-5.504h-5.632v7.040h7.168c0-0.64 0-1.152-0.064-1.536z"></path>
<path fill="#ffffff" d="M36.096 39.040h-3.456v3.584c1.28-1.28 2.56-2.304 3.456-3.584z"></path>
<path fill="#ffffff" d="M37.44 40.576l0.64 0.576c0.064 0.064 0.192 0.256 0.384 0.512 0.704-0.896 1.664-1.536 1.92-1.728l1.088-0.64 0.064 0.128c0.064-0.192 0.192-0.32 0.256-0.32h-3.2c-0.384-0.064-0.768 0.896-1.152 1.472z"></path>
<path fill="#ffffff" d="M32.64 14.464v4.736h4.48c-1.344-1.92-3.2-3.712-4.48-4.736z"></path>
<path fill="#ffffff" d="M41.792 26.432c0.064 0.512 0.064 1.088 0.064 1.728h5.12c-0.128-2.56-0.704-5.12-1.792-7.040h-4.672c0.704 1.92 1.152 3.456 1.28 5.312z"></path>
<path fill="#ffffff" d="M43.904 19.2c-2.112-2.56-5.184-4.736-8.704-5.504 1.408 1.344 3.008 3.584 4.352 5.504h4.352z"></path>
<path fill="#ffffff" d="M44.16 35.968l0.384 0.448c0.32-0.832 0.832-1.472 1.28-1.984 0.576-1.408 1.024-3.072 1.152-4.352h-5.184c-0.256 1.92-0.96 4.48-2.048 6.4h3.776l0.64-0.512z"></path>
<path fill="#ffffff" d="M22.016 26.432c0.192-1.856 0.64-3.392 1.28-5.312h-4.736c-1.024 1.92-1.664 4.48-1.792 7.040h5.12c0.064-0.64 0.064-1.28 0.128-1.728z"></path>
<path fill="#ffffff" d="M28.608 13.696c-3.52 0.768-6.528 2.944-8.64 5.504h4.352c1.28-1.92 2.944-4.224 4.288-5.504z"></path>
<path fill="#ffffff" d="M30.72 39.040h-3.008c0.896 1.28 1.728 2.304 3.008 3.584v-3.584z"></path>
<path fill="#ffffff" d="M32 0.512c-17.536 0-31.744 14.208-31.744 31.744s14.208 31.744 31.744 31.744c17.536 0 31.744-14.208 31.744-31.744s-14.208-31.744-31.744-31.744zM54.144 40.128c-0.192 0.32-1.024 1.408-2.24 2.112l0.192 0.192-0.832 1.152c-0.256 0.384-1.6 2.176-3.392 2.688l0.512 0.64-1.024 1.024c-0.192 0.192-1.792 1.792-3.648 2.112l0.64 1.088-1.088 0.704c-0.256 0.192-2.432 1.664-4.672 1.664-1.088 0-2.048-0.384-2.752-1.024l-0.128 0.32-1.344-0.192c-0.768-0.128-1.536-0.256-2.432-0.448-0.832 0.192-1.664 0.32-2.368 0.448l-1.344 0.192-0.064-0.32c-0.704 0.64-1.664 1.024-2.752 1.024-2.24 0-4.416-1.472-4.672-1.664l-1.152-0.768 0.64-1.088c-1.856-0.32-3.456-1.856-3.712-2.112l-1.024-1.024 0.576-0.64c-1.856-0.512-3.136-2.24-3.456-2.688l-0.832-1.152 0.192-0.192c-1.216-0.704-2.048-1.856-2.24-2.112l-0.768-1.152 1.088-0.896c0.064-0.064 0.192-0.128 0.384-0.256-0.128-0.128-0.256-0.256-0.384-0.384-1.344-1.792-0.576-4.544-0.448-5.12l0.32-1.152 1.152 0.064c0.512 0 2.624 0.192 4.032 1.408-0.32-1.344-0.512-2.752-0.512-4.224 0-9.472 7.68-17.216 17.216-17.216 9.472 0 17.216 7.68 17.216 17.216 0 1.536-0.192 3.008-0.576 4.416 1.344-1.408 3.712-1.536 4.224-1.6l1.152-0.064 0.32 1.152c0.192 0.576 0.896 3.328-0.448 5.12-0.128 0.128-0.192 0.256-0.384 0.384 0.192 0.128 0.32 0.192 0.384 0.256l1.088 0.896-0.64 1.216z"></path>
<path fill="#ffffff" d="M49.408 36.352c-0.128 0.192-0.256 0.448-0.448 0.64-0.256-0.768-0.832-1.408-1.216-1.792-0.192-0.192-0.32-0.32-0.32-0.32s-2.112 1.984-1.408 3.456c0.192 0.384 0.576 0.768 1.28 1.024-0.384 0.512-0.832 1.024-1.28 1.472-0.064-0.576-0.32-1.152-0.704-1.6-0.512-0.704-1.088-1.216-1.088-1.216s-2.368 2.24-1.472 3.776c0.192 0.384 0.64 0.704 1.28 1.024-0.512 0.448-1.024 0.896-1.536 1.28 0-0.576-0.256-1.216-0.512-1.728-0.384-0.704-0.832-1.216-0.832-1.216s-2.24 1.472-2.24 3.072c0 0.576 0.256 1.152 1.024 1.664-0.512 0.256-0.96 0.576-1.408 0.832 0.256-0.704 0.128-1.536-0.192-2.24-0.256-0.768-0.704-1.408-1.024-1.856l-0.384-0.512-1.216 0.96c-0.64 0.64-1.408 1.536-1.6 2.432-0.192 0.832 0.064 1.728 1.28 2.56-1.152 0.448-2.24 0.768-3.328 1.024-1.088-0.256-2.24-0.64-3.328-1.024 1.152-0.768 1.408-1.664 1.28-2.56-0.192-0.896-0.896-1.792-1.536-2.368-0.64-0.64-1.28-1.024-1.28-1.024s-0.192 0.192-0.384 0.512c-0.32 0.448-0.704 1.088-1.024 1.856-0.256 0.704-0.384 1.472-0.128 2.176-0.512-0.256-0.96-0.512-1.472-0.832 0.704-0.512 1.024-1.024 1.024-1.6 0-1.6-2.304-3.136-2.304-3.136s-0.512 0.576-0.896 1.344c-0.256 0.512-0.448 1.024-0.448 1.6-0.512-0.384-1.024-0.832-1.536-1.28 0.64-0.256 1.024-0.576 1.216-0.896 1.024-1.536-1.408-3.84-1.408-3.84s-0.64 0.576-1.152 1.28c-0.32 0.448-0.576 1.024-0.64 1.536-0.448-0.448-0.832-0.96-1.28-1.472 0.64-0.256 1.024-0.576 1.216-0.896 0.96-1.472-1.344-3.584-1.344-3.584s-0.192 0.192-0.448 0.448c-0.384 0.384-0.896 1.024-1.088 1.664-0.128-0.192-0.256-0.384-0.448-0.64 1.664-3.328-3.456-3.584-3.456-3.584s-1.344 4.48 1.792 4.48c0.128 0 0.32 0 0.448 0 0.192 0.256 0.384 0.576 0.576 0.832-1.344 0-2.944 1.216-2.944 1.216s1.408 2.048 2.944 2.048c0.576 0 1.088-0.256 1.664-1.024 0.32 0.384 0.64 0.768 0.96 1.152-1.344 0.192-2.624 1.28-2.624 1.28s1.472 2.176 3.072 2.176c0.64 0 1.216-0.32 1.792-1.152 0.512 0.448 0.96 0.832 1.472 1.28-1.408 0.384-2.624 1.856-2.624 1.856s1.664 1.664 3.2 1.664c0.768 0 1.536-0.448 2.048-1.664 0.512 0.32 1.024 0.64 1.536 0.896-1.6 0.832-2.816 2.88-2.816 2.88s1.984 1.408 3.776 1.408c1.216 0 2.304-0.576 2.688-2.56 0.256 0.128 0.576 0.192 0.896 0.32l0.32 1.408c0.896-0.128 1.728-0.32 2.624-0.512 0.896 0.192 1.792 0.384 2.624 0.512l0.32-1.408c0.32-0.128 0.64-0.192 0.896-0.32 0.384 1.984 1.472 2.56 2.688 2.56 1.792 0 3.776-1.408 3.776-1.408s-1.216-2.048-2.816-2.88c0.512-0.256 1.024-0.576 1.536-0.896 0.512 1.216 1.28 1.664 2.048 1.664 1.536 0 3.2-1.664 3.2-1.664s-1.28-1.408-2.624-1.856c0.512-0.384 1.024-0.832 1.472-1.28 0.576 0.832 1.216 1.152 1.792 1.152 1.6 0 3.072-2.176 3.072-2.176s-1.344-1.024-2.624-1.28c0.32-0.384 0.64-0.768 0.96-1.152 0.512 0.704 1.088 1.024 1.6 1.024 1.536 0 2.944-2.048 2.944-2.048s-1.536-1.216-2.944-1.216c0.192-0.256 0.384-0.576 0.576-0.832 0.192 0 0.32 0 0.448 0 3.136 0 1.792-4.48 1.792-4.48s-4.928 0.256-3.328 3.584z"></path>
<path fill="#ffffff" d="M30.72 21.12h-5.184c-0.704 1.92-1.28 3.584-1.472 5.504-0.064 0.384-0.064 0.896-0.064 1.536h6.72v-7.040z"></path>
<path fill="#ffffff" d="M22.528 39.36l0.064-0.192 1.088 0.704c0.256 0.192 1.216 0.832 1.92 1.728 0.192-0.256 0.32-0.384 0.384-0.448l0.512-0.512c-0.448-0.576-0.832-1.024-1.216-1.664h-3.008c0.064 0.064 0.192 0.256 0.256 0.384z"></path>
<path fill="#ffffff" d="M16.896 30.080c0.128 1.28 0.512 2.688 1.024 3.968 0.448 0.448 1.152 1.152 1.6 2.24l0.384-0.384 0.64 0.512h3.584c-1.088-1.92-1.856-4.48-2.048-6.4h-5.184z"></path>
</svg>
<svg id="icon-division-06" width="64" height="64" viewBox="0 0 64 64" x="960" y="160">
<path fill="#ffffff" d="M32.384 0.768c-17.472 0-31.616 14.144-31.616 31.616s14.144 31.616 31.616 31.616c17.472 0 31.616-14.144 31.616-31.616s-14.144-31.616-31.616-31.616zM15.744 23.488h6.144v-1.728c0-2.496 1.6-4.48 3.712-4.48h13.632c2.048 0 3.712 1.984 3.712 4.48v1.728h4.8v6.592c0 1.984-1.536 3.648-3.392 3.648h-25.152c-1.92 0-3.456-1.6-3.456-3.648v-6.592zM48.384 45.568h-33.472v-13.056c0.832 1.536 2.432 2.624 4.288 2.624h25.088c1.728 0 3.264-0.96 4.16-2.432v12.864z"></path>
<path fill="#ffffff" d="M40 21.76c0-0.96-0.512-1.6-0.832-1.6h-13.568c-0.256 0-0.832 0.576-0.832 1.6v1.728h15.232v-1.728z"></path>
</svg>
<svg id="icon-pencil" width="64" height="64" viewBox="0 0 64 64" x="0" y="240">
<path fill="#ffffff" d="M54 0c5.523 0 10 4.477 10 10 0 2.251-0.744 4.329-2 6l-4 4-14-14 4-4c1.671-1.256 3.749-2 6-2zM4 46l-4 18 18-4 37-37-14-14-37 37zM44.724 22.724l-28 28-3.447-3.447 28-28 3.447 3.447z"></path>
</svg>
<svg id="icon-pencil2" width="64" height="64" viewBox="0 0 64 64" x="80" y="240">
<path fill="#ffffff" d="M24 40l8-4 28-28-4-4-28 28-4 8zM18.081 54.194c-1.977-4.17-4.104-6.298-8.275-8.275l6.193-17.049 8-4.869 24-24h-12l-24 24-12 40 40-12 24-24v-12l-24 24-4.87 8z"></path>
</svg>
<svg id="icon-users" width="72" height="64" viewBox="0 0 72 64" x="160" y="240">
<path fill="#ffffff" d="M48 48.163v-3.299c4.406-2.483 8-8.673 8-14.864 0-9.941 0-18-12-18s-12 8.059-12 18c0 6.191 3.594 12.382 8 14.864v3.299c-13.569 1.109-24 7.776-24 15.837h56c0-8.060-10.431-14.727-24-15.837z"></path>
<path fill="#ffffff" d="M20.45 49.708c3.457-2.259 7.755-3.977 12.487-5.026-0.941-1.111-1.794-2.351-2.531-3.689-1.901-3.452-2.906-7.254-2.906-10.993 0-5.378 0-10.457 1.913-14.61 1.857-4.032 5.196-6.531 9.951-7.468-1.057-4.78-3.871-7.922-11.364-7.922-12 0-12 8.059-12 18 0 6.191 3.594 12.382 8 14.864v3.299c-13.569 1.109-24 7.776-24 15.837h17.438c0.907-0.807 1.912-1.573 3.012-2.292z"></path>
</svg>
<svg id="icon-user-plus" width="64" height="64" viewBox="0 0 64 64" x="320" y="240">
<path fill="#ffffff" d="M24 46c0-9.452 5.992-17.53 14.377-20.637 1.017-2.284 1.623-4.823 1.623-7.363 0-9.941 0-18-12-18s-12 8.059-12 18c0 6.191 3.594 12.382 8 14.864v3.299c-13.569 1.109-24 7.776-24 15.837h24.832c-0.541-1.908-0.832-3.921-0.832-6z"></path>
<path fill="#ffffff" d="M46 28c-9.941 0-18 8.059-18 18s8.059 18 18 18c9.941 0 18-8.059 18-18s-8.059-18-18-18zM56 48h-8v8h-4v-8h-8v-4h8v-8h4v8h8v4z"></path>
</svg>
<svg id="icon-user-minus" width="64" height="64" viewBox="0 0 64 64" x="400" y="240">
<path fill="#ffffff" d="M24 46c0-9.452 5.992-17.53 14.377-20.637 1.017-2.284 1.623-4.823 1.623-7.363 0-9.941 0-18-12-18s-12 8.059-12 18c0 6.191 3.594 12.382 8 14.864v3.299c-13.569 1.109-24 7.776-24 15.837h24.832c-0.541-1.908-0.832-3.921-0.832-6z"></path>
<path fill="#ffffff" d="M46 28c-9.941 0-18 8.059-18 18s8.059 18 18 18c9.941 0 18-8.059 18-18s-8.059-18-18-18zM56 48h-20v-4h20v4z"></path>
</svg>
<svg id="icon-cancel-circle" width="64" height="64" viewBox="0 0 64 64" x="480" y="240">
<path fill="#ffffff" d="M32 0c-17.673 0-32 14.327-32 32s14.327 32 32 32 32-14.327 32-32-14.327-32-32-32zM32 58c-14.359 0-26-11.641-26-26s11.641-26 26-26 26 11.641 26 26-11.641 26-26 26z"></path>
<path fill="#ffffff" d="M42 16l-10 10-10-10-6 6 10 10-10 10 6 6 10-10 10 10 6-6-10-10 10-10z"></path>
</svg>
<svg id="icon-cross" width="64" height="64" viewBox="0 0 64 64" x="560" y="240">
<path fill="#ffffff" d="M63.416 51.416c-0-0-0.001-0.001-0.001-0.001l-19.415-19.416 19.415-19.416c0-0 0.001-0 0.001-0.001 0.209-0.209 0.36-0.453 0.457-0.713 0.265-0.711 0.114-1.543-0.458-2.114l-9.172-9.172c-0.572-0.572-1.403-0.723-2.114-0.458-0.26 0.097-0.504 0.248-0.714 0.457 0 0-0 0-0.001 0.001l-19.416 19.416-19.416-19.416c-0-0-0-0-0.001-0.001-0.209-0.209-0.453-0.36-0.713-0.457-0.711-0.266-1.543-0.114-2.114 0.457l-9.172 9.172c-0.572 0.572-0.723 1.403-0.458 2.114 0.097 0.26 0.248 0.505 0.457 0.713 0 0 0 0 0.001 0.001l19.416 19.416-19.416 19.416c-0 0-0 0-0 0.001-0.209 0.209-0.36 0.453-0.457 0.713-0.266 0.711-0.114 1.543 0.458 2.114l9.172 9.172c0.572 0.572 1.403 0.723 2.114 0.458 0.26-0.097 0.504-0.248 0.713-0.457 0-0 0-0 0.001-0.001l19.416-19.416 19.416 19.416c0 0 0.001 0 0.001 0.001 0.209 0.209 0.453 0.36 0.713 0.457 0.711 0.265 1.543 0.114 2.114-0.458l9.172-9.172c0.572-0.572 0.723-1.403 0.458-2.114-0.097-0.26-0.248-0.504-0.457-0.713z"></path>
</svg>
<svg id="icon-checkmark" width="64" height="64" viewBox="0 0 64 64" x="640" y="240">
<path fill="#ffffff" d="M54 8l-30 30-14-14-10 10 24 24 40-40z"></path>
</svg>
<svg id="icon-feed2" width="64" height="64" viewBox="0 0 64 64" x="720" y="240">
<path fill="#ffffff" d="M8.518 46.933c-4.7 0-8.518 3.833-8.518 8.505 0 4.697 3.819 8.488 8.518 8.488 4.717 0 8.531-3.791 8.531-8.488-0-4.671-3.814-8.505-8.531-8.505zM0.010 21.746v12.266c7.987 0 15.497 3.123 21.154 8.782 5.649 5.645 8.768 13.19 8.768 21.206h12.32c-0-23.301-18.955-42.254-42.241-42.254zM0.024 0v12.272c28.486 0 51.672 23.208 51.672 51.728h12.303c0-35.279-28.703-64-63.976-64z"></path>
</svg>
<svg id="icon-feed4" width="64" height="64" viewBox="0 0 64 64" x="800" y="240">
<path fill="#ffffff" d="M32 0c-17.673 0-32 14.327-32 32s14.327 32 32 32 32-14.327 32-32-14.327-32-32-32zM20 48c-2.209 0-4-1.791-4-4s1.791-4 4-4 4 1.791 4 4-1.791 4-4 4zM31 48c0-8.271-6.729-15-15-15v-6c11.579 0 21 9.421 21 21h-6zM43 48c0-7.212-2.809-13.992-7.908-19.092s-11.88-7.908-19.092-7.908v-6c8.815 0 17.102 3.433 23.335 9.666s9.665 14.52 9.665 23.334h-6z"></path>
</svg>
<svg id="icon-linkedin" width="64" height="64" viewBox="0 0 64 64" x="880" y="240">
<path fill="#ffffff" d="M53.25 0h-42.5c-5.912 0-10.75 4.838-10.75 10.75v42.5c0 5.913 4.838 10.75 10.75 10.75h42.5c5.913 0 10.75-4.837 10.75-10.75v-42.5c0-5.912-4.837-10.75-10.75-10.75zM24 52h-8v-28h8v28zM20 20c-2.209 0-4-1.791-4-4s1.791-4 4-4 4 1.791 4 4-1.791 4-4 4zM52 52h-8v-16c0-2.209-1.791-4-4-4s-4 1.791-4 4v16h-8v-28h8v4.967c1.65-2.267 4.172-4.967 7-4.967 4.971 0 9 4.477 9 10v18z"></path>
</svg>
<svg id="icon-linkedin2" width="64" height="64" viewBox="0 0 64 64" x="960" y="240">
<path fill="#ffffff" d="M24 24h11.069v5.674h0.158c1.54-2.762 5.31-5.674 10.928-5.674 11.684 0 13.845 7.273 13.845 16.733v19.267h-11.538v-17.080c0-4.074-0.083-9.314-6.002-9.314-6.009 0-6.926 4.437-6.926 9.018v17.376h-11.534v-36z"></path>
<path fill="#ffffff" d="M4 24h12v36h-12v-36z"></path>
<path fill="#ffffff" d="M16 14c0 3.314-2.686 6-6 6s-6-2.686-6-6c0-3.314 2.686-6 6-6s6 2.686 6 6z"></path>
</svg>
</svg>
