<?xml version="1.0" encoding="utf-8"?>
<!-- Generated by IcoMoon.io -->
<!DOCTYPE svg PUBLIC "-//W3C//DTD SVG 1.1//EN" "http://www.w3.org/Graphics/SVG/1.1/DTD/svg11.dtd">
<svg version="1.1" xmlns="http://www.w3.org/2000/svg" xmlns:xlink="http://www.w3.org/1999/xlink" width="752" height="176" viewBox="0 0 752 176">
<svg id="icon-add" width="32" height="32" viewBox="0 0 32 32" x="0" y="0">
<path  d="M19.769 15.716c1.209 0 2.347 0 3.484 0 0 1.493 0 2.916 0 4.48 1.493 0 2.987 0 4.48 0 0 1.209 0 2.276 0 3.484-1.422 0-2.916 0-4.409 0 0 1.564 0 2.987 0 4.551-1.209 0-2.347 0-3.484 0 0-1.493 0-2.916 0-4.48-1.564 0-3.058 0-4.551 0 0-1.209 0-2.347 0-3.556 1.138 0 2.347 0 3.484 0 1.067 0 1.067 0 1.067-1.067-0.071-1.067-0.071-2.204-0.071-3.413z"></path>
<path  d="M13.511 22.756h-2.844v-4.622l-4.978 0.071v-12.516h13.511v8.533h1.422v-9.956h-16.356v14.222h0.711l5.689 5.76v0.071-0.142h2.844z"></path>
</svg>
<svg id="icon-comment" width="100%" height="100%" viewBox="0 0 32 32" x="48" y="0">
<path  d="M11.022 21.902c-0.356 0-0.711 0-1.067 0s-0.711 0-1.067 0c-1.351-0.071-2.347-1.067-2.347-2.489 0-3.058 0-6.187 0-9.244 0-1.636 0.996-2.631 2.631-2.631 4.124 0 8.178 0 12.302 0 0.924 0 1.92 0 2.844 0.071 1.209 0.071 2.204 1.138 2.204 2.347 0 3.2 0 6.4 0 9.6 0 1.28-0.996 2.347-2.204 2.347-1.92 0.071-3.84 0.071-5.76 0-0.924 0-1.564 0.213-2.204 0.924-1.138 1.351-2.418 2.56-3.627 3.769-0.284 0.356-0.711 0.427-1.067 0.284s-0.569-0.498-0.569-0.924c0-1.209 0-2.418 0-3.627-0.071-0.142-0.071-0.284-0.071-0.427zM13.298 14.649c0-0.64-0.569-1.209-1.209-1.209s-1.138 0.569-1.209 1.209c0 0.711 0.498 1.209 1.138 1.209 0.711 0 1.28-0.498 1.28-1.209zM21.476 15.858c0.64 0 1.138-0.569 1.209-1.209 0-0.64-0.569-1.209-1.209-1.209s-1.209 0.569-1.209 1.209c0 0.711 0.569 1.209 1.209 1.209zM17.92 14.649c0-0.711-0.498-1.209-1.138-1.209s-1.209 0.569-1.209 1.209c0 0.64 0.569 1.209 1.209 1.209s1.138-0.498 1.138-1.209z"></path>
</svg>
<svg id="icon-continuity" width="32" height="32" viewBox="0 0 32 32" x="96" y="0">
<path  d="M16.192 0.384c-8.736 0-15.808 7.072-15.808 15.808s7.072 15.808 15.808 15.808 15.808-7.072 15.808-15.808-7.072-15.808-15.808-15.808zM7.872 11.744h3.072v-0.864c0-1.248 0.8-2.24 1.856-2.24h6.816c1.024 0 1.856 0.992 1.856 2.24v0.864h2.4v3.296c0 0.992-0.768 1.824-1.696 1.824h-12.576c-0.96 0-1.728-0.8-1.728-1.824v-3.296zM24.192 22.784h-16.736v-6.528c0.416 0.768 1.216 1.312 2.144 1.312h12.544c0.864 0 1.632-0.48 2.080-1.216l-0.032 6.432z"></path>
<path  d="M20 10.88c0-0.48-0.256-0.8-0.416-0.8h-6.784c-0.128 0-0.416 0.288-0.416 0.8v0.864h7.616v-0.864z"></path>
</svg>
<svg id="icon-continuity-box" width="32" height="32" viewBox="0 0 32 32" x="144" y="0">
<path  d="M19.328 10.24h-6.016c-0.128 0-0.512 0.576-0.512 0.96v0.96h7.040v-0.96c0-0.384-0.384-0.96-0.512-0.96z"></path>
<path  d="M3.2 3.2v25.6h25.6v-25.6h-25.6zM8.96 12.16h2.56v-0.96c0-1.088 0.896-2.24 1.792-2.24h6.016c0.896 0 1.792 1.152 1.792 2.24v0.96h1.92v2.752c0 0.896-0.576 1.728-1.472 1.728h-11.072c-0.832 0-1.536-0.832-1.536-1.728v-2.752zM23.68 21.76h-15.36v-5.76c0.64 0.704 1.344 1.28 2.176 1.28h11.072c0.768 0 1.472-0.576 2.112-1.216v5.696z"></path>
<path  d="M19.712 11.2c0-0.448-0.256-0.704-0.384-0.704h-6.016c-0.128 0-0.384 0.256-0.384 0.704v0.768h6.72v-0.768z"></path>
</svg>
<svg id="icon-continuity-circle" width="32" height="32" viewBox="0 0 32 32" x="192" y="0">
<path  d="M16 29.824c-7.424 0-13.44-6.016-13.44-13.44s6.016-13.44 13.44-13.44c7.424 0 13.44 6.016 13.44 13.44s-6.016 13.44-13.44 13.44zM16 5.248c-6.144 0-11.136 4.992-11.136 11.136s4.992 11.072 11.136 11.072c6.144 0 11.136-4.992 11.136-11.136s-4.992-11.072-11.136-11.072z"></path>
<path  d="M11.136 16.256h9.728c0.704 0 1.344-0.64 1.344-1.408v-2.56h-1.856v-0.64c0-0.96-0.64-1.728-1.408-1.728h-5.312c-0.832 0-1.408 0.768-1.408 1.728v0.64h-2.368v2.56c-0.064 0.768 0.576 1.408 1.28 1.408zM13.312 11.584c0-0.384 0.192-0.64 0.32-0.64h5.312c0.128 0 0.32 0.256 0.32 0.64v0.64h-5.888v-0.64z"></path>
<path  d="M20.864 16.832h-9.728c-0.704 0-1.344-0.384-1.664-1.024v5.056h12.992v-4.992c-0.32 0.576-0.896 0.96-1.6 0.96z"></path>
</svg>
<svg id="icon-delete" width="32" height="32" viewBox="0 0 32 32" x="240" y="0">
<path  d="M16.782 25.956c-0.071 0-0.213 0-0.284 0-0.427-0.071-0.853-0.142-1.28-0.142-6.258-0.924-10.098-7.68-7.609-13.582 1.564-3.769 5.333-6.187 9.316-6.116 4.267 0.142 7.751 2.702 9.173 6.684 0.284 0.782 0.356 1.564 0.569 2.347 0 0.569 0 1.138 0 1.778 0 0.142-0.071 0.284-0.071 0.427-0.64 3.911-2.773 6.613-6.471 7.964-1.067 0.356-2.276 0.427-3.342 0.64zM16.711 23.893c4.409 0.142 7.964-3.769 7.964-7.893 0-4.053-3.413-8.036-8.036-8.036-4.196 0-7.822 3.698-7.893 7.893 0 4.551 3.911 8.249 7.964 8.036z"></path>
<path  d="M11.378 14.72c3.556 0 6.969 0 10.453 0 0 0.924 0 1.849 0 2.844-3.342 0-6.756 0-10.382 0z"></path>
</svg>
<svg id="icon-discuss" width="32" height="32" viewBox="0 0 32 32" x="288" y="0">
<path  d="M28.224 5.12h-13.76c-0.768 0-1.664 0.128-1.664 0.896v8.64c0 0.768 0.896 1.984 1.664 1.984h7.424l3.712 4.608v-4.608h2.624c0.768 0 1.856-1.216 1.856-1.984v-8.64c0-0.768-1.088-0.896-1.856-0.896z"></path>
<path  d="M12.16 14.656v-5.696h-6.464c-0.768 0-1.216 1.408-1.216 2.176v8.64c0 0.768 0.448 2.624 1.216 2.624h1.984v3.712l5.504-3.712h6.336c0.768 0 1.664-1.856 1.664-2.624v-1.856h-6.72c-1.6 0-2.304-1.664-2.304-3.264z"></path>
</svg>
<svg id="icon-edit" width="32" height="32" viewBox="0 0 32 32" x="336" y="0">
<path  d="M7.964 9.956c1.707 0 3.484 0 5.262 0 0 0.924 0 1.707 0 2.631-0.853 0-1.636 0-2.56 0 0 3.556 0 6.969 0 10.524 3.413 0 6.898 0 10.524 0 0-1.28 0-2.56 0-3.84 0.924 0 1.707 0 2.631 0 0 2.133 0 4.267 0 6.542-5.262 0-10.524 0-15.787 0-0.071-5.262-0.071-10.596-0.071-15.858z"></path>
<path  d="M21.262 8.604l-7.68 9.031 0.142 3.698h3.556l7.538-8.889z"></path>
<path  d="M22.258 7.324l3.698 3.484 1.351-1.422-3.769-3.627z"></path>
</svg>
<svg id="icon-health" width="32" height="32" viewBox="0 0 32 32" x="384" y="0">
<path  d="M15.968 0.384c-8.64 0-15.648 7.008-15.648 15.648s7.008 15.648 15.648 15.648c8.64 0 15.648-7.008 15.648-15.648s-7.008-15.648-15.648-15.648zM24.096 19.040c-1.824 0-3.648 0-5.472 0 0 1.824 0 3.616 0 5.44-1.984 0-3.936 0-5.92 0 0-1.824 0-3.616 0-5.44-1.792 0-3.584 0-5.376 0 0-1.984 0-3.968 0-5.92 1.792 0 3.584 0 5.376 0 0-1.792 0-3.616 0-5.408 1.984 0 3.968 0 5.92 0 0 1.792 0 3.616 0 5.408 1.824 0 3.648 0 5.472 0 0 1.952 0 3.936 0 5.92z"></path>
</svg>
<svg id="icon-health-box" width="32" height="32" viewBox="0 0 32 32" x="432" y="0">
<path  d="M2.944 3.392v25.216h26.176v-25.216h-26.176zM23.68 18.624c-1.6 0-3.264 0-4.864 0 0 1.6 0 3.264 0 4.864-1.792 0-3.52 0-5.312 0 0-1.6 0-3.264 0-4.864-1.6 0-3.2 0-4.8 0 0-1.792 0-3.52 0-5.312 1.6 0 3.2 0 4.8 0 0-1.6 0-3.2 0-4.864 1.792 0 3.52 0 5.312 0 0 1.6 0 3.2 0 4.864 1.6 0 3.264 0 4.864 0 0 1.792 0 3.584 0 5.312z"></path>
</svg>
<svg id="icon-health-circle" width="32" height="32" viewBox="0 0 32 32" x="480" y="0">
<path  d="M18.24 22.464c0-1.408 0-2.816 0-4.288 1.408 0 2.88 0 4.288 0 0-1.536 0-3.136 0-4.672-1.408 0-2.88 0-4.288 0 0-1.408 0-2.816 0-4.224-1.536 0-3.072 0-4.672 0 0 1.408 0 2.816 0 4.224-1.408 0-2.816 0-4.224 0 0 1.536 0 3.072 0 4.672 1.408 0 2.816 0 4.224 0 0 1.408 0 2.88 0 4.288 1.6 0 3.136 0 4.672 0z"></path>
<path  d="M16 29.44c-7.424 0-13.44-6.016-13.44-13.44s6.016-13.44 13.44-13.44 13.44 6.016 13.44 13.44-6.016 13.44-13.44 13.44zM16 4.864c-6.144 0-11.136 4.992-11.136 11.136s4.992 11.136 11.136 11.136 11.136-4.992 11.136-11.136-4.992-11.136-11.136-11.136z"></path>
</svg>
<svg id="icon-humanitarian" width="32" height="32" viewBox="0 0 32 32" x="528" y="0">
<path  d="M15.36 15.2h-3.328c0.128 0.768 0.544 1.504 1.152 3.008h2.176v-3.008z"></path>
<path  d="M19.872 15.2h-3.744v3.008h2.592c0.64-1.504 1.024-2.24 1.152-3.008z"></path>
<path  d="M15.36 9.184v-2.144c-0.768 0.512-1.344 1.376-2.048 2.144h2.048z"></path>
<path  d="M19.904 13.184c-0.096-0.96-0.352-1.76-0.736-3.264h-3.040v4.512h3.808c0-0.736 0-1.024-0.032-1.248z"></path>
<path  d="M18.080 18.976h-1.952v2.272c0.736-0.672 1.504-0.768 1.952-2.272z"></path>
<path  d="M18.72 19.968l0.32 0.384c0.032 0.032 0.096 0.192 0.192 0.32 0.352-0.448 0.832-0.736 0.96-0.832l0.544-0.32 0.032-0.16c0.032-0.096 0.096-0.384 0.128-0.384h-1.6c-0.16 0-0.352 0.704-0.576 0.992z"></path>
<path  d="M16.128 7.040v2.144h2.464c-0.704-0.768-1.728-1.632-2.464-2.144z"></path>
<path  d="M20.928 13.088c0.032 0.256 0.032 0.608 0.032 1.376h2.592c-0.064-2.272-0.352-3.008-0.896-4.512h-2.368c0.352 1.472 0.576 2.208 0.64 3.136z"></path>
<path  d="M21.984 9.184c-1.056-0.768-2.592-2.4-4.352-2.784 0.704 0.672 1.536 2.048 2.176 2.784h2.176z"></path>
<path  d="M22.112 17.92l0.192 0.192c0.16-0.416 0.416-0.608 0.64-0.864 0.288-0.704 0.512-1.312 0.576-2.080h-2.592c-0.128 0.768-0.48 1.504-1.024 3.008h1.888l0.32-0.256z"></path>
<path  d="M10.976 13.088c0.096-0.928 0.32-1.632 0.64-3.136h-2.368c-0.512 1.504-0.832 2.272-0.896 4.512h2.592c0-0.768 0-1.152 0.032-1.376z"></path>
<path  d="M14.272 6.4c-1.76 0.384-3.296 2.016-4.352 2.784h2.176c0.672-0.768 1.504-2.144 2.176-2.784z"></path>
<path  d="M15.36 18.976h-1.536c0.448 1.504 0.768 1.6 1.536 2.272v-2.272z"></path>
<path  d="M17.632 0.096c-10.112-0.992-18.56 7.424-17.568 17.536 0.736 7.488 6.784 13.536 14.272 14.272 10.112 0.992 18.56-7.424 17.568-17.536-0.736-7.488-6.784-13.536-14.272-14.272zM27.168 19.968c-0.096 0.16-0.512 0.736-1.12 1.088l0.096 0.096-0.416 0.576c-0.128 0.192-0.8 1.088-1.728 1.344l0.256 0.32-0.512 0.512c-0.096 0.096-0.896 0.896-1.856 1.056l0.32 0.544-0.576 0.384c-0.128 0.096-1.248 0.832-2.336 0.832-0.544 0-1.024-0.192-1.376-0.512l-0.064 0.16-0.672-0.096c-0.384-0.064-0.768-0.128-1.216-0.224-0.416 0.096-0.832 0.16-1.216 0.224l-0.672 0.096v-0.192c-0.352 0.32-0.832 0.512-1.376 0.512-1.12 0-2.24-0.736-2.336-0.832l-0.576-0.384 0.352-0.544c-0.96-0.16-1.76-0.96-1.856-1.056l-0.576-0.512 0.288-0.32c-0.928-0.256-1.568-1.152-1.728-1.344l-0.416-0.576 0.096-0.096c-0.608-0.352-1.024-0.928-1.12-1.088l-0.384-0.576 0.544-0.448c0.032-0.032 0.096-0.064 0.192-0.128-0.064-0.064-0.128-0.128-0.192-0.192-0.672-0.896-0.288-2.272-0.224-2.56l0.16-0.576 0.608 0.032c0.256 0 1.312 0.128 2.016 0.704-0.352-1.472-0.416-3.040 0.192-4.8 1.216-3.296 4.224-5.76 7.744-5.952 4.992-0.256 9.12 3.712 9.12 8.64 0 0.768-0.128 1.504-0.288 2.208 0.672-0.704 1.856-0.8 2.144-0.8l0.608-0.032 0.16 0.576c0.096 0.288 0.448 1.664-0.224 2.56-0.064 0.064-0.128 0.128-0.192 0.192 0.096 0.064 0.16 0.096 0.192 0.128l0.544 0.448-0.384 0.608z"></path>
<path  d="M24.768 18.080c-0.064 0.128-0.128 0.224-0.224 0.32-0.128-0.384-0.416-0.704-0.608-0.896-0.096-0.096-0.16-0.16-0.16-0.16s-1.088 0.992-0.704 1.76c0.096 0.192 0.288 0.384 0.64 0.512-0.192 0.256-0.416 0.512-0.64 0.736-0.032-0.288-0.16-0.576-0.352-0.832-0.256-0.352-0.544-0.608-0.544-0.608s-1.184 1.12-0.736 1.888c0.096 0.192 0.32 0.352 0.64 0.512-0.256 0.224-0.512 0.448-0.768 0.64 0-0.288-0.128-0.608-0.256-0.864-0.192-0.352-0.416-0.608-0.416-0.608s-1.12 0.736-1.152 1.536c0 0.288 0.128 0.576 0.512 0.832-0.256 0.128-0.48 0.288-0.736 0.416 0.128-0.352 0.064-0.768-0.096-1.12-0.128-0.384-0.352-0.704-0.512-0.928l-0.192-0.256-0.608 0.48c-0.352 0.32-0.704 0.768-0.832 1.248-0.096 0.416 0.032 0.864 0.64 1.28-0.576 0.224-1.12 0.384-1.696 0.512-0.544-0.128-1.12-0.32-1.664-0.512 0.608-0.384 0.736-0.832 0.64-1.28s-0.448-0.896-0.8-1.216c-0.352-0.32-0.64-0.512-0.64-0.512s-0.096 0.096-0.192 0.256c-0.16 0.224-0.352 0.544-0.512 0.928-0.128 0.352-0.192 0.768-0.064 1.088-0.256-0.128-0.48-0.256-0.736-0.416 0.352-0.256 0.512-0.544 0.512-0.8 0-0.8-1.152-1.568-1.152-1.568s-0.256 0.288-0.448 0.672c-0.128 0.256-0.224 0.544-0.224 0.832-0.256-0.192-0.512-0.416-0.768-0.64 0.32-0.128 0.512-0.288 0.608-0.448 0.512-0.8-0.704-1.952-0.704-1.952s-0.352 0.288-0.608 0.64c-0.16 0.224-0.288 0.512-0.32 0.768-0.224-0.224-0.416-0.48-0.64-0.736 0.32-0.128 0.512-0.288 0.608-0.448 0.48-0.736-0.672-1.824-0.672-1.824s-0.096 0.096-0.224 0.224c-0.192 0.192-0.448 0.512-0.576 0.832-0.064-0.096-0.128-0.192-0.224-0.32 0.832-1.664-1.728-1.792-1.728-1.792s-0.672 2.24 0.896 2.24c0.064 0 0.16 0 0.224 0 0.096 0.128 0.192 0.288 0.288 0.416-0.672 0-1.472 0.608-1.472 0.608s0.704 1.024 1.472 1.024c0.288 0 0.576-0.128 0.832-0.512 0.16 0.192 0.32 0.384 0.48 0.576-0.672 0.128-1.344 0.64-1.344 0.64s0.736 1.088 1.568 1.088c0.32 0 0.608-0.16 0.896-0.576 0.256 0.224 0.48 0.416 0.736 0.64-0.704 0.192-1.344 0.928-1.344 0.928s0.832 0.832 1.6 0.832c0.384 0 0.768-0.224 1.024-0.832 0.256 0.16 0.512 0.32 0.768 0.448-0.8 0.416-1.408 1.44-1.408 1.44s0.992 0.704 1.92 0.704c0.608 0 1.152-0.288 1.376-1.28 0.128 0.064 0.288 0.128 0.448 0.16l0.16 0.704c0.448-0.064 0.864-0.16 1.312-0.256 0.448 0.128 0.896 0.192 1.312 0.256l0.16-0.704c0.16-0.064 0.32-0.096 0.448-0.16 0.192 0.992 0.768 1.28 1.344 1.28 0.896 0 1.92-0.704 1.92-0.704s-0.608-1.024-1.408-1.44c0.256-0.128 0.512-0.288 0.768-0.448 0.256 0.608 0.64 0.832 1.024 0.832 0.8 0 1.6-0.832 1.6-0.832s-0.64-0.704-1.344-0.928c0.256-0.192 0.512-0.416 0.736-0.64 0.288 0.416 0.608 0.576 0.896 0.576 0.8 0 1.568-1.088 1.568-1.088s-0.672-0.544-1.344-0.64c0.16-0.192 0.32-0.384 0.48-0.576 0.256 0.352 0.544 0.512 0.832 0.512 0.768 0 1.472-1.024 1.472-1.024s-0.8-0.608-1.472-0.608c0.096-0.128 0.192-0.288 0.288-0.416 0.096 0 0.16 0 0.224 0 1.568 0 0.896-2.24 0.896-2.24s-2.336 0.128-1.504 1.824z"></path>
<path  d="M15.36 9.92h-2.624c-0.352 1.504-0.64 2.304-0.736 3.264-0.032 0.192-0.032 0.512-0.032 1.248h3.392v-4.512z"></path>
<path  d="M11.232 19.36v0l0.576 0.416c0.128 0.096 0.608 0.448 0.96 0.896 0.096-0.128 0.16-0.16 0.192-0.224l0.256-0.48c-0.224-0.288-0.416 0.448-0.608-1.056h-1.536c0.064 0.064 0.096 0.384 0.16 0.448z"></path>
<path  d="M8.384 15.2c0.064 0.768 0.256 1.216 0.512 1.856 0.224 0.224 0.608 0.512 0.8 1.056l0.192-0.192 0.32 0.256h1.792c-0.576-1.504-0.928-2.272-1.056-3.008h-2.56z"></path>
</svg>
<svg id="icon-humanitarian-box" width="32" height="32" viewBox="0 0 32 32" x="576" y="0">
<path  d="M19.648 14.72h-3.008v2.56h2.048c0.512-1.28 0.832-1.92 0.96-2.56z"></path>
<path  d="M19.648 12.992c-0.064-0.832-0.32-1.472-0.64-2.752h-2.368v3.84h3.072c0-0.64 0-0.896-0.064-1.088z"></path>
<path  d="M16 14.72h-3.008c0.128 0.64 0.448 1.28 0.96 2.56h2.048v-2.56z"></path>
<path  d="M18.112 17.92h-1.472v2.496c0.64-0.576 1.088-1.216 1.472-2.496z"></path>
<path  d="M20.544 12.928c0 0.192 0.064 0.512 0.064 1.152h2.176c-0.064-1.92-0.32-2.56-0.768-3.84h-1.984c0.256 1.28 0.448 1.92 0.512 2.688z"></path>
<path  d="M18.688 19.008l0.256 0.576c0 0 0.064 0.128 0.192 0.256 0.32-0.384 0.704-0.64 0.832-0.768l0.448-0.32v-0.256c0.064-0.064 0.064-0.576 0.128-0.576h-1.344c-0.192 0-0.32 0.896-0.512 1.088z"></path>
<path  d="M21.568 17.216l0.192 0.384c0.128-0.384 0.384-0.64 0.512-0.832 0.256-0.576 0.448-1.408 0.512-2.048h-2.24c-0.128 0.64-0.384 1.28-0.896 2.56h1.6l0.32-0.064z"></path>
<path  d="M21.44 9.6c-0.896-0.64-2.24-2.048-3.712-2.368 0.576 0.576 1.28 1.728 1.856 2.368h1.856z"></path>
<path  d="M16.64 8.32v1.28h1.92c-0.576-0.64-1.28-0.832-1.92-1.28z"></path>
<path  d="M16 10.24h-2.368c-0.32 1.28-0.576 1.92-0.64 2.752 0 0.192 0 0.448 0 1.088h3.008v-3.84z"></path>
<path  d="M24.512 18.048c1.344 0 0.768-1.92 0.768-1.92s-2.176 0.128-1.472 1.536c-0.064 0.064-0.128 0.192-0.192 0.256-0.128-0.32-0.384-0.576-0.512-0.768-0.064-0.064-0.128-0.128-0.128-0.128s-0.96 0.896-0.64 1.536c0.064 0.192 0.256 0.32 0.576 0.448-0.192 0.192-0.384 0.448-0.576 0.64 0-0.256-0.128-0.512-0.32-0.704-0.192-0.32-0.448-0.512-0.448-0.512s-1.024 0.96-0.64 1.6c0.064 0.192 0.256 0.32 0.576 0.448-0.192 0.192-0.448 0.384-0.64 0.576 0-0.256-0.128-0.512-0.192-0.704-0.192-0.32-0.384-0.512-0.384-0.512s-0.96 0.64-0.96 1.28c0 0.256 0.128 0.512 0.448 0.704-0.192 0.128-0.384 0.256-0.64 0.32 0.128-0.32 0.064-0.64-0.064-0.96s-0.32-0.576-0.448-0.768l-0.128-0.192-0.576 0.32c-0.256 0.256-0.576 0.64-0.704 1.024-0.064 0.384 0.064 0.768 0.576 1.088-0.512 0.192-0.96 0.32-1.408 0.448-0.448-0.128-0.96-0.256-1.408-0.448 0.512-0.32 0.64-0.704 0.576-1.088s-0.384-0.768-0.64-1.024c-0.256-0.256-0.576-0.448-0.576-0.448s-0.064 0.064-0.192 0.256c-0.128 0.192-0.32 0.448-0.448 0.768s-0.192 0.64-0.064 0.96c-0.192-0.128-0.448-0.256-0.64-0.32 0.32-0.192 0.448-0.448 0.448-0.704 0-0.704-0.96-1.344-0.96-1.344s-0.192 0.256-0.384 0.576c-0.128 0.192-0.192 0.448-0.192 0.704-0.192-0.192-0.448-0.384-0.64-0.576 0.256-0.128 0.448-0.256 0.512-0.384 0.448-0.64-0.576-1.664-0.576-1.664s-0.256 0.256-0.512 0.576c-0.128 0.192-0.256 0.448-0.256 0.64-0.192-0.192-0.384-0.448-0.576-0.64 0.256-0.128 0.448-0.256 0.512-0.384 0.384-0.64-0.576-1.536-0.576-1.536s-0.128 0.128-0.192 0.256c-0.192 0.192-0.384 0.448-0.448 0.704-0.064-0.064-0.128-0.192-0.192-0.256 0.704-1.408-1.472-1.536-1.472-1.536s-0.576 1.92 0.768 1.92c0.064 0 0.128 0 0.192 0 0.064 0.128 0.192 0.256 0.256 0.384-0.576 0-1.28 0.512-1.28 0.512s0.576 0.896 1.28 0.896c0.256 0 0.448-0.128 0.704-0.448 0.128 0.192 0.256 0.32 0.384 0.512-0.576 0.064-1.152 0.576-1.152 0.576s0.64 0.896 1.344 0.896c0.256 0 0.512-0.128 0.768-0.512 0.192 0.192 0.448 0.384 0.64 0.512-0.576 0.192-1.152 0.768-1.152 0.768s0.704 0.704 1.344 0.704c0.32 0 0.64-0.192 0.896-0.704 0.256 0.128 0.448 0.256 0.64 0.384-0.704 0.384-1.216 1.216-1.216 1.216s0.832 0.576 1.6 0.576c0.512 0 0.96-0.256 1.152-1.088 0.128 0.064 0.256 0.064 0.384 0.128l0.128 0.576c0.384-0.064 0.768-0.128 1.152-0.256 0.384 0.064 0.768 0.192 1.152 0.256l0.128-0.576c0.128-0.064 0.256-0.064 0.384-0.128 0.192 0.832 0.64 1.088 1.152 1.088 0.768 0 1.6-0.576 1.6-0.576s-0.512-0.896-1.216-1.216c0.192-0.128 0.448-0.256 0.64-0.384 0.192 0.512 0.512 0.704 0.896 0.704 0.64 0 1.344-0.704 1.344-0.704s-0.576-0.576-1.152-0.768c0.192-0.192 0.448-0.384 0.64-0.512 0.256 0.384 0.512 0.512 0.768 0.512 0.704 0 1.344-0.896 1.344-0.896s-0.576-0.448-1.152-0.576c0.128-0.128 0.256-0.32 0.448-0.512 0.192 0.32 0.448 0.448 0.704 0.448 0.64 0 1.28-0.896 1.28-0.896s-0.64-0.512-1.28-0.512c0.064-0.128 0.192-0.256 0.256-0.384 0.128-0.064 0.192-0.064 0.256-0.064z"></path>
<path  d="M12.096 12.928c0.064-0.768 0.256-1.408 0.512-2.688h-1.984c-0.448 1.28-0.704 1.92-0.768 3.84h2.176c0-0.64 0.064-0.96 0.064-1.152z"></path>
<path  d="M3.2 3.2v25.6h26.24v-25.6h-26.24zM25.856 19.328c-0.064 0.128-0.448 0.64-0.96 0.896l0.064 0.064-0.32 0.512c-0.128 0.192-0.704 0.96-1.472 1.152l0.256 0.256-0.448 0.448c-0.064 0.064-0.768 0.768-1.6 0.896l0.256 0.448-0.448 0.32c-0.128 0.064-1.024 0.704-1.984 0.704-0.448 0-0.896-0.128-1.152-0.448l-0.064 0.128-0.576-0.064c-0.32-0.064-0.64-0.128-1.024-0.192-0.384 0.064-0.704 0.128-1.024 0.192l-0.576 0.064-0.064-0.128c-0.32 0.256-0.704 0.448-1.152 0.448-0.96 0-1.92-0.64-1.984-0.704l-0.512-0.32 0.256-0.448c-0.832-0.128-1.472-0.832-1.6-0.896l-0.448-0.448 0.256-0.256c-0.768-0.192-1.344-0.96-1.472-1.152l-0.32-0.512 0.064-0.064c-0.512-0.32-0.896-0.768-0.96-0.896l-0.32-0.512 0.448-0.384c0.064 0 0.064-0.064 0.128-0.128-0.064-0.064-0.128-0.128-0.128-0.192-0.576-0.768-0.256-1.92-0.192-2.176l0.128-0.512h0.512c0.192 0 1.152 0.064 1.728 0.576-0.128-0.576-0.256-1.152-0.256-1.792 0-4.032 3.264-7.36 7.36-7.36 4.096 0.128 7.424 3.392 7.424 7.488 0 0.64-0.064 1.28-0.256 1.856 0.576-0.576 1.6-0.64 1.792-0.704h0.512l0.128 0.512c0.064 0.256 0.384 1.408-0.192 2.176-0.064 0.064-0.064 0.128-0.128 0.192 0.064 0.064 0.128 0.064 0.128 0.128l0.448 0.384-0.256 0.448z"></path>
<path  d="M16 20.416v-2.496h-1.472c0.384 1.28 0.832 1.92 1.472 2.496z"></path>
<path  d="M14.912 7.232c-1.472 0.32-2.816 1.728-3.712 2.368h1.856c0.576-0.64 1.28-1.792 1.856-2.368z"></path>
<path  d="M12.352 18.816l0.448 0.32c0.128 0.064 0.512 0.32 0.832 0.768 0.064-0.128 0.128-0.192 0.192-0.256l0.256-0.576c-0.192-0.256-0.384 0.128-0.512-1.152h-1.28c0.064 0 0.064 0.512 0.128 0.576l-0.064 0.32z"></path>
<path  d="M9.92 14.72c0.064 0.64 0.192 1.216 0.448 1.792 0.192 0.192 0.512 0.64 0.704 1.088l0.192-0.32 0.256-0.064h1.536c-0.448-1.28-0.768-1.92-0.896-2.56h-2.24z"></path>
<path  d="M16 8.32c-0.64 0.448-1.28 0.64-1.92 1.28h1.92v-1.28z"></path>
</svg>
<svg id="icon-humanitarian-circle" width="32" height="32" viewBox="0 0 32 32" x="624" y="0">
<path  d="M16.448 30.144c-7.424 0-13.44-6.016-13.44-13.44s6.016-13.44 13.44-13.44c7.424 0 13.44 6.016 13.44 13.44s-6.016 13.44-13.44 13.44zM16.448 5.568c-6.144 0-11.136 4.992-11.136 11.136s4.992 11.136 11.136 11.136c6.144 0 11.136-4.992 11.136-11.136s-4.992-11.136-11.136-11.136z"></path>
<path  d="M21.184 19.2c0 0-0.32 0.32-0.512 0.64l0.704-0.448c-0.128-0.128-0.192-0.192-0.192-0.192z"></path>
<path  d="M10.24 17.472l0.256-0.256 0.384 0.32c0 0 0.064 0.32 0.064 0.384-0.192-0.512-0.32-1.344-0.384-1.344h1.984c0.064 0.64 0.384 1.28 0.768 1.92h-1.408l0.128 0.064c0.064 0.064 0.32 0.576 0.512 0.576h1.152c0.128 0 0.32 0.64 0.448 0.832l0.128-0.064 0.448 0.32c0.192 0.128 1.28 0.896 1.344 1.856 0.064 0 0.128 0 0.192 0s0.192 0 0.256 0c0.128-0.96 1.152-1.728 1.344-1.856l0.448-0.256 0.064-0.064c0.128-0.192 0.32-0.832 0.448-0.832h1.216c0.192 0 0.448-0.512 0.576-0.576l0.128-0.064h-1.472c0.448-0.64 0.704-1.28 0.768-1.92h1.984c-0.064 0.64-0.192 0.896-0.448 1.472 0.064-0.128 0.192-0.32 0.192-0.384l0.384-0.448 0.256 0.192c0.064-0.064 0.128-0.192 0.192-0.256 0.128-0.576 0.256-1.152 0.256-1.728 0-3.648-3.008-6.656-6.656-6.656s-6.656 3.008-6.656 6.656c0 0.576 0.064 1.088 0.192 1.6 0.32 0.256 0.448 0.384 0.512 0.512zM21.568 12.8c0.384 0.64 0.64 1.92 0.704 3.2h-1.984c0-1.28 0-0.704 0-0.896-0.064-0.704-0.256-2.304-0.512-2.304h1.792zM21.056 12.16h-1.664c-0.512-1.28-1.152-1.664-1.664-2.176 1.344 0.32 2.496 0.896 3.328 2.176zM16.64 10.112c0.64 0.384 1.28 0.768 1.792 2.048h-1.792v-2.048zM16.64 12.8h2.24c0.256 0 0.512 1.6 0.576 2.368 0 0.192 0 0.832 0 0.832h-2.816v-3.2zM16.64 16.64h2.752c-0.128 0.64-0.384 1.28-0.896 1.92h-1.856v-1.92zM16.64 19.2h1.408c-0.32 1.28-0.768 1.28-1.408 1.792v-1.792zM16 20.992c0-0.512-0.896-0.512-1.216-1.792h1.216v1.792zM16 18.56h-1.728c-0.512-0.64-0.768-1.28-0.896-1.92h2.624v1.92zM16 16h-2.624c0 0 0-0.704 0-0.832 0.064-0.768 0.32-2.368 0.576-2.368h2.048v3.2zM16 10.112v2.048h-1.6c0.512-1.28 1.6-1.664 1.6-2.048zM15.104 9.984c-0.512 0.512-1.152 0.896-1.664 2.176h-1.664c0.832-1.28 1.984-1.856 3.328-2.176zM11.264 12.8h1.792c-0.256 0-0.448 1.6-0.512 2.304 0 0.192 0-0.384 0 0.896h-1.984c0.064-1.28 0.256-2.56 0.704-3.2z"></path>
<path  d="M17.216 22.272l-0.512 0.384c0 0 0 0.064 0 0.064l0.512-0.384c0 0 0 0 0-0.064z"></path>
<path  d="M21.824 20.352c0.192-0.192 0.32-0.384 0.512-0.576-0.256-0.128-0.448-0.256-0.512-0.384-0.064 0.128-0.192 0.256-0.256 0.32 0.128 0.192 0.256 0.384 0.256 0.64z"></path>
<path  d="M20.48 21.568c0.192-0.128 0.384-0.32 0.576-0.512-0.256-0.128-0.384-0.256-0.512-0.384-0.064 0.064-0.192 0.128-0.32 0.192 0.192 0.256 0.256 0.448 0.256 0.704z"></path>
<path  d="M18.944 22.592c0.192-0.128 0.384-0.192 0.576-0.32-0.32-0.192-0.384-0.448-0.384-0.64-0.064 0.064-0.128 0.064-0.256 0.128 0.128 0.192 0.128 0.512 0.064 0.832z"></path>
<path  d="M23.168 18.56c-0.064-0.128-0.128-0.256-0.128-0.384l-0.256 0.192c0.064 0.128 0.192 0.256 0.256 0.384 0 0 0.064-0.064 0.128-0.192z"></path>
<path  d="M21.76 17.792c-0.192 0.192-0.384 0.448-0.512 0.768l-0.128-0.128-0.256 0.256h0.448c0.192-0.256 0.32-0.576 0.448-0.896z"></path>
<path  d="M16.128 22.848c0.064-0.192 0.128-0.384 0.128-0.512 0-0.064 0-0.064 0-0.128-0.192 0-0.384 0-0.576-0.064 0.064 0.32-0.064 0.704-0.512 0.96 0.192 0.064 0.384 0.128 0.576 0.192l0.64-0.448c-0.064 0-0.192 0-0.256 0z"></path>
<path  d="M10.56 19.712c0.192 0.192 0.32 0.384 0.512 0.576 0-0.192 0.128-0.384 0.256-0.576-0.064-0.128-0.192-0.192-0.256-0.32-0.128 0.128-0.32 0.256-0.512 0.32z"></path>
<path  d="M17.728 23.104c-0.32-0.256-0.512-0.512-0.512-0.768l-0.512 0.384c0 0 0 0.064 0 0.064-0.064 0-0.192 0.064-0.256 0.064l-0.64 0.448c0.192 0.064 0.384 0.128 0.576 0.192 0.448-0.064 0.896-0.192 1.344-0.384z"></path>
<path  d="M11.776 21.056c0.192 0.192 0.384 0.32 0.576 0.512 0-0.192 0.064-0.448 0.192-0.64-0.128-0.064-0.192-0.128-0.32-0.192-0.064 0.128-0.192 0.256-0.448 0.32z"></path>
<path  d="M23.040 18.176c0 0.064 0 0.064 0 0z"></path>
<path  d="M23.040 18.24c0 0 0 0 0 0l-0.32 0.192c0 0 0 0 0 0l0.32-0.192z"></path>
<path  d="M16.448 22.912c0 0-0.064 0-0.064 0l-0.64 0.448c0.064 0 0.064 0 0.128 0l0.576-0.448c0 0 0 0 0 0z"></path>
<path  d="M17.856 21.184c0.256-0.256 0.448-0.384 0.448-0.384s0.064-0.064 0.128 0.064c0.832-0.32 1.6-0.384 2.24-1.664h-0.512c-0.064 0-0.064 0.256-0.128 0.32v0.064l-0.448 0.32c-0.128 0.064-0.448 0.32-0.768 0.704-0.064-0.128-0.128-0.128-0.128-0.192l-0.128-0.256c-0.256 0.384-0.512 0.704-0.832 1.088 0 0 0.064-0.064 0.128-0.064z"></path>
<path  d="M16.704 22.656l0.512-0.384c0-0.064 0-0.128 0-0.192-0.192 0-0.384 0.064-0.576 0.064 0 0.064 0 0.064 0 0.128 0 0.128 0 0.256 0.064 0.384z"></path>
<path  d="M11.584 18.56c-0.128-0.448-0.448-0.768-0.576-0.896 0.128 0.384 0.32 0.704 0.512 1.024h0.512l-0.256-0.256-0.192 0.128z"></path>
<path  d="M13.888 24.64c-0.704 0-1.472-0.512-1.472-0.512s0.448-0.768 1.088-1.088c-0.192-0.128-0.384-0.256-0.576-0.32-0.192 0.512-0.512 0.64-0.768 0.64-0.576 0-1.216-0.64-1.216-0.64s0.512-0.576 1.024-0.704c-0.192-0.128-0.384-0.32-0.576-0.512-0.192 0.32-0.448 0.448-0.704 0.448-0.64 0-1.216-0.832-1.216-0.832s0.512-0.384 1.024-0.512c-0.128-0.128-0.256-0.256-0.384-0.448-0.192 0.256-0.448 0.384-0.64 0.384-0.576 0-1.152-0.768-1.152-0.768s0.576-0.448 1.152-0.448c-0.064-0.128-0.128-0.192-0.192-0.32-0.064 0-0.128 0-0.192 0-1.216 0-0.704-1.728-0.704-1.728s1.984 0.128 1.344 1.408c0.064 0.064 0.128 0.192 0.192 0.256 0.064-0.256 0.256-0.512 0.448-0.64-0.128-0.32-0.256-0.64-0.32-1.024-0.512-0.448-1.344-0.512-1.536-0.576h-0.448l-0.128 0.448c-0.064 0.192-0.32 1.28 0.192 1.984 0.064 0.064 0.064 0.128 0.128 0.128-0.064 0.064-0.128 0.064-0.128 0.128l-0.448 0.32 0.32 0.448c0.064 0.128 0.384 0.576 0.896 0.832l-0.064 0.064 0.32 0.448c0.128 0.128 0.64 0.832 1.344 1.024l-0.192 0.256 0.384 0.384c0.064 0.064 0.704 0.704 1.408 0.832l-0.256 0.448 0.448 0.32c0.064 0.064 0.96 0.64 1.792 0.64 0.448 0 0.768-0.128 1.088-0.384l0.064 0.128 0.512-0.064c0.32-0.064 0.576-0.128 0.96-0.192 0.32 0.064 0.64 0.128 0.96 0.192l0.256-0.128 0.064-0.128c0.256 0.256 0.64 0.384 1.088 0.384 0.832 0 1.728-0.576 1.792-0.64l0.448-0.32-0.256-0.448c0.704-0.128 1.344-0.704 1.408-0.832l0.384-0.384-0.256-0.192c0.704-0.192 1.216-0.896 1.344-1.024l0.32-0.448-0.064-0.064c0.448-0.256 0.768-0.704 0.896-0.832l0.32-0.448-0.448-0.32c0 0-0.064-0.064-0.128-0.128 0.064-0.064 0.128-0.128 0.128-0.128 0.512-0.704 0.256-1.728 0.192-1.984l-0.128-0.448h-0.448c-0.192 0-1.088 0.064-1.664 0.64-0.064 0.32-0.192 0.64-0.32 0.896 0.064 0.064 0.128 0.192 0.256 0.256l0.256-0.192c-0.128-0.96 1.472-1.024 1.472-1.024s0.512 1.728-0.704 1.728c-0.064 0-0.128 0-0.192 0-0.064 0.128-0.128 0.192-0.192 0.32 0.512 0 1.152 0.448 1.152 0.448s-0.64 0.832-1.216 0.832c-0.192 0-0.448-0.128-0.64-0.384-0.128 0.128-0.256 0.32-0.384 0.448 0.512 0.064 1.024 0.512 1.024 0.512s-0.576 0.832-1.216 0.832c-0.256 0-0.448-0.128-0.704-0.448-0.192 0.192-0.384 0.32-0.576 0.512 0.512 0.128 1.024 0.704 1.024 0.704s-0.64 0.64-1.216 0.64c-0.32 0-0.576-0.192-0.768-0.64-0.192 0.128-0.384 0.256-0.576 0.32 0.64 0.32 1.088 1.088 1.088 1.088s-0.768 0.512-1.472 0.512c-0.448 0-0.896-0.256-1.024-0.96-0.128 0.064-0.256 0.064-0.32 0.128l-0.192 0.576c-0.32-0.064-0.704-0.128-1.024-0.192-0.32 0.064-0.704 0.128-1.024 0.192l-0.128-0.512z"></path>
<path  d="M13.376 22.272c0.192 0.128 0.384 0.192 0.576 0.32-0.128-0.256-0.064-0.576 0.064-0.832-0.064 0-0.128-0.064-0.192-0.064-0.064 0.128-0.128 0.384-0.448 0.576z"></path>
<path  d="M15.040 21.184c0 0 0.064 0 0.064 0-0.32-0.32-0.576-0.704-0.832-1.024l-0.192 0.256c0 0-0.064 0.064-0.128 0.192-0.256-0.384-0.64-0.576-0.768-0.64l-0.384-0.32v-0.128c-0.064-0.064-0.064-0.32-0.128-0.32h-0.576c0.64 1.28 1.408 1.344 2.304 1.664 0.064-0.128 0.128-0.128 0.128-0.128s0.256 0.256 0.512 0.448z"></path>
<path  d="M10.496 17.984c0 0 0.896 0.832 0.512 1.408 0.064 0.128 0.192 0.256 0.256 0.32 0.192-0.32 0.448-0.512 0.448-0.512s0.96 0.896 0.576 1.472c0.064 0.064 0.192 0.128 0.32 0.192 0.128-0.32 0.32-0.512 0.32-0.512s0.896 0.576 0.896 1.216c0.064 0 0.128 0.064 0.192 0.064 0.128-0.256 0.256-0.704 0.384-0.832-0.896-0.32-1.664-0.384-2.304-1.664h0.576c-0.192 0-0.448-0.512-0.512-0.576h-0.704c-0.192 0-0.384-0.576-0.512-0.96-0.064-0.064-0.064-0.064-0.064-0.064l-0.384-0.32-0.256 0.256c-0.064-0.128-0.192-0.192-0.256-0.32 0.064 0.32 0.192 0.704 0.32 1.024 0.128-0.128 0.192-0.192 0.192-0.192z"></path>
<path  d="M21.76 19.072c0 0 0 0.064 0 0z"></path>
<path  d="M18.56 20.16l-0.064-0.128-0.448 0.256c-0.192 0.128-1.28 0.896-1.344 1.856 0.192 0 0.384 0 0.576-0.064z"></path>
<path  d="M20.608 19.968l-1.92 1.344c0.064 0.128 0.128 0.256 0.192 0.384 0.064 0 0.128-0.064 0.256-0.128 0-0.576 0.896-1.152 0.896-1.152s0.192 0.192 0.32 0.448c0.128-0.064 0.192-0.128 0.32-0.192-0.192-0.192-0.192-0.448-0.064-0.704z"></path>
<path  d="M22.336 17.216l-0.384 0.32c-0.064 0.064-0.128 0.064-0.192 0.192-0.128 0.32-0.256 0.832-0.448 0.832h-0.448l-0.128 0.064c-0.064 0.064-0.32 0.576-0.576 0.576h0.512c-0.64 1.28-1.344 1.344-2.24 1.664 0.064 0.064 0.128 0.256 0.192 0.384l1.984-1.344c0.192-0.384 0.512-0.64 0.512-0.64s0.064 0.064 0.192 0.192l0.448-0.32c0-0.512 0.576-1.088 0.576-1.088s0.064 0.064 0.128 0.128c0.128-0.32 0.192-0.576 0.32-0.896-0.064 0.064-0.128 0.128-0.192 0.256l-0.256-0.32z"></path>
<path  d="M15.040 21.184c0.256 0.256 0.512 0.576 0.576 0.896 0.192 0 0.384 0.064 0.576 0.064-0.128-0.96-1.152-1.728-1.344-1.856l-0.448-0.256-0.128 0.128c0.256 0.32 0.512 0.704 0.832 1.024 0 0.064 0 0-0.064 0z"></path>
<path  d="M20.608 19.968c0 0 0-0.064 0.064-0.064l-1.984 1.408c0 0 0 0 0 0.064l1.92-1.408z"></path>
<path  d="M21.376 19.392c0.064 0.064 0.128 0.192 0.192 0.256 0.064-0.128 0.192-0.256 0.256-0.32 0-0.064-0.064-0.128-0.064-0.192l-0.384 0.256z"></path>
<path  d="M21.76 19.136c0 0 0-0.064 0 0l-0.448 0.256c0 0 0 0 0 0l0.448-0.256z"></path>
<path  d="M21.376 19.392c0 0 0 0 0 0l-0.704 0.448c0 0 0 0.064-0.064 0.064l0.768-0.512z"></path>
</svg>
<svg id="icon-like" width="32" height="32" viewBox="0 0 32 32" x="672" y="0">
<path  d="M5.831 14.933c0.213-0.498 0.64-0.64 1.209-0.64 1.138 0 2.276 0 3.413 0 0.64 0 0.996 0.356 0.996 0.996 0 2.773 0 5.547 0 8.32 0 0.569-0.284 0.924-0.924 0.924-1.28 0-2.489 0.071-3.769 0-0.284 0-0.569-0.356-0.924-0.569 0-2.987 0-6.044 0-9.031zM9.244 21.973c0-0.427-0.356-0.853-0.853-0.853s-0.853 0.427-0.853 0.853c0 0.498 0.356 0.853 0.853 0.853 0.498 0.071 0.853-0.356 0.853-0.853z"></path>
<path  d="M20.978 12.587c1.209 0 2.347 0 3.484 0s2.062 0.356 2.56 1.422c0.498 0.996 0.356 1.991-0.213 2.916-0.071 0.142-0.142 0.427-0.071 0.64 0.142 0.782 0.071 1.564-0.356 2.276-0.071 0.142-0.142 0.356-0.071 0.498 0.142 0.853-0.071 1.636-0.569 2.347-0.142 0.142-0.213 0.427-0.213 0.569-0.071 1.92-1.138 2.987-3.058 3.129-2.489 0.142-4.836-0.213-7.111-1.067-0.711-0.284-1.493-0.427-2.204-0.64-0.569-0.142-0.782-0.427-0.782-1.067 0-1.778 0-3.627 0-5.404 0-0.924 0-1.849 0-2.702 0-0.711 0.142-0.853 0.782-1.067 0.284-0.071 0.569-0.284 0.782-0.498 0.782-0.924 1.493-1.849 2.276-2.702 0.924-0.924 1.493-2.062 1.564-3.342 0 0 0 0 0-0.071 0.356-1.493 0.924-1.991 1.707-1.92 1.422 0.142 2.347 0.924 2.56 2.204 0.213 1.351 0 2.631-0.711 3.84-0.142 0.071-0.213 0.284-0.356 0.64z"></path>
</svg>
<svg id="icon-mail" width="32" height="32" viewBox="0 0 32 32" x="720" y="0">
<path  d="M27.093 23.538h-21.049v-15.929h21.049v15.929zM7.893 21.689h17.351v-12.231h-17.351v12.231z"></path>
<path  d="M16.569 16.711l-10.098-7.396 1.067-1.493 9.031 6.613 9.102-6.613 1.067 1.493z"></path>
</svg>
<svg id="icon-media" width="32" height="32" viewBox="0 0 32 32" x="0" y="48">
<path  d="M21.12 21.12h-13.44v-9.088l3.264-3.712h-4.672l-1.792 2.624v12.736h21.12v-11.52h-4.48z"></path>
<path  d="M14.784 12.16l3.328-3.84h-4.672l-3.072 3.84z"></path>
<path  d="M21.888 12.16l3.328-3.84h-4.608l-3.264 3.84z"></path>
</svg>
<svg id="icon-news" width="32" height="32" viewBox="0 0 32 32" x="48" y="48">
<path  d="M4.8 6.016c0.32 0 0.64 0.064 0.96 0.064 6.336 0 12.736 0 19.072 0 0.32 0 0.576 0 0.96 0 0 0.832 0 1.6 0 2.304 0 0.512 0.128 0.704 0.704 0.704 0.768-0.064 1.472 0 2.304 0 0 0.32 0.064 0.576 0.064 0.768 0 3.84 0 7.616 0 11.456 0 1.792-0.896 2.688-2.688 2.688-6.336 0-12.736 0-19.072 0-1.024 0-1.792-0.192-2.304-1.216 0-5.504 0-11.136 0-16.768zM6.272 7.552c0 5.056 0 10.048 0 15.040 6.016 0 12.032 0 18.048 0 0-5.056 0-10.048 0-15.040-6.016 0-12.032 0-18.048 0z"></path>
<path  d="M7.872 13.632c0 2.496 0 4.864 0 7.296 2.432 0 4.864 0 7.36 0 0-2.304 0-4.608 0-6.848 0-0.128-0.256-0.448-0.448-0.448-2.304 0-4.544 0-6.912 0zM7.872 11.904c4.992 0 9.92 0 14.848 0 0-0.448 0-0.832 0-1.216-4.992 0-9.856 0-14.848 0 0 0.384 0 0.768 0 1.216zM22.72 13.696c-1.984 0-3.84 0-5.824 0 0 0.448 0.064 0.832 0.064 1.216 1.984 0 3.84 0 5.76 0 0-0.448 0-0.832 0-1.216zM22.72 16.64c-1.6 0-3.2 0-4.736 0-1.152 0-1.28 0.128-0.96 1.28 1.856 0 3.776 0 5.696 0 0-0.384 0-0.768 0-1.28zM17.024 20.928c1.408 0 2.816 0 4.16 0 0.192-1.28 0.192-1.28-0.96-1.28-0.704 0-1.472 0-2.176 0-1.216 0-1.28 0.064-1.024 1.28z"></path>
<path  d="M7.872 13.632c2.368 0 4.608 0 6.848 0 0.128 0 0.448 0.256 0.448 0.448 0 2.24 0 4.544 0 6.848-2.496 0-4.864 0-7.36 0 0.064-2.432 0.064-4.8 0.064-7.296z"></path>
<path  d="M7.872 11.904c0-0.448 0-0.768 0-1.216 4.928 0 9.856 0 14.848 0 0 0.384 0 0.768 0 1.216-4.928 0-9.856 0-14.848 0z"></path>
<path  d="M22.72 13.696c0 0.384 0 0.768 0 1.216-1.92 0-3.776 0-5.76 0 0-0.384-0.064-0.768-0.064-1.216 1.984 0 3.84 0 5.824 0z"></path>
<path  d="M22.72 16.64c0 0.512 0 0.896 0 1.28-1.92 0-3.776 0-5.696 0-0.32-1.152-0.256-1.28 0.96-1.28 1.536 0 3.136 0 4.736 0z"></path>
<path  d="M17.024 20.928c-0.256-1.28-0.192-1.28 0.96-1.28 0.704 0 1.472 0 2.176 0 1.216 0 1.216 0 0.96 1.28-1.28 0-2.688 0-4.096 0z"></path>
</svg>
<svg id="icon-practice" width="32" height="32" viewBox="0 0 32 32" x="96" y="48">
<path  d="M15.616 2.304c-7.296 0-13.248 5.952-13.248 13.248s5.952 13.248 13.248 13.248c7.296 0 13.248-5.952 13.248-13.248s-5.952-13.248-13.248-13.248zM6.080 22.656l9.536-17.856 9.536 17.792h-19.072z"></path>
</svg>
<svg id="icon-practice-box" width="32" height="32" viewBox="0 0 32 32" x="144" y="48">
<path  d="M3.2 3.2v25.6h25.6v-25.6h-25.6zM16 24.192c-4.224 0-7.616-3.392-7.616-7.616 0-4.16 3.392-7.616 7.616-7.616s7.616 3.392 7.616 7.616c0 4.224-3.392 7.616-7.616 7.616z"></path>
<path  d="M10.56 20.48h10.88l-5.44-10.24z"></path>
</svg>
<svg id="icon-practice-circle" width="32" height="32" viewBox="0 0 32 32" x="192" y="48">
<path  d="M16 2.432c-7.424 0-13.44 6.016-13.44 13.44s6.016 13.44 13.44 13.44 13.44-6.016 13.44-13.44-6.016-13.44-13.44-13.44zM16 27.008c-3.904 0-7.36-2.048-9.344-5.056h18.304l-9.152-17.152-9.152 17.088c-1.152-1.728-1.792-3.776-1.792-6.016 0-6.144 4.992-11.136 11.136-11.136s11.136 4.992 11.136 11.136-4.992 11.136-11.136 11.136z"></path>
</svg>
<svg id="icon-reply" width="32" height="32" viewBox="0 0 32 32" x="240" y="48">
<path  d="M28.16 24.462c-1.209-1.92-2.631-3.556-4.551-4.693-2.489-1.564-5.191-2.133-8.178-1.849 0 1.138 0 2.204 0 3.271 0 0.569 0.071 1.138-0.498 1.493-0.569 0.284-0.924-0.213-1.351-0.498-3.058-2.204-6.116-4.48-9.173-6.684-0.284-0.213-0.427-0.427-0.64-0.711 0-0.142 0-0.284 0-0.427 0.213-0.284 0.498-0.569 0.782-0.711 3.129-2.276 6.187-4.551 9.316-6.827 0.071-0.071 0.213-0.142 0.284-0.213 0.64-0.427 1.138-0.213 1.28 0.569 0.071 0.569 0.071 1.067 0.071 1.636s0 1.067 0 1.636c1.067 0.213 2.133 0.284 3.129 0.64 5.049 1.636 7.964 5.191 9.244 10.24 0.142 0.569 0.213 1.209 0.356 1.849-0.071 0.356-0.071 0.853-0.071 1.28z"></path>
</svg>
<svg id="icon-report" width="32" height="32" viewBox="0 0 32 32" x="288" y="48">
<path  d="M30.009 25.244c-0.427 0.853-1.209 1.138-2.133 1.138-7.538 0-15.004 0-22.542 0-0.924 0-1.707-0.284-2.133-1.138 0-0.213 0-0.498 0-0.711 0.213-0.427 0.427-0.782 0.64-1.209 3.627-6.116 7.253-12.302 10.951-18.418 0.356-0.569 0.924-0.924 1.351-1.422 0.213 0 0.498 0 0.711 0 0.427 0.356 0.924 0.569 1.138 0.996 3.982 6.684 7.964 13.369 11.947 19.982 0.071 0.284 0.071 0.498 0.071 0.782zM16.64 7.324c-3.342 5.476-6.613 10.88-9.956 16.356 6.684 0 13.156 0 19.84 0-3.342-5.476-6.613-10.88-9.884-16.356z"></path>
<path  d="M18.347 13.582c-0.071 1.351-0.213 2.702-0.284 4.053-0.071 0.853-0.711 1.493-1.493 1.422-0.782 0-1.351-0.64-1.422-1.422-0.142-1.636-0.213-3.271-0.356-4.907-0.071-1.138 0.711-1.991 1.778-1.991s1.849 0.853 1.778 1.991c0 0.356 0 0.64 0 0.853 0 0 0 0 0 0z"></path>
<path  d="M16.569 22.684c-0.853 0-1.422-0.64-1.422-1.422 0-0.853 0.64-1.422 1.493-1.422s1.493 0.64 1.493 1.493c-0.071 0.782-0.711 1.351-1.564 1.351z"></path>
</svg>
<svg id="icon-research" width="32" height="32" viewBox="0 0 32 32" x="336" y="48">
<path  d="M28.544 22.912l-1.856 0.96c-0.96 0.448-2.112 0.064-2.56-0.832l-6.016-11.904c-0.448-0.96-0.064-2.112 0.832-2.56l1.856-0.96c0.96-0.448 2.112-0.064 2.56 0.832l6.080 11.84c0.448 0.96 0.064 2.112-0.896 2.624z"></path>
<path  d="M10.24 6.976c0-0.32-0.256-0.576-0.576-0.576h-4.608c-0.32 0-0.576 0.256-0.576 0.576v16.064c0 0.384 0.256 0.64 0.576 0.64h4.544c0.32 0 0.576-0.256 0.576-0.576v-16.128zM8.96 8.32h-3.2v-1.28h3.2v1.28z"></path>
<path  d="M17.92 6.976c0-0.32-0.256-0.576-0.576-0.576h-4.544c-0.32 0-0.576 0.256-0.576 0.576v16.064c0 0.32 0.256 0.576 0.576 0.576h4.544c0.32 0 0.576-0.256 0.576-0.576v-16.064zM15.36 8.32h-2.56v-1.28h2.56v1.28z"></path>
</svg>
<svg id="icon-response" width="32" height="32" viewBox="0 0 32 32" x="384" y="48">
<path  d="M16.16 1.056c-8.544 0-15.456 6.944-15.456 15.488s6.912 15.456 15.456 15.456c8.544 0 15.456-6.912 15.456-15.456s-6.912-15.488-15.456-15.488zM5.056 24.832l11.104-20.8 11.104 20.8h-22.208z"></path>
</svg>
<svg id="icon-science" width="32" height="32" viewBox="0 0 32 32" x="432" y="48">
<path  d="M16 0c-8.832 0-16 7.168-16 16s7.168 16 16 16c8.832 0 16-7.168 16-16s-7.168-16-16-16zM22.304 25.824h-12.704v-1.376h4.224v-3.776l-5.312-1.792 0.48-1.376 4.864 1.632h4.064c1.472-1.024 2.4-2.72 2.4-4.64 0-1.504-0.576-2.848-1.536-3.872l-3.36 5.088 0.8 0.544-0.864 1.28-1.216-0.8-0.704 1.056-0.992-0.672 0.704-1.056-1.024-0.672-0.704 1.056-1.024-0.704 0.704-1.056-0.224-0.128 0.864-1.28 3.264 2.176-2.464-1.632 3.744-5.632 0.48 0.32 2.080-2.592-0.832-0.576 0.352-0.544 3.104 2.080-0.352 0.544-0.8-0.544-1.184 2.336c1.504 1.28 2.464 3.168 2.464 5.312 0 2.432-1.248 4.576-3.168 5.824l1.856 4.128h1.984v1.344z"></path>
</svg>
<svg id="icon-science-box" width="32" height="32" viewBox="0 0 32 32" x="480" y="48">
<path  d="M3.2 3.648v24.64h25.6v-24.64h-25.6zM21.696 24.832h-10.496v-1.152h3.52v-3.072l-4.352-1.472 0.384-1.152 4.032 1.344h3.328c1.216-0.832 1.984-2.24 1.984-3.84 0-1.216-0.448-2.368-1.28-3.2l-2.816 4.288 0.64 0.448-0.64 1.024-0.96-0.64-0.576 0.832-0.832-0.512 0.576-0.832-0.832-0.576-0.576 0.832-0.832-0.576 0.576-0.832-0.192-0.128 0.704-1.088 2.688 1.792-2.048-1.344 3.072-4.608 0.384 0.256 1.728-2.176-0.704-0.448 0.32-0.448 2.56 1.728-0.32 0.448-0.64-0.448-0.96 1.92c1.216 1.024 2.048 2.624 2.048 4.352 0 1.984-1.024 3.776-2.624 4.8l1.536 3.392h1.6v1.088z"></path>
</svg>
<svg id="icon-science-circle" width="32" height="32" viewBox="0 0 32 32" x="528" y="48">
<path  d="M19.52 23.040l-1.408-3.136c1.472-0.96 2.432-2.624 2.432-4.48 0-1.664-0.704-3.072-1.92-4.096l0.896-1.792 0.64 0.384 0.256-0.384-2.368-1.6-0.256 0.384 0.64 0.448-1.6 1.984-0.384-0.256-2.88 4.352-0.576-0.384-0.64 0.96 0.192 0.128-0.512 0.832 0.768 0.512 0.512-0.832 0.768 0.576-0.512 0.832 0.768 0.512 0.512-0.832 0.896 0.64 0.64-0.96-0.64-0.384 2.56-3.904c0.704 0.768 1.152 1.856 1.152 2.944 0 1.472-0.704 2.752-1.856 3.584v0h-3.136l-3.712-1.28-0.384 1.088 4.096 1.344v2.816h-3.264v1.024h9.728v-1.024h-1.408z"></path>
<path  d="M16 29.504c-7.424 0-13.44-6.016-13.44-13.44s6.016-13.504 13.44-13.504c7.424 0 13.44 6.016 13.44 13.44 0 7.488-6.016 13.504-13.44 13.504zM16 4.928c-6.144 0-11.136 4.992-11.136 11.136s4.992 11.136 11.136 11.136c6.144 0 11.136-4.992 11.136-11.136s-4.992-11.136-11.136-11.136z"></path>
</svg>
<svg id="icon-search" width="32" height="32" viewBox="0 0 32 32" x="576" y="48">
<path  d="M25.344 23.296l-4.928-4.928c0.832-1.216 1.28-2.688 1.28-4.288 0-4.224-3.456-7.744-7.744-7.744s-7.68 3.52-7.68 7.744 3.456 7.744 7.744 7.744c1.728 0 3.264-0.576 4.544-1.472l4.928 4.928c0.256 0.256 0.64 0.384 0.96 0.384s0.704-0.128 0.96-0.384c0.448-0.576 0.448-1.472-0.064-1.984zM8.192 14.080c0-3.2 2.624-5.76 5.76-5.76 3.2 0 5.76 2.624 5.76 5.76s-2.624 5.76-5.76 5.76c-3.2 0.064-5.76-2.56-5.76-5.76z"></path>
</svg>
<svg id="icon-searchbox" width="32" height="32" viewBox="0 0 32 32" x="624" y="48">
<path  d="M15.289 9.884c-2.204 0-3.982 1.778-3.982 3.911 0 2.204 1.778 3.982 3.982 3.982s3.982-1.778 3.982-3.982c-0.071-2.133-1.849-3.911-3.982-3.911z"></path>
<path  d="M4.978 3.556v24.178h23.467v-24.178h-23.467zM24.889 21.973c0 0.427 0 0.782 0 1.493-0.711 0-1.138 0-1.564 0-0.071 0-0.213 0-0.284 0-0.284-0.711-0.569-0.711-0.924-0.996-0.853-0.853-1.707-1.707-2.489-2.56-0.284-0.284-0.284-0.498-0.071-0.853-0.427-0.427-0.782-0.782-1.209-1.209-0.071 0.071-0.142 0.071-0.213 0.142-2.844 1.92-6.613 0.64-7.68-2.631-0.071-0.284-0.284-0.569-0.356-0.924 0-0.071-0.142-0.071-0.142-0.142 0-0.284 0-0.569 0-0.853 0-0.071 0.142-0.142 0.142-0.213 0.284-2.133 1.92-3.911 3.982-4.409 0.213-0.071 0.427-0.284 0.64-0.284 0.284 0 0.64 0 0.924 0 0.213 0 0.427 0.213 0.64 0.284 2.133 0.498 3.627 2.204 3.911 4.338 0.213 1.351-0.142 2.631-0.996 3.698-0.071 0.071-0.071 0.142-0.142 0.142 0.427 0.427 0.782 0.782 1.209 1.209 0.071 0 0.142-0.071 0.213-0.071 0.213-0.071 0.427 0 0.64 0.142 0.569 0.569 1.067 1.067 1.636 1.636s1.28 1.209 1.92 1.778c0 0 0.213 0.071 0.213 0.071 0 0.071 0 0.142 0 0.213z"></path>
</svg>
<svg id="icon-security" width="32" height="32" viewBox="0 0 32 32" x="672" y="48">
<path  d="M15.52 24.608c6.784-1.248 6.88-7.424 6.88-7.712v-3.616l-6.88-1.44v12.768z"></path>
<path  d="M15.872 0c-8.768 0-15.872 7.104-15.872 15.872s7.104 15.904 15.872 15.904c8.768 0 15.904-7.136 15.904-15.904s-7.136-15.872-15.904-15.872zM23.808 16.896c0 0.064-0.224 7.616-8.288 8.992-7.584-1.408-7.584-9.024-7.584-9.024v-5.216l7.584-1.632 6.88 1.504v-1.888l-6.88-1.472-7.584 1.76v-1.376l7.584-1.728 8.288 1.792v8.288z"></path>
</svg>
<svg id="icon-security-box" width="32" height="32" viewBox="0 0 32 32" x="720" y="48">
<path  d="M3.136 3.456v25.088h26.048v-25.088h-26.048zM22.4 17.216c0 0.064-0.192 6.016-6.528 7.104-6.016-1.088-6.016-7.104-6.016-7.104v-4.16l6.016-1.28 5.44 1.216v-1.472l-5.44-1.152-6.016 1.344v-1.088l6.016-1.344 6.528 1.344v6.592z"></path>
<path  d="M15.872 23.296c5.376-0.96 5.44-5.888 5.44-6.080v-2.88l-5.44-1.152v10.112z"></path>
</svg>
<svg id="icon-security-circle" width="32" height="32" viewBox="0 0 32 32" x="0" y="96">
<path  d="M15.936 29.44c-7.424 0-13.44-6.016-13.44-13.44s6.016-13.44 13.44-13.44c7.424 0 13.44 6.016 13.44 13.44s-6.016 13.44-13.44 13.44zM15.936 4.864c-6.144 0-11.072 4.992-11.072 11.136s4.992 11.136 11.136 11.136c6.144 0 11.136-4.992 11.136-11.136s-5.056-11.136-11.2-11.136z"></path>
<path  d="M15.68 23.744l-0.128-0.96c5.376-0.896 5.44-5.76 5.44-6.016v-5.632l-5.44-1.152 0.128-1.024 6.4 1.408v6.464c0 0-0.128 5.824-6.4 6.912z"></path>
<path  d="M9.792 16.768c0 0 0 5.888 5.888 6.976v-12.288l-5.888 1.28v4.032z"></path>
<path  d="M15.68 10.048v-1.088l-5.888 1.344v1.088z"></path>
<path  d="M15.68 11.456l6.208 1.408v1.344l-6.208-1.344z"></path>
</svg>
<svg id="icon-share" width="100%" height="100%" viewBox="0 0 32 32" x="48" y="96">
<path  d="M21.632 18.112c-1.216 0-2.24 0.512-3.008 1.28l-5.504-2.688c0.064-0.32 0.128-0.64 0.128-0.96s-0.064-0.64-0.128-0.896l5.248-2.56c0.768 0.96 1.92 1.6 3.264 1.6 2.304 0 4.16-1.856 4.16-4.16s-1.856-4.16-4.16-4.16-4.16 1.856-4.16 4.16c0 0.256 0 0.512 0.064 0.768l-5.312 2.624c-0.768-0.896-1.92-1.472-3.136-1.472-2.304 0-4.16 1.856-4.16 4.16s1.856 4.16 4.16 4.16c1.28 0 2.368-0.576 3.136-1.408l5.376 2.624c-0.128 0.384-0.128 0.704-0.128 1.088 0 2.304 1.856 4.16 4.16 4.16s4.16-1.856 4.16-4.16c0-2.304-1.856-4.16-4.16-4.16zM21.632 7.616c1.152 0 2.112 0.96 2.112 2.112s-0.96 2.112-2.112 2.112-2.112-0.96-2.112-2.112c0-1.152 0.96-2.112 2.112-2.112zM9.088 17.92c-1.152 0-2.112-0.96-2.112-2.112s0.96-2.112 2.112-2.112 2.112 0.96 2.112 2.112-0.96 2.112-2.112 2.112zM21.632 24.384c-1.152 0-2.112-0.96-2.112-2.112s0.96-2.112 2.112-2.112 2.112 0.96 2.112 2.112-0.96 2.112-2.112 2.112z"></path>
</svg>
<svg id="icon-tag" width="32" height="32" viewBox="0 0 32 32" x="96" y="96">
<path  d="M27.022 18.702v-4.622l-4.267-5.049v0.213h0.356l-0.356-0.427v0.427h-17.778v14.933h18.276l3.769-5.476zM20.764 16.356c0-0.924 0.782-1.707 1.707-1.707s1.707 0.782 1.707 1.707c0 0.924-0.782 1.707-1.707 1.707s-1.707-0.782-1.707-1.707z"></path>
</svg>
<svg id="icon-track" width="32" height="32" viewBox="0 0 32 32" x="144" y="96">
<path  d="M25.792 10.24h-3.648l0.768-3.456c0.192-0.768-0.32-1.408-1.088-1.536-0.768-0.192-1.536 0.128-1.664 0.896l-0.896 4.096h-4.608l0.768-3.456c0.192-0.768-0.32-1.408-1.088-1.536-0.768-0.192-1.536 0.128-1.664 0.896l-0.896 4.096h-4.16c-0.768 0-1.408 0.512-1.408 1.28s0.64 1.28 1.408 1.28h3.584l-1.024 5.76h-3.968c-0.768 0-1.408 0.512-1.408 1.28s0.64 1.28 1.408 1.28h3.392l-0.704 3.392c-0.192 0.768 0.32 1.536 1.088 1.728 0.128 0 0.192 0.064 0.32 0.064 0.64 0 1.216-0.512 1.408-1.152l0.832-3.968h4.608l-0.704 3.392c-0.192 0.768 0.32 1.536 1.088 1.728 0.128 0 0.192 0.064 0.32 0.064 0.64 0 1.216-0.512 1.408-1.152l0.832-3.968h4.48c0.768 0 1.408-0.512 1.408-1.28s-0.64-1.28-1.408-1.28h-3.84l1.024-5.76h4.224c0.768 0 1.408-0.512 1.408-1.28s-0.768-1.408-1.6-1.408zM17.664 18.56h-4.608l1.024-5.76h4.608l-1.024 5.76z"></path>
</svg>
<svg id="icon-upload" width="32" height="32" viewBox="0 0 32 32" x="192" y="96">
<path  d="M14.016 16h3.2v-6.4h4.416l-5.696-5.568-5.824 5.568h3.904z"></path>
<path  d="M18.496 12.672v2.176l6.912 2.688-9.664 3.584-9.6-3.584 6.592-2.624v-2.24l-8.576 3.2v5.952l12.224 4.352 12.352-4.352v-5.696z"></path>
</svg>
<svg id="icon-view" width="32" height="32" viewBox="0 0 32 32" x="240" y="96">
<path  d="M14.791 7.609c1.067 0 2.133 0 3.2 0 3.2 0.64 5.973 2.133 8.249 4.48 1.067 1.067 1.991 2.204 2.916 3.342 0 0.142 0 0.284 0 0.427-0.782 0.924-1.564 1.991-2.418 2.844-2.702 2.773-5.76 4.764-9.742 4.978-4.48 0.213-7.964-1.849-11.022-4.907-0.853-0.924-1.636-1.92-2.418-2.844 0-0.142 0-0.284 0-0.427 0.427-0.569 0.924-1.138 1.351-1.707 2.631-3.2 5.831-5.333 9.884-6.187zM21.191 15.573c0-2.631-2.204-4.764-4.907-4.764-2.631 0-4.764 2.204-4.693 4.836 0 2.631 2.204 4.836 4.907 4.764 2.56 0 4.693-2.204 4.693-4.836z"></path>
<path  d="M17.991 15.644c0 0.853-0.711 1.564-1.564 1.636-0.853 0-1.564-0.711-1.636-1.564 0-0.853 0.711-1.564 1.564-1.564 0.924-0.142 1.636 0.569 1.636 1.493z"></path>
</svg>
<svg id="icon-VIP" width="32" height="32" viewBox="0 0 32 32" x="288" y="96">
<path  d="M7.467 16.782c0-0.498 0-1.067 0-1.564 0-0.071 0.071-0.071 0.071-0.142 0-0.64 0.213-1.209 0.427-1.849 0.427-1.422 1.28-2.56 2.347-3.556 0.924-0.853 1.991-1.493 3.271-1.849 0.569-0.142 1.138-0.284 1.707-0.356 0.498 0 1.067 0 1.564 0 0.427 0.071 0.924 0.213 1.351 0.284 1.636 0.427 2.987 1.28 4.124 2.489 0.853 0.924 1.493 2.062 1.849 3.271 0.142 0.569 0.213 1.138 0.356 1.707 0 0.498 0 0.996 0 1.422 0 0.071-0.071 0.142-0.071 0.142 0 0.64-0.213 1.28-0.427 1.92-1.067 2.844-3.129 4.693-6.044 5.476-0.427 0.071-0.853 0.142-1.209 0.213-0.498 0-0.924 0-1.422 0-0.071 0-0.142-0.071-0.142-0.071-0.64 0-1.28-0.213-1.849-0.427-1.351-0.427-2.56-1.28-3.484-2.347-0.853-0.924-1.493-2.062-1.849-3.271-0.356-0.356-0.427-0.924-0.569-1.493zM22.613 16c0.071-3.627-2.987-6.684-6.613-6.684s-6.684 2.987-6.684 6.613c0 3.698 2.987 6.684 6.613 6.684 3.769 0 6.684-2.916 6.684-6.613z"></path>
<path  d="M15.289 18.987c-0.213 0-0.356-0.071-0.498-0.142-0.782-0.569-1.636-1.138-2.418-1.707-0.213-0.142-0.213-0.356-0.071-0.569 0.284-0.356 0.569-0.64 0.924-0.996 0.142-0.142 0.284-0.071 0.427 0 0.356 0.284 0.782 0.569 1.138 0.853 0.213 0.142 0.356 0.142 0.498-0.071 0.853-0.996 1.707-1.991 2.56-2.987 0.356-0.427 0.427-0.427 0.853-0.071 0.284 0.142 0.498 0.356 0.782 0.569s0.284 0.427 0.071 0.64c-0.853 0.996-1.707 1.991-2.631 2.987-0.427 0.427-0.782 0.924-1.209 1.351-0.071 0.071-0.213 0.213-0.427 0.142z"></path>
</svg>
<svg id="icon-division-01" width="32" height="32" viewBox="0 0 32 32" x="336" y="96">
<path  d="M15.968 0.384c-8.64 0-15.648 7.008-15.648 15.648s7.008 15.648 15.648 15.648c8.64 0 15.648-7.008 15.648-15.648s-7.008-15.648-15.648-15.648zM24.096 19.040c-1.824 0-3.648 0-5.472 0 0 1.824 0 3.616 0 5.44-1.984 0-3.936 0-5.92 0 0-1.824 0-3.616 0-5.44-1.792 0-3.584 0-5.376 0 0-1.984 0-3.968 0-5.92 1.792 0 3.584 0 5.376 0 0-1.792 0-3.616 0-5.408 1.984 0 3.968 0 5.92 0 0 1.792 0 3.616 0 5.408 1.824 0 3.648 0 5.472 0 0 1.952 0 3.936 0 5.92z"></path>
</svg>
<svg id="icon-division-02" width="32" height="32" viewBox="0 0 32 32" x="384" y="96">
<path  d="M16 0c-8.832 0-16 7.168-16 16s7.168 16 16 16c8.832 0 16-7.168 16-16s-7.168-16-16-16zM22.304 25.824h-12.704v-1.376h4.224v-3.776l-5.312-1.792 0.48-1.376 4.864 1.632h4.064c1.472-1.024 2.4-2.72 2.4-4.64 0-1.504-0.576-2.848-1.536-3.872l-3.36 5.088 0.8 0.544-0.864 1.28-1.216-0.8-0.704 1.056-0.992-0.672 0.704-1.056-1.024-0.672-0.704 1.056-1.024-0.704 0.704-1.056-0.224-0.128 0.864-1.28 3.264 2.176-2.464-1.632 3.744-5.632 0.48 0.32 2.080-2.592-0.832-0.576 0.352-0.544 3.104 2.080-0.352 0.544-0.8-0.544-1.184 2.336c1.504 1.28 2.464 3.168 2.464 5.312 0 2.432-1.248 4.576-3.168 5.824l1.856 4.128h1.984v1.344z"></path>
</svg>
<svg id="icon-division-03" width="32" height="32" viewBox="0 0 32 32" x="432" y="96">
<path  d="M16.16 1.056c-8.544 0-15.456 6.944-15.456 15.488s6.912 15.456 15.456 15.456c8.544 0 15.456-6.912 15.456-15.456s-6.912-15.488-15.456-15.488zM5.056 24.832l11.104-20.8 11.104 20.8h-22.208z"></path>
</svg>
<svg id="icon-division-04" width="32" height="32" viewBox="0 0 32 32" x="480" y="96">
<path  d="M15.52 24.608c6.784-1.248 6.88-7.424 6.88-7.712v-3.616l-6.88-1.44v12.768z"></path>
<path  d="M15.872 0c-8.768 0-15.872 7.104-15.872 15.872s7.104 15.904 15.872 15.904c8.768 0 15.904-7.136 15.904-15.904s-7.136-15.872-15.904-15.872zM23.808 16.896c0 0.064-0.224 7.616-8.288 8.992-7.584-1.408-7.584-9.024-7.584-9.024v-5.216l7.584-1.632 6.88 1.504v-1.888l-6.88-1.472-7.584 1.76v-1.376l7.584-1.728 8.288 1.792v8.288z"></path>
</svg>
<svg id="icon-division-05" width="32" height="32" viewBox="0 0 32 32" x="528" y="96">
<path  d="M15.36 15.040h-3.296c0.128 0.96 0.512 2.24 1.152 3.2h2.144v-3.2z"></path>
<path  d="M19.84 15.040h-3.52v3.2h2.368c0.64-0.96 1.024-2.24 1.152-3.2z"></path>
<path  d="M15.36 9.6v-2.368c-0.64 0.512-1.312 1.408-2.016 2.368h2.016z"></path>
<path  d="M19.872 13.312c-0.096-0.96-0.352-1.792-0.736-2.752h-2.816v3.52h3.584c0-0.32 0-0.576-0.032-0.768z"></path>
<path  d="M18.048 19.52h-1.728v1.792c0.64-0.64 1.28-1.152 1.728-1.792z"></path>
<path  d="M18.72 20.288l0.32 0.288c0.032 0.032 0.096 0.128 0.192 0.256 0.352-0.448 0.832-0.768 0.96-0.864l0.544-0.32 0.032 0.064c0.032-0.096 0.096-0.16 0.128-0.16h-1.6c-0.192-0.032-0.384 0.448-0.576 0.736z"></path>
<path  d="M16.32 7.232v2.368h2.24c-0.672-0.96-1.6-1.856-2.24-2.368z"></path>
<path  d="M20.896 13.216c0.032 0.256 0.032 0.544 0.032 0.864h2.56c-0.064-1.28-0.352-2.56-0.896-3.52h-2.336c0.352 0.96 0.576 1.728 0.64 2.656z"></path>
<path  d="M21.952 9.6c-1.056-1.28-2.592-2.368-4.352-2.752 0.704 0.672 1.504 1.792 2.176 2.752h2.176z"></path>
<path  d="M22.080 17.984l0.192 0.224c0.16-0.416 0.416-0.736 0.64-0.992 0.288-0.704 0.512-1.536 0.576-2.176h-2.592c-0.128 0.96-0.48 2.24-1.024 3.2h1.888l0.32-0.256z"></path>
<path  d="M11.008 13.216c0.096-0.928 0.32-1.696 0.64-2.656h-2.368c-0.512 0.96-0.832 2.24-0.896 3.52h2.56c0.032-0.32 0.032-0.64 0.064-0.864z"></path>
<path  d="M14.304 6.848c-1.76 0.384-3.264 1.472-4.32 2.752h2.176c0.64-0.96 1.472-2.112 2.144-2.752z"></path>
<path  d="M15.36 19.52h-1.504c0.448 0.64 0.864 1.152 1.504 1.792v-1.792z"></path>
<path  d="M16 0.256c-8.768 0-15.872 7.104-15.872 15.872s7.104 15.872 15.872 15.872c8.768 0 15.872-7.104 15.872-15.872s-7.104-15.872-15.872-15.872zM27.072 20.064c-0.096 0.16-0.512 0.704-1.12 1.056l0.096 0.096-0.416 0.576c-0.128 0.192-0.8 1.088-1.696 1.344l0.256 0.32-0.512 0.512c-0.096 0.096-0.896 0.896-1.824 1.056l0.32 0.544-0.544 0.352c-0.128 0.096-1.216 0.832-2.336 0.832-0.544 0-1.024-0.192-1.376-0.512l-0.064 0.16-0.672-0.096c-0.384-0.064-0.768-0.128-1.216-0.224-0.416 0.096-0.832 0.16-1.184 0.224l-0.672 0.096-0.032-0.16c-0.352 0.32-0.832 0.512-1.376 0.512-1.12 0-2.208-0.736-2.336-0.832l-0.576-0.384 0.32-0.544c-0.928-0.16-1.728-0.928-1.856-1.056l-0.512-0.512 0.288-0.32c-0.928-0.256-1.568-1.12-1.728-1.344l-0.416-0.576 0.096-0.096c-0.608-0.352-1.024-0.928-1.12-1.056l-0.384-0.576 0.544-0.448c0.032-0.032 0.096-0.064 0.192-0.128-0.064-0.064-0.128-0.128-0.192-0.192-0.672-0.896-0.288-2.272-0.224-2.56l0.16-0.576 0.576 0.032c0.256 0 1.312 0.096 2.016 0.704-0.16-0.672-0.256-1.376-0.256-2.112 0-4.736 3.84-8.608 8.608-8.608 4.736 0 8.608 3.84 8.608 8.608 0 0.768-0.096 1.504-0.288 2.208 0.672-0.704 1.856-0.768 2.112-0.8l0.576-0.032 0.16 0.576c0.096 0.288 0.448 1.664-0.224 2.56-0.064 0.064-0.096 0.128-0.192 0.192 0.096 0.064 0.16 0.096 0.192 0.128l0.544 0.448-0.32 0.608z"></path>
<path  d="M24.704 18.176c-0.064 0.096-0.128 0.224-0.224 0.32-0.128-0.384-0.416-0.704-0.608-0.896-0.096-0.096-0.16-0.16-0.16-0.16s-1.056 0.992-0.704 1.728c0.096 0.192 0.288 0.384 0.64 0.512-0.192 0.256-0.416 0.512-0.64 0.736-0.032-0.288-0.16-0.576-0.352-0.8-0.256-0.352-0.544-0.608-0.544-0.608s-1.184 1.12-0.736 1.888c0.096 0.192 0.32 0.352 0.64 0.512-0.256 0.224-0.512 0.448-0.768 0.64 0-0.288-0.128-0.608-0.256-0.864-0.192-0.352-0.416-0.608-0.416-0.608s-1.12 0.736-1.12 1.536c0 0.288 0.128 0.576 0.512 0.832-0.256 0.128-0.48 0.288-0.704 0.416 0.128-0.352 0.064-0.768-0.096-1.12-0.128-0.384-0.352-0.704-0.512-0.928l-0.192-0.256-0.608 0.48c-0.32 0.32-0.704 0.768-0.8 1.216-0.096 0.416 0.032 0.864 0.64 1.28-0.576 0.224-1.12 0.384-1.664 0.512-0.544-0.128-1.12-0.32-1.664-0.512 0.576-0.384 0.704-0.832 0.64-1.28-0.096-0.448-0.448-0.896-0.768-1.184-0.32-0.32-0.64-0.512-0.64-0.512s-0.096 0.096-0.192 0.256c-0.16 0.224-0.352 0.544-0.512 0.928-0.128 0.352-0.192 0.736-0.064 1.088-0.256-0.128-0.48-0.256-0.736-0.416 0.352-0.256 0.512-0.512 0.512-0.8 0-0.8-1.152-1.568-1.152-1.568s-0.256 0.288-0.448 0.672c-0.128 0.256-0.224 0.512-0.224 0.8-0.256-0.192-0.512-0.416-0.768-0.64 0.32-0.128 0.512-0.288 0.608-0.448 0.512-0.768-0.704-1.92-0.704-1.92s-0.32 0.288-0.576 0.64c-0.16 0.224-0.288 0.512-0.32 0.768-0.224-0.224-0.416-0.48-0.64-0.736 0.32-0.128 0.512-0.288 0.608-0.448 0.48-0.736-0.672-1.792-0.672-1.792s-0.096 0.096-0.224 0.224c-0.192 0.192-0.448 0.512-0.544 0.832-0.064-0.096-0.128-0.192-0.224-0.32 0.832-1.664-1.728-1.792-1.728-1.792s-0.672 2.24 0.896 2.24c0.064 0 0.16 0 0.224 0 0.096 0.128 0.192 0.288 0.288 0.416-0.672 0-1.472 0.608-1.472 0.608s0.704 1.024 1.472 1.024c0.288 0 0.544-0.128 0.832-0.512 0.16 0.192 0.32 0.384 0.48 0.576-0.672 0.096-1.312 0.64-1.312 0.64s0.736 1.088 1.536 1.088c0.32 0 0.608-0.16 0.896-0.576 0.256 0.224 0.48 0.416 0.736 0.64-0.704 0.192-1.312 0.928-1.312 0.928s0.832 0.832 1.6 0.832c0.384 0 0.768-0.224 1.024-0.832 0.256 0.16 0.512 0.32 0.768 0.448-0.8 0.416-1.408 1.44-1.408 1.44s0.992 0.704 1.888 0.704c0.608 0 1.152-0.288 1.344-1.28 0.128 0.064 0.288 0.096 0.448 0.16l0.16 0.704c0.448-0.064 0.864-0.16 1.312-0.256 0.448 0.096 0.896 0.192 1.312 0.256l0.16-0.704c0.16-0.064 0.32-0.096 0.448-0.16 0.192 0.992 0.736 1.28 1.344 1.28 0.896 0 1.888-0.704 1.888-0.704s-0.608-1.024-1.408-1.44c0.256-0.128 0.512-0.288 0.768-0.448 0.256 0.608 0.64 0.832 1.024 0.832 0.768 0 1.6-0.832 1.6-0.832s-0.64-0.704-1.312-0.928c0.256-0.192 0.512-0.416 0.736-0.64 0.288 0.416 0.608 0.576 0.896 0.576 0.8 0 1.536-1.088 1.536-1.088s-0.672-0.512-1.312-0.64c0.16-0.192 0.32-0.384 0.48-0.576 0.256 0.352 0.544 0.512 0.8 0.512 0.768 0 1.472-1.024 1.472-1.024s-0.768-0.608-1.472-0.608c0.096-0.128 0.192-0.288 0.288-0.416 0.096 0 0.16 0 0.224 0 1.568 0 0.896-2.24 0.896-2.24s-2.464 0.128-1.664 1.792z"></path>
<path  d="M15.36 10.56h-2.592c-0.352 0.96-0.64 1.792-0.736 2.752-0.032 0.192-0.032 0.448-0.032 0.768h3.36v-3.52z"></path>
<path  d="M11.264 19.68l0.032-0.096 0.544 0.352c0.128 0.096 0.608 0.416 0.96 0.864 0.096-0.128 0.16-0.192 0.192-0.224l0.256-0.256c-0.224-0.288-0.416-0.512-0.608-0.832h-1.504c0.032 0.032 0.096 0.128 0.128 0.192z"></path>
<path  d="M8.448 15.040c0.064 0.64 0.256 1.344 0.512 1.984 0.224 0.224 0.576 0.576 0.8 1.12l0.192-0.192 0.32 0.256h1.792c-0.544-0.96-0.928-2.24-1.024-3.2h-2.592z"></path>
</svg>
<svg id="icon-division-06" width="32" height="32" viewBox="0 0 32 32" x="576" y="96">
<path  d="M16.192 0.384c-8.736 0-15.808 7.072-15.808 15.808s7.072 15.808 15.808 15.808c8.736 0 15.808-7.072 15.808-15.808s-7.072-15.808-15.808-15.808zM7.872 11.744h3.072v-0.864c0-1.248 0.8-2.24 1.856-2.24h6.816c1.024 0 1.856 0.992 1.856 2.24v0.864h2.4v3.296c0 0.992-0.768 1.824-1.696 1.824h-12.576c-0.96 0-1.728-0.8-1.728-1.824v-3.296zM24.192 22.784h-16.736v-6.528c0.416 0.768 1.216 1.312 2.144 1.312h12.544c0.864 0 1.632-0.48 2.080-1.216v6.432z"></path>
<path  d="M20 10.88c0-0.48-0.256-0.8-0.416-0.8h-6.784c-0.128 0-0.416 0.288-0.416 0.8v0.864h7.616v-0.864z"></path>
</svg>
<svg id="icon-pencil" width="32" height="32" viewBox="0 0 32 32" x="0" y="144">
<path  d="M27 0c2.761 0 5 2.239 5 5 0 1.126-0.372 2.164-1 3l-2 2-7-7 2-2c0.836-0.628 1.874-1 3-1zM2 23l-2 9 9-2 18.5-18.5-7-7-18.5 18.5zM22.362 11.362l-14 14-1.724-1.724 14-14 1.724 1.724z"></path>
</svg>
<svg id="icon-pencil2" width="32" height="32" viewBox="0 0 32 32" x="48" y="144">
<path  d="M12 20l4-2 14-14-2-2-14 14-2 4zM9.041 27.097c-0.989-2.085-2.052-3.149-4.137-4.137l3.097-8.525 4-2.435 12-12h-6l-12 12-6 20 20-6 12-12v-6l-12 12-2.435 4z"></path>
</svg>
<svg id="icon-users" width="36" height="32" viewBox="0 0 36 32" x="96" y="144">
<path  d="M24 24.082v-1.649c2.203-1.241 4-4.337 4-7.432 0-4.971 0-9-6-9s-6 4.029-6 9c0 3.096 1.797 6.191 4 7.432v1.649c-6.784 0.555-12 3.888-12 7.918h28c0-4.030-5.216-7.364-12-7.918z"></path>
<path  d="M10.225 24.854c1.728-1.13 3.877-1.989 6.243-2.513-0.47-0.556-0.897-1.176-1.265-1.844-0.95-1.726-1.453-3.627-1.453-5.497 0-2.689 0-5.228 0.956-7.305 0.928-2.016 2.598-3.265 4.976-3.734-0.529-2.39-1.936-3.961-5.682-3.961-6 0-6 4.029-6 9 0 3.096 1.797 6.191 4 7.432v1.649c-6.784 0.555-12 3.888-12 7.918h8.719c0.454-0.403 0.956-0.787 1.506-1.146z"></path>
</svg>
<svg id="icon-user-plus" width="32" height="32" viewBox="0 0 32 32" x="192" y="144">
<path  d="M12 23c0-4.726 2.996-8.765 7.189-10.319 0.509-1.142 0.811-2.411 0.811-3.681 0-4.971 0-9-6-9s-6 4.029-6 9c0 3.096 1.797 6.191 4 7.432v1.649c-6.784 0.555-12 3.888-12 7.918h12.416c-0.271-0.954-0.416-1.96-0.416-3z"></path>
<path  d="M23 14c-4.971 0-9 4.029-9 9s4.029 9 9 9c4.971 0 9-4.029 9-9s-4.029-9-9-9zM28 24h-4v4h-2v-4h-4v-2h4v-4h2v4h4v2z"></path>
</svg>
<svg id="icon-user-minus" width="32" height="32" viewBox="0 0 32 32" x="240" y="144">
<path  d="M12 23c0-4.726 2.996-8.765 7.189-10.319 0.509-1.142 0.811-2.411 0.811-3.681 0-4.971 0-9-6-9s-6 4.029-6 9c0 3.096 1.797 6.191 4 7.432v1.649c-6.784 0.555-12 3.888-12 7.918h12.416c-0.271-0.954-0.416-1.96-0.416-3z"></path>
<path  d="M23 14c-4.971 0-9 4.029-9 9s4.029 9 9 9c4.971 0 9-4.029 9-9s-4.029-9-9-9zM28 24h-10v-2h10v2z"></path>
</svg>
<svg id="icon-cancel-circle" width="32" height="32" viewBox="0 0 32 32" x="288" y="144">
<path  d="M16 0c-8.837 0-16 7.163-16 16s7.163 16 16 16 16-7.163 16-16-7.163-16-16-16zM16 29c-7.18 0-13-5.82-13-13s5.82-13 13-13 13 5.82 13 13-5.82 13-13 13z"></path>
<path  d="M21 8l-5 5-5-5-3 3 5 5-5 5 3 3 5-5 5 5 3-3-5-5 5-5z"></path>
</svg>
<svg id="icon-cross" width="32" height="32" viewBox="0 0 32 32" x="336" y="144">
<path  d="M31.708 25.708c-0-0-0-0-0-0l-9.708-9.708 9.708-9.708c0-0 0-0 0-0 0.105-0.105 0.18-0.227 0.229-0.357 0.133-0.356 0.057-0.771-0.229-1.057l-4.586-4.586c-0.286-0.286-0.702-0.361-1.057-0.229-0.13 0.048-0.252 0.124-0.357 0.228 0 0-0 0-0 0l-9.708 9.708-9.708-9.708c-0-0-0-0-0-0-0.105-0.104-0.227-0.18-0.357-0.228-0.356-0.133-0.771-0.057-1.057 0.229l-4.586 4.586c-0.286 0.286-0.361 0.702-0.229 1.057 0.049 0.13 0.124 0.252 0.229 0.357 0 0 0 0 0 0l9.708 9.708-9.708 9.708c-0 0-0 0-0 0-0.104 0.105-0.18 0.227-0.229 0.357-0.133 0.355-0.057 0.771 0.229 1.057l4.586 4.586c0.286 0.286 0.702 0.361 1.057 0.229 0.13-0.049 0.252-0.124 0.357-0.229 0-0 0-0 0-0l9.708-9.708 9.708 9.708c0 0 0 0 0 0 0.105 0.105 0.227 0.18 0.357 0.229 0.356 0.133 0.771 0.057 1.057-0.229l4.586-4.586c0.286-0.286 0.362-0.702 0.229-1.057-0.049-0.13-0.124-0.252-0.229-0.357z"></path>
</svg>
<svg id="icon-checkmark" width="32" height="32" viewBox="0 0 32 32" x="384" y="144">
<path  d="M27 4l-15 15-7-7-5 5 12 12 20-20z"></path>
</svg>
<svg id="icon-feed2" width="32" height="32" viewBox="0 0 32 32" x="432" y="144">
<path  d="M4.259 23.467c-2.35 0-4.259 1.917-4.259 4.252 0 2.349 1.909 4.244 4.259 4.244 2.358 0 4.265-1.895 4.265-4.244-0-2.336-1.907-4.252-4.265-4.252zM0.005 10.873v6.133c3.993 0 7.749 1.562 10.577 4.391 2.825 2.822 4.384 6.595 4.384 10.603h6.16c-0-11.651-9.478-21.127-21.121-21.127zM0.012 0v6.136c14.243 0 25.836 11.604 25.836 25.864h6.152c0-17.64-14.352-32-31.988-32z"></path>
</svg>
<svg id="icon-feed4" width="32" height="32" viewBox="0 0 32 32" x="480" y="144">
<path  d="M16 0c-8.837 0-16 7.163-16 16s7.163 16 16 16 16-7.163 16-16-7.163-16-16-16zM10 24c-1.105 0-2-0.895-2-2s0.895-2 2-2 2 0.895 2 2-0.895 2-2 2zM15.5 24c0-4.136-3.364-7.5-7.5-7.5v-3c5.79 0 10.5 4.71 10.5 10.5h-3zM21.5 24c0-3.606-1.404-6.996-3.954-9.546s-5.94-3.954-9.546-3.954v-3c4.407 0 8.551 1.716 11.667 4.833s4.833 7.26 4.833 11.667h-3z"></path>
</svg>
<svg id="icon-linkedin" width="32" height="32" viewBox="0 0 32 32" x="528" y="144">
<path  d="M26.625 0h-21.25c-2.956 0-5.375 2.419-5.375 5.375v21.25c0 2.956 2.419 5.375 5.375 5.375h21.25c2.956 0 5.375-2.419 5.375-5.375v-21.25c0-2.956-2.419-5.375-5.375-5.375zM12 26h-4v-14h4v14zM10 10c-1.105 0-2-0.895-2-2s0.895-2 2-2 2 0.895 2 2-0.895 2-2 2zM26 26h-4v-8c0-1.105-0.895-2-2-2s-2 0.895-2 2v8h-4v-14h4v2.483c0.825-1.133 2.086-2.483 3.5-2.483 2.485 0 4.5 2.239 4.5 5v9z"></path>
</svg>
<svg id="icon-linkedin2" width="32" height="32" viewBox="0 0 32 32" x="576" y="144">
<path  d="M12 12h5.535v2.837h0.079c0.77-1.381 2.655-2.837 5.464-2.837 5.842 0 6.922 3.637 6.922 8.367v9.633h-5.769v-8.54c0-2.037-0.042-4.657-3.001-4.657-3.005 0-3.463 2.218-3.463 4.509v8.688h-5.767v-18z"></path>
<path  d="M2 12h6v18h-6v-18z"></path>
<path  d="M8 7c0 1.657-1.343 3-3 3s-3-1.343-3-3c0-1.657 1.343-3 3-3s3 1.343 3 3z"></path>
</svg>
</svg>
