<?xml version="1.0" encoding="utf-8"?>
<!-- Generated by IcoMoon.io -->
<!DOCTYPE svg PUBLIC "-//W3C//DTD SVG 1.1//EN" "http://www.w3.org/Graphics/SVG/1.1/DTD/svg11.dtd">
<svg version="1.1" xmlns="http://www.w3.org/2000/svg" xmlns:xlink="http://www.w3.org/1999/xlink" width="20" height="20" viewBox="0 0 20 20">
<path fill="#444444" d="M9.244 4.756c0.667 0 1.333 0 2 0 2 0.4 3.733 1.333 5.156 2.8 0.667 0.667 1.244 1.378 1.822 2.089 0 0.089 0 0.178 0 0.267-0.489 0.578-0.978 1.244-1.511 1.778-1.689 1.733-3.6 2.978-6.089 3.111-2.8 0.133-4.978-1.156-6.889-3.067-0.533-0.578-1.022-1.2-1.511-1.778 0-0.089 0-0.178 0-0.267 0.267-0.356 0.578-0.711 0.844-1.067 1.644-2 3.644-3.333 6.178-3.867zM13.244 9.733c0-1.644-1.378-2.978-3.067-2.978-1.644 0-2.978 1.378-2.933 3.022 0 1.644 1.378 3.022 3.067 2.978 1.6 0 2.933-1.378 2.933-3.022z"></path>
<path fill="#444444" d="M11.244 9.778c0 0.533-0.444 0.978-0.978 1.022-0.533 0-0.978-0.444-1.022-0.978 0-0.533 0.444-0.978 0.978-0.978 0.578-0.089 1.022 0.356 1.022 0.933z"></path>
</svg>
